<?xml version="1.0" encoding="utf-8"?>
<!-- Generator: Adobe Illustrator 27.1.1, SVG Export Plug-In . SVG Version: 6.00 Build 0)  -->
<svg version="1.1" xmlns="http://www.w3.org/2000/svg" xmlns:xlink="http://www.w3.org/1999/xlink" x="0px" y="0px"
	 viewBox="0 0 32 32" style="enable-background:new 0 0 32 32;" xml:space="preserve">
<style type="text/css">
	.st0{fill:#1D242C;}
	.st1{fill:#86B8E9;}
</style>
<g id="Слой_2">
	<rect x="0" y="0" class="st0" width="32" height="32"/>
</g>
<g id="Слой_1">
	<path class="st1" d="M23.5,26.1h0.5v2.2h-6.3c-0.1-1.2-0.2-2.6-0.4-4h-1.1l-1.1,4H8.3c-0.1-0.4-0.3-0.9-0.3-1.6
		c-0.2-2.5,2.5-10,3.2-12.4c1.2-3.5,1.2-5.2,1-6c-0.6-1.5-1-2.4-3.2-2.3V3.7h5.7c1.2,0,5.3,8.1,7.4,20.4C22.2,25,22.3,26,23.5,26.1z
		 M12.8,26.1H14l0.9-3.4h2.2c-0.8-4.8-2.1-10.1-3.7-12.1C12.7,13.5,11,20,12.8,26.1z"/>
</g>
</svg>
