<svg width="529" height="254" viewBox="0 0 529 254" fill="none" xmlns="http://www.w3.org/2000/svg">
<path d="M513 98.3902L513.874 97.9039L513 98.3902ZM498.683 253.983C498.141 254.084 497.618 253.726 497.517 253.184L495.865 244.336C495.764 243.793 496.122 243.271 496.665 243.17C497.208 243.068 497.73 243.426 497.831 243.969L499.299 251.833L507.164 250.365C507.707 250.264 508.229 250.622 508.33 251.165C508.432 251.708 508.074 252.23 507.531 252.331L498.683 253.983ZM13.5 80.5L14.3551 79.9816L13.5 80.5ZM498.5 253C497.675 252.435 497.675 252.435 497.675 252.435C497.675 252.435 497.675 252.435 497.675 252.435C497.675 252.435 497.675 252.435 497.675 252.435C497.675 252.434 497.676 252.434 497.676 252.433C497.677 252.432 497.678 252.43 497.68 252.428C497.684 252.422 497.689 252.414 497.697 252.402C497.713 252.379 497.736 252.345 497.768 252.298C497.83 252.205 497.924 252.064 498.046 251.878C498.291 251.505 498.652 250.948 499.11 250.217C500.026 248.756 501.331 246.602 502.883 243.836L504.627 244.815C503.058 247.611 501.736 249.794 500.804 251.279C500.339 252.022 499.97 252.591 499.718 252.976C499.592 253.168 499.494 253.314 499.428 253.413C499.395 253.462 499.37 253.5 499.352 253.525C499.344 253.538 499.337 253.548 499.332 253.554C499.33 253.558 499.328 253.56 499.327 253.562C499.326 253.563 499.326 253.564 499.326 253.564C499.325 253.565 499.325 253.565 499.325 253.565C499.325 253.565 499.325 253.565 499.325 253.565C499.325 253.565 499.325 253.565 498.5 253ZM511.878 225.678C514.335 220.032 516.809 213.656 519.028 206.71L520.933 207.318C518.691 214.337 516.192 220.776 513.712 226.475L511.878 225.678ZM524.115 187.107C525.391 180.68 526.332 173.965 526.788 167.05L528.783 167.181C528.322 174.191 527.368 180.993 526.076 187.497L524.115 187.107ZM526.637 146.849C526.086 140.289 525.015 133.634 523.311 126.948L525.249 126.454C526.982 133.253 528.071 140.019 528.63 146.681L526.637 146.849ZM516.667 107.918C515.308 104.897 513.798 101.881 512.126 98.8766L513.874 97.9039C515.574 100.958 517.109 104.025 518.491 107.098L516.667 107.918ZM512.126 98.8766C510.448 95.8615 508.67 93.0433 506.796 90.4131L508.425 89.2528C510.344 91.9458 512.161 94.8269 513.874 97.9039L512.126 98.8766ZM493.349 75.8888C488.161 71.6269 482.52 68.2447 476.479 65.6433L477.27 63.8063C483.477 66.4789 489.28 69.9576 494.618 74.3435L493.349 75.8888ZM457.455 60.1261C451.13 59.0493 444.498 58.5676 437.604 58.6042L437.594 56.6043C444.587 56.5671 451.335 57.0556 457.791 58.1545L457.455 60.1261ZM417.634 60.0015C411.221 60.8207 404.643 61.9797 397.932 63.426L397.511 61.4709C404.269 60.0144 410.903 58.845 417.38 58.0177L417.634 60.0015ZM378.458 68.2833C372.14 70.0543 365.736 72.0213 359.27 74.144L358.646 72.2438C365.136 70.1133 371.568 68.1375 377.918 66.3576L378.458 68.2833ZM340.269 80.7359C334.033 83.0038 327.762 85.3764 321.477 87.819L320.753 85.9549C327.049 83.508 333.333 81.1301 339.585 78.8564L340.269 80.7359ZM302.787 95.2453C296.57 97.7613 290.357 100.312 284.169 102.863L283.407 101.014C289.597 98.462 295.813 95.9097 302.037 93.3913L302.787 95.2453ZM265.561 110.543C259.301 113.121 253.086 115.664 246.939 118.136L246.193 116.281C252.333 113.811 258.542 111.27 264.8 108.694L265.561 110.543ZM228.174 125.514C221.765 127.963 215.456 130.29 209.273 132.449L208.614 130.561C214.775 128.409 221.065 126.09 227.46 123.646L228.174 125.514ZM190.069 138.695C183.365 140.692 176.856 142.412 170.58 143.788L170.151 141.835C176.371 140.471 182.832 138.765 189.498 136.779L190.069 138.695ZM150.628 147.006C147.15 147.33 143.771 147.5 140.5 147.5V145.5C143.702 145.5 147.019 145.334 150.442 145.014L150.628 147.006ZM140.5 147.5C137.366 147.5 134.258 147.385 131.178 147.163L131.322 145.168C134.355 145.386 137.415 145.5 140.5 145.5V147.5ZM112.739 144.558C106.585 143.268 100.591 141.594 94.7917 139.62L95.4363 137.726C101.164 139.676 107.08 141.328 113.15 142.601L112.739 144.558ZM77.5364 132.655C71.7822 129.965 66.2924 127.027 61.1098 123.942L62.1329 122.223C67.262 125.277 72.693 128.184 78.3833 130.843L77.5364 132.655ZM45.6126 113.68C40.276 109.767 35.4373 105.798 31.1686 101.943L32.5091 100.458C36.7273 104.268 41.5133 108.195 46.7952 112.067L45.6126 113.68ZM18.1646 88.5843C15.8622 85.818 14.0056 83.2628 12.6449 81.0184L14.3551 79.9816C15.6511 82.1191 17.4443 84.5926 19.7018 87.3048L18.1646 88.5843ZM12.6449 81.0184C10.8256 78.0177 9.26434 74.9266 7.92963 71.7849L9.77045 71.0029C11.0703 74.0625 12.5886 77.0678 14.3551 79.9816L12.6449 81.0184ZM2.26575 51.9249C1.07489 44.7783 0.69519 37.7793 0.774963 31.3687L2.77478 31.3936C2.69623 37.7098 3.07074 44.5879 4.23853 51.5962L2.26575 51.9249ZM2.55707 10.8472C3.05914 7.71931 3.57355 5.19785 3.96326 3.4554C4.15814 2.5841 4.3219 1.90736 4.43738 1.44675C4.49512 1.21643 4.54083 1.04013 4.57233 0.92054C4.58807 0.860742 4.60022 0.815119 4.60864 0.784008C4.61279 0.768452 4.61603 0.756524 4.61829 0.748265C4.61945 0.744136 4.6203 0.740924 4.62091 0.738635C4.62128 0.73749 4.62152 0.736576 4.6217 0.735894C4.62177 0.735552 4.62189 0.735269 4.62195 0.735043C4.62195 0.734931 4.62201 0.734805 4.62201 0.734749C4.62201 0.734637 4.62207 0.734541 5.58618 1C6.55029 1.26546 6.55029 1.26539 6.55035 1.26534C6.55035 1.26534 6.55035 1.2653 6.55035 1.2653C6.55035 1.26531 6.55035 1.26537 6.55029 1.26549C6.55023 1.26574 6.55011 1.26621 6.54993 1.26691C6.5495 1.26832 6.54889 1.27064 6.54797 1.27388C6.54626 1.28036 6.54346 1.2905 6.53979 1.30425C6.53235 1.33176 6.52112 1.37373 6.50635 1.42982C6.47687 1.542 6.43311 1.71067 6.37732 1.93315C6.26575 2.37811 6.10602 3.0382 5.91504 3.89193C5.53314 5.59953 5.02667 8.0809 4.5318 11.1641L2.55707 10.8472ZM513 98.3902L513.874 97.9039L513 98.3902ZM498.683 253.983C498.141 254.084 497.618 253.726 497.517 253.184L495.865 244.336C495.764 243.793 496.122 243.271 496.665 243.17C497.208 243.068 497.73 243.426 497.831 243.969L499.299 251.833L507.164 250.365C507.707 250.264 508.229 250.622 508.33 251.165C508.432 251.708 508.074 252.23 507.531 252.331L498.683 253.983ZM13.5 80.5L14.3551 79.9816L13.5 80.5ZM498.5 253C497.675 252.435 497.675 252.435 497.675 252.435C497.675 252.435 497.675 252.435 497.675 252.435C497.675 252.435 497.675 252.435 497.675 252.435C497.675 252.434 497.676 252.434 497.676 252.433C497.677 252.432 497.678 252.43 497.68 252.428C497.684 252.422 497.689 252.414 497.697 252.402C497.713 252.379 497.736 252.345 497.768 252.298C497.83 252.205 497.924 252.064 498.046 251.878C498.291 251.505 498.652 250.948 499.11 250.217C500.026 248.756 501.331 246.602 502.883 243.836L504.627 244.815C503.058 247.611 501.736 249.794 500.804 251.279C500.339 252.022 499.97 252.591 499.718 252.976C499.592 253.168 499.494 253.314 499.428 253.413C499.395 253.462 499.37 253.5 499.352 253.525C499.344 253.538 499.337 253.548 499.332 253.554C499.33 253.558 499.328 253.56 499.327 253.562C499.326 253.563 499.326 253.564 499.326 253.564C499.325 253.565 499.325 253.565 499.325 253.565C499.325 253.565 499.325 253.565 499.325 253.565C499.325 253.565 499.325 253.565 498.5 253ZM511.878 225.678C514.335 220.032 516.809 213.656 519.028 206.71L520.933 207.318C518.691 214.337 516.192 220.776 513.712 226.475L511.878 225.678ZM524.115 187.107C525.391 180.68 526.332 173.965 526.788 167.05L528.783 167.181C528.322 174.191 527.368 180.993 526.076 187.497L524.115 187.107ZM526.637 146.849C526.086 140.289 525.015 133.634 523.311 126.948L525.249 126.454C526.982 133.253 528.071 140.019 528.63 146.681L526.637 146.849ZM516.667 107.918C515.308 104.897 513.798 101.881 512.126 98.8766L513.874 97.9039C515.574 100.958 517.109 104.025 518.491 107.098L516.667 107.918ZM512.126 98.8766C510.448 95.8615 508.67 93.0433 506.796 90.4131L508.425 89.2528C510.344 91.9458 512.161 94.8269 513.874 97.9039L512.126 98.8766ZM493.349 75.8888C488.161 71.6269 482.52 68.2447 476.479 65.6433L477.27 63.8063C483.477 66.4789 489.28 69.9576 494.618 74.3435L493.349 75.8888ZM457.455 60.1261C451.13 59.0493 444.498 58.5676 437.604 58.6042L437.594 56.6043C444.587 56.5671 451.335 57.0556 457.791 58.1545L457.455 60.1261ZM417.634 60.0015C411.221 60.8207 404.643 61.9797 397.932 63.426L397.511 61.4709C404.269 60.0144 410.903 58.845 417.38 58.0177L417.634 60.0015ZM378.458 68.2833C372.14 70.0543 365.736 72.0213 359.27 74.144L358.646 72.2438C365.136 70.1133 371.568 68.1375 377.918 66.3576L378.458 68.2833ZM340.269 80.7359C334.033 83.0038 327.762 85.3764 321.477 87.819L320.753 85.9549C327.049 83.508 333.333 81.1301 339.585 78.8564L340.269 80.7359ZM302.787 95.2453C296.57 97.7613 290.357 100.312 284.169 102.863L283.407 101.014C289.597 98.462 295.813 95.9097 302.037 93.3913L302.787 95.2453ZM265.561 110.543C259.301 113.121 253.086 115.664 246.939 118.136L246.193 116.281C252.333 113.811 258.542 111.27 264.8 108.694L265.561 110.543ZM228.174 125.514C221.765 127.963 215.456 130.29 209.273 132.449L208.614 130.561C214.775 128.409 221.065 126.09 227.46 123.646L228.174 125.514ZM190.069 138.695C183.365 140.692 176.856 142.412 170.58 143.788L170.151 141.835C176.371 140.471 182.832 138.765 189.498 136.779L190.069 138.695ZM150.628 147.006C147.15 147.33 143.771 147.5 140.5 147.5V145.5C143.702 145.5 147.019 145.334 150.442 145.014L150.628 147.006ZM140.5 147.5C137.366 147.5 134.258 147.385 131.178 147.163L131.322 145.168C134.355 145.386 137.415 145.5 140.5 145.5V147.5ZM112.739 144.558C106.585 143.268 100.591 141.594 94.7917 139.62L95.4363 137.726C101.164 139.676 107.08 141.328 113.15 142.601L112.739 144.558ZM77.5364 132.655C71.7822 129.965 66.2924 127.027 61.1098 123.942L62.1329 122.223C67.262 125.277 72.693 128.184 78.3833 130.843L77.5364 132.655ZM45.6126 113.68C40.276 109.767 35.4373 105.798 31.1686 101.943L32.5091 100.458C36.7273 104.268 41.5133 108.195 46.7952 112.067L45.6126 113.68ZM18.1646 88.5843C15.8622 85.818 14.0056 83.2628 12.6449 81.0184L14.3551 79.9816C15.6511 82.1191 17.4443 84.5926 19.7018 87.3048L18.1646 88.5843ZM12.6449 81.0184C10.8256 78.0177 9.26434 74.9266 7.92963 71.7849L9.77045 71.0029C11.0703 74.0625 12.5886 77.0678 14.3551 79.9816L12.6449 81.0184ZM2.26575 51.9249C1.07489 44.7783 0.69519 37.7793 0.774963 31.3687L2.77478 31.3936C2.69623 37.7098 3.07074 44.5879 4.23853 51.5962L2.26575 51.9249ZM2.55707 10.8472C3.05914 7.71931 3.57355 5.19785 3.96326 3.4554C4.15814 2.5841 4.3219 1.90736 4.43738 1.44675C4.49512 1.21643 4.54083 1.04013 4.57233 0.92054C4.58807 0.860742 4.60022 0.815119 4.60864 0.784008C4.61279 0.768452 4.61603 0.756524 4.61829 0.748265C4.61945 0.744136 4.6203 0.740924 4.62091 0.738635C4.62128 0.73749 4.62152 0.736576 4.6217 0.735894C4.62177 0.735552 4.62189 0.735269 4.62195 0.735043C4.62195 0.734931 4.62201 0.734805 4.62201 0.734749C4.62201 0.734637 4.62207 0.734541 5.58618 1C6.55029 1.26546 6.55029 1.26539 6.55035 1.26534C6.55035 1.26534 6.55035 1.2653 6.55035 1.2653C6.55035 1.26531 6.55035 1.26537 6.55029 1.26549C6.55023 1.26574 6.55011 1.26621 6.54993 1.26691C6.5495 1.26832 6.54889 1.27064 6.54797 1.27388C6.54626 1.28036 6.54346 1.2905 6.53979 1.30425C6.53235 1.33176 6.52112 1.37373 6.50635 1.42982C6.47687 1.542 6.43311 1.71067 6.37732 1.93315C6.26575 2.37811 6.10602 3.0382 5.91504 3.89193C5.53314 5.59953 5.02667 8.0809 4.5318 11.1641L2.55707 10.8472Z" fill="white"/>
</svg>
