<svg width="725" height="331" viewBox="0 0 725 331" fill="none" xmlns="http://www.w3.org/2000/svg">
<path d="M26 158.5L25.1805 157.927L26 158.5ZM45.0247 330C45.5768 329.986 46.0133 329.527 45.9997 328.975L45.7775 319.978C45.7639 319.426 45.3053 318.989 44.7531 319.003C44.201 319.017 43.7645 319.475 43.7781 320.027L43.9756 328.025L35.978 328.222C35.4259 328.236 34.9894 328.695 35.003 329.247C35.0167 329.799 35.4753 330.235 36.0274 330.222L45.0247 330ZM704.5 122L703.705 121.394L704.5 122ZM45 329C45.6894 328.276 45.6895 328.276 45.6895 328.276C45.6895 328.276 45.6895 328.276 45.6895 328.276C45.6895 328.276 45.6895 328.276 45.6894 328.276C45.6893 328.276 45.689 328.275 45.6885 328.275C45.6876 328.274 45.6861 328.272 45.684 328.27C45.6798 328.266 45.6731 328.26 45.6641 328.251C45.646 328.234 45.6185 328.207 45.5817 328.172C45.5081 328.1 45.3977 327.992 45.2527 327.848C44.9629 327.56 44.535 327.128 43.9881 326.557C42.8943 325.417 41.3244 323.724 39.4298 321.521L37.9136 322.826C39.8338 325.058 41.4281 326.778 42.5447 327.942C43.103 328.524 43.5419 328.967 43.8426 329.266C43.9929 329.415 44.1086 329.529 44.1874 329.605C44.2268 329.644 44.2569 329.673 44.2776 329.693C44.2879 329.703 44.2958 329.71 44.3013 329.716C44.3041 329.718 44.3062 329.72 44.3078 329.722C44.3085 329.722 44.3091 329.723 44.3096 329.723C44.3098 329.724 44.31 329.724 44.3102 329.724C44.3103 329.724 44.3104 329.724 44.3104 329.724C44.3105 329.724 44.3105 329.724 45 329ZM28.1059 306.702C24.9311 302.03 21.6405 296.685 18.5235 290.751L16.7529 291.682C19.9092 297.69 23.2398 303.099 26.4516 307.826L28.1059 306.702ZM10.8955 273.779C8.79192 268.166 6.97198 262.214 5.59047 255.969L3.63769 256.401C5.04129 262.746 6.88921 268.788 9.02275 274.48L10.8955 273.779ZM2.98286 237.58C2.61195 231.59 2.69994 225.401 3.35482 219.045L1.36535 218.84C0.698734 225.31 0.609297 231.609 0.986681 237.704L2.98286 237.58ZM6.77142 200.786C8.33212 195.06 10.3898 189.229 13.0146 183.312L11.1864 182.501C8.52103 188.509 6.42932 194.436 4.84181 200.26L6.77142 200.786ZM21.6986 166.87C23.2884 164.283 24.9935 161.684 26.8194 159.073L25.1805 157.927C23.3323 160.569 21.6055 163.202 19.9946 165.823L21.6986 166.87ZM26.8194 159.073C28.8384 156.187 30.9196 153.434 33.0608 150.81L31.5114 149.546C29.3382 152.208 27.2272 155.001 25.1805 157.927L26.8194 159.073ZM47.1624 136.096C52.3889 131.475 57.8858 127.431 63.6314 123.919L62.5882 122.212C56.7434 125.785 51.1523 129.899 45.8378 134.597L47.1624 136.096ZM81.9269 114.797C88.2122 112.297 94.7317 110.29 101.464 108.732L101.013 106.783C94.1894 108.363 87.5731 110.399 81.1878 112.938L81.9269 114.797ZM121.711 105.412C128.393 104.729 135.243 104.402 142.242 104.393L142.24 102.393C135.18 102.402 128.263 102.732 121.508 103.423L121.711 105.412ZM162.762 105.214C169.478 105.739 176.306 106.506 183.232 107.484L183.512 105.504C176.549 104.52 169.68 103.749 162.918 103.22L162.762 105.214ZM203.581 110.892C210.236 112.167 216.964 113.605 223.752 115.178L224.203 113.23C217.393 111.651 210.64 110.209 203.957 108.927L203.581 110.892ZM243.751 120.144C250.338 121.879 256.969 123.717 263.633 125.637L264.186 123.715C257.51 121.792 250.864 119.95 244.261 118.21L243.751 120.144ZM283.414 131.527C289.964 133.534 296.535 135.598 303.118 137.699L303.726 135.794C297.137 133.691 290.559 131.624 284 129.614L283.414 131.527ZM322.769 144.054C329.312 146.193 335.857 148.348 342.394 150.501L343.02 148.601C336.483 146.448 329.936 144.292 323.39 142.153L322.769 144.054ZM362.021 156.948C368.593 159.096 375.148 161.222 381.675 163.306L382.284 161.401C375.762 159.319 369.212 157.194 362.642 155.047L362.021 156.948ZM401.388 169.478C408.042 171.515 414.657 173.485 421.221 175.367L421.772 173.445C415.221 171.566 408.618 169.599 401.973 167.566L401.388 169.478ZM441.182 180.839C447.957 182.603 454.665 184.244 461.293 185.739L461.733 183.788C455.129 182.299 448.443 180.662 441.686 178.904L441.182 180.839ZM481.566 189.871C488.484 191.118 495.297 192.166 501.989 192.983L502.232 190.998C495.581 190.186 488.806 189.144 481.92 187.902L481.566 189.871ZM522.691 194.757C526.168 194.917 529.605 195 533 195V193C529.638 193 526.231 192.918 522.783 192.759L522.691 194.757ZM533 195C536.263 195 539.479 194.947 542.649 194.844L542.583 192.845C539.436 192.947 536.242 193 533 193V195ZM561.906 193.561C568.503 192.891 574.871 192.001 581.013 190.918L580.666 188.948C574.572 190.023 568.252 190.907 561.704 191.572L561.906 193.561ZM599.862 186.842C606.307 185.181 612.463 183.31 618.333 181.272L617.677 179.383C611.858 181.403 605.755 183.258 599.363 184.905L599.862 186.842ZM636.284 174.167C642.415 171.426 648.162 168.52 653.53 165.513L652.553 163.768C647.236 166.746 641.543 169.625 635.468 172.341L636.284 174.167ZM669.923 155.285C675.6 151.35 680.693 147.373 685.215 143.485L683.911 141.969C679.441 145.813 674.402 149.746 668.784 153.641L669.923 155.285ZM699.085 130.042C701.472 127.407 703.54 124.91 705.296 122.606L703.705 121.394C701.986 123.65 699.954 126.104 697.603 128.7L699.085 130.042ZM705.296 122.606C707.432 119.802 709.343 116.838 711.048 113.748L709.297 112.781C707.636 115.792 705.778 118.673 703.705 121.394L705.296 122.606ZM718.912 94.2413C720.814 87.5184 722.097 80.5673 722.911 73.6353L720.925 73.4021C720.121 80.2481 718.856 87.0929 716.988 93.6968L718.912 94.2413ZM724.099 52.7087C724.114 45.3027 723.736 38.2208 723.171 31.8009L721.179 31.9763C721.74 38.3467 722.114 45.368 722.099 52.7047L724.099 52.7087ZM720.497 11.0531C719.948 7.8382 719.443 5.2708 719.075 3.50514C718.89 2.62227 718.74 1.93976 718.636 1.47686C718.584 1.24541 718.543 1.06885 718.516 0.949603C718.502 0.889977 718.491 0.844677 718.484 0.814003C718.48 0.798666 718.477 0.786985 718.475 0.778999C718.474 0.775005 718.474 0.771936 718.473 0.769794C718.473 0.768723 718.473 0.767885 718.473 0.767278C718.473 0.766975 718.472 0.766731 718.472 0.766544C718.472 0.766451 718.472 0.766354 718.472 0.766308C718.472 0.766226 718.472 0.766159 717.5 1C716.528 1.23384 716.528 1.2338 716.528 1.23378C716.528 1.23379 716.528 1.23378 716.528 1.23381C716.528 1.23385 716.528 1.23396 716.528 1.23412C716.528 1.23444 716.528 1.235 716.528 1.23579C716.529 1.23737 716.529 1.23987 716.53 1.2433C716.532 1.25015 716.534 1.26069 716.538 1.27488C716.544 1.30326 716.554 1.34624 716.568 1.40351C716.594 1.51807 716.634 1.68981 716.685 1.91635C716.787 2.36942 716.935 3.04159 717.117 3.91364C717.481 5.65779 717.981 8.20107 718.525 11.3896L720.497 11.0531ZM26 158.5L25.1805 157.927L26 158.5ZM45.0247 330C45.5768 329.986 46.0133 329.527 45.9997 328.975L45.7775 319.978C45.7639 319.426 45.3053 318.989 44.7531 319.003C44.201 319.017 43.7645 319.475 43.7781 320.027L43.9756 328.025L35.978 328.222C35.4259 328.236 34.9894 328.695 35.003 329.247C35.0167 329.799 35.4753 330.235 36.0274 330.222L45.0247 330ZM704.5 122L703.705 121.394L704.5 122ZM45 329C45.6894 328.276 45.6895 328.276 45.6895 328.276C45.6895 328.276 45.6895 328.276 45.6895 328.276C45.6895 328.276 45.6895 328.276 45.6894 328.276C45.6893 328.276 45.689 328.275 45.6885 328.275C45.6876 328.274 45.6861 328.272 45.684 328.27C45.6798 328.266 45.6731 328.26 45.6641 328.251C45.646 328.234 45.6185 328.207 45.5817 328.172C45.5081 328.1 45.3977 327.992 45.2527 327.848C44.9629 327.56 44.535 327.128 43.9881 326.557C42.8943 325.417 41.3244 323.724 39.4298 321.521L37.9136 322.826C39.8338 325.058 41.4281 326.778 42.5447 327.942C43.103 328.524 43.5419 328.967 43.8426 329.266C43.9929 329.415 44.1086 329.529 44.1874 329.605C44.2268 329.644 44.2569 329.673 44.2776 329.693C44.2879 329.703 44.2958 329.71 44.3013 329.716C44.3041 329.718 44.3062 329.72 44.3078 329.722C44.3085 329.722 44.3091 329.723 44.3096 329.723C44.3098 329.724 44.31 329.724 44.3102 329.724C44.3103 329.724 44.3104 329.724 44.3104 329.724C44.3105 329.724 44.3105 329.724 45 329ZM28.1059 306.702C24.9311 302.03 21.6405 296.685 18.5235 290.751L16.7529 291.682C19.9092 297.69 23.2398 303.099 26.4516 307.826L28.1059 306.702ZM10.8955 273.779C8.79192 268.166 6.97198 262.214 5.59047 255.969L3.63769 256.401C5.04129 262.746 6.88921 268.788 9.02275 274.48L10.8955 273.779ZM2.98286 237.58C2.61195 231.59 2.69994 225.401 3.35482 219.045L1.36535 218.84C0.698734 225.31 0.609297 231.609 0.986681 237.704L2.98286 237.58ZM6.77142 200.786C8.33212 195.06 10.3898 189.229 13.0146 183.312L11.1864 182.501C8.52103 188.509 6.42932 194.436 4.84181 200.26L6.77142 200.786ZM21.6986 166.87C23.2884 164.283 24.9935 161.684 26.8194 159.073L25.1805 157.927C23.3323 160.569 21.6055 163.202 19.9946 165.823L21.6986 166.87ZM26.8194 159.073C28.8384 156.187 30.9196 153.434 33.0608 150.81L31.5114 149.546C29.3382 152.208 27.2272 155.001 25.1805 157.927L26.8194 159.073ZM47.1624 136.096C52.3889 131.475 57.8858 127.431 63.6314 123.919L62.5882 122.212C56.7434 125.785 51.1523 129.899 45.8378 134.597L47.1624 136.096ZM81.9269 114.797C88.2122 112.297 94.7317 110.29 101.464 108.732L101.013 106.783C94.1894 108.363 87.5731 110.399 81.1878 112.938L81.9269 114.797ZM121.711 105.412C128.393 104.729 135.243 104.402 142.242 104.393L142.24 102.393C135.18 102.402 128.263 102.732 121.508 103.423L121.711 105.412ZM162.762 105.214C169.478 105.739 176.306 106.506 183.232 107.484L183.512 105.504C176.549 104.52 169.68 103.749 162.918 103.22L162.762 105.214ZM203.581 110.892C210.236 112.167 216.964 113.605 223.752 115.178L224.203 113.23C217.393 111.651 210.64 110.209 203.957 108.927L203.581 110.892ZM243.751 120.144C250.338 121.879 256.969 123.717 263.633 125.637L264.186 123.715C257.51 121.792 250.864 119.95 244.261 118.21L243.751 120.144ZM283.414 131.527C289.964 133.534 296.535 135.598 303.118 137.699L303.726 135.794C297.137 133.691 290.559 131.624 284 129.614L283.414 131.527ZM322.769 144.054C329.312 146.193 335.857 148.348 342.394 150.501L343.02 148.601C336.483 146.448 329.936 144.292 323.39 142.153L322.769 144.054ZM362.021 156.948C368.593 159.096 375.148 161.222 381.675 163.306L382.284 161.401C375.762 159.319 369.212 157.194 362.642 155.047L362.021 156.948ZM401.388 169.478C408.042 171.515 414.657 173.485 421.221 175.367L421.772 173.445C415.221 171.566 408.618 169.599 401.973 167.566L401.388 169.478ZM441.182 180.839C447.957 182.603 454.665 184.244 461.293 185.739L461.733 183.788C455.129 182.299 448.443 180.662 441.686 178.904L441.182 180.839ZM481.566 189.871C488.484 191.118 495.297 192.166 501.989 192.983L502.232 190.998C495.581 190.186 488.806 189.144 481.92 187.902L481.566 189.871ZM522.691 194.757C526.168 194.917 529.605 195 533 195V193C529.638 193 526.231 192.918 522.783 192.759L522.691 194.757ZM533 195C536.263 195 539.479 194.947 542.649 194.844L542.583 192.845C539.436 192.947 536.242 193 533 193V195ZM561.906 193.561C568.503 192.891 574.871 192.001 581.013 190.918L580.666 188.948C574.572 190.023 568.252 190.907 561.704 191.572L561.906 193.561ZM599.862 186.842C606.307 185.181 612.463 183.31 618.333 181.272L617.677 179.383C611.858 181.403 605.755 183.258 599.363 184.905L599.862 186.842ZM636.284 174.167C642.415 171.426 648.162 168.52 653.53 165.513L652.553 163.768C647.236 166.746 641.543 169.625 635.468 172.341L636.284 174.167ZM669.923 155.285C675.6 151.35 680.693 147.373 685.215 143.485L683.911 141.969C679.441 145.813 674.402 149.746 668.784 153.641L669.923 155.285ZM699.085 130.042C701.472 127.407 703.54 124.91 705.296 122.606L703.705 121.394C701.986 123.65 699.954 126.104 697.603 128.7L699.085 130.042ZM705.296 122.606C707.432 119.802 709.343 116.838 711.048 113.748L709.297 112.781C707.636 115.792 705.778 118.673 703.705 121.394L705.296 122.606ZM718.912 94.2413C720.814 87.5184 722.097 80.5673 722.911 73.6353L720.925 73.4021C720.121 80.2481 718.856 87.0929 716.988 93.6968L718.912 94.2413ZM724.099 52.7087C724.114 45.3027 723.736 38.2208 723.171 31.8009L721.179 31.9763C721.74 38.3467 722.114 45.368 722.099 52.7047L724.099 52.7087ZM720.497 11.0531C719.948 7.8382 719.443 5.2708 719.075 3.50514C718.89 2.62227 718.74 1.93976 718.636 1.47686C718.584 1.24541 718.543 1.06885 718.516 0.949603C718.502 0.889977 718.491 0.844677 718.484 0.814003C718.48 0.798666 718.477 0.786985 718.475 0.778999C718.474 0.775005 718.474 0.771936 718.473 0.769794C718.473 0.768723 718.473 0.767885 718.473 0.767278C718.473 0.766975 718.472 0.766731 718.472 0.766544C718.472 0.766451 718.472 0.766354 718.472 0.766308C718.472 0.766226 718.472 0.766159 717.5 1C716.528 1.23384 716.528 1.2338 716.528 1.23378C716.528 1.23379 716.528 1.23378 716.528 1.23381C716.528 1.23385 716.528 1.23396 716.528 1.23412C716.528 1.23444 716.528 1.235 716.528 1.23579C716.529 1.23737 716.529 1.23987 716.53 1.2433C716.532 1.25015 716.534 1.26069 716.538 1.27488C716.544 1.30326 716.554 1.34624 716.568 1.40351C716.594 1.51807 716.634 1.68981 716.685 1.91635C716.787 2.36942 716.935 3.04159 717.117 3.91364C717.481 5.65779 717.981 8.20107 718.525 11.3896L720.497 11.0531Z" fill="white"/>
</svg>
