<svg width="685" height="559" viewBox="0 0 685 559" fill="none" xmlns="http://www.w3.org/2000/svg">
<path d="M206.926 -149.908C199.866 -145.175 197.641 -137.925 200.849 -129.952L202.433 -126.098L197.457 -128.276C187.665 -132.416 179.63 -131.083 173.413 -124.304C169.766 -120.34 167.414 -114.939 167.49 -110.817C167.679 -105.052 171.691 -98.888 178.174 -94.5845L180.315 -93.1417L176.683 -93.7606C169.626 -95.0123 163.269 -93.8769 159.144 -90.5621C155.487 -87.6507 153.454 -83.0136 153.044 -76.6508C152.358 -66.5137 158.104 -59.7249 168.828 -57.9393L171.018 -57.5729L168.491 -55.337C164.536 -51.9513 161.855 -48.0335 160.162 -43.2545C158.291 -38.0507 158.291 -36.8539 160.087 -31.1162C164.588 -16.9172 176.023 -14.0865 190.032 -23.6471C192.12 -25.069 193.873 -26.2822 193.933 -26.3069C193.933 -26.3069 191.336 -19.96 188.077 -12.1441C184.808 -4.18295 182.186 3.30061 182.104 4.81252C181.69 14.4152 188.458 24.3739 201.01 32.6585C206.264 36.1998 210.638 38.6251 211.18 38.4025C211.3 38.353 210.512 35.5798 209.356 32.254C203.935 16.6734 206.715 1.87436 217.256 -10.1321C220.985 -14.4103 227.074 -19.448 233.953 -24.1062L235.454 -25.0753L231.512 -27.819C229.346 -29.322 226.286 -32.1464 224.708 -34.1022C222.274 -37.1138 221.757 -38.0277 221.443 -40.5031C221.048 -43.8602 221.411 -49.9928 222.091 -50.9059C222.413 -51.3199 221.91 -52.0285 220.753 -52.9606C215.555 -56.8773 202.173 -57.4291 197.591 -53.8562C195.481 -52.144 194.621 -52.3535 195.726 -54.2861C197.926 -58.0059 210.077 -58.5669 218.216 -55.3668C220.655 -54.3983 222.644 -53.6674 222.654 -53.8126C222.899 -54.7578 219.438 -57.6994 216.282 -59.2173C211.741 -61.363 206.648 -61.944 202.407 -60.6228C198.768 -59.5491 198.84 -60.9159 202.511 -62.4251C207.205 -64.3549 216.353 -61.7809 221.583 -57.1029L223.802 -55.1289L220.778 -61.6288C217.223 -69.248 215.465 -71.1296 209.385 -73.7686C201.716 -77.0214 193.09 -77.9804 184.985 -76.4781C179.689 -75.4977 176.202 -73.7121 174.007 -70.8386C172.3 -68.6586 172.215 -68.6941 172.347 -71.2824C172.486 -75.5633 179.103 -79.8322 187.237 -80.9238C198.051 -82.3427 212.968 -78.0575 217.266 -72.2224C217.794 -71.4536 218.392 -70.8547 218.512 -70.9042C218.692 -70.9784 219.259 -72.3377 219.787 -73.9626C220.903 -77.2372 223.315 -80.2699 226.317 -82.2081L228.43 -83.5698L226.374 -83.7802C223.181 -84.0163 220.814 -85.1547 216.104 -88.5682C205.103 -96.5046 195.229 -110.254 196.834 -115.419C197.277 -117.08 197.386 -116.984 199.675 -111.59C201.542 -107.219 202.868 -105.019 205.766 -101.564C213.529 -92.4369 225.45 -84.3156 229.001 -85.7753C230.35 -86.2594 230.35 -86.2594 229.613 -84.9711C228.876 -83.6827 229.082 -83.6967 232.091 -84.9338C233.921 -85.6158 236.668 -86.4636 238.211 -86.8165C240.936 -87.3739 241.032 -87.4836 242.162 -90.5528C242.786 -92.2874 244.475 -95.0232 245.909 -96.6687C248.133 -99.1315 249.117 -99.8177 252.526 -100.938C254.742 -101.708 256.487 -102.425 256.437 -102.546C256.413 -102.606 255.535 -103.372 254.548 -104.233C252.124 -106.193 247.53 -117.538 246.315 -124.429C244.704 -133.481 245.674 -144.298 248.486 -148.41C249.891 -150.467 253.484 -151.31 255.455 -149.938C256.842 -148.96 256.782 -148.935 254.255 -147.896C251.065 -146.585 249.649 -144.384 248.422 -138.811C246.129 -128.647 249.493 -113.277 255.783 -105.163C257.889 -102.438 258.448 -102.105 261.07 -102.057C262.727 -101.964 265.218 -101.721 266.624 -101.384C268.004 -101.107 269.345 -101.095 269.512 -101.375C269.763 -101.619 269.282 -103.814 268.582 -106.202C265.326 -116.689 264.693 -128.325 266.795 -137.073C268.539 -144.125 276.127 -154.073 285.814 -161.997C293.918 -168.637 293.695 -167.983 288.39 -169.251C282.454 -170.682 268.948 -171.535 264.339 -170.767C259.756 -169.938 252.396 -166.279 247.829 -162.5C240.372 -156.338 236.416 -146.968 237.209 -137.509L237.54 -133.281L235.871 -137.17C231.393 -147.719 224.26 -154.289 217.531 -154.057C214.923 -153.899 210.3 -152.139 206.926 -149.908ZM223.646 -139.184C219.077 -130.618 227.522 -108.538 238.442 -100.286L240.657 -98.6627L237.649 -99.8193C232.652 -101.707 229.913 -104.945 226.221 -113.071C222.886 -120.499 221.532 -125.503 221.375 -131.703C221.217 -135.51 222.843 -140.965 224.288 -141.559C224.709 -141.732 224.454 -140.642 223.646 -139.184ZM185.936 -117.627C186.132 -108.767 192.584 -97.6932 202.934 -88.4329C209.26 -82.7981 217.467 -78.9217 220.536 -80.1835C222.823 -81.1237 223.424 -80.1742 221.42 -78.7169C215.926 -74.6277 198.562 -86.9172 188.833 -101.853C187.288 -104.244 185.554 -107.263 185.034 -108.527C183.97 -111.116 183.543 -116.432 184.354 -117.539C185.236 -118.817 185.937 -118.823 185.936 -117.627ZM257.762 -135.26C258.745 -134.749 258.614 -134.554 257.23 -133.985C254.883 -133.02 252.977 -127.732 253.039 -122.618C253.13 -119.488 253.696 -117.257 255.443 -112.837C256.67 -109.681 258.297 -106.408 258.958 -105.483L260.183 -103.874L258.48 -104.934C256.329 -106.232 252.545 -115.094 251.927 -120.19C251.376 -124.61 251.842 -130.151 252.869 -132.615C253.826 -134.908 256.134 -136.139 257.762 -135.26ZM221.93 -110.673C222.537 -104.236 235.435 -93.9111 241.746 -94.8164C244.015 -95.1157 243.31 -93.066 240.842 -92.0516C236.69 -90.3444 227.941 -92.8013 222.91 -96.9976C220.571 -98.9221 218.279 -103.47 219.029 -104.553C219.292 -104.943 219.829 -104.319 220.374 -102.994C222.85 -96.9729 232.521 -91.5869 238.648 -92.7685C240.662 -93.1742 240.553 -93.2699 236.04 -95.0048C230.194 -97.2471 224.065 -102.4 221.664 -107.044C220.617 -109.077 220.178 -110.657 220.412 -111.457C221.057 -113.482 221.737 -113.198 221.93 -110.673ZM258.983 -125.273C257.521 -124.038 257.12 -122.959 256.889 -119.414C256.612 -115.64 256.841 -114.397 258.599 -110.122C259.862 -107.051 260.3 -105.471 259.691 -105.925C259.168 -106.343 258.092 -108.787 257.173 -111.366C254.461 -119.331 255.518 -127.368 259.281 -126.944C260.732 -126.837 260.696 -126.752 258.983 -125.273ZM207.823 -51.7275C210.588 -52.0193 213.394 -51.695 215.444 -50.9888C218.997 -49.7043 218.961 -49.6193 213.847 -49.91C200.27 -50.593 179.327 -39.5893 178.428 -31.3361C178.272 -30.0048 178.13 -29.665 177.773 -30.3628C176.624 -32.9875 182.463 -40.1748 189.487 -44.8223C194.181 -47.9489 203.151 -51.2848 207.823 -51.7275ZM220.507 -34.9091C221.767 -34.5824 221.43 -34.3737 218.322 -33.3775C210.722 -30.8161 201.449 -22.5691 196.183 -13.6464C192.213 -6.87558 191.347 -0.254681 194.192 2.72892C195.218 3.85572 195.257 4.12131 194.234 4.54192C192.729 5.16045 190.309 3.55104 189.344 1.20268C187.883 -2.34998 191.135 -10.867 196.765 -18.3908C201.227 -24.3079 209.653 -31.3622 214.889 -33.5147C217.477 -34.5785 219.647 -35.1187 220.507 -34.9091ZM221.454 -31.9199C222.314 -31.7103 222.158 -31.5759 220.65 -31.3079C217.805 -30.701 213.039 -27.4044 209.548 -23.5757C204.191 -17.7833 201.952 -11.9353 203.699 -8.71176C204.941 -6.54732 203.911 -5.63099 202.095 -7.13725C198.684 -9.9584 202.811 -19.2573 210.441 -26.1954C214.442 -29.8112 219.359 -32.3959 221.454 -31.9199ZM219.645 -29.1345C213.251 -25.5205 207.943 -17.2139 209.966 -14.1742C210.96 -12.612 210.277 -12.0495 208.815 -13.2084C205.369 -15.9446 212.752 -27.0753 219.868 -29.7894L222.901 -30.9663L219.645 -29.1345Z" fill="#99C6CE"/>
<path d="M37.893 -49.582C36.5862 -47.2849 36.6174 -45.3267 37.8565 -35.9813C38.9617 -27.9886 38.978 -23.8421 37.7744 -23.3473C37.5337 -23.2483 35.8742 -24.889 34.222 -27.0255C24.8995 -38.7494 22.6242 -40.3481 18.3515 -38.5915C14.8009 -37.1317 14.3122 -36.4381 13.964 -32.4937C13.8287 -30.256 13.276 -28.6913 12.4476 -28.1395C11.7997 -27.662 9.7464 -26.3251 7.93377 -25.0871C2.23043 -21.3345 0.519834 -18.3082 2.07945 -14.5147C3.31724 -11.504 5.04754 -10.0332 10.1825 -7.63922C14.2734 -5.73112 17.5432 -3.76698 17.0016 -3.54431C16.8813 -3.49483 14.0072 -3.2987 10.6375 -3.11002C6.44673 -2.86531 3.19021 -2.23039 0.517571 -1.20199C-6.81363 1.67127 -8.07137 5.28562 -4.53129 13.8963C-3.47746 16.6307 -1.93576 21.0651 -1.22167 23.6576C1.73714 34.619 3.12688 38.3416 5.0518 39.9435C9.06085 43.3636 13.2486 41.5715 24.7411 31.708C32.4098 25.0355 38.9382 20.3806 39.3095 21.2838C39.4085 21.5247 36.9015 24.6671 33.7466 28.2871C27.9998 35.0141 24.3627 41.2257 24.0853 45.0001C23.787 47.8681 25.368 51.3713 27.668 53.0301C29.0552 54.0085 30.4355 54.2857 32.669 54.0714C35.8794 53.6666 38.8026 54.7877 45.9508 59.1697C57.4269 66.2071 67.4956 59.0407 64.7676 45.7319C63.7675 41.0748 65.692 43.8736 68.1638 50.7413C70.0521 56.0187 70.2711 57.4069 69.9792 62.1728C69.6656 68.4259 67.8693 73.8103 64.3563 79.1261C61.5941 83.359 55.3517 90.0785 51.776 92.6749C47.648 95.6391 31.6685 102.631 20.7551 106.203C5.05941 111.318 -2.08359 112.425 -17.0376 111.815C-21.3415 111.613 -25.1358 111.625 -25.4969 111.773C-26.7005 112.268 -25.1085 114.429 -23.2928 114.739C-20.4473 115.329 -3.42928 114.456 6.02147 113.316C19.3587 111.704 25.6737 109.953 37.0796 104.841C59.1338 94.9997 69.6992 84.2503 72.2704 69.1148C73.689 60.9292 71.4024 50.7473 66.8986 44.9261C63.8631 40.9651 60.8463 33.9695 59.836 28.2607C59.1718 24.5918 59.1718 24.5918 60.3853 26.3455C61.0716 27.3304 63.4981 32.0346 65.744 36.813C70.2747 46.6354 72.6346 49.4664 76.7614 50.0927C81.058 50.7899 84.2727 48.342 89.7899 40.372C92.0067 37.2081 93.5397 35.8035 98.0783 32.8113C101.201 30.8236 104.104 28.6446 104.678 27.9864C106.087 26.2807 106.127 22.9558 104.716 19.5236C102.414 13.9236 97.3707 11.0694 87.6801 9.91484C80.6156 9.15885 73.8097 7.66299 73.5126 6.94042C73.0423 5.79634 78.2916 5.04608 87.7632 4.81242C97.5004 4.54002 101.674 3.73936 103.841 1.65184C106.223 -0.594863 106.129 -2.87884 103.417 -12.0413C100.992 -20.336 100.818 -20.7575 98.1294 -23.8755C93.9368 -28.7687 90.0584 -31.1865 86.2253 -31.4408C83.323 -31.6555 82.6362 -31.4435 80.0554 -29.6785C78.4587 -28.5998 74.8898 -25.3023 72.1033 -22.3265C69.2919 -19.4108 65.7337 -16.2585 64.1831 -15.4099C61.5988 -13.9955 61.4324 -13.7159 62.2638 -12.7202C62.8016 -12.0966 64.0185 -9.99239 65.016 -8.07953C68.9705 -0.34316 67.881 8.12948 62.12 14.6511C59.2874 17.857 58.3032 18.5432 54.3066 20.116C50.6958 21.6004 48.9826 21.8824 45.6945 21.756C31.2574 20.8635 21.8972 5.28339 28.1028 -7.68593C30.5184 -12.7618 33.404 -15.4968 38.76 -17.6988C45.3549 -20.4805 51.8001 -20.0331 57.6602 -16.3886L60.6752 -14.5308L66.1727 -26.9979C69.1624 -33.9288 71.837 -40.9414 72.05 -42.6479C72.7277 -47.502 71.1352 -48.4664 61.7028 -49.164C57.2043 -49.4966 53.028 -50.2434 51.2798 -51.0733C46.0351 -53.5629 39.6497 -52.8383 37.893 -49.582Z" fill="#99C6CE"/>
<path d="M37.8415 -12.7456C28.8672 -7.36663 27.6557 5.94283 35.5569 13.1829C46.922 23.7151 65.6386 13.6269 62.9998 -1.68962C60.965 -13.3125 48.1859 -18.8991 37.8415 -12.7456ZM39.4507 -8.8317C42.6112 -8.16009 43.2289 -3.06422 40.2801 -1.85189C38.8358 -1.2581 35.8878 -2.43945 35.2937 -3.8846C34.6005 -5.57061 35.5924 -7.94937 37.3943 -9.04216C37.5501 -9.1766 38.5057 -9.07673 39.4507 -8.8317ZM49.7423 -5.53089C51.797 -0.533084 48.9354 4.65577 43.9375 5.16191C41.4386 5.41497 38.5648 4.41427 37.1107 2.75956C36.3783 2.00479 36.5093 1.81014 37.826 1.76155C38.6472 1.70552 40.371 1.27836 41.5499 0.72332C44.3783 -0.43952 46.2024 -4.21632 45.531 -7.38951L45.1105 -9.60999L46.8942 -8.86505C48.1682 -8.33295 48.9996 -7.33732 49.7423 -5.53089Z" fill="#99C6CE"/>
<path d="M282.014 -41.1905C280.651 -39.7149 279.128 -37.2587 278.696 -35.7435C277.64 -32.4937 277.273 -26.7116 277.87 -23.7191C278.135 -22.561 278.206 -21.5341 278.025 -21.4598C277.905 -21.4104 276.234 -21.7091 274.394 -22.0787C268.823 -23.3081 257.993 -23.642 252.333 -22.8637C245.165 -21.8174 235.717 -17.933 230.428 -13.8579C223.028 -8.07045 215.896 1.61926 214.592 7.85741C212.624 16.7614 213.806 27.679 218.511 45.4545L219.151 47.8663L220.303 43.31C224.407 26.7698 236.368 14.1094 249.918 11.9879C255.082 11.2022 265.265 12.0136 278.434 14.272C301.142 18.17 309.757 18.0773 318.547 13.6188C328.12 8.83867 337.577 -1.52561 343.704 -13.8293L345.897 -18.2503L339.886 -16.2719C324.817 -11.3436 314.355 -12.3217 304.751 -19.4249C297.472 -24.8091 293.666 -30.9874 294.117 -36.734C294.27 -38.4158 294.689 -41.3332 295.082 -43.114C296.018 -47.5111 295.194 -47.8056 289.137 -45.5971C285.176 -44.1094 284.046 -43.4339 282.014 -41.1905ZM268.386 -16.1592C269.437 -16.1691 269.115 -15.755 266.796 -14.3793C262.254 -11.7377 261.797 -10.2827 263.575 -5.10097C265.591 0.82807 267.42 2.53972 280.552 10.8673C283.033 12.4519 274.872 9.54221 270.827 7.40398C263.296 3.4608 258.676 -1.96031 258.274 -7.21536C258.056 -10.9972 259.557 -13.1632 263.614 -14.7606C265.479 -15.5276 267.625 -16.1279 268.386 -16.1592ZM277.418 -14.382L279.789 -14.0898L276.362 -12.329C273.573 -10.9006 272.879 -10.1929 272.209 -8.2282C271.341 -5.54837 271.946 -4.24839 276.811 1.42431C280.136 5.40682 286.779 8.72967 295.524 10.836C302.889 12.6651 303.484 12.9135 299.566 12.6237C293.616 12.1837 285.536 10.1557 280.996 8.01005C271.855 3.74343 265.526 -7.02932 269.531 -11.4914C271.121 -13.2713 274.841 -14.6601 277.418 -14.382ZM286.994 -10.0832C283 -5.76622 283.848 -1.82098 289.856 3.38164C295.511 8.23697 301.347 9.42757 310.175 7.62834C312.49 7.09894 315.12 6.65122 316.086 6.60591C318.73 6.36358 313.289 8.53008 308.274 9.67711C302.691 10.9866 297.407 10.625 292.976 8.57499C288.885 6.66689 283.121 1.71587 282.082 -0.81314C280.398 -4.90773 282.729 -10.0191 287.087 -11.7402L289.494 -12.7299L286.994 -10.0832ZM301.729 -12.0585C304.047 -11.0405 304.765 -9.29432 303.809 -7.00051C302.605 -4.11201 300.435 -3.57188 298.963 -5.78254L297.859 -7.44052L297.745 -5.4931C297.653 -3.83601 297.911 -3.37903 299.822 -1.98246C302.511 -0.0612574 309.837 1.50226 314.704 1.19078C319.716 0.890034 327.43 -2.42202 331.937 -6.17556C335.952 -9.586 335.268 -7.82667 330.934 -3.65163C328.647 -1.51462 326.785 -0.397089 321.79 1.65644C316.218 4.01759 315.061 4.28229 311.542 4.10968C309.366 3.9487 306.049 3.41152 304.22 2.89671C295.627 0.305361 292.266 -3.59219 294.356 -8.60458C295.312 -10.8984 295.779 -11.3017 298.07 -11.8913C299.468 -12.255 301.11 -12.3671 301.729 -12.0585Z" fill="#99C6CE"/>
<path d="M105.418 48.0959C99.9792 53.0066 97.3412 56.3437 86.2748 72.7193C80.0812 81.9529 73.4167 91.2394 71.4198 93.3978C63.0882 102.736 55.25 108.141 42.7328 113.287C23.1745 121.328 5.91878 123.847 -21.3913 122.615C-37.8814 121.863 -39.6582 121.819 -39.5344 122.12C-39.3859 122.481 -15.0817 126.497 -3.32065 128.068C19.8866 131.127 43.4168 131.378 61.253 128.902C75.9991 126.782 84.1831 124.614 96.58 119.517C116.74 111.229 129.567 101.873 139.404 88.3252C146.844 78.0161 152.307 73.1656 160.431 69.8255L164.764 68.0441L161.997 65.5917C157.793 62.0405 152.952 60.0186 147.802 59.8129C143.583 59.6468 142.932 59.7738 135.169 62.9654L127.045 66.3055L126.632 61.1956C126.107 54.4426 123.43 47.5889 120.532 45.3312C116.526 42.2617 110.64 43.3443 105.418 48.0959ZM97.0394 79.9084C97.9985 80.3588 99.4492 81.663 100.15 82.8533C101.462 84.8478 101.465 85.1984 99.7865 88.9859C96.7721 95.8566 87.6796 105.226 79.7603 109.749C74.2199 112.872 75.094 113.286 81.7385 110.625C95.6399 104.91 106.513 95.9347 110.915 86.4519C112.75 82.5299 112.617 78.7835 110.614 76.6504C109.21 75.1161 109.305 75.0064 112.147 75.2458C114.409 75.4422 115.531 76.4593 116.829 79.4453C118.509 83.1893 112.796 92.225 104.204 99.5589C95.9827 106.599 80.8312 114.236 73.0475 115.325C71.0689 115.645 66.8495 116.676 63.7061 117.757C57.8158 119.686 54.0142 120.193 50.5033 119.525C47.8276 119.006 48.2702 118.542 51.6399 118.354C55.8554 118.169 65.027 115.665 64.9459 114.784C64.9284 114.228 65.2895 114.079 66.3053 114.154C67.2609 114.254 69.307 113.413 72.6843 111.532C90.0026 101.807 100.18 87.2051 94.112 80.8304C93.0364 79.5832 93.0471 79.438 94.109 79.283C94.785 79.2163 96.1051 79.5182 97.0394 79.9084Z" fill="#99C6CE"/>
<path d="M-114.981 152.505C-149.36 172.411 -174.907 203.187 -192.711 246.125C-196.431 255.045 -197.99 259.98 -199.394 267.174C-202.688 283.804 -203.723 310.204 -202.14 337.499C-200.204 371.125 -200.67 387.788 -204.057 407.272C-204.89 412.26 -205.501 416.594 -205.352 416.955C-204.659 418.641 -202.065 419.475 -200.019 418.634C-198.033 417.817 -197.856 417.393 -196.604 410.683C-194.959 402.194 -193.749 384.943 -194.004 373.715C-194.084 369.242 -194.734 355.854 -195.502 344.062C-197.114 318.75 -197.281 309.104 -196.224 293.535C-194.787 271.193 -192.064 257.966 -185.908 243.68C-170.368 207.726 -144.934 177.701 -111.694 156.221C-101.955 149.965 -87.3316 143.953 -77.3922 142.119C-56.8373 138.385 -32.2771 138.916 -8.40152 143.601C29.1426 150.903 49.3452 163.081 67.9468 189.503C72.2486 195.689 85.7156 218.52 92.4858 231.223C97.0276 239.704 101.202 245.238 106.761 250.203C118.134 260.239 136.056 262.937 146.104 256.061C150.773 252.874 153.496 249.572 155.87 243.88C159.695 234.705 159.309 224.868 154.694 215.01C152.448 210.232 151.443 208.815 148.492 206.086C141.03 199.229 129.86 196.359 121.563 199.278C117.913 200.497 117.085 201.048 115.056 203.642C109.157 210.854 108.648 218.173 113.424 225.853C119.328 235.252 126.268 236.904 130.599 229.984C132.526 226.799 133.146 224.714 131.606 226.614C129.169 229.587 124.646 229.194 120.637 225.774C118.687 224.112 117.676 220.797 118.378 218.396C119.079 215.996 122.21 212.316 124.351 211.365C126.217 210.598 133.507 213.443 135.499 215.722C137.859 218.553 139.673 224.846 139.391 229.467C139.05 234.112 136.34 240.013 133.735 241.718C130.06 244.073 124.234 242.738 115.628 237.547C103.947 230.524 88.2124 214.326 78.3247 199.174C67.3333 182.364 62.1467 175.909 53.0884 167.737C37.1303 153.391 17.4327 144.665 -12.8737 138.542C-31.3024 134.785 -54.259 133.875 -70.1519 136.115C-82.0982 137.859 -102.52 145.34 -114.981 152.505Z" fill="#99C6CE"/>
<path d="M237.961 23.8021C231.584 29.1689 227.564 39.4098 229.717 44.6485C231.153 48.1409 233.029 49.6225 238.511 51.6626C244.198 53.6888 248.789 53.5612 253.139 51.139L256.18 49.4664L256.282 52.4515C256.521 57.1398 259.276 64.5248 261.876 67.2568C267.262 72.9971 276.34 74.5443 281.438 70.6885C282.518 69.8926 283.998 68.017 284.745 66.5835L286.013 64.0208L287.519 68.5402C288.838 72.4327 289.464 73.4423 291.892 75.7528C295.087 78.7331 301.701 81.6452 306.454 82.0843C310.422 82.4945 314.659 80.8229 317.205 77.946C319.762 74.924 322.192 67.6598 322.807 61.283L323.297 55.802L326.689 64.0514C330.105 72.361 330.105 72.361 333.919 75.6499C340.756 81.4976 347.636 81.9772 357.548 77.339C361.902 75.2673 363.534 74.1035 365.662 71.7504C370.659 66.1064 371.457 58.8091 368.013 50.0887L366.043 45.1264L367.915 46.2574C372.048 48.7816 374.717 49.7963 378.479 50.2205C386.839 51.2183 393.906 45.9901 398.181 35.8556C404.497 20.5883 401.02 4.77189 388.653 -6.82689C382.896 -12.2736 371.788 -18.7584 364.03 -21.2004L360.552 -22.3042L356.461 -15.4839C349.137 -3.18113 343.228 4.17603 334.674 11.7755C324.119 21.1829 314.565 25.3222 300.729 26.5759C284.333 28.1074 274.671 27.3636 260.978 23.4901C256.434 22.1907 251.178 21.0431 249.171 20.953C245.158 20.773 240.011 22.1146 237.961 23.8021ZM249.184 25.9458C254.037 25.4289 264.336 27.0371 263.84 28.2265C263.592 28.8212 263.026 28.9837 261.946 28.5827C258.453 27.2735 253.515 27.7549 248.496 29.7482C243.32 31.876 242.219 32.9622 242.296 35.8871C242.348 38.7517 243.735 39.7301 246.518 38.7973C250.854 37.3665 253.012 40.5621 250.625 44.8519C248.999 47.9136 243.279 48.7166 239.826 46.4761C237.49 44.9022 235.347 39.5184 235.589 35.8289C235.867 30.8576 241.542 26.6942 249.184 25.9458ZM363.763 -15.1774C370.941 -13.9752 378.151 -4.48007 379.139 5.10953C380.359 17.4896 369.401 26.4293 357.152 23.1588L353.603 22.2249L354.073 24.5658C355.391 30.852 353.101 40.17 349.38 43.9524C347.333 45.9905 342.905 47.8815 339.284 48.3144C336.013 48.7439 329.367 46.2673 326.331 43.5031L323.978 41.3732L321.806 46.7007C319.387 52.6229 316.211 56.5332 312.172 58.6866C308.469 60.6313 305.219 60.7705 301.142 59.0678C297.15 57.4006 294.928 55.076 293.022 50.4395L291.576 47.0923L289.551 48.8399C287.203 51.0017 282.534 52.9917 279.816 53.0534C277.182 53.1506 273.555 51.6854 271.057 49.5448C266.609 45.7421 265.03 37.4516 267.527 30.8638C268.647 27.9398 269.691 27.2288 272.197 27.6769C274.037 28.0465 291.756 28.3644 302.848 28.309C312.019 28.199 317.909 26.2701 327.758 20.1092C335.373 15.3595 340.096 11.4468 343.138 7.3805C344.271 5.85876 347.302 1.93768 349.965 -1.33922C352.543 -4.65159 355.51 -8.89848 356.47 -10.8417C358.45 -14.753 360.132 -15.7963 363.763 -15.1774Z" fill="#99C6CE"/>
<path d="M364.942 -7.00406C368.334 1.24532 366.363 9.79874 360.586 12.1739C358.058 13.213 353.365 12.7492 349.954 11.1249C347.246 9.84455 347.041 9.85856 345.232 11.4471C343.71 12.7065 343.462 13.3012 344.006 14.6259C344.922 16.8539 344.534 22.9263 343.312 26.4557C341.902 30.555 338.602 34.1643 335.756 34.7712C332.705 35.3921 328.154 33.3916 325.295 30.2026C323.218 27.8888 322.793 27.7114 321.108 28.4042C319.664 28.998 319.044 29.8863 318.307 32.3715C315.547 41.7422 306.919 47.9642 301.724 44.3982C299.644 42.9306 297.097 38.2759 296.914 35.6059C296.822 33.6725 296.713 33.5768 294.575 33.6814C292.667 33.8323 292.079 34.2851 289.774 37.063C285.44 42.4349 280.895 43.5291 276.104 40.4307C273.343 38.6794 271.461 35.3 272.205 33.5159C272.418 33.0062 272.422 32.1599 272.224 31.6782C271.654 30.2932 270.429 33.4721 270.173 36.9562C269.809 43.0888 273.754 48.5767 278.858 49.0125C282.305 49.355 286.727 46.7628 289.553 42.8558C292.736 38.4497 293.692 38.5496 294.862 43.2776C296.887 51.4551 299.629 55.0442 304.75 56.0359C309.751 57.0772 314.357 53.5645 317.74 46.0497C318.792 43.6462 319.784 40.0706 319.898 38.1231C320.155 32.2454 322.119 31.7192 325.601 36.7642C330.012 43.0456 337.168 45.735 343.005 43.3351C346.315 41.9743 348.011 39.9395 349.432 35.695C350.864 31.3053 350.664 25.6857 348.956 21.5309C347.594 18.2191 347.836 15.7265 349.588 15.7101C350.083 15.7176 351.467 16.3453 352.78 17.143C358.445 20.6564 365.322 20.7855 369.942 17.4782C375.186 13.6331 376.472 8.03588 373.884 0.371346C372.081 -4.8706 368.472 -9.37029 365.064 -10.6441L363.16 -11.3395L364.942 -7.00406Z" fill="#99C6CE"/>
<path d="M-8.81196 153.555C5.09222 160.509 15.7894 168.218 20.4451 174.751C24.28 180.144 23.8012 183.086 18.6962 186.24C15.5844 188.083 9.20283 187.961 6.89932 185.952C3.82798 183.273 2.92611 181.25 3.85436 178.545C4.47448 176.46 5.01267 175.887 6.89231 175.326C8.56667 174.778 9.5718 174.998 11.2987 176.118C13.9987 177.894 14.7273 179.496 13.9868 181.63C13.3739 183.22 13.4341 183.195 15.1336 181.511C18.5928 178.117 16.644 174.062 10.3481 171.582C4.59727 169.23 0.547758 170.332 -2.8871 174.982C-5.84394 179.083 -4.26462 187.374 0.525944 192.866C3.45901 196.236 10.2077 199.304 14.8727 199.357C23.2364 199.508 29.6653 195.809 32.5026 189.363C36.5797 179.944 30.988 167.883 19.4551 161.221C15.2865 158.782 8.98335 156.797 -3.7718 153.665L-13.0374 151.491L-8.81196 153.555Z" fill="#99C6CE"/>
<path d="M394.985 -5.6288C396.043 -3.7407 397.309 -2.71287 400.94 -0.897181C425.447 11.4827 438.014 35.0358 435.778 64.6753C432.503 109.243 396.375 151.76 342.986 173.85C320.96 182.906 297.697 187.753 266.794 189.759C208.897 193.359 134.892 180.705 65.3038 155.183C56.2934 151.918 54.2264 151.853 56.5048 154.999C57.8385 156.703 92.2091 170.659 107.823 175.784C186.815 201.593 257.224 206.012 319.765 189.24C330.781 186.259 357.876 175.331 367.431 169.995C374.582 165.999 390.822 153.48 400.498 144.504C420.474 126.014 434.894 105.303 441.696 85.4013C449.26 63.0743 448.687 41.4883 439.835 19.7864C435.379 8.94774 429.485 0.600869 417.929 -10.9088C414.536 -14.3708 413.917 -14.6794 412.533 -14.1103C411.63 -13.7392 409.811 -13.2023 408.533 -12.8882L406.073 -12.3695L415.736 -4.09414C430.007 8.20011 430.803 9.28069 435.842 21.7096C439.495 30.7665 440.082 32.7074 440.778 38.3345C441.512 44.2271 441.868 57.2439 441.214 57.0203C441.104 56.9246 440.708 54.7644 440.43 52.2041C437.207 25.372 422.748 4.91928 399.724 -5.39508L393.68 -8.11906L394.985 -5.6288Z" fill="#99C6CE"/>
<path d="M68.2269 146.378C68.4992 147.041 89.4359 155.187 99.0374 158.349C108.154 161.358 121.989 164.892 130.256 166.35C140.715 168.174 150.349 168.507 163.838 167.607C196.6 165.331 220.183 157.325 229.227 145.441C236.171 136.321 235.899 124.537 228.409 114.875C217.859 101.192 203.852 94.843 192.202 98.5062C187.961 99.8274 183.755 103.457 181.021 108.101C178.525 112.295 178.421 115.294 180.614 119.601L182.34 123.115L180.171 121.262C174.87 116.754 166.613 115.151 160.896 117.501C154.758 120.025 149.517 127.811 150.177 133.523C151.193 142.326 159.569 149.864 169.111 150.657C178.072 151.408 185.864 146.233 182.666 141.706C179.825 137.876 175.777 136.584 174.134 139.089C173.277 140.427 173.301 140.488 175.754 140.465C178.172 140.527 180.228 141.934 179.94 143.46C179.554 145.942 172.312 145.61 169.156 142.896C167.779 141.772 167.397 141.014 167.295 139.226C166.784 132.678 173.379 129.897 181.052 133.5C185.058 135.373 187.028 137.941 187.441 141.854C188.478 152.761 175.946 160.096 152.114 162.362C147.852 162.776 143.106 163.038 141.534 162.98L138.706 162.946L140.412 161.963C143.358 160.4 147.9 156.562 149.487 154.431C151.633 151.437 151.701 148.523 149.671 143.586C147.407 138.251 144.467 135.377 138.592 132.724C132.718 130.071 128.403 130.015 121.515 132.425C117.348 133.927 115.833 134.69 114.434 136.251C111.481 139.506 111.919 144.676 115.421 148.234C117.435 150.222 120.312 150.376 124.224 148.768L127.389 147.397L125.201 147.381C121.067 147.25 118.113 144.171 119.377 141.258C120.121 139.474 124.121 138.252 126.425 139.064C129.893 140.313 132.751 145.896 131.476 148.954C130.566 151.018 126.084 152.438 120.127 152.494C113.555 152.592 105.425 151.64 87.7887 148.613C66.946 145.145 67.7565 145.234 68.2269 146.378ZM203.409 126.279C210.279 126.904 215.788 132.945 215.269 139.212C214.956 143.072 213.061 147.019 210.144 150.189C205.527 155.044 193.126 159.79 179.708 161.717C173.156 162.721 171.786 162.299 175.878 160.616C180.512 158.711 188.545 153.438 191.332 150.462C194.656 146.913 195.599 143.217 194.38 138.368C193.248 133.906 193.281 132.273 194.754 129.697C196.167 127.145 199.502 125.844 203.409 126.279Z" fill="#99C6CE"/>
<path d="M448.527 -8.35401C445.684 -5.00289 445.867 -3.52972 448.838 -6.22922C451.904 -9.03841 455.479 -10.4379 458.396 -10.0179C464.519 -9.1564 467.144 -5.16733 468.797 5.6975C469.354 9.62128 470.549 14.4095 471.465 16.6375C473.322 21.1535 473.844 26.3591 472.999 32.6897L472.485 36.9136L475.255 29.7913C479.262 19.3451 480.137 16.1695 480.439 11.2584C481.088 -0.341168 475.509 -9.8032 466.566 -12.3913C459.537 -14.4291 452.412 -12.7666 448.527 -8.35401Z" fill="#99C6CE"/>
<path d="M38.9685 170.867C39.3044 171.855 42.0847 176.906 44.9994 182.114C47.9496 187.236 51.9429 195.238 53.9093 199.85C56.9897 207.171 57.3785 208.631 57.2219 211.159C57.0547 213.832 56.7679 214.161 54.3146 215.381C49.8046 217.587 46.0038 215.7 46.0691 211.239C46.052 209.486 46.445 208.902 47.8894 208.308C50.2965 207.319 52.3845 208.29 52.9394 210.667L53.4661 212.632L54.0401 210.777C55.7694 204.717 51.4454 201.215 45.3071 203.739C43.1406 204.629 42.567 205.287 41.3165 208.406C39.7579 212.144 39.7243 217.367 41.2839 221.16C44.3041 228.507 53.3179 232.122 60.6597 229.103C63.6687 227.866 66.2077 224.288 67.742 219.293C69.2054 214.468 69.3151 214.564 71.2589 223.056C75.8321 243.42 72.2915 257.053 61.9769 258.83C57.3081 259.624 52.8992 256.086 52.2956 251.196C51.9886 248.225 53.2742 246.218 56.4636 244.907C59.3523 243.719 60.966 244.393 63.1381 247.794C64.1322 249.356 64.2239 250.093 63.6324 251.392C62.9807 252.716 62.6444 252.925 61.6145 252.644C60.9598 252.42 60.0929 251.51 59.6968 250.546C59.2017 249.342 58.7877 249.02 58.2849 249.508C56.2491 251.401 58.8424 254.628 62.4703 254.897C64.7673 255.008 65.0682 254.885 66.0563 253.352C68.6059 249.629 67.4086 242.096 63.5698 237.551C61.7124 235.428 56.411 233.314 52.8821 233.286C42.5859 233.225 34.1998 246.88 39.4424 255.354C40.0933 256.424 41.9721 258.256 43.6034 259.486L46.597 261.634L44.4805 261.448C39.5219 261.023 34.3068 265.279 31.2215 272.319C29.3193 276.762 29.5763 280.809 32.162 285.73C35.5612 292.286 43.8878 297.31 53.8474 298.777C58.1795 299.389 58.3848 299.375 64.9443 296.678C71.3233 294.055 71.6596 293.847 74.5136 290.351C82.6578 280.385 84.724 261.797 80.2119 239.015C76.5231 220.118 71.4303 208.415 60.8132 194.055C55.9275 187.476 45.9678 176.084 41.566 172.051C38.6151 169.323 38.3355 169.156 38.9685 170.867ZM77.6942 242.302C78.606 246.573 79.2365 255.465 78.9058 259.966C78.0063 271.809 71.8519 280.112 63.8173 280.247C58.4655 280.406 54.4531 276.636 54.476 271.558C54.4986 267.677 56.7965 265.395 61.7769 264.333C69.9536 262.661 73.8029 257.136 76.0762 243.672C76.4556 241.685 76.8384 240.05 76.9588 240C77.0792 239.951 77.4398 240.999 77.6942 242.302Z" fill="#99C6CE"/>
<path d="M508.88 -22.7486C499.003 -16.9984 496.592 -13.9657 489.656 0.993096C486.39 8.10792 483.741 13.9839 483.766 14.0441C483.79 14.1043 485.943 11.8114 488.524 8.84958C496.293 0.0243324 501.823 -4.14981 515.909 -11.9824C522.749 -15.7094 529.585 -19.7869 531.132 -20.9861C533.458 -22.8576 533.791 -23.4168 533.296 -24.6211C531.365 -29.3178 518.601 -28.3643 508.88 -22.7486Z" fill="#99C6CE"/>
<path d="M-57.3518 225.601C-64.3897 230.043 -70.8835 237.007 -75.3247 245.027C-85.5741 263.39 -78.6745 280.685 -57.4126 289.964C-45.9323 294.959 -34.8788 295.835 -26.5139 292.396C-9.96461 285.592 10.0125 263.511 20.0404 241.016C24.2733 231.462 26.3367 221.252 25.1813 215.532L24.7361 213.252L23.2692 217.726C17.1077 236.45 6.61797 253.714 -5.84499 265.666C-11.8782 271.526 -21.2708 278.625 -26.7403 281.578C-33.7249 285.294 -46.7788 286.226 -55.9167 283.507C-63.8054 281.26 -73.1539 273.066 -74.6986 267.084C-78.0497 254.313 -64.2309 231.456 -51.2117 228.215C-44.6773 226.655 -33.795 231.05 -27.858 237.62C-24.3022 241.649 -22.2936 246.876 -22.9743 250.183C-23.7578 254.095 -26.6758 258.463 -30.4393 261.629C-38.0159 267.841 -44.3659 268.481 -49.6947 263.562C-55.1579 258.487 -54.4154 250.368 -48.2771 247.845C-45.9301 246.88 -43.9693 247.2 -37.8929 249.489C-34.6299 250.752 -34.4246 250.738 -35.3303 249.561C-37.446 246.982 -41.5012 243.792 -44.2191 242.657C-46.6574 241.688 -47.2733 241.73 -49.2204 242.812C-52.5729 244.754 -55.5016 249.266 -55.8639 253.005C-56.5991 260.628 -49.2968 269.663 -41.0009 271.532C-39.2207 271.926 -37.773 271.683 -34.764 270.446C-22.3671 265.349 -14.8944 252.211 -18.9048 242.456C-24.0292 229.992 -40.849 220.224 -52.155 223.183C-53.3727 223.472 -55.7304 224.582 -57.3518 225.601Z" fill="#99C6CE"/>
<path d="M503.4 1.39648C498.256 4.28555 493.459 8.01763 490.254 11.5172C487.971 14.0048 470.249 43.1121 470.784 43.3851C470.868 43.4206 478.466 36.9181 487.633 28.926C496.824 20.9941 506.029 13.2677 508.058 11.8705C513.35 8.1459 526.487 2.11141 533.73 0.0489528C543.418 -2.73756 549.393 -2.23733 553.901 1.5407C556.947 4.15974 558.017 11.0406 556.052 15.1572C554.915 17.5252 555.452 18.1489 557.018 16.3087C561.713 10.7884 560.403 1.61287 554.263 -3.39509C549.306 -7.4107 541.824 -8.83979 531.648 -7.75329C522.027 -6.68409 511.716 -3.35982 503.4 1.39648Z" fill="#99C6CE"/>
<path d="M395.39 53.1935C394.277 55.6218 394.744 56.4153 396.189 54.6247C397.729 52.7243 401.705 51.442 403.874 52.0987C409.278 53.6076 415.382 59.8974 418.278 66.9425C421.794 75.4929 422.173 82.2352 419.776 95.3986C418.595 101.938 418.595 101.938 419.974 98.274C421.798 93.3003 423.73 85.6781 423.989 82.5446C425.016 70.1556 419.998 57.4364 411.958 52.0835C405.426 47.6595 397.685 48.1671 395.39 53.1935Z" fill="#99C6CE"/>
<path d="M393.212 65.3514C392.444 67.0753 392.422 67.3656 393.176 66.6332C393.739 66.1202 395.18 65.1759 396.37 64.4757C398.317 63.3936 398.897 63.4365 401.895 64.7383C406.495 66.8592 410.026 70.8277 412.403 76.6083C415.536 84.4007 415.874 89.33 413.761 100.617C412.555 107.096 412.782 106.792 415.301 98.7166C419.978 83.9119 415.804 68.4526 405.675 63.3248C400.027 60.3674 395.153 61.1746 393.212 65.3514Z" fill="#99C6CE"/>
<path d="M493.926 27.4648C486.18 32.4092 484.821 34.2353 470.977 58.2289C458.429 80.0706 455.627 85.2347 458.131 81.7417C458.776 80.9136 463.807 73.9878 469.388 66.3435C480.263 51.3842 483.347 47.9341 493.714 39.0966C501.241 32.764 504.487 31.0774 515.177 28.1607C525.035 25.4451 531.834 26.2399 534.534 30.4096C536.129 32.9213 536.206 34.6493 534.818 38.4583C534.134 40.2177 533.857 41.5984 534.038 41.5242C536.084 40.683 539.279 33.7381 539.624 29.4432C539.929 26.0795 538.302 22.8065 535.383 20.8391C532.099 18.6695 531.239 18.46 525.169 18.0695C516.196 17.4643 503.63 21.2932 493.926 27.4648Z" fill="#99C6CE"/>
<path d="M340.385 99.248C334.61 105.564 331.516 117.888 334.583 122.61C340.399 131.623 356.177 134.921 361.743 128.268C364.526 124.941 366.284 116.898 364.983 113.561C364.191 111.634 360.362 109.337 356.731 108.718C354.14 108.235 352.582 108.382 350.356 109.298C347.828 110.337 347.23 110.935 346.203 113.398C345.53 115.013 345.221 116.829 345.469 117.431C345.939 118.575 352.532 121.777 353.555 121.357C353.856 121.233 352.879 120.227 351.467 119.188C348.265 116.704 347.635 115.343 348.748 112.915C350.972 108.059 359.633 108.933 361.751 114.256C363.102 117.713 360.834 125.544 357.75 127.797C355.159 129.708 351.145 129.528 345.624 127.222C336.257 123.259 334.213 118.117 338.265 108.637C340.592 103.175 343.829 99.2399 347.688 97.1608C349.96 96.0152 351.203 95.786 354.3 96.1318C362.03 96.9662 367.85 101.542 371.688 109.678C373.884 114.336 374.061 115.108 373.886 119.474C373.418 133.393 367.502 147.581 357.45 158.894L353.948 162.868L357.194 161.181C363.903 157.649 369.657 150.426 374.694 139.063C378.122 131.318 379.894 124.677 380.148 118.449C380.308 115.074 379.941 113.325 378.516 109.687C376.832 105.592 376.195 104.728 372.441 101.414C360.984 91.3424 348.384 90.4689 340.385 99.248Z" fill="#99C6CE"/>
<path d="M391.676 77.5275C390.309 79.8493 390.999 79.988 393.721 77.8831C396.469 75.8386 398.67 76.0598 402.941 79.0905C406.409 81.5363 407.237 83.3782 408.225 90.5742C409.08 96.4173 408.858 102.21 407.454 109.404L406.593 113.982L408.123 109.833C413.047 96.8275 413.264 85.5463 408.76 79.7251C406.899 77.2522 401.845 74.5431 398.688 74.222C395.871 74.0429 392.912 75.4003 391.676 77.5275Z" fill="#99C6CE"/>
<path d="M265.071 135.773C266.136 135.968 268.5 136.756 270.319 137.416L273.642 138.654L276.068 144.555C277.95 149.132 278.452 151.037 278.217 153.034C277.581 159.701 272.262 168.153 266.293 171.944C264.456 173.122 259.309 175.661 254.856 177.491L246.721 180.977L252.483 179.593C261.598 177.465 269.648 173.944 273.699 170.449C280.588 164.448 283.617 157.783 282.834 150.573C282.382 146.394 280.21 141.797 277.16 138.827C274.634 136.276 269.563 134.207 266.678 134.549C263.322 134.943 262.83 135.286 265.071 135.773Z" fill="#99C6CE"/>
<path d="M280.455 130.926C287.381 132.373 289.306 133.974 291.87 140.382C293.702 144.838 293.981 146.201 293.767 150.302C293.471 155.914 291.608 160.622 287.373 166.234C283.364 171.543 278.585 174.634 265.696 180.074L255.791 184.216L264.06 182.084C283.78 177.003 292.904 170.789 297.912 159.015C300.417 153.129 300.404 148.136 297.953 142.175C293.992 132.54 286.257 127.414 278.565 129.239L275.684 129.931L280.455 130.926Z" fill="#99C6CE"/>
<path d="M253.313 143.281C259.465 144.554 262.727 148.21 263.868 154.921C264.472 158.615 263.381 160.753 258.438 165.671C253.053 171.053 249.569 173.189 239.93 177.293L232.457 180.506L237.869 179.125C252.457 175.592 261.094 171.618 265.623 166.377C268.24 163.331 268.923 161.571 268.949 158.041C268.948 150.509 261.444 141.839 254.602 141.625C249.453 141.419 248.712 142.357 253.313 143.281Z" fill="#99C6CE"/>
<path d="M243.538 153.213C246.942 155.333 248.264 160.773 246.298 164.89C245.944 165.739 244.499 167.53 243.171 168.921C241.15 171.019 240.02 171.694 235.528 173.26L230.229 175.086L233.56 174.632C241.718 173.601 248.619 168.652 249.58 163.118C250.207 159.341 247.923 154.297 244.886 152.729C241.91 151.137 240.767 151.607 243.538 153.213Z" fill="#99C6CE"/>
<path d="M393.317 90.9312C393.225 91.3915 393.925 91.3849 395.009 90.9396C396.453 90.3458 397.228 90.5199 398.629 91.7036C403.028 95.3859 404.969 101.134 403.802 106.682C402.764 111.685 402.877 112.131 404.29 108.382C406.303 102.839 405.367 96.1136 401.984 92.5064C399.175 89.4378 393.703 88.4493 393.317 90.9312Z" fill="#99C6CE"/>
<path d="M380.473 109.657C379.782 111.912 380.602 114.249 382.587 115.827L384.512 117.428L383.752 115.066C383.377 113.812 382.536 111.765 381.92 110.61C381.082 108.913 380.778 108.687 380.473 109.657Z" fill="#99C6CE"/>
<path d="M320.002 139.164C318.125 141.273 317.097 146.13 317.357 151.725C317.715 161.151 316.79 164.206 310.798 173.075C309.035 175.631 307.678 177.807 307.728 177.928C307.827 178.169 313.244 172.351 320.202 164.634C324.554 159.818 326.508 157.043 328.116 153.426C331.45 145.79 330.967 139.654 326.911 137.661C324.264 136.355 322.009 136.86 320.002 139.164Z" fill="#99C6CE"/>
<path d="M493.469 71.0145C478.661 79.1439 460.576 93.3366 445.128 108.979C435.222 119.106 412.121 145.568 412.91 145.947C413.08 146.018 416.854 142.707 421.273 138.567C438.912 122.094 449.59 114.184 464.019 106.844C483.571 96.9054 502.091 93.8671 520.314 97.6377C523.474 98.3093 533.579 100.983 542.777 103.678C561.948 109.241 571.338 110.519 577.458 108.636C580.386 107.714 581.154 107.187 582.464 105.241C584.727 101.847 584.721 98.752 582.394 93.0918C581.305 90.4424 579.324 86.822 578.086 85.0082C576.787 83.219 575.793 81.6567 575.864 81.4868C575.935 81.3169 578.14 80.6918 580.816 80.0139C594.296 76.8656 602.029 69.3221 602.889 58.4096L603.12 56.0621L600.773 57.0271C597.342 58.4373 588.978 59.4827 583.814 59.0716C581.287 58.9139 575.901 57.9608 571.855 57.0195C562.99 54.9626 558.017 54.3321 551.384 54.4546C544.461 54.5556 532.624 56.3951 524.114 58.6265C516.256 60.731 500.921 66.8949 493.469 71.0145ZM535.084 68.1953C546.319 65.4064 557.341 65.5209 564.656 68.4265C568.828 70.0195 569.928 71.3269 569.987 74.8927C570.033 75.8594 569.456 77.3639 568.631 78.2662L567.257 79.8869L566.592 77.4148C565.701 74.0503 563.628 72.087 559.36 70.6037C554.837 69.014 548.332 68.5912 540.629 69.3645C535.366 69.9093 533.341 70.4602 524.842 73.7433C516.909 76.864 515.79 77.3943 518.721 76.8229C535.797 73.1815 552.343 74.7555 554.571 80.1748C555.462 82.3425 555.401 84.7609 554.403 86.4386C553.202 88.4808 552.583 88.1723 551.625 85.3282C549.779 79.4701 541.413 76.5744 528.879 77.5741C516.526 78.4996 502.572 83.7439 495.275 90.1227C493.274 91.9306 493.214 91.9554 493.707 90.4154C494.638 88.0614 498.788 84.8069 505.365 81.4692C508.612 79.7826 512.024 77.8164 512.863 77.1195C515.26 75.0781 528.043 69.8932 535.084 68.1953Z" fill="#99C6CE"/>
<path d="M18.9025 266.825C18.3891 267.459 16.3277 271.685 14.3051 276.177C8.36846 289.458 4.1402 295.772 -5.01591 304.816C-12.8443 312.469 -20.4737 318.21 -24.3427 319.237C-27.1746 320.05 -27.7269 320.418 -28.3999 322.032C-29.4626 324.58 -33.5129 328.076 -34.787 327.544C-37.335 326.479 -41.0281 330.673 -39.9388 333.322C-39.3447 334.767 -43.424 340.246 -45.1265 340.382C-47.5051 340.586 -48.8009 341.541 -49.5166 343.736C-49.9524 344.901 -50.0095 346.473 -49.6877 347.255C-49.3411 348.098 -49.8089 349.699 -51.0803 351.911C-54.0516 357.004 -59.238 370.399 -60.3689 375.862C-63.0669 389.149 -60.4837 401.25 -53.1809 409.088C-50.0921 412.323 -45.2862 414.43 -42.0651 413.88C-38.844 413.33 -35.9687 409.544 -34.3209 403.798C-32.3684 397.082 -32.2826 394.724 -33.768 391.111C-36.5901 384.247 -42.5855 382.84 -47.4185 387.854C-48.7463 389.245 -48.757 389.39 -47.5005 389.366C-43.0796 389.167 -42.124 389.267 -40.8713 390.09C-38.6101 391.483 -37.6591 394.823 -38.2339 399.072C-38.8514 403.901 -39.9705 405.628 -43.2803 406.989C-45.3866 407.855 -46.3777 407.84 -48.3064 407.084C-52.2134 405.452 -53.9326 402.64 -55.8696 394.848C-58.9625 382.534 -57.9571 371.632 -52.53 358.138C-49.0372 349.522 -48.9416 349.412 -46.6019 348.943C-44.6125 348.477 -44.085 348.049 -43.2916 346.386C-42.8063 345.341 -42.6395 343.865 -42.9366 343.142C-43.7783 341.095 -39.7984 336.573 -36.3754 335.658C-34.025 335.044 -33.7382 334.715 -33.1676 332.509C-32.3418 329.213 -29.2014 326.585 -27.0673 327.326C-24.5688 328.27 -22.4553 326.909 -21.6862 323.988C-21.0448 321.612 -20.5667 321.064 -16.3256 318.546C5.93508 305.1 19.0655 287.242 20.4877 268.285C20.7224 265.091 20.4782 264.84 18.9025 266.825Z" fill="#99C6CE"/>
<path d="M93.0626 263.085C91.9264 284.107 90.9542 290.983 88.003 299.376C83.6417 311.869 79.5269 317.432 74.3344 317.807C71.1948 318.042 67.9745 316.198 66.1456 313.289C64.7341 311.054 64.6244 310.958 64.677 312.626C64.7116 314.935 67.354 319.48 70.3793 322.389C75.1984 327.095 82.4088 325.468 88.3682 318.232C91.856 314.052 96.613 303.72 98.2151 297.008C100.512 287.194 100.344 281.139 97.157 265.344C95.6412 257.379 94.2241 250.852 94.0543 250.781C93.8844 250.71 93.4188 256.251 93.0626 263.085Z" fill="#99C6CE"/>
<path d="M192.719 212.188C197.002 212.68 201.206 213.838 208.037 216.591C213.618 218.872 214.092 219.169 214.583 221.22C215.177 223.862 217.473 225.17 219.881 224.181C221.927 223.339 225.345 225.665 225.939 228.307C226.32 230.262 229.024 232.388 230.408 231.819C230.889 231.621 232.347 232.43 233.738 233.759C235.726 235.686 236.169 236.42 236.21 238.233C236.27 239.405 236.563 240.974 236.836 241.636C237.356 242.901 239.893 244.11 241.036 243.64C242.18 243.17 244.345 247.066 248.231 256.52C251.266 264.072 251.966 266.459 252.481 270.963C253.656 281.18 251.298 293.412 247.308 298.079C244.751 301.101 242.811 301.688 239.863 300.506C236.951 299.24 235.313 296.112 235.021 290.953C234.62 284.501 237.675 280.64 242.482 281.55L244.407 281.955L242.104 279.946C235.352 274.134 228.194 278.625 227.978 288.71C227.878 293.256 231.042 301.81 233.65 304.046C237.928 307.778 245.008 306.346 249.883 300.751C255.202 294.693 257.704 284.865 256.483 274.879C255.66 268.6 251.381 257.337 246.92 249.738C243.358 243.812 243.086 243.149 243.196 240.851C243.321 238.759 243.109 238.072 241.913 236.874C241.096 236.084 239.737 235.516 238.88 235.657C236.551 235.981 233.016 231.662 232.876 228.411C232.711 225.1 230.857 223.328 228.046 223.85C226.032 224.256 223.951 222.789 220.636 218.661C219.939 217.821 218.711 217.059 217.901 216.97C217.09 216.881 213.696 215.812 210.313 214.599C206.93 213.385 201.71 212.153 198.637 211.867C192.748 211.402 187.566 211.632 192.719 212.188Z" fill="#99C6CE"/>
<path d="M100.726 260.849C100.761 261.961 101.431 271.119 102.181 281.158C102.992 291.172 103.682 302.433 103.645 306.108C103.68 318.342 97.2624 340.55 91.9654 346.317C86.5621 352.34 78.2834 352.224 73.5709 346.066C70.6698 342.261 70.4752 342.13 70.8602 344.436C71.7327 349.638 77.0794 353.916 83.4042 354.413C86.9117 354.73 87.8887 354.54 91.2199 352.889C98.6646 349.265 104.454 341.957 109.495 329.748C114.479 317.915 116.331 305.82 114.89 295.643C114.205 291.067 113.385 288.73 107.447 274.629C101.894 261.636 100.709 259.097 100.726 260.849Z" fill="#99C6CE"/>
<path d="M238.865 208.07C244.28 209.433 251.223 212.632 254.05 215.06C255.695 216.495 260.013 219.296 263.548 221.221C271.457 225.572 273.138 226.922 274.524 230.294C276.604 235.352 274.652 239.674 268.825 243.126C266.626 244.452 266.364 244.842 267.38 244.917C269.691 245.234 274.701 242.189 276.631 239.354C280.299 233.903 280.773 225.473 277.653 220.28C273.893 213.871 265.007 208.514 256.806 207.732C250.347 207.08 236.054 207.395 238.865 208.07Z" fill="#99C6CE"/>
<path d="M458.433 120.122C448.414 126.212 431.031 139.201 429.006 142.146C427.968 143.558 428.417 146.189 429.56 145.719C429.861 145.595 431.766 143.897 433.777 141.944C439.176 136.768 445.903 131.398 451.199 128.024C459.859 122.563 484.925 113.032 496.167 110.944C502.379 109.798 505.678 109.779 512.406 110.744C528.138 113.075 539.164 122.268 542.048 135.443C542.641 138.085 542.814 139.703 542.422 139.09C537.38 131.449 534.822 129.333 529.998 129.064C526.89 128.863 526.71 128.937 523.736 131.286C520.978 133.476 520.287 134.534 517.375 141.996C514.332 149.653 513.868 150.407 511.369 151.857C509.11 153.208 508.562 153.926 508.242 155.888C506.912 164.459 514.184 169.142 532.284 171.415L536.507 171.932L537.86 169.404C539.924 165.529 543.914 162.058 548.608 160.128C558.719 155.972 570.974 161.14 575.182 171.376C577.955 178.12 576.519 186.947 571.717 192.722C569.639 195.196 568.594 195.907 563.9 197.836C559.387 199.692 557.904 200.02 554.941 199.83C543.587 199.078 534.926 189.476 535.556 178.517C535.702 176.134 535.826 174.041 535.872 173.811C535.918 173.581 534.517 173.594 532.779 173.816C530.981 174.063 525.169 174.129 519.863 174.058C504.067 173.794 499.876 175.236 499.484 180.958C499.324 183.135 500.12 185.413 505.453 198.214C512.42 214.989 512.838 215.662 517.697 215.846C522.182 215.974 526.872 213.693 533.5 208.082C534.927 206.933 536.272 206.098 536.612 206.24C536.951 206.382 535.963 209.111 534.532 212.304C529.761 222.431 531.338 227.977 539.124 228.436C541.131 228.526 543.945 228.355 545.368 228.051C549.226 227.169 550.341 227.485 552.928 230.012C555.758 232.79 557.238 233.308 559.825 232.244C564.579 230.29 565.317 227.804 564.945 215.779C564.759 211.562 564.906 207.982 565.231 207.918C566.545 207.519 569.771 211.261 573.836 217.896C576.217 221.634 578.888 225.393 579.765 226.158C581.715 227.82 584.38 228.484 586.185 227.742C588.532 226.777 592.983 222.202 593.699 220.007C594.404 217.958 597.056 214.826 601.931 210.428C608.591 204.382 607.017 200.383 596.022 195.541C593.958 194.63 588.919 192.126 584.729 189.977L577.078 186.083L578.869 185.136C581.057 183.955 583.22 183.91 592.1 184.976C604.888 186.476 609.599 183.905 611.224 174.509C612.483 167.304 612.101 165.349 607.683 155.973C603.711 147.681 603.478 147.284 601.27 146.362C599.256 145.57 598.495 145.602 595.536 146.959C593.55 147.776 589.372 150.62 585.524 153.75C581.866 156.662 577.462 159.81 575.731 160.733L572.52 162.334L573.48 160.391C574.026 159.322 577.081 155.461 580.357 151.792C589.404 141.456 590.923 137.452 588.395 130.96C586.103 125.214 584.164 124.604 572.083 126.192C569.694 126.541 566.682 126.23 563.652 125.364C558.248 123.855 552.419 123.365 550.192 124.281C547.905 125.221 545.823 128.541 545.599 131.589C545.446 133.271 546.365 138.243 547.91 144.225C549.292 149.64 550.575 154.815 550.681 155.757L550.938 157.41L549.774 155.777C549.113 154.853 547.486 151.579 546.114 148.413C544.098 143.681 543.695 142.016 543.788 139.162C543.927 134.881 540.929 126.048 537.851 121.471C531.954 112.773 521.553 106.983 510.429 106.277C495.156 105.235 473.366 111.097 458.433 120.122Z" fill="#99C6CE"/>
<path d="M106.303 266.37C107.01 268.262 115.005 280.18 117.375 282.865C122.934 289.027 129.601 292.41 136.698 292.731C148.194 293.143 159.075 280.082 155.163 270.568C154 267.738 153.171 268.289 153.627 271.622C154.386 277.575 152.165 281.585 146.99 283.713C143.499 285.148 140.059 284.309 132.224 280.139C128.969 278.381 125.157 276.639 123.752 276.302C118.507 275.009 114.547 272.906 110.344 269.355C108.04 267.345 106.214 265.984 106.303 266.37Z" fill="#99C6CE"/>
<path d="M264.056 205.174C271.205 207.163 276.789 209.794 280.214 212.821C282.189 214.543 286.336 217.273 289.458 218.876C300.219 224.517 303.184 227.451 303.126 232.614C303.103 237.692 301.389 240.367 296.114 243.451L292.882 245.343L294.984 245.323C299.504 245.366 304.656 240.784 306.785 234.841C308.751 229.527 308.664 225.551 306.485 220.252C304.876 216.338 304.14 215.232 301.069 212.553C292.683 205.16 286.082 203.651 264.736 204.261L261.256 204.354L264.056 205.174Z" fill="#99C6CE"/>
<path d="M289.194 203.005C289.243 203.125 291.109 203.555 293.434 204.077C299.235 205.353 305.838 208.41 309.228 211.522C310.788 212.922 315.13 215.782 318.86 217.839C327.134 222.392 329.887 224.639 331.273 228.011C333.65 233.791 331.496 238.478 324.812 242.07C321.23 243.966 321.194 244.051 323.297 244.031C332.216 244.165 339.2 231.721 336.326 220.795C334.057 212.365 324.004 205.025 312.324 203.139C309.783 202.776 289.045 202.644 289.194 203.005Z" fill="#99C6CE"/>
<path d="M406.645 156.548C407.251 156.651 411.661 156.597 416.432 156.396C428.778 155.966 432.891 156.387 439.788 158.619C450.48 162.037 453.59 166.179 449.192 171.225L447.113 173.699L449.099 172.882C452.048 171.67 453.816 167.071 452.528 163.94C450.919 160.026 445.721 156.11 438.746 153.346C430.291 150.064 424.851 149.837 417.697 152.286C414.699 153.378 410.748 154.72 408.869 155.282C406.653 156.052 405.895 156.434 406.645 156.548Z" fill="#99C6CE"/>
<path d="M312.368 200.165C318.983 200.683 323.867 202.125 327.819 204.723C329.352 205.712 334.143 207.614 338.422 208.952C347.755 211.802 351.439 214.089 352.998 217.882C355.177 223.181 353.901 227.436 348.817 231.498C345.903 233.822 345.903 233.822 347.846 233.586C352.94 232.97 357.182 226.862 357.797 219.288C358.177 214.908 357.973 213.725 356.413 209.932C354.1 204.477 350.222 200.863 343.707 198.191C336.537 195.296 329.49 195.096 317.32 197.495C311.869 198.61 307.19 199.548 307.009 199.623C306.829 199.697 309.26 199.964 312.368 200.165Z" fill="#99C6CE"/>
<path d="M381.611 177.962C399.672 179.969 406.941 181.908 414.854 186.609C427.823 194.37 435.009 203.805 436.863 215.502C437.93 222.032 436.223 225.409 430.084 229.13L426.997 231.032L429.85 231.127C437.512 231.285 442.566 224.068 441.992 213.605C441.739 208.711 438.418 200.291 435.103 196.164C427.642 186.913 415.369 179.992 402.246 177.503C398.19 176.707 374.27 176.193 372.766 176.812C372.585 176.886 376.542 177.441 381.611 177.962Z" fill="#99C6CE"/>
<path d="M396.433 171.235C406.237 171.639 414.805 172.973 424.57 175.505C433.099 177.771 439.403 178.558 440.999 177.479C441.492 177.136 442.072 175.982 442.218 174.796C442.441 172.944 442.258 172.668 439.809 170.648C436.677 167.993 430.859 166.162 424.694 165.881C421.03 165.698 391.91 169.645 389.503 170.635C389.202 170.758 392.274 171.044 396.433 171.235Z" fill="#99C6CE"/>
<path d="M360.469 189.681C373.041 191.34 378.735 192.871 386.556 196.835C395.336 201.251 396.518 202.243 398.498 207.06C401.805 215.274 400.61 220.411 394.698 223.827C391.983 225.436 391.862 225.486 393.568 225.699C396.23 226.013 399.827 224.323 401.795 221.754C406.941 215.274 404.676 202.408 397.295 196.433C393.385 193.254 386.02 190.228 379.218 189.082C374.836 188.35 352.994 187.756 351.55 188.35C351.369 188.424 355.351 189.04 360.469 189.681Z" fill="#99C6CE"/>
<path d="M373.202 184.375C391.773 186.595 399.693 189.604 408.766 197.982C415.326 204.013 419.725 214.03 418.725 220.495C418.328 223.122 415.963 225.925 413.134 227.088C410.366 228.226 410.811 229.31 413.841 228.979C423.246 228.069 426.047 214.177 419.241 202.756C417.805 200.46 415.165 197.462 411.959 194.627C407.851 190.966 405.59 189.573 399.984 187.232C396.162 185.636 391.084 184.063 388.688 183.711C385.021 183.177 366.662 182.841 365.579 183.286C365.398 183.36 368.835 183.848 373.202 184.375Z" fill="#99C6CE"/>
<path d="M117.655 292.957C119.783 302.923 120.158 312.905 118.806 322.964C118.118 327.963 117.252 334.584 116.822 337.647C115.776 345.539 115.93 348.995 117.363 349.743C117.983 350.052 119.299 350.003 120.322 349.582C127.484 346.638 132.699 330.063 130.814 316.408C130.242 312.279 129.945 311.556 123.277 299.445L116.387 286.792L117.655 292.957Z" fill="#99C6CE"/>
<path d="M358.28 195.649C368.618 196.326 376.226 200.801 379.172 207.966C380.757 211.82 380.501 214.107 378.193 216.534L376.649 218.084L378.84 217.254C381.368 216.215 382.469 213.932 382.117 209.994C381.612 204.147 376.188 198.141 369.217 195.728C363.869 193.844 361.657 193.768 353.102 195.033C352.365 195.124 354.737 195.416 358.28 195.649Z" fill="#99C6CE"/>
<path d="M544.929 166.92C541.983 169.68 540.276 173.057 539.722 177.015C539.293 180.078 539.473 181.2 541.181 185.355C542.889 189.51 543.551 190.435 545.95 192.334C557.369 200.944 573.884 191.831 572.441 177.713C572.01 173.244 571.614 172.28 568.777 168.801C566.184 165.573 561.519 163.126 557.286 162.755C553.489 162.416 547.563 164.43 544.929 166.92ZM556.662 176.808C557.943 176.845 559.773 177.36 560.721 177.955C562.717 179.387 564.348 183.011 564.081 185.443L563.918 187.27L561.88 185.222C560.734 184.145 558.946 183.049 557.881 182.854C555.666 182.427 551.414 183.893 550.005 185.599C548.943 186.951 548.525 186.278 548.739 183.374C548.923 181.257 551.285 178.104 553.186 177.252C553.788 177.005 555.321 176.797 556.662 176.808ZM557.321 186.111C558.255 186.501 559.242 187.362 559.515 188.025C560.059 189.349 559.014 192.454 557.811 192.949C556.186 193.617 553.613 192.492 552.895 190.746C552.449 189.662 552.535 188.501 553.13 187.553C554.415 185.546 555.282 185.26 557.321 186.111Z" fill="#99C6CE"/>
</svg>
