<svg width="468" height="896" viewBox="0 0 468 896" fill="none" xmlns="http://www.w3.org/2000/svg">
<path d="M268.77 275.338C268.049 278.292 270.759 277.914 280.869 273.633C288.066 270.632 295.31 268.914 301.14 268.854C303.069 268.823 302.174 268.429 295.774 266.758C288.544 264.872 287.769 264.763 283.6 265.517C276.584 266.745 269.669 271.332 268.77 275.338Z" fill="#99C6CE"/>
<path d="M297.29 255.188C297.015 259.06 298.725 262.286 302.875 265.592C305.474 267.696 306.796 268.403 311.105 269.789C313.947 270.756 316.298 271.495 316.329 271.452C316.36 271.409 315.012 270.289 313.302 269.035C311.111 267.361 309.973 266.133 309.172 264.626C308.576 263.466 306.843 261.078 305.287 259.345C300.673 254.252 299.934 251.673 302.159 248.639C303.099 247.358 303.974 246.882 306.142 246.436C308.057 246.066 308.658 245.784 307.977 245.547C304.957 244.646 302.099 246.033 299.466 249.621C297.837 251.843 297.455 252.812 297.29 255.188Z" fill="#99C6CE"/>
<path d="M272.169 288.542C269.571 294.325 271.704 300.292 276.711 301.533C279.74 302.243 280.031 301.668 277.261 300.425C275.214 299.45 274.69 298.999 273.963 297.48C272.791 295.044 273.147 292.676 275.059 290.07C276.939 287.507 279.389 285.69 285.829 282.199C291.53 279.087 295.747 277.909 310.118 275.438C315.991 274.423 320.667 273.516 320.538 273.422C320.068 273.077 305.138 270.932 301.893 270.786C293.936 270.338 281.79 276.411 275.174 284.175C273.918 285.619 272.593 287.605 272.169 288.542Z" fill="#99C6CE"/>
<path d="M288.353 292.921C287.615 296.257 289.22 298.551 293.372 300.151C294.415 300.522 295.669 300.785 296.177 300.631C296.906 300.443 296.755 300.201 295.048 299.212C290.439 296.62 292.316 291.82 299.935 286.632C304.702 283.36 306.338 282.654 317.673 278.943C322.691 277.3 326.429 275.968 326.004 275.92C323.69 275.668 309.656 276.874 307.542 277.426C298.632 279.893 289.668 287.184 288.353 292.921Z" fill="#99C6CE"/>
<path d="M341.766 222.428C338.867 228.712 340.395 234.695 346.007 238.877L348.743 240.884L344.361 241.481C335.798 242.757 330.778 247.091 329.331 254.441C328.477 258.743 329.134 263.496 330.935 266.329C333.512 270.256 338.915 272.839 345.247 273.08L347.348 273.175L344.561 274.285C339.124 276.409 335.187 279.895 333.726 283.949C332.418 287.524 332.972 291.61 335.387 296.206C339.209 303.544 346.083 305.826 354.295 302.518L355.973 301.843L355.165 304.47C353.852 308.501 353.65 312.362 354.5 316.402C355.407 320.813 355.915 321.645 359.597 324.871C368.749 332.832 377.898 329.949 383.581 317.361C384.43 315.487 385.133 313.9 385.164 313.857C385.164 313.857 386.052 319.371 387.102 326.186C388.206 333.107 389.558 339.421 390.142 340.507C393.928 347.358 402.857 351.409 415.096 351.844C420.251 352.077 424.32 351.907 424.602 351.523C424.665 351.437 422.941 349.844 420.726 348.023C410.349 339.491 406.004 328.025 408.238 315.208C409.015 310.652 411.111 304.567 413.917 298.411L414.549 297.101L410.645 296.866C408.502 296.74 405.177 296.075 403.25 295.384C400.281 294.323 399.534 293.907 398.266 292.32C396.567 290.154 394.218 285.737 394.303 284.814C394.351 284.389 393.702 284.11 392.502 283.953C387.227 283.435 377.691 288.728 376.022 293.155C375.281 295.24 374.594 295.46 374.543 293.647C374.494 290.129 382.702 284.584 389.718 283.356C391.824 282.995 393.516 282.66 393.462 282.554C393.231 281.793 389.578 281.216 386.74 281.5C382.673 281.935 378.886 283.691 376.499 286.409C374.425 288.698 373.895 287.718 375.806 285.112C378.251 281.779 385.702 279.688 391.322 280.721L393.701 281.152L388.842 277.917C383.139 274.128 381.119 273.566 375.773 274.311C369.062 275.303 362.66 278.295 357.662 282.778C354.397 285.705 352.731 288.426 352.424 291.354C352.162 293.594 352.088 293.605 351.081 291.75C349.362 288.715 352.151 282.941 357.342 278.732C364.257 273.159 376.444 269.81 381.908 272.042C382.6 272.353 383.27 272.516 383.332 272.43C383.426 272.302 383.244 271.117 382.922 269.763C382.308 267.014 382.698 263.883 383.963 261.262L384.854 259.419L383.336 260.145C381.016 261.335 378.888 261.548 374.166 261.173C363.152 260.323 350.456 254.953 349.381 250.682C348.984 249.34 349.101 249.36 352.98 252.139C356.132 254.386 357.987 255.352 361.467 256.524C370.735 259.576 382.467 260.165 384.316 257.644C385.048 256.735 385.048 256.735 385.082 257.943C385.117 259.151 385.253 259.054 386.82 256.918C387.803 255.668 389.353 253.913 390.276 253.013C391.934 251.47 391.954 251.353 391.438 248.74C391.135 247.27 391.149 244.651 391.448 242.899C391.949 240.244 392.342 239.35 394.237 237.125C395.45 235.65 396.359 234.411 396.274 234.348C396.231 234.317 395.296 234.157 394.245 233.977C391.728 233.643 383.723 227.705 379.955 223.43C374.995 217.821 371.081 209.891 371.291 205.839C371.396 203.813 373.536 201.703 375.488 201.821C376.867 201.912 376.836 201.955 375.519 203.749C373.859 206.014 373.808 208.145 375.319 212.539C378.036 220.577 386.895 229.834 394.709 232.806C397.328 233.807 397.858 233.801 399.701 232.722C400.892 232.085 402.727 231.196 403.847 230.835C404.924 230.442 405.862 229.881 405.859 229.616C405.93 229.34 404.665 228.017 403.165 226.655C396.453 220.746 391.077 212.926 388.828 205.954C387.048 200.312 388.104 190.178 391.476 180.56C394.292 172.507 394.415 173.057 390.189 174.426C385.456 175.948 375.706 181.085 372.828 183.574C369.993 186.094 366.43 191.76 364.858 196.324C362.289 203.77 363.513 211.962 368.076 218.2L370.1 220.999L367.29 219.004C359.703 213.57 351.958 212.029 347.379 215.045C345.632 216.261 343.165 219.445 341.766 222.428ZM357.938 222.789C358.396 230.682 373.632 242.448 384.723 243.552L386.952 243.741L384.37 244.213C380.096 245.021 376.818 243.931 370.805 239.849C365.336 236.1 362.272 233.196 359.532 228.953C357.808 226.374 356.624 221.892 357.376 220.866C357.596 220.567 357.881 221.433 357.938 222.789ZM340.869 253.77C344.763 259.846 353.946 264.807 365.068 266.854C371.856 268.087 379.205 267.3 380.803 265.121C381.994 263.498 382.815 263.903 382.04 265.766C379.955 270.939 362.672 269.762 349.574 263.506C347.485 262.5 345 261.137 344.102 260.478C342.264 259.13 339.713 255.616 339.807 254.502C339.878 253.24 340.362 252.938 340.869 253.77ZM383.317 211.046C384.218 210.984 384.209 211.175 383.489 212.157C382.266 213.824 383.185 218.308 385.397 221.836C386.788 223.974 388.128 225.285 391.217 227.617C393.409 229.29 395.928 230.875 396.78 231.237L398.313 231.836L396.681 231.821C394.635 231.832 388.245 227.276 385.654 223.996C383.396 221.158 381.37 217.108 381.039 214.96C380.73 212.96 381.813 211.125 383.317 211.046ZM368.839 243.336C371.992 247.553 385.337 249.259 389.34 245.953C390.79 244.782 391.17 246.506 389.885 248.258C387.722 251.206 380.599 253.209 375.321 252.427C372.879 252.081 369.356 249.892 369.419 248.82C369.436 248.439 370.074 248.644 371.015 249.334C375.29 252.469 384.297 252.111 388.055 248.69C389.283 247.554 389.166 247.534 385.294 248.242C380.279 249.163 373.833 248.181 370.193 245.972C368.603 245.002 367.628 244.09 367.451 243.435C367.041 241.754 367.633 241.663 368.839 243.336ZM388.402 217.47C387.91 218.948 388.089 219.869 389.432 222.43C390.84 225.172 391.527 225.938 394.563 228.165C396.743 229.764 397.718 230.676 397.102 230.619C396.561 230.55 394.777 229.307 393.044 227.905C387.78 223.518 385.105 217.483 387.901 216.182C388.955 215.641 388.966 215.715 388.402 217.47ZM384.037 290.295C385.835 288.919 387.923 287.954 389.647 287.576C392.662 286.961 392.674 287.035 388.995 289.003C379.268 294.287 369.377 310.82 372.253 316.938C372.71 317.93 372.755 318.226 372.211 317.893C370.299 316.556 371.309 309.083 374.22 302.873C376.157 298.708 380.977 292.584 384.037 290.295ZM399.988 296.605C401.002 296.298 400.857 296.586 399.119 298.597C394.922 303.601 391.975 313.267 392.099 321.703C392.212 328.094 394.418 333.064 397.661 333.931C398.852 334.279 398.992 334.447 398.459 335.173C397.676 336.242 395.311 336.15 393.643 334.927C391.121 333.077 389.769 325.777 390.491 318.159C391.083 312.153 393.948 303.675 396.674 299.958C398.022 298.12 399.301 296.825 399.988 296.605ZM401.914 298.281C402.601 298.062 402.55 298.222 401.615 299.048C399.894 300.677 397.98 304.99 397.178 309.132C395.911 315.431 396.835 320.446 399.417 321.945C401.198 322.923 400.871 323.997 398.97 323.72C395.402 323.206 394.326 314.992 396.687 306.932C397.934 302.722 400.256 298.839 401.914 298.281ZM401.838 300.985C398.927 306.209 398.76 314.235 401.456 315.49C402.81 316.154 402.573 316.835 401.066 316.649C397.509 316.209 397.921 305.34 401.715 300.435L403.325 298.33L401.838 300.985Z" fill="#99C6CE"/>
<path d="M402.199 170.422C395.987 184.001 392.903 194.75 393.531 200.796C393.971 205.127 396.719 212.136 399.473 215.733C401.346 218.289 402.491 219.327 406.208 221.79C413.469 226.59 419.97 227.678 431.262 225.907L437.634 224.93L436.381 228.61C434.686 233.61 434.784 237.69 436.711 241.337C438.065 243.973 438.601 244.498 441.591 246.428C445.797 249.119 446.55 249.079 446.506 246.09C446.437 242.688 447.57 237.737 448.824 236.028C451.801 231.969 459.423 228.032 465.923 227.148C472.095 226.352 479.915 228.868 487.595 234.173L491.537 236.867L491.203 234.454C490.661 230.442 488.18 222.708 485.925 218.163C481.187 208.577 475.071 202.842 466.943 200.298C461.571 198.658 457.716 197.998 445.787 196.871C434.357 195.782 427.771 194.631 423.565 192.926C413.097 188.731 406.316 177.449 406.838 165.084C407.022 161.605 406.945 161.352 406.173 162.494C405.672 163.178 403.908 166.747 402.199 170.422ZM431.973 202.707C434.187 201.571 437.242 200.723 441.126 200.089C447.762 199.109 449.557 199.44 444.292 200.703C436.393 202.598 431.167 205.599 429.122 209.553C427.626 212.398 427.846 214.071 430.112 216.718L432.056 218.998L429.796 217.867C428.516 217.191 426.977 216.062 426.259 215.338C422.944 211.79 425.573 205.964 431.973 202.707ZM440.081 204.383C443.4 202.546 447.472 201.656 452.561 201.709C456.178 201.798 463.96 202.841 463.709 203.183C463.647 203.268 461.632 203.236 459.267 203.144C452.966 202.86 446.541 203.732 443.483 205.301C440.215 206.978 436.665 210.025 435.984 211.76C435.241 213.581 436.316 215.88 438.71 217.636C439.864 218.483 440.742 219.258 440.648 219.386C440.585 219.472 439.619 219.355 438.556 219.101C434.655 218.145 432.024 215.098 432.713 212.186C433.169 210.221 437.109 206.014 440.081 204.383ZM450.468 206.087C454.921 204.228 458.329 203.705 461.741 204.433C465.194 205.192 470.267 207.599 472.718 209.725C474.731 211.464 474.295 211.341 468.891 208.758C461.835 205.291 457.56 205.113 452.035 207.894C448.029 209.95 446.061 212.186 446.118 214.528C446.161 215.545 446.666 217.098 447.29 217.95C448.724 220.119 448.211 220.728 446.441 218.838C441.915 214.073 443.481 208.979 450.468 206.087ZM457.573 212.087C460.878 210.897 467.199 211.065 471.2 212.423C475.084 213.76 477.456 215.368 480.246 218.466C482.264 220.735 485.502 226.001 484.952 226.123C484.761 226.115 483.698 224.875 482.515 223.35C479.976 219.91 474.951 216.094 471.172 214.702C467.681 213.456 461.01 213.228 458.625 214.239C457.032 214.976 456.739 215.286 456.488 216.614L456.198 218.175L457.395 217.082C459.021 215.581 461.005 216.641 461.085 219.131C461.225 222.257 457.909 223.373 454.959 221.209C451.453 218.638 452.863 213.758 457.573 212.087Z" fill="#99C6CE"/>
<path d="M266.824 363.868C266.89 366.019 267.742 367.367 272.568 373.338C276.726 378.425 278.496 381.3 277.87 382.155C277.744 382.326 275.895 381.889 273.84 381.105C262.387 376.91 260.127 376.764 257.902 379.797C256.053 382.318 256.008 383.007 257.439 385.897C258.294 387.51 258.573 388.832 258.232 389.567C257.984 390.174 257.124 391.974 256.389 393.603C254.016 398.631 254.111 401.461 256.804 403.436C258.941 405.004 260.768 405.292 265.353 404.778C269.006 404.369 272.112 404.347 271.83 404.732C271.767 404.817 269.853 406.173 267.59 407.733C264.781 409.681 262.787 411.504 261.365 413.353C257.488 418.46 258.147 421.506 264.26 425.989C266.152 427.443 269.105 429.872 270.701 431.371C277.408 437.735 279.953 439.734 281.97 440.031C286.208 440.707 288.359 437.685 292.164 425.954C294.664 418.063 297.227 412.058 297.869 412.528C298.04 412.653 297.63 415.901 296.972 419.756C295.831 426.87 295.938 432.73 297.346 435.472C298.355 437.592 300.94 439.356 303.243 439.534C304.622 439.626 305.699 439.233 307.161 438.136C309.221 436.493 311.728 436.033 318.556 436.046C329.518 436.07 333.478 426.818 325.936 418.724C323.265 415.911 325.79 417.04 330.422 420.765C333.973 423.633 334.714 424.505 336.533 427.941C338.967 432.421 340.002 436.926 339.815 442.111C339.691 446.225 338.202 453.544 336.818 456.866C335.205 460.677 327.064 472.316 320.992 479.428C312.252 489.642 307.756 493.441 297.102 499.36C294.025 501.046 291.392 502.663 291.204 502.92C290.578 503.774 292.601 504.601 293.994 504.046C296.223 503.249 307.682 495.424 313.768 490.623C322.355 483.845 326.002 479.948 331.762 471.557C342.918 455.361 345.703 443.407 341.07 431.795C338.584 425.503 332.675 419.396 327.075 417.26C323.285 415.794 318.221 412.211 315.097 408.671C313.079 406.402 313.079 406.402 314.666 407.107C315.561 407.5 319.243 409.741 322.831 412.11C330.147 417.016 332.989 417.983 336.123 416.667C339.405 415.329 340.602 412.264 341.056 404.384C341.255 401.244 341.725 399.617 343.61 395.612C344.938 392.906 346.031 390.16 346.151 389.459C346.407 387.676 345.025 385.347 342.588 383.56C338.612 380.644 333.896 380.799 326.67 384.107C321.438 386.578 316.073 388.425 315.56 388.049C314.748 387.453 318.078 384.705 324.563 380.525C331.216 376.205 333.778 373.878 334.398 371.508C335.102 368.936 334.067 367.388 328.296 362.169C323.091 357.432 322.792 357.213 319.6 356.186C314.61 354.563 310.889 354.527 308.116 355.977C306.008 357.059 305.62 357.497 304.575 359.819C303.923 361.246 302.84 365.052 302.166 368.303C301.448 371.522 300.312 375.222 299.594 376.47C298.398 378.55 298.401 378.815 299.401 379.154C300.039 379.359 301.778 380.306 303.282 381.212C309.313 384.913 312.15 391.264 310.911 398.242C310.302 401.672 309.909 402.566 307.798 405.355C305.918 407.918 304.847 408.841 302.507 410.148C292.093 415.651 278.978 408.792 277.79 397.144C277.316 392.591 278.162 389.466 280.951 385.663C284.355 380.932 289.025 378.509 294.645 378.557L297.529 378.569L296.062 367.571C295.2 361.485 294.084 355.476 293.509 354.199C291.921 350.538 290.405 350.543 283.552 354.059C280.284 355.736 277.064 356.988 275.497 357.153C270.795 357.647 266.664 360.859 266.824 363.868Z" fill="#99C6CE"/>
<path d="M412.303 165.61C411.74 168.351 412.45 173.209 413.978 177.221C414.916 179.617 415.669 180.564 417.883 182.385C421.446 185.327 424.273 185.954 434.004 185.864C445.941 185.814 455.377 187.741 467.72 192.785C473.747 195.235 474.622 195.745 478.997 199.282C482.463 202.087 484.649 204.216 486.801 207.109C492.362 214.407 497.747 225.98 500.741 237.047C501.349 239.266 501.979 241.634 502.144 242.216C502.441 243.156 503.173 243.233 507.938 242.654C517.88 241.469 525.548 238.814 532.018 234.294C536.68 231.077 541.426 224.964 542.912 220.338C547.033 207.458 543.184 193.792 534.645 190.553C531.793 189.512 526.894 189.467 523.714 190.486L521.221 191.286L524.121 186.973C526.562 183.376 527.132 182.151 527.653 179.379C528.772 173.103 526.223 167.882 519.756 163.073C515.171 159.644 511.722 158.429 507.633 158.715C502.199 159.132 496.048 163.754 491.809 170.699L489.601 174.336L490.455 169.049C492.368 157.835 489.408 150.934 482.184 149.578C478.827 148.955 473.088 149.609 469.923 150.967C467.686 151.954 466.982 152.555 464.757 155.589C462.219 159.05 462.188 159.092 461.897 157.696C460.707 151.698 455.224 148.596 448.262 149.93C445.131 150.525 441.435 152.874 439.618 155.352C438.584 156.762 436.171 162.023 435.807 163.596C435.667 164.413 435.348 164.311 433.239 162.435C429.898 159.46 426.41 158.478 421.369 158.986C415.44 159.631 413.189 161.266 412.303 165.61ZM423.505 163.247C425.739 162.98 426.451 163.174 428.247 164.491C430.042 165.807 430.387 166.323 430.424 167.796C430.516 171.346 427.67 172.807 425.091 170.587C423.817 169.455 423.668 169.478 422.475 170.836C421.406 172.024 421.275 172.651 421.683 174.067C422.621 177.449 430.262 182.002 435.086 182.058C436.147 182.047 436.956 182.378 437.173 182.799C437.369 183.338 436.628 183.452 434.813 183.237C426.142 182.331 421.872 180.711 418.717 177.214C415.434 173.623 415.49 170.05 418.912 165.923C420.701 163.753 421.154 163.494 423.505 163.247ZM446.539 167.788C448.93 166.321 453.156 165.938 455.775 166.939C457.989 167.775 459.787 169.357 462.187 172.628C462.854 173.512 463.022 173.372 465.148 170.923C467.985 167.682 471.276 166.153 475.126 166.282C477.417 166.386 478.301 166.705 480.438 168.273C483.944 170.844 485.58 174.081 486.508 180.347L487.23 185.279L488.757 184.362C489.663 183.844 491.712 183.112 493.373 182.82C503.677 180.783 510.745 188.268 508.915 199.279C508.667 200.871 507.981 203.062 507.463 204.128C506.289 206.355 506.44 206.597 508.814 206.499C513.795 206.341 518.774 208.875 521.735 213.085C523.771 215.957 524.262 221.114 522.937 225.071C521.397 229.592 517.252 234.437 513.203 236.461C509.934 238.138 505.073 238.581 503.491 237.421C502.978 237.045 502.109 235.093 501.61 233.084C500.358 228.157 493.875 213.152 491.514 209.646C488.832 205.773 481.755 198.48 477.737 195.532C475.257 193.714 473.242 192.696 470.486 191.792C464.986 190.058 447.338 185.524 443.949 184.944L441.114 184.507L440.654 181.279C440.455 179.49 440.523 176.977 440.933 175.701C441.832 172.681 444.422 169.061 446.539 167.788Z" fill="#99C6CE"/>
<path d="M444.022 177.047C443.088 181.816 443.938 183.884 445.068 179.654C445.618 177.56 445.774 177.346 447.524 176.395C452.741 173.585 457.557 175.804 459.778 182.098C460.434 183.893 460.853 184.398 462.184 184.914C463.227 185.285 463.905 185.256 464.102 184.809C464.728 182.969 467.954 179.289 469.578 178.509C475.114 175.801 480.715 182.866 481.005 192.87C480.991 193.516 481.541 194.38 482.182 194.85C483.165 195.571 483.789 195.438 486.593 193.946C491.431 191.383 495.318 192 497.713 195.728C499.654 198.729 499.524 207.242 497.425 210.104C496.798 210.959 496.764 211.722 497.36 212.882C497.793 213.726 498.3 214.558 498.514 214.715C498.728 214.871 500.381 214.769 502.276 214.516C509.75 213.559 513.472 217.538 512.155 224.982C511.608 228.327 511.255 228.988 508.996 231.799L506.486 234.952L508.158 234.733C514.342 234.012 520.912 225.951 520.702 219.424C520.519 215.281 516.261 210.778 511.65 209.893C510.291 209.684 507.504 209.809 505.367 210.213C500.5 211.111 499.793 210.461 502.174 207.214C506.217 201.703 507.173 193.138 504.129 189.131C502.461 186.923 499.138 185.537 495.81 185.593C493.542 185.637 487.772 188.305 486.675 189.8C485.829 190.954 484.076 191.64 483.392 191.138C483.093 190.919 483.03 189.033 483.337 187.09C484.262 180.54 482.178 173.163 478.672 170.592C476.791 169.212 473.42 169.236 470.636 170.611C468.2 171.782 467.699 172.465 463.972 178.8C463.651 179.418 462.924 179.871 462.351 179.845C461.545 179.78 461.169 179.306 460.758 177.625C460.014 174.517 457.197 171.005 454.652 169.993C450.021 168.239 445.138 171.491 444.022 177.047Z" fill="#99C6CE"/>
<path d="M214.21 459.984C213.752 461.685 214.775 465.13 216.346 467.202C218.584 470.157 224.577 474.356 227.264 474.816C229.718 475.235 232.644 474.293 233.804 472.713C234.744 471.431 235.276 466.761 234.646 465.379C234.158 464.43 234.096 464.516 233.54 466.08C232.729 468.441 230.706 469.586 228.463 469.058C223.413 467.786 219.611 464.274 219.36 460.673C219.194 458.12 219.86 457.032 222.362 456.041C225.075 454.942 228.683 455.223 233.96 456.991C243.878 460.323 252.063 467.18 258.283 477.525C260.107 480.506 260.35 481.341 259.786 482.11C258.658 483.648 259.37 485.814 261.559 487.222C263.044 488.245 263.497 488.972 264.028 490.938C264.35 492.291 264.387 493.764 264.043 494.234C263.228 495.345 263.69 497.853 264.887 498.731C265.443 499.138 265.976 500.383 266.147 501.495C266.367 503.167 266.193 503.763 265.165 504.717C263.569 506.175 263.635 508.326 265.345 509.58C266.243 510.239 266.443 511.042 266.321 513.45C266.028 517.703 264.536 524.757 263.163 528.153L261.987 531.101L263.579 528.392C266.078 524.179 267.351 520.382 268.193 515.02C268.534 512.314 269.124 509.986 269.409 509.867C270.19 509.519 270.283 507.419 269.476 506.368C269.046 505.789 268.487 504.131 268.259 502.649C267.865 500.586 268.005 499.769 268.709 499.168C270.221 497.912 269.528 494.644 267.568 493.731C265.564 492.788 263.714 488.408 264.779 486.955C265.155 486.442 265.355 485.274 265.229 484.459C265.024 483.126 264.616 482.696 262.963 481.812C261.256 480.823 260.558 479.982 258.599 476.377C250.367 461.336 239.619 452.862 228.046 452.325C224.345 452.173 220.484 452.955 218.347 454.344C216.831 455.335 214.637 458.326 214.21 459.984Z" fill="#99C6CE"/>
<path d="M282.413 389.496C278.457 397.042 283.26 406.807 291.824 408.489C304.192 410.989 312.923 396.037 304.591 386.509C298.247 379.293 286.994 380.83 282.413 389.496ZM285.192 391.534C287.674 390.66 290.265 393.94 288.73 396.034C287.977 397.059 285.427 397.489 284.401 396.736C283.204 395.858 282.885 393.784 283.674 392.26C283.725 392.1 284.431 391.765 285.192 391.534ZM293.746 389.463C297.295 392.065 297.507 396.886 294.247 399.358C292.617 400.594 290.195 401.117 288.483 400.584C287.653 400.37 287.662 400.179 288.556 399.587C289.103 399.2 290.121 398.171 290.705 397.286C292.177 395.277 291.843 391.878 290.031 389.957L288.796 388.592L290.352 388.353C291.464 388.183 292.464 388.522 293.746 389.463Z" fill="#99C6CE"/>
<path d="M395.82 246.172C395.226 256.841 400.383 262.989 411.451 264.93C417.071 265.964 421.738 265.247 426.28 262.73C431.275 259.954 440.068 253.524 440.899 252.032C441.492 250.955 440.942 251.077 436.485 252.671C427.045 256.129 416.496 257.066 409.423 254.966C405.137 253.728 404.752 253.446 404.002 250.793C403.144 247.929 403.596 245.699 405.508 243.092C407.075 240.956 408.163 240.637 407.517 242.595C406.89 244.435 408.259 248.396 409.969 249.65C413.688 252.378 419.931 249.334 420.663 244.483C421.414 239.514 418.507 235.41 413.631 234.528C407.427 233.395 402.124 235.156 398.315 239.722C396.127 242.257 396.024 242.576 395.82 246.172Z" fill="#99C6CE"/>
<path d="M387.602 264.457C387.144 267.144 387.852 270.751 389.069 272.498C390.705 274.749 393.449 275.58 396.909 274.897C400.844 274.103 402.379 272.01 401.609 268.488C401.141 266.437 400.796 265.921 399.454 265.331C397.536 264.449 395.199 264.05 393.889 264.403C391.404 265.011 392.202 263.297 395.754 260.514C396.395 259.999 396.432 259.5 395.859 258.489C394.81 256.602 394.491 256.499 392.73 257.376C390.727 258.404 387.938 262.207 387.602 264.457Z" fill="#99C6CE"/>
<path d="M188.053 556.514C187.771 557.885 187.689 559.073 187.817 559.167C187.945 559.261 188.979 557.851 190.062 556.017C192.873 551.376 196.07 548.99 200.219 548.353C207.48 547.239 211.247 549.542 217.444 558.753C219.642 561.942 222.333 565.624 223.439 566.895C226.582 570.318 228.054 575.931 228.9 587.328C229.154 591.194 229.166 591.269 230.295 580.137C231.663 566.619 230.273 558.832 225.319 551.781C222.315 547.541 216.923 544.046 212.164 543.184C207.957 542.464 201.047 543.638 196.873 545.833C192.836 547.932 188.745 552.882 188.053 556.514Z" fill="#99C6CE"/>
<path d="M224.756 515.885C224.58 517.201 224.717 517.104 226.842 514.655C230.067 510.975 232.221 510.189 237.097 511.072C242.164 511.962 246.359 514.579 248.893 518.475C252.861 524.539 253.683 529.873 252.409 541.292C252.013 544.879 251.769 547.722 251.863 547.594C252.74 546.398 255.476 532.897 255.535 529.589C255.593 522.338 252.922 515.582 248.427 511.759C244.853 508.744 241.841 507.651 237.102 507.658C230.995 507.648 225.323 511.438 224.756 515.885Z" fill="#99C6CE"/>
<path d="M155.259 612.431C154.536 615.12 155.189 619.608 156.68 622.147L157.889 624.085L157.748 620.959C157.5 616.637 158.359 612.865 160.006 611.247C163.174 608.183 171.743 606.451 177.884 607.67C183.356 608.726 187.063 610.394 193.291 614.633C201.322 619.998 205.959 625.239 214.747 638.716C216.948 642.169 218.898 644.979 219.046 644.957C219.596 644.834 208.777 625.072 206.637 622.253C193.673 605.057 174.853 597.101 162.797 603.767C159.31 605.743 156.147 609.337 155.259 612.431Z" fill="#99C6CE"/>
<path d="M400.354 277.819C398.765 281.778 399.515 285.417 402.522 288.937C404.916 291.678 407.325 292.788 410.396 292.544C413.987 292.22 416.568 290.762 418.762 287.771C422.084 283.243 421.011 278.251 416.403 276.645C411.145 274.76 406.957 280.559 409.865 285.649L411.054 287.703L409.267 287.181C408.352 286.904 407.084 286.303 406.485 285.864C405.16 284.892 403.777 281.578 404.014 279.911C404.221 278.552 409.577 270.981 411.176 269.788C412.059 269.122 412.005 269.016 410.717 268.531C409.662 268.086 408.859 268.286 407.522 269.211C405.334 270.76 401.169 275.722 400.354 277.819Z" fill="#99C6CE"/>
<path d="M223.522 526.084C223.453 526.626 224.043 526.27 225.26 525.059C227.775 522.436 230.226 521.605 233.837 522.151C236.438 522.547 237.504 523.066 240.186 524.968C246.214 529.389 248.047 535.136 246.97 546.108C246.668 549.567 246.412 552.336 246.506 552.208C247.07 551.439 249.243 541.664 249.439 539.245C249.672 535.342 248.742 530.783 246.974 527.187C245.11 523.454 240.886 520.159 237.159 519.593C233.431 519.028 230.382 519.42 228.117 520.715C225.989 521.914 223.57 524.674 223.522 526.084Z" fill="#99C6CE"/>
<path d="M188.684 577.347C188.103 578.498 187.425 580.498 187.174 581.826C186.651 584.333 187.074 591.017 187.866 592.715C188.268 593.602 188.394 593.431 188.772 591.211C189.099 589.151 189.68 588.001 192.281 584.454C197.577 577.234 201.552 575.221 207.052 576.955C210.201 577.951 215.32 581.639 217.045 584.218C220.18 588.818 222.596 599.329 222.949 610.233C223.195 616.262 223.258 617.162 223.477 614.891C223.531 614.011 224.091 608.048 224.699 601.661C225.922 588.43 225.591 584.31 222.623 578.585C218.139 569.908 210.188 565.061 202.366 566.224C199 566.778 196.29 568.142 193.447 570.853C190.866 573.297 190.051 574.408 188.684 577.347Z" fill="#99C6CE"/>
<path d="M222.963 536.976C222.712 538.304 222.786 538.293 224.515 536.473C227.168 533.753 229.163 532.916 232.061 533.267C236.424 533.773 237.715 534.523 239.089 537.042C241.027 540.764 242.177 549.952 241.381 555.611C240.362 563.274 240.564 563.357 242.424 555.981C244.986 546.033 245.216 540.879 243.312 536.394C241.256 531.666 237.07 529.844 230.912 530.979C226.489 531.809 223.671 533.948 222.963 536.976Z" fill="#99C6CE"/>
<path d="M422.147 271.592C421.797 272.518 421.726 274.766 422 276.544C422.371 279.445 422.599 279.941 424.309 281.195C429.513 284.946 436.397 283.359 437.368 278.091C438.031 274.766 435.421 271.603 432.771 272.616C431.409 273.129 431.283 273.3 431.167 275.251C431.036 276.864 430.808 277.354 430.141 277.456C428.66 277.683 427.767 276.569 427.357 273.902C426.854 270.643 427.863 267.834 430.31 265.752C432.683 263.681 432.84 263.468 431.526 263.556C428.369 263.737 423.412 267.986 422.147 271.592Z" fill="#99C6CE"/>
<path d="M164.751 627.278C164.048 629.851 164.505 633.8 165.807 635.609L166.702 636.989L166.625 634.764C166.468 632.02 167.137 628.239 167.94 627.054C168.911 625.73 172.499 624.156 175.969 623.547C182.139 622.487 187.741 623.902 195.168 628.298C202.148 632.497 206.74 637.442 214.234 648.918C216.055 651.634 217.617 653.897 217.765 653.874C217.871 653.82 216.049 650.118 213.646 645.596C208.557 635.95 205.257 631.755 198.85 626.595C193.298 622.063 188.724 619.694 183.794 618.706C175.156 617.037 166.579 620.931 164.751 627.278Z" fill="#99C6CE"/>
<path d="M276.34 485.446C277.96 494.98 278.041 496.484 277.227 503.51C276.917 506.174 276.843 508.157 277 507.943C278.003 506.576 286.103 486.299 286.442 484.313C286.968 481.085 286.246 477.139 284.784 475.278C282.43 472.303 278.178 472.273 275.953 475.306C274.95 476.673 274.982 477.617 276.34 485.446Z" fill="#99C6CE"/>
<path d="M226.902 546.306C229.968 544.546 234.055 545.966 236.162 549.549C237.413 551.518 237.796 556.464 237.038 558.931C236.699 559.931 236.591 560.706 236.813 560.672C237.004 560.68 237.574 559.455 238.035 558.02C239.861 552.393 237.919 546.435 233.767 544.835C231.222 543.823 228.048 544.386 226.37 546.046L225.059 547.385L226.902 546.306Z" fill="#99C6CE"/>
<path d="M193.228 600.196C192.524 601.783 192.097 603.441 192.24 603.874C192.707 604.94 193.203 604.712 193.126 603.473C193.034 601.894 195.981 599.85 198.565 599.643C201.426 599.507 203.612 600.65 207.374 604.395C211.393 608.328 212.716 611.007 216.625 622.351C219.57 630.885 219.667 631.022 219.43 627.76C219.067 621.711 216.226 607.208 214.598 602.794C212.345 596.542 209.974 592.963 206.995 591.107C204.316 589.47 202.45 589.416 199.985 590.893C198.036 592.027 194.977 596.288 193.228 600.196Z" fill="#99C6CE"/>
<path d="M451.944 247.91C449.909 259.559 458.37 266.489 472.119 264.416C479.232 263.325 485.039 260.159 490.255 254.391C492.979 251.395 492.831 250.432 489.981 252.613C486.753 255.042 480.744 258.126 476.592 259.483C468.66 262.142 461.971 260.324 459.665 254.953C458.795 253.001 458.71 251.952 459.276 250.463C460.626 246.919 461.122 246.691 461.681 249.335C463.03 255.384 467.316 255.637 471.453 249.997C472.831 248.117 473.005 247.521 472.674 245.373C472.252 242.632 470.553 240.466 467.814 239.18C465.725 238.174 460.525 238.631 457.636 240.06C455 241.412 452.462 244.873 451.944 247.91Z" fill="#99C6CE"/>
<path d="M440.079 266.149C439.757 267.753 439.74 270.106 440.083 271.343C440.727 274.049 442.925 278.224 444.609 280.051C445.285 280.744 445.77 281.428 445.676 281.556C445.613 281.641 444.325 282.142 442.889 282.666C438.495 284.174 430.825 288.537 427.22 291.478C422.682 295.246 417.762 301.954 415.814 307.03C413.125 314.192 412.278 323.953 414.017 328.843C416.426 335.867 421.879 342.954 432.69 353.315L434.158 354.72L433.026 351.064C428.863 337.826 431.806 323.951 440.325 316.729C443.582 313.992 451.004 310.237 461.117 306.221C478.555 299.298 484.504 295.579 488.723 288.751C493.35 281.368 495.527 270.152 494.568 259L494.216 254.997L490.877 258.922C482.493 268.74 474.805 272.498 465.117 271.634C457.773 270.979 452.506 268.298 450.383 264.112C449.775 262.878 448.829 260.673 448.347 259.268C447.132 255.815 446.434 255.96 443.161 260.064C441.038 262.778 440.54 263.727 440.079 266.149ZM441.223 289.329C441.95 288.877 441.901 289.301 440.873 291.241C438.836 295.004 439.136 296.209 442.57 299.057C446.486 302.323 448.484 302.737 461.145 302.955C463.541 303.005 456.634 304.444 452.915 304.673C446.008 305.127 440.496 303.318 437.988 299.836C436.232 297.3 436.357 295.157 438.499 292.326C439.471 291.001 440.707 289.674 441.223 289.329ZM448.255 286.734L450.028 285.931L448.393 288.608C447.059 290.785 446.877 291.571 447.245 293.221C447.778 295.452 448.75 296.099 454.538 297.979C458.539 299.336 464.566 298.828 471.539 296.583C477.434 294.73 477.953 294.651 475.106 296.111C470.784 298.329 464.307 300.347 460.241 300.781C452.077 301.693 443.108 296.889 443.999 292.088C444.349 290.177 446.346 287.633 448.255 286.734ZM456.736 285.66C455.791 290.355 458.054 292.737 464.437 293.805C470.427 294.782 474.989 293.134 480.362 288.138C481.747 286.788 483.385 285.362 484.038 284.92C485.773 283.63 482.91 287.444 479.91 290.369C476.585 293.647 472.758 295.637 468.809 296.092C465.156 296.501 459.049 295.504 457.253 294.187C454.346 292.055 453.798 287.513 456.097 284.469L457.351 282.76L456.736 285.66ZM466.141 278.036C468.184 277.76 469.424 278.67 469.732 280.67C470.12 283.189 468.841 284.485 466.88 283.572L465.409 282.888L466.156 284.29C466.795 285.481 467.168 285.689 469.089 285.849C471.773 286.044 477.529 284.023 480.78 281.742C484.136 279.407 488.094 273.833 489.634 269.312C490.978 265.238 491.249 266.751 490.008 271.492C489.325 273.947 488.504 275.514 485.903 279.06C483.032 283.065 482.339 283.74 479.82 285.112C478.239 285.924 475.706 286.957 474.216 287.375C467.143 289.219 463.154 287.936 462.48 283.565C462.172 281.565 462.326 281.086 463.668 279.705C464.485 278.859 465.579 278.084 466.141 278.036Z" fill="#99C6CE"/>
<path d="M175.651 640.924C174.714 643.456 174.877 646.73 176.08 649.124C177.542 651.97 177.733 651.979 177.448 649.141C176.865 642.406 179.458 639.05 186.239 637.782C190.471 636.943 191.876 637.448 198.408 642.436C206.554 648.542 211.59 654.405 219.358 666.673C220.869 669.095 222.183 670.979 222.331 670.956C222.818 670.919 212.627 652.274 209.987 648.432C199.484 633.171 188.717 628.757 179.551 635.965C176.839 638.049 176.588 638.391 175.651 640.924Z" fill="#99C6CE"/>
<path d="M355.196 403.124C353.498 408.844 353.08 412.283 352.334 428.36C351.945 437.406 351.252 446.688 350.779 449.036C348.949 459.061 345.793 466.143 339.275 475.03C329.09 488.916 318.164 497.986 298.657 508.715C286.875 515.186 285.622 515.91 285.835 516.067C286.092 516.255 304.69 508.737 313.531 504.84C330.961 497.122 347.424 487.315 358.772 478.029C368.123 470.299 372.893 465.321 379.348 456.519C389.846 442.206 394.794 430.262 395.885 416.672C396.684 406.35 398.424 400.661 402.654 394.893L404.911 391.816L401.947 391.285C397.519 390.6 393.295 391.248 389.628 393.29C386.625 394.964 386.226 395.328 382.184 400.84L377.953 406.608L375.499 403.231C372.27 398.759 367.501 395.131 364.529 394.791C360.443 394.356 356.81 397.606 355.196 403.124ZM362.866 428.791C363.724 428.698 365.285 428.989 366.277 429.519C368.036 430.349 368.187 430.591 368.626 433.936C369.445 439.991 367.099 450.361 363.513 456.864C360.986 461.385 361.77 461.302 365.26 456.634C372.499 446.764 376.249 435.913 375.287 427.454C374.899 423.949 373.217 421.402 370.92 420.768C369.293 420.298 369.313 420.181 371.39 419.142C373.046 418.319 374.257 418.55 376.426 420.075C379.182 421.965 379.044 430.669 376.182 439.412C373.453 447.793 366.161 459.529 361.212 463.587C359.972 464.649 357.477 467.156 355.75 469.241C352.474 473.08 350.046 475.045 347.322 476.07C345.242 476.844 345.353 476.334 347.615 474.774C350.468 472.857 355.781 467.226 355.351 466.648C355.103 466.269 355.291 466.013 356.029 465.634C356.735 465.298 357.801 463.845 359.35 461.105C367.264 446.999 368.144 432.531 361.222 430.674C359.946 430.263 359.891 430.158 360.564 429.6C361.005 429.267 362.051 428.917 362.866 428.791Z" fill="#99C6CE"/>
<path d="M153.806 683.975C152.063 688.413 151.604 692.085 152.175 696.775C152.829 702.249 155.597 708.156 158.145 709.433C158.849 709.818 158.72 708.738 157.48 704.872C155.732 699.187 155.444 696.084 156.343 692.079C156.827 689.805 157.357 688.814 159.827 685.894C166.158 678.25 171.05 676.778 182.854 679.062C186.912 679.804 191.788 680.686 193.688 680.963C200.22 682.008 209.169 686.929 227.531 699.543L238.438 707.083L230.677 699.288C226.411 694.976 220.63 688.962 217.84 685.864C213.419 681.045 211.792 679.588 205.647 675.147C199.833 670.882 197.869 669.705 194.484 668.405C185.572 664.957 176.037 664.6 169.304 667.415C162.614 670.262 156.819 676.46 153.806 683.975Z" fill="#99C6CE"/>
<path d="M246.279 569.191C230.825 597.611 226.121 629.842 231.959 667.241C233.157 675.02 234.167 679.112 236.243 684.708C241.007 697.665 251.486 716.456 264.165 734.757C279.774 757.311 286.518 769.092 292.428 784.072C293.965 787.893 295.379 791.164 295.636 791.352C296.833 792.23 298.99 791.71 300.055 790.257C301.089 788.847 301.032 788.477 299.056 783.282C296.599 776.682 290.122 764.178 285.182 756.481C283.229 753.406 277.098 744.375 271.563 736.504C259.705 719.593 255.497 712.958 249.628 701.688C241.15 685.547 237.432 675.198 235.651 662.656C231.202 631.072 236.146 599.411 250.14 570.381C254.256 561.9 261.871 551.518 268.003 546.027C280.707 534.712 298.005 524.664 316.589 517.793C345.784 506.942 364.993 506.838 389.132 517.315C394.746 519.79 413.792 529.948 423.886 535.906C430.641 539.875 435.89 541.951 441.86 543.044C454.023 545.197 467.626 539.469 471.694 530.428C473.588 526.231 474.08 522.781 473.315 517.818C472.083 509.817 467.642 503.143 460.252 498.248C456.663 495.879 455.364 495.32 452.155 494.675C444.059 493.074 435.078 495.817 430.548 501.366C428.528 503.761 428.186 504.496 427.876 507.16C426.834 514.676 429.585 519.979 436.163 523.292C444.254 527.321 449.779 525.525 449.855 518.878C449.843 515.846 449.389 514.134 449.124 516.108C448.692 519.208 445.381 520.853 441.144 520.177C439.083 519.848 436.974 517.973 436.444 516.007C435.913 514.041 436.528 510.155 437.613 508.585C438.585 507.261 444.859 506.146 447.211 506.885C450.052 507.852 453.982 511.457 455.747 514.789C457.48 518.163 458.099 523.414 457.011 525.704C455.456 528.9 450.84 530.443 442.656 530.485C431.557 530.558 413.748 525.973 400.448 519.635C385.677 512.612 379.333 510.325 369.57 508.487C352.392 505.284 334.998 507.574 311.334 516.173C296.93 521.378 280.586 530.484 270.489 538.783C262.924 545.062 251.902 558.925 246.279 569.191Z" fill="#99C6CE"/>
<path d="M188.845 657.895C188.894 658.456 189.096 659.525 189.304 660.137C189.647 661.374 189.678 661.331 189.965 659.505C190.449 656.246 191.72 655.141 195.151 654.766C199.322 654.278 201.685 655.09 206.345 658.508C209.862 661.153 210.409 661.752 213.12 666.303C216.284 671.581 216.549 670.592 213.57 664.793C208.977 655.905 200.288 650.452 193.896 652.532C191.15 653.409 188.708 656.02 188.845 657.895Z" fill="#99C6CE"/>
<path d="M437.025 330.013C434.869 336.449 436.418 345.273 440.138 348.001C442.617 349.82 444.549 350.054 449.225 349.147C454.038 348.143 457.175 346.107 459.172 342.577L460.576 340.125L461.913 342.157C464.068 345.314 469.116 349.279 472.082 350.075C478.261 351.781 485.227 349.006 487.136 344.163C487.549 343.152 487.782 341.22 487.693 339.907L487.488 337.587L490.452 340.09C493.02 342.236 493.883 342.673 496.551 343.249C500.036 343.965 505.869 343.184 509.359 341.473C512.291 340.075 514.528 337.116 515.077 334.036C515.572 330.851 514.181 324.77 511.903 320.077L509.919 316.059L515.775 320.355C521.675 324.682 521.675 324.682 525.722 325.35C532.954 326.515 537.941 323.93 542.863 316.501C545.011 313.214 545.652 311.713 546.133 309.174C547.212 303.132 544.672 297.72 538.578 293.12L535.104 290.506L536.885 290.498C540.829 290.499 543.114 290.073 545.91 288.772C552.144 285.919 554.838 279.287 553.512 270.429C551.426 257.137 542.3 247.618 528.783 244.801C522.471 243.457 511.999 243.661 505.57 245.254L502.684 245.962L502.733 252.438C502.861 264.097 501.874 271.718 499.151 280.629C495.805 291.646 490.92 298.576 481.833 305.316C471.086 313.336 464.054 316.917 452.893 320.033C449.183 321.057 445.042 322.489 443.609 323.278C440.743 324.855 437.734 327.971 437.025 330.013ZM445.736 326.743C448.89 324.325 456.731 321.074 456.891 322.111C456.971 322.63 456.646 322.983 455.726 323.162C452.742 323.734 449.514 326.163 446.87 329.678C444.175 333.352 443.871 334.574 445.165 336.575C446.416 338.544 447.796 338.636 449.334 336.807C451.741 333.973 454.597 335.279 454.757 339.274C454.926 342.092 451.29 345.076 447.939 344.984C445.648 344.88 441.875 342.047 440.478 339.38C438.562 335.806 440.741 330.505 445.736 326.743ZM507.939 249.554C513.438 247.345 522.478 250.887 527.233 257.134C533.332 265.222 529.508 276.084 519.606 279.007L516.742 279.863L518.062 281.291C521.644 285.102 524.005 292.55 523.023 296.758C522.465 299.043 520.189 302.236 517.855 304.073C515.764 305.759 510.093 306.856 506.811 306.223L504.271 305.74L505.022 310.365C505.852 315.508 505.303 319.573 503.409 322.783C501.659 325.706 499.46 327.181 495.904 327.727C492.421 328.261 489.891 327.588 486.599 325.174L484.174 323.46L483.507 325.534C482.793 328.033 480.391 331.397 478.528 332.593C476.738 333.777 473.595 334.297 470.951 333.869C466.246 333.112 461.631 328.019 460.573 322.381C460.111 319.873 460.535 318.936 462.467 318.184C463.903 317.661 476.355 310.366 484.042 305.622C490.37 301.655 493.646 297.816 497.879 289.356C501.158 282.824 502.781 278.1 503.171 273.984C503.313 272.445 503.757 268.434 504.218 265.026C504.605 261.63 504.866 257.419 504.709 255.661C504.426 252.103 505.152 250.664 507.939 249.554Z" fill="#99C6CE"/>
<path d="M512.226 254.735C518.083 259.031 520.341 265.813 517.333 269.915C516.017 271.709 512.557 273.377 509.497 273.695C507.072 273.954 506.935 274.051 506.351 275.922C505.827 277.443 505.907 277.962 506.848 278.652C508.43 279.812 510.736 284.198 511.383 287.169C512.142 290.617 511.379 294.526 509.658 296.155C507.801 297.881 503.788 298.421 500.448 297.417C498.023 296.689 497.653 296.746 496.775 297.942C496.023 298.968 495.969 299.848 496.511 301.888C498.567 309.573 495.209 317.558 490.085 317.283C488.017 317.145 484.272 314.99 483.012 313.212C482.128 311.906 482.011 311.886 480.57 312.866C479.307 313.78 479.091 314.344 478.667 317.253C477.933 322.826 475.238 325.514 470.593 325.393C467.931 325.346 465.19 323.795 464.95 322.24C464.881 321.795 464.525 321.205 464.183 320.954C463.2 320.233 463.696 322.963 464.996 325.493C467.345 329.91 472.415 332.052 476.148 330.19C478.689 328.966 480.663 325.288 480.97 321.374C481.314 316.96 482.021 316.625 484.84 319.415C489.716 324.24 493.145 325.572 497.125 324.089C501.043 322.691 502.755 318.296 501.919 311.637C501.631 309.52 500.804 306.614 500.057 305.212C497.742 301.017 498.884 299.818 503.444 301.848C509.175 304.343 515.29 303.177 518.33 299.033C520.054 296.683 520.37 294.549 519.557 290.996C518.69 287.337 516.167 283.516 513.217 281.352C510.866 279.628 509.977 277.793 511.187 277.038C511.535 276.833 512.763 276.682 514.014 276.68C519.443 276.719 524.278 273.892 526.087 269.633C528.1 264.736 526.621 260.299 521.57 256.069C518.093 253.19 513.676 251.593 510.766 252.154L509.148 252.478L512.226 254.735Z" fill="#99C6CE"/>
<path d="M261.824 570.408C258.895 576.014 256.184 584.013 255.231 589.885C254.36 595.554 254.887 595.284 259.351 587.584C263.171 581.121 265.288 578.862 268.072 578.473C272.887 577.734 275.844 584.371 271.43 585.996C268.991 586.901 267.152 584.567 268.451 582.168C269.064 580.975 269.033 581.018 267.229 581.863C264.929 582.936 264.249 584.671 265.247 586.717C267.501 591.262 272.654 591.23 277.85 586.565C280.486 584.227 281.611 581.438 281.308 577.996C280.908 573.432 277.619 569.311 273.923 568.703C272.33 568.454 268.044 569.188 265.796 570.101C264.867 570.471 264.876 570.281 266.098 568.614C270.964 561.801 279.785 555.063 285.128 554.054C289.254 553.269 294.104 555.709 294.988 558.986C295.55 560.909 294.474 564.26 292.824 565.612C291.678 566.546 288.424 566.591 287.142 565.65C284.961 564.051 286.183 558.442 288.676 558.628C289.6 558.713 289.793 558.987 289.825 559.93C289.779 560.62 289.512 561.343 289.133 561.591C288.164 562.195 289.241 562.788 290.327 562.204C291.74 561.532 292.028 559.706 291.001 557.968C289.836 556.061 287.946 555.858 285.279 557.253C279.578 560.365 278.431 568.921 283.094 573.589C285.28 575.718 287.144 576.494 290.506 576.66C297.528 576.948 302.058 572.385 301.444 565.692C301.31 564.083 301.341 564.04 301.903 564.977C303.339 567.411 305.816 568.965 308.48 569.276C312.789 569.677 317.135 568.593 319.169 566.536C324.098 561.609 324.752 554.532 321.105 545.878C319.896 542.955 319.295 542.251 316.354 539.896C311.637 536.108 308.001 535.149 302.042 536.102C293.046 537.52 282.795 544.326 272.045 556.023C267.561 560.882 264.595 565.015 261.824 570.408Z" fill="#99C6CE"/>
<path d="M160.996 718.095C159.088 722.938 158.61 726.727 159.309 731.511C159.977 736.338 161.893 739.912 165.013 742.201L167.365 743.925L165.819 740.295C163.818 735.673 162.885 729.863 163.546 726.273C163.944 723.937 164.556 722.744 166.875 719.582C170.323 714.882 173.078 712.829 178.107 711.261C182.629 709.847 187.485 709.86 198.43 711.251C203.113 711.86 209.299 712.389 212.183 712.401C218.375 712.475 220 712.681 223.747 714.115C229.464 716.271 232.664 718.093 242.075 724.535L251.668 731.177L240.008 719.734C229.785 709.738 227.718 707.894 223.458 705.098C206.714 694.131 186.778 692.716 173.865 701.447C169.54 704.386 163.027 712.817 160.996 718.095Z" fill="#99C6CE"/>
<path d="M320.526 524.886C333.141 523.822 343.847 524.643 349.854 527.21C354.807 529.331 355.723 531.58 353.512 535.938C352.131 538.539 347.643 541.161 345.189 540.741C341.918 540.182 340.433 539.158 339.931 536.885C339.478 535.172 339.609 534.545 340.677 533.358C341.609 532.267 342.401 531.994 344.076 532.04C346.706 532.129 347.892 532.933 348.283 534.731C348.531 536.096 348.562 536.053 349.029 534.161C349.995 530.335 346.919 528.343 341.491 529.289C336.496 530.094 334.148 532.578 333.733 537.267C333.418 541.372 338.032 546.466 343.692 548.251C347.16 549.349 353.153 548.619 356.418 546.677C362.296 543.235 365.196 537.936 364.434 532.252C363.273 523.975 354.269 517.963 343.427 518.224C339.494 518.297 334.271 519.591 324.076 522.824L316.713 525.243L320.526 524.886Z" fill="#99C6CE"/>
<path d="M245.133 625.256C244.523 626.714 243.414 633.785 242.495 641.851C241.604 649.609 240.953 655.965 240.996 655.996C241.081 656.059 242.468 653.002 244.123 649.222C247.071 642.514 247.259 642.257 256.535 629.611C264.985 618.001 265.934 616.528 266.002 615.001C266.093 613.622 265.779 613.063 264.411 612.06C262.231 610.461 258.894 610.707 255.301 612.738C252.098 614.594 246.774 621.137 245.133 625.256Z" fill="#99C6CE"/>
<path d="M533.693 242.948C535.229 243.812 536.545 243.989 539.84 243.711C562.126 241.921 580.853 252.962 591.871 274.514C608.5 306.883 601.421 351.763 573.679 389.766C562.21 405.404 548.095 418.641 527.464 433.144C488.746 460.206 431.935 482.802 372.736 494.578C365.088 496.131 363.623 496.963 366.542 498.183C368.192 498.802 398.004 493.924 411.031 490.863C476.889 475.296 527.707 448.501 564.066 410.313C570.459 403.569 584.658 384.479 589.036 376.717C592.312 370.906 598.29 355.315 601.209 344.971C607.252 323.644 608.49 303.131 604.777 286.411C600.564 267.682 591.009 252.92 575.65 241.59C567.955 235.946 560.318 232.644 547.402 229.545C543.575 228.578 543.014 228.626 542.293 229.608C541.823 230.249 540.786 231.394 540.031 232.155L538.541 233.559L548.769 235.212C563.903 237.705 564.915 238.118 573.69 244.62C580.072 249.367 581.303 250.467 584.173 254.083C587.183 257.868 592.953 266.765 592.403 266.887C592.286 266.867 591.094 265.534 589.815 263.872C576.193 246.587 557.466 238.503 537.086 241.1L531.729 241.77L533.693 242.948Z" fill="#99C6CE"/>
<path d="M175.998 737.444C172.096 747.067 173.717 759.558 180.307 769.845C187.436 780.923 197.989 786.166 209.12 784.079C215.796 782.864 219.947 780.521 223.734 775.807C228.107 770.472 231.354 762.012 230.848 757.501C230.486 754.41 227.892 750.865 223.745 747.823C217.632 743.339 212.702 742.352 208.414 744.792C205.864 746.207 204.63 747.799 203.596 751.181L202.787 753.807L204.329 752.244C206.332 750.23 208.412 749.456 211.33 749.69C220.147 750.309 223.148 755.27 218.542 761.551C215.992 764.938 213.427 766.014 208.156 765.761C203.647 765.543 203.488 765.492 200.324 763.171C197.705 761.185 196.847 760.293 195.784 758.067C194.028 754.545 193.674 751.263 194.488 747.194C195.425 742.69 198.353 739.056 201.841 738.065C211.489 735.22 231.449 739.74 249.933 748.961C256.383 752.18 266.52 758.169 270.667 761.211C272.633 762.653 274.235 763.697 274.212 763.548C274.175 763.061 263.718 753.026 256.533 746.507C248.33 739.045 234.473 729.342 228.306 726.724C217.388 722.068 207.705 720.748 196.9 722.482C186.316 724.182 179.416 729.108 175.998 737.444Z" fill="#99C6CE"/>
<path d="M251.624 649.664C248.881 655.734 247.711 663.156 248.217 670.624C248.357 672.763 249.484 678.847 250.676 684.124C251.837 689.443 252.995 694.498 253.174 695.418C253.385 696.296 253.371 693.985 253.128 690.193C252.31 677.503 253.215 671.07 256.713 665.225C257.764 663.433 260.14 658.67 262.026 654.665C267.11 643.609 270.244 640.322 277.14 638.809C282.788 637.563 288.168 639.998 292.429 645.752C293.538 647.288 294.582 648.645 294.667 648.708C294.795 648.802 294.741 647.711 294.524 646.303C294.019 642.778 291.856 639.812 287.563 637.058C282.929 634.053 277.777 633.1 271.183 634.112C262.176 635.456 255.586 640.676 251.624 649.664Z" fill="#99C6CE"/>
<path d="M371.033 487.219C371.504 487.563 389.513 484.345 397.528 482.47C405.142 480.695 416.258 477.283 422.623 474.789C430.667 471.621 437.506 467.766 446.501 461.418C468.309 445.938 481.305 430.37 482.551 418.273C483.51 408.988 478.322 400.912 469.017 397.373C455.879 392.336 443.449 393.865 436.905 401.353C434.518 404.07 433.134 408.377 433.203 412.765C433.247 416.739 434.447 418.868 437.798 420.932L440.489 422.643L438.195 422.274C432.598 421.389 426.178 423.777 423.201 427.836C420.005 432.194 419.664 439.829 422.546 443.52C426.987 449.209 436.006 450.896 442.976 447.399C449.523 444.12 452.745 437.217 448.601 435.427C445.002 433.969 441.64 434.789 441.56 437.228C441.532 438.521 441.575 438.552 443.27 437.496C444.977 436.514 447.003 436.62 447.45 437.802C448.235 439.692 443.06 442.533 439.715 441.985C438.281 441.788 437.694 441.423 436.865 440.223C433.732 435.889 437.136 431.157 443.998 430.408C447.577 430.01 450.037 430.96 451.983 433.505C457.331 440.647 451.73 451.061 436.125 462.745C433.339 464.841 430.151 467.037 429.034 467.663L427.053 468.839L427.822 467.432C429.207 465.096 430.736 460.501 430.935 458.347C431.157 455.356 429.968 453.301 426.463 450.73C422.627 447.982 419.364 447.231 414.155 447.879C408.946 448.527 405.923 450.318 402.156 454.915C399.897 457.726 399.168 458.9 398.858 460.578C398.186 464.093 400.683 467.502 404.627 468.489C406.869 469.017 408.935 467.904 410.972 465.127L412.59 462.831L411.063 463.748C408.134 465.41 404.774 464.523 404.417 461.962C404.178 460.406 406.44 457.86 408.386 457.447C411.327 456.844 415.681 459.513 416.092 462.18C416.335 464 413.822 466.888 409.705 469.454C405.177 472.31 399.123 475.097 385.579 480.474C369.62 486.905 370.221 486.623 371.033 487.219ZM456.477 415.904C461.517 413.425 467.909 415.287 470.207 419.864C471.627 422.679 471.983 426.227 471.3 429.668C470.15 435.001 463.543 443.561 455.033 450.592C450.905 454.069 449.773 454.357 451.904 451.451C454.317 448.161 457.664 441.088 458.339 437.838C459.145 433.96 458.232 430.991 455.328 428.138C452.649 425.516 451.979 424.368 451.91 421.951C451.81 419.578 453.576 417.26 456.477 415.904Z" fill="#99C6CE"/>
<path d="M361.083 516.652C361.735 517.196 365.811 519.529 370.046 521.912C374.269 524.221 380.44 528.09 383.763 530.461C389.01 534.244 389.899 535.093 390.862 536.917C391.88 538.846 391.82 539.197 390.632 541.085C388.433 544.532 384.991 544.833 383.144 541.704C382.388 540.493 382.414 539.92 383.166 538.895C384.419 537.186 386.283 536.975 387.677 538.392L388.877 539.535L388.489 538.002C387.12 533.055 382.629 532.455 379.432 536.813C378.304 538.351 378.185 539.052 378.638 541.751C379.141 545.01 381.333 548.655 384.026 550.63C389.242 554.456 397.041 553.145 400.864 547.933C402.431 545.796 402.678 542.232 401.626 538.109C400.596 534.134 400.713 534.154 405.667 539.233C417.484 551.449 420.806 562.428 414.389 568.038C411.48 570.57 406.915 569.981 404.421 566.838C402.947 564.903 402.99 562.963 404.651 560.698C406.155 558.647 407.563 558.431 410.515 559.874C411.869 560.538 412.245 561.011 412.385 562.165C412.493 563.362 412.348 563.65 411.513 563.892C410.963 564.014 409.974 563.749 409.29 563.247C408.435 562.62 408.011 562.571 407.868 563.124C407.256 565.303 410.428 566.447 413.064 565.094C414.708 564.198 414.864 563.984 414.901 562.5C415.094 558.83 411.067 554.102 406.47 552.57C404.278 551.883 399.696 552.662 397.232 554.14C390.049 558.465 390.011 571.514 397.25 575.18C398.157 575.648 400.24 576.125 401.895 576.288L404.887 576.511L403.337 577.28C399.71 579.087 397.89 584.258 398.732 590.461C399.294 594.356 401.19 597.06 405.074 599.384C410.219 602.5 418.138 602.46 425.683 599.254C428.954 597.842 429.091 597.746 432.506 593.088C435.828 588.56 435.974 588.272 436.474 584.631C437.908 574.249 431.46 560.451 418.659 546.529C408.079 534.958 399.575 528.983 386.104 523.505C379.917 521.004 368.161 517.31 363.391 516.374C360.182 515.729 359.917 515.731 361.083 516.652ZM418.304 549.882C420.749 552.464 424.96 558.378 426.639 561.646C431.037 570.261 430.281 578.643 424.753 582.145C421.101 584.526 416.712 583.607 414.574 580.067C412.944 577.36 413.573 574.799 416.584 571.948C421.559 567.317 421.891 561.844 417.76 551.52C417.181 549.979 416.754 548.679 416.816 548.594C416.879 548.508 417.574 549.084 418.304 549.882Z" fill="#99C6CE"/>
<path d="M260.627 670.198C258.852 673.693 257.417 679.146 257.167 683.431C256.758 689.636 258.041 694.52 262.991 705.969C268.581 718.875 270.135 722.314 270.024 721.839C269.989 721.616 269.171 718.519 268.199 714.915C266.031 706.754 264.365 694.952 264.669 689.787C264.987 683.975 266.069 681.155 269.881 675.868C272.858 671.809 273.456 671.262 276.154 669.824C279.95 667.877 281.879 667.846 287.14 669.996C292.198 672.064 296.433 675.433 298.252 678.87C298.902 680.135 299.58 681.093 299.729 681.07C299.846 681.09 299.52 678.486 298.967 675.386C297.657 668.117 295.95 665.156 290.734 661.331C284.182 656.459 277.685 655.636 271.581 658.848C266.458 661.53 263.387 664.731 260.627 670.198Z" fill="#99C6CE"/>
<path d="M317.345 595.557C314.337 601.63 312.777 609.225 313.092 616.685C313.757 633.797 325.889 642.893 344.605 640.324C354.704 638.926 362.759 634.846 367.115 628.907C375.733 617.157 380.253 593.335 377.682 573.444C376.571 565.007 373.675 557.034 370.445 553.549L369.168 552.152L370.047 555.885C373.706 571.514 373.738 587.964 370.144 601.559C368.436 608.191 364.918 617.111 362.369 621.483C359.09 627.029 350.411 633.214 342.906 635.2C336.469 636.984 326.495 635.254 322.883 631.751C315.137 624.295 315.047 602.545 322.722 594.77C326.603 590.913 336.032 589.353 342.945 591.401C347.126 592.693 350.74 595.475 351.669 598.062C352.784 601.114 352.608 605.388 351.335 609.185C348.704 616.717 344.561 619.856 338.77 618.697C332.82 617.487 329.892 611.528 333.089 607.17C334.311 605.504 335.81 604.895 341.004 603.908C343.808 603.402 343.945 603.305 342.817 602.871C340.252 601.976 336.08 601.479 333.709 601.842C331.603 602.203 331.193 602.494 330.298 604.072C328.791 606.844 328.67 611.223 330.004 613.975C332.727 619.586 341.635 622.769 348.194 620.549C349.599 620.068 350.502 619.285 352.069 617.149C358.525 608.347 358.146 596.045 351.221 590.965C342.371 584.474 326.536 584.819 319.932 591.672C319.208 592.389 318.04 594.161 317.345 595.557Z" fill="#99C6CE"/>
<path d="M242.853 711.373C243.486 712.034 244.233 712.45 244.518 712.33C244.771 712.254 244.298 711.644 243.486 711.048C241.605 709.668 241.289 709.831 242.853 711.373Z" fill="#99C6CE"/>
<path d="M271.755 699.847C270.06 703.861 269.505 709.368 270.17 713.93C270.852 718.11 271.254 718.996 276.265 727.402C279.224 732.333 281.761 736.493 281.932 736.619C282.103 736.744 281.784 734.67 281.225 732.026C280.666 729.381 279.559 723.181 278.751 718.186C277.413 710.24 277.353 708.619 278.113 704.445C280.257 693.006 283.658 688.996 290.233 690.073C292.133 690.35 293.168 690.911 295.382 692.733C298.335 695.161 298.896 695.113 297.055 692.514C294.008 688.242 286.653 686.527 281.41 688.924C278.751 690.128 278.048 690.729 275.455 694.085C273.877 696.147 272.188 698.719 271.755 699.847Z" fill="#99C6CE"/>
<path d="M235.781 773.276C234.124 778.763 235.219 783.903 238.628 786.337L240.07 787.329L239.018 785.178C237.707 782.573 237.091 779.559 237.407 777.425C237.722 775.291 242.058 769.469 244.594 767.715C249.224 764.54 257.505 763.648 263.444 765.77C267.212 767.087 275.112 771.108 278.509 773.468C279.694 774.272 278.355 772.961 275.519 770.552C268.895 764.971 263.905 762.362 257.787 761.292C246.983 759.348 238.626 763.929 235.781 773.276Z" fill="#99C6CE"/>
<path d="M288.79 715.167C285.853 720.964 284.866 728.585 286.121 735.748C286.506 738.002 287.998 743.498 289.403 747.946L292.004 755.965L290.549 747.998C288.041 733.937 288.243 728.105 291.501 720.704C294.583 713.633 300.321 709.037 307.727 707.635C312.372 706.771 315.296 707.535 318.636 710.511C319.996 711.705 321.475 713.184 321.979 713.752C322.817 714.76 322.817 714.76 322.361 712.783C320.827 706.269 312.197 702.437 302.993 704.229C296.804 705.406 291.684 709.339 288.79 715.167Z" fill="#99C6CE"/>
<path d="M247.598 781.548C245.573 787.357 246.426 792.648 249.852 795.686L251.778 797.362L250.259 794.145C248.357 789.925 248.351 787.423 250.208 783.726C252.026 780.262 254.388 778.117 256.832 777.742C257.721 777.606 260.83 777.849 263.771 778.232C269.548 779.052 274.914 781.148 281.361 785.088C283.41 786.328 285.211 787.189 285.399 786.932C285.587 786.676 282.7 784.427 277.518 780.824C270.767 776.135 268.772 775 265.814 774.013C256.62 770.95 250.309 773.549 247.598 781.548Z" fill="#99C6CE"/>
<path d="M387.838 591.867C387.75 592.525 388.11 596.338 388.609 600.318C390.116 612.068 389.855 618.251 387.327 628.421C385.132 637.062 382.264 644.289 380.01 646.644C378.386 648.41 378.158 648.9 378.375 650.308C378.717 652.53 377.385 656.678 376.273 656.849C374.051 657.19 373.262 661.671 375.143 663.051C376.169 663.803 375.657 669.342 374.532 670.159C372.965 671.31 372.469 672.523 372.903 674.352C373.094 675.347 373.721 676.464 374.277 676.872C374.875 677.31 375.229 678.621 375.283 680.698C375.378 685.499 377.455 697.01 378.986 701.287C382.747 711.668 389.676 718.984 398.077 721.335C401.597 722.274 405.831 721.7 407.837 719.951C409.843 718.202 410.235 714.35 408.943 709.657C407.452 704.161 406.511 702.485 403.946 700.604C399.073 697.029 394.308 698.595 393.075 704.13C392.742 705.66 392.797 705.765 393.66 705.216C396.649 703.203 397.355 702.867 398.575 702.907C400.738 702.916 402.816 704.835 404.218 708.032C405.838 711.651 405.792 713.326 404.069 715.676C402.972 717.171 402.277 717.581 400.615 717.874C397.207 718.397 394.819 717.171 390.168 712.577C382.794 705.329 378.869 697.324 376.917 685.642C375.69 678.171 375.71 678.054 377.138 676.736C378.323 675.568 378.508 675.047 378.354 673.554C378.248 672.622 377.738 671.525 377.225 671.149C375.771 670.083 376.62 665.251 378.611 663.163C379.984 661.739 380.044 661.389 379.505 659.613C378.681 656.972 379.749 653.813 381.547 653.423C383.684 653.019 384.576 651.176 383.872 648.82C383.31 646.896 383.409 646.312 385.29 642.763C395.06 623.974 396.612 605.991 389.56 592.21C388.368 589.89 388.092 589.819 387.838 591.867Z" fill="#99C6CE"/>
<path d="M295.082 730.164C292.792 736.961 292.996 742.959 295.984 752.51C297.259 756.599 298.414 760.403 298.568 760.91C298.722 761.418 298.265 758.454 297.563 754.391C295.843 744.456 295.85 739.336 297.517 734.644C299.08 730.271 302.128 725.936 305 723.903C307.704 722.009 313.782 720.356 316.29 720.881C318.553 721.292 321.853 723.516 323.606 725.787C324.735 727.206 324.735 727.206 324.603 725.861C324.215 722.357 319.008 718.341 314.115 717.84C310.336 717.434 304.911 718.646 302.313 720.486C299.777 722.24 296.099 727.165 295.082 730.164Z" fill="#99C6CE"/>
<path d="M437.803 557.81C445.93 572.904 448.171 578.096 449.68 585.183C451.947 595.717 451.447 601.329 447.996 603.792C445.914 605.287 442.893 605.372 440.388 604.126C438.459 603.171 438.342 603.151 439.086 604.288C440.089 605.878 443.854 607.916 447.191 608.656C452.537 609.883 456.859 605.693 457.932 598.135C458.584 593.75 457.507 584.55 455.774 579.204C453.208 571.408 450.522 567.27 441.607 557.643C437.175 552.749 433.421 548.813 433.273 548.836C433.125 548.859 435.152 552.908 437.803 557.81Z" fill="#99C6CE"/>
<path d="M300.627 739.816C298.929 745.537 299.803 752.683 303.723 765.086L305.711 771.341L304.481 762.619C303.782 757.835 303.345 752.784 303.478 751.436C303.746 747.755 305.827 739.359 306.767 738.078C308.867 735.215 316.492 733.514 319.849 735.122C320.872 735.61 322.722 737.032 323.945 738.323L326.154 740.6L325.72 738.771C324.451 733.241 314.85 729.747 307.604 732.186C304.467 733.236 301.68 736.318 300.627 739.816Z" fill="#99C6CE"/>
<path d="M263.319 794.985C262.926 796.865 263.565 800.028 264.505 800.718C264.847 800.968 264.847 799.983 264.588 798.544C264.117 796.227 264.239 795.791 265.724 793.857C267.584 791.411 269.47 790.363 272.414 790.025C275.95 789.596 278.258 790.303 282.551 793.057C286.201 795.341 286.446 795.455 284.882 793.913C280.615 789.6 276.075 787.453 271.775 787.848C267.549 788.231 264.23 791.053 263.319 794.985Z" fill="#99C6CE"/>
<path d="M442.182 553.005C442.678 553.763 447.027 559.844 451.807 566.505C456.619 573.122 461.875 580.657 463.409 583.227C468.622 591.717 473.581 609.876 472.346 616.132C471.145 622.611 465.341 626.042 459.453 623.76C455.822 622.346 455.631 622.337 456.877 623.777C459.69 627.023 465.221 627.728 469.829 625.391C472.402 624.124 473 623.577 474.615 621.016C478.253 615.339 479.178 607.804 477.503 597.179C475.948 586.839 472.105 577.646 466.786 571.182C464.369 568.293 462.807 567.016 452.698 559.732C443.327 553.056 441.426 551.794 442.182 553.005Z" fill="#99C6CE"/>
<path d="M448.4 554.477C449.694 555.492 460.307 560.385 463.094 561.246C469.571 563.172 475.641 562.695 480.71 559.908C488.876 555.318 490.899 541.623 484.145 536.669C482.136 535.195 481.794 535.93 483.524 538.053C486.577 541.869 486.734 545.599 484.039 549.273C482.221 551.751 479.475 552.628 472.259 553.053C469.25 553.211 465.862 553.617 464.742 553.979C460.548 555.305 456.903 555.523 452.475 554.838C450.021 554.418 448.175 554.246 448.4 554.477Z" fill="#99C6CE"/>
<path d="M308.178 754.62C307.067 757.748 307.581 763.053 309.417 767.094C310.179 768.835 310.84 770.175 310.903 770.089C310.934 770.046 310.478 768.069 309.89 765.732C307.999 758.629 309.908 752.8 314.905 750.289C317.584 748.968 319.45 749.023 321.588 750.591C322.827 751.5 323.221 751.591 322.97 750.947C321.715 747.727 316.067 747.002 311.865 749.505C309.685 750.863 309.246 751.461 308.178 754.62Z" fill="#99C6CE"/>
<path d="M467.569 568.143C473.275 574.168 477.77 580.948 481.097 588.513C482.74 592.28 484.946 597.25 485.947 599.561C488.567 605.491 490.14 607.828 491.454 607.74C492.015 607.692 492.91 607.099 493.443 606.373C497.172 601.289 493.767 587.555 486.664 578.862C484.515 576.235 484.002 575.858 474.229 570.268L464.072 564.395L467.569 568.143Z" fill="#99C6CE"/>
</svg>
