<svg width="602" height="1228" viewBox="0 0 602 1228" fill="none" xmlns="http://www.w3.org/2000/svg">
<path d="M655.277 911.35C658.325 902.502 655.351 894.565 647.05 889.534L643.007 887.125L648.922 885.818C660.463 883.116 666.701 876.67 667.601 866.542C668.138 860.614 666.54 854.247 663.656 850.612C659.549 845.581 651.768 842.694 643.06 843.085L640.17 843.196L643.823 841.374C650.958 837.878 655.838 832.706 657.243 827.045C658.508 822.05 657.148 816.575 653.165 810.618C646.85 801.106 637.1 798.794 626.339 804.211L624.139 805.316L624.861 801.664C626.066 796.051 625.775 790.795 624.016 785.415C622.125 779.539 621.308 778.469 615.79 774.513C602.084 764.762 589.976 769.709 584.045 787.418C583.158 790.055 582.427 792.286 582.391 792.348C582.391 792.348 580.365 784.975 577.924 775.856C575.394 766.6 572.614 758.195 571.654 756.79C565.461 747.934 552.636 743.456 535.808 744.257C528.714 744.528 523.165 745.22 522.835 745.773C522.762 745.896 525.358 747.86 528.659 750.077C544.127 760.462 551.765 775.511 550.589 793.139C550.195 799.402 548.219 807.888 545.281 816.551L544.608 818.399L549.99 818.275C552.943 818.202 557.596 818.726 560.336 819.442C564.559 820.543 565.643 821.022 567.614 823.03C570.259 825.773 574.126 831.493 574.145 832.754C574.141 833.335 575.072 833.64 576.739 833.717C584.039 833.819 596.323 825.561 597.958 819.371C598.665 816.46 599.574 816.085 599.911 818.535C600.496 823.299 590.068 831.747 580.64 834.209C577.809 834.938 575.54 835.585 575.629 835.722C576.058 836.727 581.146 837.094 584.992 836.386C590.497 835.335 595.426 832.524 598.296 828.57C600.8 825.23 601.671 826.499 599.436 830.249C596.578 835.044 586.68 838.725 578.831 837.963L575.508 837.649L582.639 841.482C591.008 845.97 593.858 846.502 601.07 844.886C610.115 842.779 618.445 837.995 624.63 831.351C628.672 827.012 630.554 823.135 630.544 819.13C630.573 816.065 630.673 816.041 632.324 818.442C635.125 822.36 632.154 830.504 625.663 836.799C617.012 845.139 600.812 851.064 593.001 848.658C592.007 848.315 591.066 848.171 590.992 848.294C590.882 848.478 591.307 850.064 591.947 851.862C593.192 855.519 593.118 859.808 591.771 863.504L590.821 866.103L592.795 864.947C595.796 863.07 598.68 862.54 605.203 862.511C620.413 862.413 638.592 868.248 640.693 873.916C641.433 875.69 641.271 875.676 635.549 872.35C630.901 869.663 628.218 868.564 623.28 867.37C610.138 864.286 593.982 864.821 591.82 868.448C590.951 869.763 590.951 869.763 590.726 868.13C590.502 866.496 590.329 866.643 588.497 869.717C587.334 871.523 585.47 874.077 584.338 875.402C582.293 877.683 582.283 877.844 583.375 881.327C584.005 883.285 584.371 886.836 584.22 889.245C583.924 892.901 583.517 894.158 581.249 897.389C579.804 899.526 578.742 901.309 578.868 901.384C578.931 901.422 580.235 901.533 581.702 901.657C585.197 901.824 597.036 908.963 602.825 914.33C610.443 921.369 616.97 931.674 617.278 937.19C617.432 939.947 614.812 943.051 612.121 943.114C610.219 943.146 610.255 943.085 611.794 940.503C613.736 937.244 613.492 934.35 610.776 928.566C605.872 917.979 592.378 906.437 581.238 903.297C577.503 902.237 576.778 902.305 574.412 903.977C572.875 904.977 570.492 906.39 569.011 907.007C567.594 907.662 566.392 908.528 566.435 908.887C566.378 909.27 568.306 910.919 570.56 912.595C580.622 919.842 589.135 929.831 593.242 939.027C596.509 946.472 596.554 960.328 593.35 973.748C590.676 984.984 590.427 984.253 596.014 981.917C602.272 979.316 614.872 971.246 618.447 967.545C621.959 963.806 626.007 955.722 627.489 949.357C629.913 938.971 627.031 928.006 619.863 920.069L616.68 916.505L620.822 918.891C632.013 925.394 642.848 926.603 648.676 921.995C650.889 920.148 653.8 915.552 655.277 911.35ZM633.074 912.697C631.287 902.051 608.688 887.832 593.335 887.596L590.255 887.593L593.721 886.66C599.457 885.08 604.106 886.184 612.943 891.034C620.985 895.494 625.608 899.083 629.984 904.523C632.726 907.823 635.006 913.764 634.126 915.24C633.87 915.67 633.352 914.528 633.074 912.697ZM651.897 868.763C645.67 860.97 632.363 855.288 616.828 853.778C607.35 852.877 597.4 854.778 595.531 857.913C594.139 860.249 592.955 859.794 593.742 857.181C595.837 849.931 619.682 849.564 638.542 856.555C641.552 857.682 645.156 859.247 646.482 860.037C649.198 861.656 653.209 866.129 653.245 867.65C653.333 869.369 652.714 869.833 651.897 868.763ZM600.04 931.498C598.816 931.685 598.8 931.425 599.642 930.011C601.071 927.614 599.154 921.639 595.605 917.108C593.386 914.369 591.358 912.744 586.784 909.934C583.536 907.915 579.852 906.053 578.632 905.659L576.443 905.021L578.682 904.856C581.483 904.609 590.905 910.058 594.936 914.21C598.445 917.801 601.817 923.059 602.586 925.934C603.302 928.61 602.089 931.22 600.04 931.498ZM615.122 886.085C610.184 880.726 591.655 879.93 586.658 884.866C584.844 886.618 584.071 884.324 585.573 881.804C588.101 877.562 597.563 874.037 604.907 874.498C608.303 874.689 613.45 877.257 613.522 878.716C613.554 879.236 612.65 879.03 611.26 878.201C604.944 874.437 592.659 875.946 588.015 881.01C586.5 882.689 586.663 882.703 591.863 881.304C598.597 879.485 607.57 880.084 612.88 882.666C615.2 883.799 616.67 884.924 617.008 885.793C617.818 888.025 617.019 888.215 615.122 886.085ZM592.131 923.368C592.588 921.308 592.207 920.081 589.991 916.761C587.659 913.205 586.605 912.244 582.121 909.571C578.899 907.651 577.43 906.526 578.282 906.533C579.033 906.565 581.66 908.047 584.239 909.751C592.094 915.099 596.645 922.976 593.008 925.057C591.643 925.91 591.617 925.811 592.131 923.368ZM587.4 824.159C585.14 826.227 582.421 827.773 580.116 828.482C576.077 829.657 576.05 829.558 580.799 826.473C593.346 818.205 604.461 794.671 599.621 786.705C598.851 785.412 598.745 785.016 599.539 785.406C602.355 787.001 602.071 797.245 598.997 805.994C596.956 811.859 591.255 820.707 587.4 824.159ZM564.625 817.416C563.281 817.948 563.438 817.542 565.522 814.619C570.534 807.358 573.15 793.921 571.739 782.5C570.645 773.85 566.892 767.365 562.322 766.558C560.64 766.221 560.424 766.009 561.046 764.964C561.962 763.427 565.215 763.283 567.679 764.751C571.406 766.972 574.331 776.714 574.462 787.123C574.535 795.33 571.858 807.148 568.67 812.496C567.095 815.14 565.534 817.041 564.625 817.416ZM561.74 815.364C560.831 815.739 560.878 815.517 562.037 814.291C564.154 811.887 566.141 805.824 566.632 800.117C567.441 791.435 565.437 784.743 561.68 783.004C559.097 781.88 559.387 780.387 562.031 780.547C566.994 780.838 569.675 791.851 567.627 803.043C566.538 808.893 563.929 814.419 561.74 815.364ZM561.447 811.69C564.666 804.278 563.714 793.38 559.837 791.985C557.885 791.239 558.108 790.289 560.201 790.369C565.136 790.562 566.172 805.342 561.696 812.421L559.801 815.457L561.447 811.69Z" fill="#99C6CE"/>
<path d="M580.153 988.71C586.664 969.597 589.308 954.677 587.558 946.553C586.319 940.732 581.524 931.543 577.224 926.98C574.283 923.728 572.561 922.452 567.108 919.535C556.456 913.853 547.393 913.117 532.186 916.801L523.603 918.85L524.778 913.719C526.364 906.749 525.63 901.23 522.454 896.504C520.212 893.085 519.401 892.435 515.022 890.159C508.865 886.989 507.841 887.128 508.339 891.175C508.934 895.778 508.11 902.618 506.645 905.077C503.164 910.917 493.304 917.121 484.531 919.057C476.195 920.837 465.114 918.315 453.814 911.997L448.019 908.793L448.831 912.026C450.164 917.403 454.699 927.603 458.456 933.508C466.355 945.964 475.576 953.042 487.082 955.568C494.681 957.181 500.059 957.637 516.563 957.809C532.379 957.987 541.568 958.799 547.58 960.632C562.534 965.129 573.481 979.652 574.585 996.472C574.844 1001.21 574.987 1001.54 575.876 999.907C576.462 998.923 578.352 993.885 580.153 988.71ZM534.625 948.329C531.76 950.12 527.701 951.617 522.474 952.917C513.529 955.001 511.021 954.756 518.048 952.445C528.588 948.98 535.304 944.318 537.523 938.726C539.153 934.699 538.606 932.457 535.113 929.125L532.115 926.256L535.377 927.533C537.229 928.304 539.503 929.659 540.593 930.559C545.655 934.992 542.911 943.187 534.625 948.329ZM523.274 946.979C518.998 949.846 513.551 951.515 506.573 952.021C501.607 952.311 490.794 951.781 491.087 951.29C491.16 951.167 493.924 950.981 497.177 950.837C505.849 950.507 514.522 948.594 518.479 946.121C522.708 943.476 527.122 938.942 527.8 936.513C528.55 933.961 526.74 930.966 523.203 928.858C521.497 927.842 520.181 926.891 520.291 926.706C520.364 926.583 521.704 926.632 523.198 926.856C528.682 927.708 532.733 931.539 532.217 935.564C531.883 938.28 527.105 944.43 523.274 946.979ZM508.796 945.849C502.97 948.874 498.379 949.97 493.6 949.372C488.758 948.735 481.456 946.049 477.786 943.446C474.774 941.317 475.389 941.434 483.17 944.322C493.345 948.22 499.225 947.976 506.384 943.578C511.568 940.336 513.936 937.082 513.513 933.914C513.304 932.54 512.385 930.492 511.404 929.408C509.122 926.631 509.734 925.747 512.437 928.107C519.337 934.052 517.941 941.135 508.796 945.849ZM498.182 938.523C493.83 940.511 485.148 941.002 479.469 939.617C473.952 938.245 470.467 936.335 466.19 932.452C463.092 929.607 457.883 922.836 458.618 922.608C458.881 922.598 460.519 924.157 462.364 926.09C466.348 930.464 473.791 935.067 479.172 936.524C484.137 937.817 493.307 937.367 496.425 935.726C498.498 934.546 498.854 934.092 499.002 932.264L499.17 930.114L497.692 931.733C495.685 933.952 492.812 932.74 492.336 929.373C491.684 925.153 496.063 923.264 500.421 925.861C505.601 928.948 504.388 935.723 498.182 938.523Z" fill="#99C6CE"/>
<path d="M737.122 711.114C736.716 708.205 735.35 706.475 727.863 698.93C721.419 692.507 718.571 688.81 719.304 687.581C719.451 687.335 722.048 687.717 724.978 688.546C741.282 692.932 744.399 692.873 747 688.508C749.161 684.881 749.122 683.941 746.737 680.187C745.329 678.098 744.751 676.338 745.112 675.303C745.362 674.452 746.275 671.914 747.042 669.622C749.553 662.537 749.007 658.713 745.027 656.341C741.869 654.459 739.325 654.275 733.121 655.493C728.177 656.462 723.926 656.845 724.256 656.291C724.329 656.169 726.752 654.114 729.621 651.741C733.183 648.782 735.646 646.085 737.322 643.417C741.881 636.054 740.531 632 731.498 626.617C728.692 624.862 724.291 621.905 721.884 620.054C711.763 612.189 707.983 609.77 705.176 609.596C699.273 609.16 696.771 613.501 693.285 629.835C691.021 640.816 688.393 649.247 687.445 648.682C687.193 648.532 687.276 644.083 687.61 638.783C688.127 629.011 687.119 621.079 684.787 617.523C683.093 614.763 679.293 612.665 676.113 612.686C674.211 612.719 672.793 613.374 670.952 615.026C668.373 617.487 665.006 618.396 655.652 619.153C640.634 620.366 636.572 633.358 648.092 643.473C652.163 646.983 648.539 645.739 641.648 641.215C636.362 637.732 635.219 636.634 632.222 632.182C628.229 626.386 626.149 620.398 625.642 613.348C625.208 607.757 626.171 597.667 627.578 593.007C629.226 587.658 638.666 570.957 645.935 560.627C656.405 545.789 662.004 540.128 675.725 530.894C679.692 528.26 683.06 525.768 683.28 525.399C684.013 524.17 681.12 523.279 679.293 524.19C676.358 525.523 661.813 537.432 654.184 544.632C643.419 554.795 638.997 560.49 632.342 572.519C619.444 595.741 617.388 612.26 625.441 627.474C629.771 635.72 638.762 643.328 646.746 645.587C652.153 647.143 659.617 651.425 664.416 655.868C667.514 658.714 667.514 658.714 665.236 657.939C663.952 657.508 658.58 654.889 653.317 652.085C642.575 646.266 638.541 645.279 634.441 647.417C630.142 649.604 628.955 653.895 629.491 664.628C629.681 668.907 629.276 671.165 627.283 676.808C625.863 680.627 624.768 684.474 624.708 685.438C624.619 687.884 626.855 690.883 630.456 693.029C636.33 696.53 642.767 695.784 652.177 690.479C658.979 686.535 666.056 683.422 666.814 683.873C668.014 684.589 663.857 688.692 655.589 695.095C647.112 701.706 643.946 705.151 643.445 708.435C642.86 712.002 644.504 713.982 653.177 720.4C661.002 726.23 661.444 726.493 665.967 727.523C673.04 729.156 678.142 728.781 681.727 726.502C684.455 724.796 684.922 724.157 686.012 720.891C686.695 718.883 687.618 713.601 688.064 709.118C688.573 704.673 689.585 699.527 690.385 697.755C691.718 694.8 691.675 694.441 690.255 694.095C689.35 693.889 686.83 692.803 684.636 691.745C675.832 687.415 671.012 679.127 671.682 669.529C672.012 664.811 672.419 663.553 674.9 659.534C677.099 655.845 678.43 654.473 681.442 652.436C694.897 643.792 713.869 651.601 717.209 667.254C718.527 673.372 717.829 677.704 714.568 683.175C710.601 689.975 704.561 693.79 696.857 694.364L692.905 694.675L696.532 709.416C698.607 717.568 701.019 725.586 701.995 727.251C704.709 732.034 706.784 731.855 715.653 726.31C719.883 723.666 724.109 721.603 726.231 721.201C732.598 719.997 737.784 715.174 737.122 711.114Z" fill="#99C6CE"/>
<path d="M567.021 996.379C567.39 992.6 565.703 986.096 563.02 980.831C561.383 977.689 560.213 976.492 556.912 974.275C551.6 970.693 547.635 970.163 534.32 971.391C517.977 972.815 504.771 971.275 487.123 965.84C478.508 963.204 477.234 962.612 470.722 958.314C465.563 954.906 462.255 952.268 458.882 948.592C450.192 939.33 441.115 924.256 435.386 909.595C434.227 906.655 433.016 903.517 432.704 902.748C432.16 901.507 431.145 901.486 424.705 902.812C411.261 905.547 401.15 910.018 392.952 916.879C387.041 921.77 381.439 930.595 380.083 937.035C376.333 954.961 383.615 973.048 395.786 976.469C399.846 977.556 406.562 977.06 410.768 975.317L414.065 973.95L410.727 980.125C407.913 985.279 407.312 987.004 407.007 990.821C406.397 999.455 410.656 1006.24 420.22 1012.03C427.005 1016.15 431.907 1017.41 437.466 1016.56C444.847 1015.37 452.593 1008.41 457.378 998.514L459.866 993.333L459.475 1000.6C458.504 1016.01 463.572 1025.03 473.666 1026.05C478.355 1026.51 486.12 1024.98 490.256 1022.77C493.174 1021.18 494.05 1020.29 496.651 1015.92C499.619 1010.94 499.656 1010.88 500.259 1012.74C502.771 1020.74 510.737 1024.32 520.076 1021.72C524.277 1020.56 528.994 1016.95 531.119 1013.39C532.328 1011.36 534.858 1003.95 535.126 1001.78C535.197 1000.66 535.649 1000.76 538.814 1003.06C543.827 1006.72 548.748 1007.65 555.578 1006.39C563.605 1004.84 566.448 1002.37 567.021 996.379ZM552.027 1000.86C549.006 1001.47 548.002 1001.29 545.349 999.708C542.696 998.127 542.148 997.467 541.88 995.475C541.232 990.673 544.916 988.37 548.775 991.087C550.687 992.476 550.886 992.428 552.322 990.451C553.61 988.72 553.697 987.855 552.931 985.982C551.148 981.504 540.013 976.201 533.397 976.673C531.947 976.808 530.79 976.452 530.431 975.905C530.083 975.197 531.081 974.959 533.598 975.043C545.609 975.287 551.694 976.997 556.53 981.379C561.555 985.874 562.004 990.723 557.924 996.706C555.793 999.851 555.211 1000.25 552.027 1000.86ZM519.81 997.317C516.751 999.576 511.019 1000.58 507.285 999.517C504.129 998.635 501.433 996.695 497.665 992.533C496.622 991.412 496.412 991.62 493.861 995.182C490.451 999.898 486.169 1002.34 480.877 1002.61C477.723 1002.73 476.466 1002.39 473.308 1000.51C468.128 997.424 465.411 993.222 463.22 984.834L461.505 978.231L459.549 979.647C458.384 980.452 455.685 981.677 453.453 982.262C439.64 986.193 428.857 976.851 429.745 961.718C429.85 959.531 430.468 956.483 431.021 954.98C432.301 951.827 432.058 951.516 428.822 951.92C422.022 952.7 414.83 949.83 410.155 944.46C406.945 940.798 405.514 933.863 406.746 928.349C408.191 922.046 413.156 915.008 418.404 911.804C422.634 909.159 429.227 908.007 431.564 909.4C432.322 909.852 433.8 912.399 434.779 915.065C437.219 921.601 448.305 941.205 452.053 945.688C456.296 950.633 467.062 959.715 473 963.254C476.663 965.437 479.573 966.588 483.48 967.5C491.268 969.226 516.108 973.367 520.834 973.767L524.782 974.037L525.886 978.361C526.422 980.764 526.699 984.178 526.325 985.954C525.537 990.15 522.522 995.351 519.81 997.317Z" fill="#99C6CE"/>
<path d="M521.896 984.481C522.473 977.91 521.006 975.203 520.079 981.066C519.635 983.966 519.451 984.274 517.195 985.762C510.463 990.163 503.54 987.704 499.572 979.424C498.41 977.065 497.762 976.429 495.863 975.88C494.38 975.496 493.455 975.612 493.252 976.24C492.664 978.806 488.788 984.16 486.678 985.402C479.494 989.701 470.783 980.761 468.915 967.234C468.839 966.356 467.959 965.248 467.011 964.683C465.559 963.818 464.724 964.07 461.103 966.411C454.853 970.434 449.438 970.039 445.611 965.259C442.511 961.412 441.436 949.857 443.891 945.738C444.623 944.509 444.558 943.47 443.571 941.966C442.854 940.872 442.036 939.801 441.72 939.613C441.405 939.425 439.156 939.751 436.598 940.309C426.501 942.456 420.818 937.486 421.528 927.245C421.784 922.649 422.171 921.714 424.852 917.646L427.826 913.087L425.567 913.574C417.204 915.254 409.391 926.927 410.638 935.751C411.498 941.345 417.992 946.966 424.438 947.641C426.33 947.769 430.129 947.284 432.997 946.494C439.531 944.723 440.595 945.524 437.81 950.196C433.084 958.126 433.034 969.843 437.793 974.929C440.402 977.733 445.157 979.234 449.707 978.78C452.807 978.462 460.318 974.191 461.6 972.039C462.59 970.379 464.889 969.25 465.899 969.853C466.342 970.116 466.705 972.666 466.57 975.334C466.267 984.318 470.207 994.08 475.386 997.167C478.166 998.824 482.779 998.408 486.39 996.227C489.555 994.365 490.141 993.381 494.312 984.37C494.662 983.496 495.591 982.8 496.379 982.77C497.494 982.767 498.078 983.366 498.888 985.598C500.365 989.727 504.738 994.166 508.373 995.25C514.974 997.101 521.184 992.138 521.896 984.481Z" fill="#99C6CE"/>
<path d="M447.719 1121.72C447.747 1120.24 446.948 1117.85 445.988 1116.44C443.898 1113.2 437.647 1106.31 435.816 1105.21C430.952 1102.32 422.134 1102.89 420.156 1106.21C418.946 1108.24 418.708 1111.51 419.666 1114.5L420.313 1116.72L421.956 1113.53C423.985 1109.41 426.384 1108.26 430.307 1109.43C434.557 1110.63 439.293 1115.03 440.275 1118.7C441.362 1122.77 438.918 1126.72 434.506 1128.09C428.661 1129.86 416.936 1126.12 406.275 1119.02C397.941 1113.47 391.687 1107.16 385.793 1098.23C381.863 1092.47 381.641 1091.84 382.63 1090.18C383.986 1087.9 382.638 1084.85 379.702 1083.6C376.829 1082.39 374.437 1075.63 375.939 1073.11C377.038 1071.27 376.1 1067.96 374.141 1066.79C373.51 1066.41 372.686 1064.92 372.415 1063.51C372.057 1061.38 372.244 1060.49 373.769 1058.65C375.797 1056.11 375.549 1053.8 373.053 1051.81C371.926 1050.97 371.526 1048.49 371.266 1041.17C370.295 1016.51 365.295 1001.2 353.804 988.022C351.269 985.094 347.497 981.513 345.432 979.95C341.989 977.397 341.699 977.308 341.934 978.781C342.11 979.636 345.667 985.588 349.919 991.955C361.051 1008.75 364.884 1019.7 367.52 1041.85C368.319 1048.41 368.304 1050.73 367.429 1051.63C366.17 1052.88 366.25 1053.17 369.034 1061C370.288 1064.49 370.285 1065.08 368.843 1066.63C366.726 1069.04 367.458 1071.97 370.617 1073.85C373.712 1075.7 376.909 1082.69 375.304 1084.23C374.575 1084.88 374.431 1086.13 374.793 1087.67C375.25 1089.78 375.772 1090.34 377.939 1091.3C380.207 1092.23 381.304 1093.55 385.499 1100.3C398.248 1120.56 412.724 1131.61 428.116 1132.78C439.497 1133.65 447.89 1128.91 447.719 1121.72Z" fill="#99C6CE"/>
<path d="M577.75 885.306C576.994 870.776 569.028 863.029 553.582 861.654C545.733 860.892 539.446 862.393 533.595 866.321C527.162 870.652 516.065 880.367 515.145 882.484C514.492 884.011 515.227 883.783 521.097 881.116C533.518 875.356 547.829 872.888 557.826 874.93C563.878 876.122 564.447 876.46 565.864 879.971C567.461 883.755 567.169 886.83 564.934 890.58C563.102 893.654 561.658 894.21 562.256 891.483C562.843 888.918 560.386 883.704 557.859 882.199C552.364 878.923 544.261 883.758 543.973 890.418C543.674 897.238 548.26 902.47 555.068 903.112C563.732 903.944 570.736 900.953 575.282 894.332C577.906 890.647 577.999 890.203 577.75 885.306Z" fill="#99C6CE"/>
<path d="M586.316 859.586C586.549 855.893 585.05 851.083 583.126 848.854C580.554 845.988 576.673 845.174 572.035 846.492C566.762 848.015 564.967 851.027 566.539 855.714C567.482 858.441 568.03 859.101 569.955 859.749C572.712 860.725 575.971 861.002 577.715 860.375C581.028 859.267 580.188 861.682 575.731 865.857C574.929 866.629 574.951 867.309 575.885 868.615C577.599 871.053 578.051 871.156 580.334 869.767C582.927 868.146 586.188 862.675 586.316 859.586Z" fill="#99C6CE"/>
<path d="M566.886 842.924C568.48 837.376 566.918 832.529 562.281 828.1C558.599 824.655 555.137 823.425 550.966 824.105C546.096 824.951 542.774 827.221 540.21 831.524C536.326 838.04 538.529 844.685 545.077 846.338C552.556 848.296 557.439 839.959 552.708 833.391L550.778 830.741L553.302 831.245C554.595 831.517 556.421 832.188 557.305 832.715C559.263 833.882 561.644 838.217 561.566 840.503C561.481 842.369 555.259 853.24 553.245 855.039C552.134 856.042 552.223 856.179 554.059 856.69C555.569 857.173 556.64 856.812 558.334 855.405C561.103 853.057 566.078 845.858 566.886 842.924Z" fill="#99C6CE"/>
<path d="M537.953 853.839C538.296 852.544 538.063 849.489 537.426 847.11C536.491 843.221 536.106 842.575 533.58 841.069C525.9 836.575 516.704 839.509 516.149 846.759C515.73 851.341 519.771 855.333 523.252 853.658C525.042 852.809 525.188 852.563 525.061 849.905C525.003 847.704 525.243 847.014 526.141 846.799C528.137 846.323 529.523 847.732 530.478 851.3C531.645 855.662 530.677 859.583 527.631 862.683C524.685 865.76 524.502 866.067 526.288 865.799C530.586 865.194 536.751 858.871 537.953 853.839Z" fill="#99C6CE"/>
<path d="M500.624 889.326C501.699 873.304 489.09 864.873 470.563 869.243C460.982 871.531 453.494 876.482 447.197 884.893C443.907 889.264 444.252 890.552 447.834 887.272C451.898 883.612 459.675 878.75 465.162 876.438C475.636 871.934 485.064 873.637 489.013 880.656C490.491 883.203 490.763 884.615 490.206 886.699C488.878 891.656 488.232 892.021 487.078 888.5C484.34 880.454 478.433 880.599 473.597 888.713C471.985 891.418 471.834 892.245 472.604 895.12C473.585 898.787 476.23 901.53 480.171 902.962C483.18 904.089 490.236 902.879 493.983 900.613C497.394 898.481 500.361 893.501 500.624 889.326Z" fill="#99C6CE"/>
<path d="M514.193 863.255C514.398 861.045 514.075 857.853 513.424 856.215C512.143 852.62 508.519 847.21 505.943 844.925C504.916 844.063 504.152 843.191 504.262 843.007C504.335 842.884 506.025 842.059 507.915 841.185C513.711 838.642 523.576 831.857 528.079 827.46C533.742 821.837 539.494 812.186 541.416 805.083C544.045 795.07 543.77 781.743 540.669 775.313C536.336 766.066 527.825 757.078 511.494 744.262L509.277 742.525L511.366 747.351C519.014 764.823 517.023 783.964 506.417 794.722C502.359 798.801 492.745 804.735 479.485 811.328C456.618 822.693 449.017 828.41 444.242 838.144C438.992 848.678 437.659 864.129 440.613 879.136L441.683 884.522L445.679 878.823C455.719 864.562 465.696 858.595 479.093 858.665C489.248 858.719 496.855 861.753 500.38 867.186C501.393 868.79 503.014 871.672 503.88 873.521C506.052 878.065 506.987 877.789 510.867 871.853C513.374 867.933 513.918 866.59 514.193 863.255ZM509.217 831.964C508.288 832.66 508.292 832.079 509.415 829.333C511.651 824.001 511.064 822.401 505.941 818.931C500.097 814.949 497.3 814.615 479.927 815.757C476.637 815.963 485.886 813.227 490.946 812.494C500.34 811.094 508.155 812.919 512.102 817.355C514.88 820.593 515.024 823.512 512.506 827.593C511.371 829.499 509.872 831.438 509.217 831.964ZM499.966 836.281L497.657 837.571L499.503 833.756C501.009 830.654 501.143 829.568 500.396 827.373C499.338 824.41 497.911 823.643 489.707 821.753C484.028 820.367 475.848 821.74 466.628 825.576C458.825 828.757 458.127 828.924 461.811 826.621C467.405 823.123 475.979 819.652 481.485 818.602C492.532 816.438 505.523 821.931 505.009 828.539C504.81 831.17 502.449 834.845 499.966 836.281ZM488.509 838.701C489.113 832.229 485.663 829.257 476.763 828.534C468.415 827.891 462.409 830.643 455.784 838.025C454.086 840.012 452.052 842.132 451.223 842.805C449.037 844.751 452.397 839.255 456.076 834.95C460.148 830.129 465.096 826.996 470.439 825.932C475.383 824.962 483.893 825.619 486.546 827.2C490.842 829.76 492.26 835.854 489.559 840.243L488.094 842.702L488.509 838.701ZM476.749 850.103C473.991 850.709 472.159 849.617 471.443 846.941C470.541 843.571 472.102 841.669 474.922 842.683L477.037 843.443L475.808 841.628C474.758 840.086 474.216 839.846 471.562 839.847C467.856 839.888 460.27 843.281 456.153 846.742C451.899 850.289 447.299 858.294 445.854 864.598C444.612 870.272 444.018 868.252 445.021 861.685C445.596 858.279 446.489 856.062 449.53 850.96C452.875 845.205 453.724 844.211 456.972 842.065C459.018 840.786 462.336 839.097 464.315 838.361C473.731 835.058 479.384 836.345 480.949 842.193C481.666 844.869 481.525 845.535 479.891 847.56C478.895 848.8 477.51 849.974 476.749 850.103Z" fill="#99C6CE"/>
<path d="M610.31 667.942C611.794 659.996 611.861 655.287 610.518 633.409C609.72 621.104 609.305 608.443 609.607 605.207C610.64 591.41 613.921 581.452 621.542 568.665C633.449 548.686 647.081 535.15 672.22 518.391C687.405 508.28 689.016 507.157 688.7 506.969C688.321 506.743 663.954 519.046 652.417 525.334C629.68 537.775 608.573 552.938 594.395 566.816C582.724 578.355 576.924 585.645 569.377 598.309C557.103 618.903 552.083 635.656 552.587 654.201C553.011 668.283 551.464 676.192 546.518 684.492L543.88 688.918L548.018 689.301C554.184 689.727 559.873 688.368 564.595 685.185C568.462 682.574 568.955 682.035 573.681 674.104L578.627 665.805L582.485 670.104C587.566 675.798 594.631 680.175 598.752 680.298C604.413 680.423 608.91 675.606 610.31 667.942ZM596.029 634.022C594.868 634.246 592.687 634.029 591.25 633.423C588.72 632.498 588.477 632.186 587.383 627.702C585.371 619.588 587.059 605.265 591.015 596.043C593.811 589.628 592.75 589.829 588.656 596.553C580.193 610.754 576.651 625.888 579.213 637.246C580.26 641.952 582.938 645.214 586.178 645.812C588.476 646.265 588.465 646.426 585.773 648.07C583.627 649.374 581.934 649.198 578.739 647.377C574.686 645.128 573.595 633.314 576.23 621.138C578.734 609.468 586.997 592.731 593.178 586.668C594.719 585.087 597.769 581.406 599.827 578.384C603.75 572.808 606.786 569.868 610.366 568.17C613.101 566.884 613.024 567.588 610.155 569.96C606.531 572.882 600.081 581.118 600.756 581.853C601.151 582.339 600.931 582.708 599.976 583.305C599.058 583.841 597.812 585.931 596.093 589.821C587.328 609.841 588.25 629.552 598.004 631.283C599.813 631.694 599.903 631.831 599.064 632.664C598.508 633.166 597.127 633.759 596.029 634.022Z" fill="#99C6CE"/>
<path d="M467.497 896.075C468.319 892.399 466.559 888.601 463.022 886.493C459.358 884.309 456.168 884.491 453.262 886.925C449.664 889.946 450.382 895.205 454.446 895.711C456.528 895.952 456.701 895.806 458.044 892.69C459.314 889.698 459.56 889.429 460.697 890.106C463.918 892.026 464.943 896.052 463.074 899.188C461.792 901.339 456.764 904.174 453.218 904.81C449.346 905.418 450.352 906.601 454.909 906.568C460.381 906.58 466.119 901.835 467.497 896.075Z" fill="#99C6CE"/>
<path d="M735.067 430.465C752.053 390.186 753.756 345.963 740.26 295.931C737.475 285.523 735.491 280.092 731.825 272.742C723.394 255.72 706.278 231.44 686.221 208.072C661.525 179.274 650.555 164.072 640.257 144.438C637.59 139.433 635.172 135.16 634.793 134.934C633.024 133.88 630.146 134.83 628.901 136.92C627.692 138.949 627.824 139.445 631.294 146.262C635.631 154.928 646.341 171.142 654.239 181.014C657.366 184.96 667.092 196.505 675.831 206.546C694.559 228.121 701.298 236.636 710.994 251.246C724.98 272.161 731.594 285.768 735.878 302.567C746.616 344.873 744.501 388.351 729.603 429.291C725.212 441.254 716.309 456.192 708.719 464.332C692.983 481.112 670.768 496.698 646.325 508.123C607.933 526.147 581.638 528.471 547.036 517.013C538.983 514.296 511.402 502.69 496.7 495.76C486.865 491.149 479.37 488.931 471.032 488.127C454.056 486.591 436.267 495.9 432.026 508.618C430.049 514.521 429.882 519.254 431.659 525.895C434.524 536.6 441.588 545.142 452.43 550.937C457.693 553.74 459.555 554.35 464.045 554.86C475.369 556.111 487.267 551.372 492.656 543.336C495.07 539.86 495.43 538.825 495.463 535.179C495.784 524.873 491.236 517.997 481.74 514.254C470.066 509.712 462.762 512.774 463.636 521.792C464.099 525.9 464.972 528.17 465.044 525.464C465.18 521.213 469.473 518.606 475.377 519.042C478.247 519.253 481.411 521.556 482.427 524.161C483.443 526.765 483.172 532.103 481.916 534.353C480.781 536.259 472.35 538.483 469.022 537.748C464.988 536.761 459.074 532.32 456.167 528.005C453.297 523.628 451.677 516.581 452.83 513.353C454.49 508.844 460.586 506.228 471.789 505.241C486.981 503.881 512.046 508.072 531.195 515.153C552.459 522.994 561.485 525.374 575.127 526.757C599.126 529.147 622.613 524.066 653.761 509.722C672.723 501.029 693.77 486.83 706.379 474.434C715.816 465.062 728.875 445.019 735.067 430.465Z" fill="#99C6CE"/>
<path d="M508.983 776.34C510.99 767.372 507.57 755.587 502.075 752.311C498.411 750.128 495.731 750.03 489.459 751.791C483.015 753.699 479.018 756.815 476.802 761.826L475.239 765.31L473.109 762.707C469.693 758.672 462.197 753.871 458.017 753.129C449.303 751.518 440.169 756.072 438.268 762.853C437.851 764.271 437.816 766.916 438.13 768.686L438.753 771.806L434.325 768.751C430.492 766.133 429.245 765.64 425.507 765.162C420.628 764.587 412.754 766.309 408.225 769.024C404.414 771.252 401.787 775.518 401.487 779.755C401.277 784.129 404.078 792.213 407.888 798.316L411.196 803.537L402.543 798.379C393.826 793.184 393.826 793.184 388.185 792.738C378.108 791.98 371.658 796.051 366.008 806.68C363.55 811.38 362.893 813.488 362.607 816.983C362.018 825.296 366.293 832.343 375.316 837.887L380.458 841.035L378.02 841.248C372.618 841.694 369.551 842.532 365.914 844.613C357.794 849.188 355.079 858.484 358.199 870.341C363.011 888.121 376.911 899.987 395.838 902.27C404.681 903.375 418.994 901.908 427.565 899.019L431.414 897.73L430.394 888.958C428.504 873.169 428.736 862.727 431.154 850.338C434.117 835.026 439.79 825.077 451.243 814.908C464.784 802.817 473.889 797.163 488.718 791.671C493.649 789.861 499.109 787.45 500.956 786.218C504.65 783.755 508.312 779.189 508.983 776.34ZM497.534 781.763C493.569 785.398 483.307 790.696 482.936 789.308C482.75 788.614 483.143 788.099 484.377 787.751C488.38 786.638 492.444 782.978 495.548 777.913C498.699 772.627 498.936 770.935 496.87 768.371C494.866 765.843 492.963 765.876 491.125 768.529C488.245 772.644 484.142 771.199 483.334 765.802C482.689 762.002 487.229 757.543 491.833 757.288C494.986 757.168 500.571 760.579 502.877 764.036C506.026 768.663 503.821 776.096 497.534 781.763ZM423.688 893.459C416.48 897.078 403.578 893.304 396.148 885.376C386.604 875.106 390.245 859.948 403.377 854.861L407.174 853.375L405.156 851.589C399.689 846.831 395.36 837.003 396.086 831.188C396.514 828.027 399.163 823.44 402.088 820.686C404.705 818.163 412.31 816.031 416.9 816.516L420.448 816.882L418.741 810.699C416.847 803.822 417.001 798.249 419.124 793.682C421.09 789.522 423.886 787.272 428.676 786.129C433.367 785.009 436.932 785.634 441.796 788.533L445.37 790.579L445.977 787.692C446.589 784.225 449.383 779.392 451.76 777.559C454.036 775.75 458.265 774.688 461.95 774.968C468.505 775.459 475.575 781.838 477.853 789.362C478.855 792.708 478.412 794.026 475.876 795.265C473.986 796.138 458.005 807.441 448.173 814.744C440.089 820.84 436.166 826.416 431.613 838.365C428.083 847.592 426.554 854.178 426.626 859.803C426.658 861.905 426.64 867.392 426.509 872.063C426.479 876.711 426.74 882.448 427.214 884.813C428.125 889.605 427.341 891.637 423.688 893.459Z" fill="#99C6CE"/>
<path d="M417.054 886.923C408.401 881.765 404.31 872.829 407.828 866.928C409.366 864.346 413.859 861.691 418.004 860.913C421.287 860.287 421.46 860.14 421.985 857.537C422.479 855.415 422.293 854.721 420.903 853.893C418.566 852.5 414.763 846.817 413.439 842.863C411.893 838.275 412.363 832.891 414.48 830.487C416.771 827.936 422.187 826.749 426.909 827.73C430.337 828.441 430.836 828.322 431.862 826.6C432.742 825.125 432.686 823.925 431.644 821.222C427.698 811.038 431.123 799.833 438.181 799.625C441.035 799.576 446.481 802.072 448.468 804.339C449.87 806.008 450.033 806.022 451.864 804.53C453.458 803.148 453.672 802.359 453.825 798.368C454.011 790.731 457.307 786.78 463.687 786.417C467.339 786.178 471.322 787.968 471.879 790.05C472.038 790.645 472.613 791.404 473.118 791.705C474.571 792.571 473.49 788.927 471.337 785.645C467.47 779.924 460.211 777.597 455.373 780.545C452.072 782.494 449.909 787.703 450.064 793.044C450.242 799.065 449.324 799.601 445.052 796.139C437.663 790.152 432.772 788.736 427.538 791.199C422.377 793.538 420.679 799.691 422.804 808.622C423.51 811.458 425.07 815.304 426.299 817.12C430.086 822.543 428.698 824.298 422.154 822.064C413.937 819.333 405.733 821.608 402.179 827.571C400.164 830.952 400.045 833.881 401.681 838.604C403.407 843.465 407.424 848.359 411.782 850.956C415.256 853.027 416.745 855.413 415.197 856.574C414.751 856.891 413.091 857.235 411.378 857.38C403.937 857.944 397.73 862.326 395.879 868.304C393.841 875.171 396.52 881.016 404.06 886.176C409.246 889.683 415.531 891.346 419.433 890.257L421.602 889.633L417.054 886.923Z" fill="#99C6CE"/>
<path d="M333.09 1063.57C334.26 1060.6 335.924 1055.51 336.778 1052.35C338.252 1047.15 338.692 1046.41 340.366 1045.33C342.985 1043.81 343.653 1039.96 341.526 1038.35C339.462 1036.79 340.342 1029.57 342.772 1027.93C345.238 1026.24 345.397 1022.67 343.017 1020.92C340.979 1019.45 340.029 1013.72 341.348 1011.51C342.264 1009.97 341.499 1006.51 340.046 1005.65C339.478 1005.31 338.315 1002.95 337.463 1000.36C335.631 995.102 332.11 989.088 327.957 984.28C323.713 979.335 323.341 979.53 326.875 984.802C330.267 989.739 333.803 997.595 335.093 1002.61C335.55 1004.72 335.412 1006.39 334.559 1007.96C333.047 1010.64 333.81 1013.1 336.44 1014C337.85 1014.5 338.262 1015.25 338.446 1017.52C338.545 1019.08 338.187 1021.12 337.638 1022.04C336.209 1024.44 336.277 1026.48 337.916 1028.04C339.797 1029.91 339.319 1036.46 337.179 1038.18C334.766 1040.07 334.221 1043 335.892 1045.08C337.168 1046.67 337.154 1047.41 335.794 1051.85C333.739 1058.46 327.99 1069.11 323.808 1074.12C316.01 1083.46 304.822 1090.46 297.202 1090.75C291.946 1090.95 290.304 1089.97 289.007 1086.12C288.038 1083.29 288.168 1082.78 290.33 1079.16C293.114 1074.48 298.256 1070.88 301.642 1071.24C303.498 1071.42 304.093 1071.86 305.574 1073.83C306.545 1075.07 307.525 1076.16 307.761 1076.05C307.961 1076 307.666 1073.91 307.077 1071.31C306.199 1067.04 305.84 1066.49 303.25 1064.95C300.913 1063.55 299.746 1063.36 297.224 1063.85C291.046 1065.17 284.855 1071.39 282.314 1078.96C280.55 1084.07 281.216 1087.55 284.393 1090.7C291.764 1098.01 306.145 1096 317.941 1086.11C323.479 1081.42 329.883 1071.82 333.09 1063.57Z" fill="#99C6CE"/>
<path d="M639.89 498.956C622.768 501.831 607.983 501.934 599.377 499.138C592.281 496.825 590.697 493.881 593.084 487.722C594.594 484.04 600.355 479.975 603.777 480.266C608.34 480.652 610.524 481.871 611.546 484.896C612.419 487.166 612.332 488.03 611.043 489.761C609.928 491.346 608.883 491.806 606.581 491.934C602.965 492.112 601.223 491.157 600.424 488.764C599.883 486.942 599.846 487.004 599.485 489.621C598.726 494.917 603.231 497.269 610.526 495.368C617.25 493.71 620.1 490.077 619.979 483.673C619.807 478.073 612.738 471.693 604.723 469.916C599.812 468.821 591.711 470.492 587.524 473.495C579.98 478.829 576.787 486.34 578.667 493.959C581.475 505.047 594.69 512.173 609.503 510.587C614.878 510.042 621.842 507.694 635.33 502.154L645.059 498.038L639.89 498.956Z" fill="#99C6CE"/>
<path d="M389.386 905.339C387.155 904.343 385.325 904.253 380.855 905.004C350.593 909.962 323.319 897.123 305.059 869.161C277.523 827.174 280.618 765.535 313.026 710.871C326.436 688.371 343.821 668.824 369.946 646.821C418.997 605.741 493.486 568.658 572.836 545.969C583.083 542.995 584.967 541.702 580.79 540.379C578.439 539.727 538.324 549.727 520.931 555.356C433.018 583.939 367.355 626.032 323.172 681.927C315.407 691.795 298.767 719.284 293.912 730.303C290.279 738.552 284.384 760.365 281.907 774.718C276.767 804.313 278.088 832.259 285.633 854.501C294.157 879.409 309.415 898.333 332.118 911.947C343.488 918.724 354.434 922.332 372.579 925.065C377.963 925.941 378.725 925.812 379.568 924.398C380.117 923.476 381.369 921.806 382.292 920.69L384.126 918.617L369.875 917.538C348.778 915.878 347.332 915.433 334.357 907.616C324.918 901.908 323.07 900.557 318.607 895.98C313.928 891.192 304.717 879.788 305.453 879.56C305.616 879.573 307.444 881.246 309.441 883.353C330.64 905.235 357.478 914.065 385.009 908.23L392.248 906.712L389.386 905.339Z" fill="#99C6CE"/>
<path d="M576.251 555.752C575.556 555.338 551.363 561.747 540.66 565.198C530.493 568.47 515.77 574.358 507.418 578.461C496.866 583.669 488.067 589.672 476.68 599.298C449.087 622.758 433.576 645.338 433.648 661.877C433.701 674.571 441.995 684.929 455.259 688.67C473.994 694.004 490.794 690.52 498.656 679.626C501.526 675.672 502.789 669.676 502.049 663.737C501.404 658.354 499.448 655.605 494.554 653.188L490.617 651.175L493.813 651.414C501.609 651.978 510.051 648.012 513.532 642.171C517.269 635.901 516.612 625.512 512.122 620.837C505.203 613.631 492.602 612.369 483.57 617.9C475.084 623.089 471.687 632.811 477.626 634.768C482.77 636.334 487.255 634.842 487.005 631.527C486.853 629.77 486.79 629.733 484.623 631.357C482.43 632.883 479.639 632.969 478.852 631.417C477.501 628.945 484.17 624.506 488.833 624.869C490.825 624.973 491.683 625.401 492.995 626.933C497.923 632.453 493.956 639.252 484.668 641.048C479.825 641.994 476.317 640.986 473.276 637.757C464.902 628.684 471.041 613.931 490.696 596.32C494.204 593.163 498.248 589.824 499.686 588.849L502.225 587.03L501.379 589.024C499.826 592.348 498.407 598.75 498.451 601.692C498.588 605.772 500.518 608.422 505.697 611.509C511.356 614.798 515.935 615.445 522.974 613.975C530.014 612.505 533.891 609.734 538.373 603.075C541.054 599.008 541.881 597.334 542.059 595.024C542.462 590.183 538.541 585.846 532.993 584.956C529.844 584.495 527.178 586.239 524.797 590.235L522.918 593.531L524.875 592.114C528.642 589.528 533.375 590.349 534.24 593.78C534.797 595.862 532.073 599.57 529.468 600.35C525.529 601.502 519.172 598.379 518.217 594.811C517.617 592.371 520.634 588.171 525.896 584.225C531.677 579.839 539.561 575.374 557.319 566.546C578.233 556.017 577.451 556.467 576.251 555.752ZM469.71 662.125C463.171 666.059 454.142 664.26 450.322 658.318C447.963 654.663 446.953 649.895 447.383 645.152C448.174 637.793 455.964 625.44 466.586 614.942C471.729 609.76 473.236 609.242 470.745 613.422C467.924 618.155 464.38 628.123 463.934 632.606C463.4 637.953 465.087 641.874 469.484 645.412C473.54 648.662 474.626 650.142 475.076 653.409C475.562 656.615 473.484 659.959 469.71 662.125Z" fill="#99C6CE"/>
<path d="M343.611 942.79C343.851 937.935 342.681 936.738 341.882 941.094C341.074 945.611 338.849 949.2 335.967 950.732C329.931 953.965 324.87 952.116 315.977 943.483C312.8 940.34 308.465 936.84 306.128 935.447C301.391 932.624 297.37 928.311 293.796 922.099L291.368 917.986L293.769 926.165C297.342 938.125 298.732 941.536 301.819 946.125C309.167 956.919 320.595 961.731 330.32 958.196C337.966 955.422 343.17 949.276 343.611 942.79Z" fill="#99C6CE"/>
<path d="M585.551 514.724C584.577 514.06 578.652 511.362 572.501 508.613C566.377 505.962 557.357 501.42 552.456 498.582C544.714 494.051 543.371 493.001 541.783 490.638C540.105 488.139 540.135 487.657 541.485 484.962C543.99 480.04 548.661 479.242 551.651 483.273C552.864 484.829 552.913 485.608 552.033 487.083C550.568 489.542 548.046 490.039 545.929 488.277L544.117 486.864L544.874 488.898C547.476 495.448 553.716 495.751 557.453 489.48C558.772 487.267 558.833 486.304 557.815 482.698C556.647 478.336 553.109 473.645 549.13 471.273C541.423 466.681 530.934 469.343 526.464 476.843C524.632 479.917 524.818 484.776 526.865 490.245C528.86 495.516 528.697 495.502 521.165 489.181C503.184 473.965 497.019 459.461 504.982 451.127C508.594 447.364 514.933 447.644 518.812 451.621C521.115 454.077 521.342 456.712 519.4 459.97C517.641 462.921 515.745 463.373 511.489 461.753C509.537 461.006 508.952 460.408 508.591 458.86C508.266 457.25 508.423 456.843 509.531 456.421C510.266 456.192 511.66 456.44 512.67 457.042C513.934 457.795 514.522 457.813 514.636 457.047C515.154 454.024 510.642 452.834 507.231 454.966C505.111 456.369 504.928 456.676 505.096 458.692C505.371 463.688 511.582 469.64 518.104 471.194C521.206 471.877 527.368 470.3 530.526 468.017C539.728 461.338 537.86 443.646 527.406 439.498C526.096 438.967 523.173 438.558 520.881 438.525L516.75 438.563L518.76 437.345C523.462 434.482 525.195 427.266 523.129 418.954C521.787 413.738 518.793 410.288 513.131 407.58C505.626 403.941 494.786 404.894 484.923 410.096C480.65 412.382 480.477 412.529 476.484 419.23C472.6 425.746 472.443 426.152 472.293 431.145C471.855 445.38 482.717 463.35 502.297 480.768C518.489 495.251 531.016 502.383 550.273 508.278C559.115 510.965 575.759 514.637 582.431 515.364C586.921 515.874 587.283 515.84 585.551 514.724ZM502.29 476.182C498.561 472.96 491.925 465.422 489.145 461.183C481.853 450.005 481.656 438.558 488.712 433.182C493.365 429.541 499.511 430.288 502.96 434.842C505.591 438.327 505.106 441.87 501.401 446.076C495.268 452.919 495.618 460.375 502.795 473.9C503.814 475.924 504.591 477.636 504.518 477.759C504.444 477.882 503.407 477.181 502.29 476.182Z" fill="#99C6CE"/>
<path d="M299.749 995.128C304.608 983.528 304.681 979.239 300.632 961.33C298.676 952.833 297.019 945.847 296.956 945.81C296.893 945.772 296.544 949.23 296.271 953.566C295.389 966.536 293.321 973.885 286.139 990.099C282.601 997.904 279.304 1006.02 278.747 1008.1C277.956 1011.3 278.042 1012.02 279.305 1012.77C284.232 1015.71 294.937 1006.51 299.749 995.128Z" fill="#99C6CE"/>
<path d="M633.853 402.8C637.079 394.226 638.099 383.753 636.571 373.678C633.144 350.558 615.189 339.607 589.932 345.216C576.306 348.258 565.873 354.704 560.781 363.249C550.705 380.154 548.017 412.959 554.464 439.629C557.226 450.939 562.366 461.417 567.301 465.775L569.256 467.523L567.504 462.563C560.193 441.794 557.731 419.498 560.653 400.662C562.018 391.478 565.524 378.989 568.373 372.772C572.048 364.882 583.025 355.512 593.013 351.967C601.567 348.818 615.483 350.03 620.944 354.368C632.651 363.594 635.973 393.066 626.604 404.478C621.856 410.146 609.171 413.333 599.4 411.342C593.484 410.065 588.125 406.705 586.472 403.303C584.496 399.293 584.108 393.481 585.293 388.188C587.79 377.68 593.003 372.955 601.104 373.868C609.432 374.833 614.318 382.577 610.581 388.847C609.152 391.245 607.189 392.241 600.219 394.168C596.453 395.173 596.28 395.32 597.89 395.779C601.534 396.702 607.322 396.902 610.515 396.139C613.347 395.41 613.866 394.97 614.859 392.729C616.515 388.801 616.038 382.852 613.806 379.272C609.252 371.976 596.582 368.673 587.924 372.428C586.071 373.239 584.949 374.404 583.117 377.477C575.57 390.141 577.897 406.774 588.13 412.873C601.205 420.665 622.844 418.399 630.881 408.36C631.767 407.305 633.106 404.771 633.853 402.8Z" fill="#99C6CE"/>
<path d="M288.128 969.957C290.731 964.01 292.449 957.536 292.909 952.312C293.242 948.595 289.122 910.982 288.46 911.088C288.36 911.111 286.043 921.894 283.348 935.033C280.59 948.135 277.679 961.063 276.828 963.639C274.664 970.43 267.099 984.416 262.064 990.996C255.348 999.824 249.691 1003.28 243.099 1002.85C238.599 1002.5 232.946 997.052 231.882 992.086C231.276 989.226 230.371 989.02 230.236 991.688C229.83 999.694 237.265 1007.04 246.148 1007.5C253.303 1007.85 260.936 1004.24 269.247 996.61C277.076 989.363 283.979 979.648 288.128 969.957Z" fill="#99C6CE"/>
<path d="M348.837 853.014C348.168 850.116 347.21 849.712 347.148 852.257C347.076 854.964 344.415 858.71 342.036 859.541C336.197 861.726 326.47 860.094 319.08 855.69C310.11 850.344 305.166 844.565 298.305 831.228C294.888 824.61 294.888 824.61 296.165 828.787C297.94 834.426 301.429 842.504 303.339 845.475C310.889 857.223 324.044 865.314 334.854 864.842C343.689 864.525 350.229 859.009 348.837 853.014Z" fill="#99C6CE"/>
<path d="M342.468 840.72C341.974 838.676 341.795 838.403 341.624 839.551C341.474 840.378 340.837 842.164 340.257 843.568C339.264 845.809 338.718 846.15 335.162 846.947C329.62 848.059 323.767 846.82 317.703 843.206C309.591 838.288 305.923 834.102 300.091 822.629C296.738 816.048 296.744 816.469 300.019 825.335C305.973 841.63 320.249 852.722 332.764 850.683C339.81 849.633 343.595 845.724 342.468 840.72Z" fill="#99C6CE"/>
<path d="M278.747 940.455C282.26 930.969 282.222 928.447 278.147 897.943C274.388 870.209 273.352 863.76 273.511 868.521C273.503 869.682 273.758 879.165 274.016 889.649C274.561 910.135 274.174 915.236 270.989 929.917C268.619 940.501 266.883 944.132 259.364 953.73C252.449 962.605 245.857 966.341 240.606 964.378C237.471 963.176 236.221 961.681 234.855 957.368C234.261 955.348 233.564 953.932 233.454 954.117C232.208 956.207 234.11 964.505 236.738 968.571C238.764 971.778 242.448 973.64 246.389 973.49C250.793 973.282 251.702 972.907 257.369 969.287C265.765 963.96 274.33 952.319 278.747 940.455Z" fill="#99C6CE"/>
<path d="M366.31 775.868C367.133 766.445 361.466 753.403 355.511 751.187C344.179 746.933 327.888 754.302 327.481 763.89C327.277 768.684 331.208 777.025 334.646 779.157C336.667 780.362 341.643 779.912 345.297 778.091C347.932 776.829 349.217 775.678 350.573 773.404C352.112 770.822 352.235 769.896 351.466 767.022C350.962 765.138 349.996 763.313 349.364 762.936C348.164 762.221 340.11 763.669 339.487 764.714C339.304 765.022 340.861 765.283 342.826 765.288C347.373 765.415 348.862 766.22 349.532 769.118C350.871 774.915 342.568 779.797 337.046 776.423C333.483 774.215 330.15 765.731 331.354 761.7C332.355 758.297 336.049 755.834 342.536 754.285C353.578 751.701 358.91 754.963 361.781 766.088C363.442 772.493 363.251 778.128 361.239 782.51C359.999 785.02 359.051 786.038 356.059 787.754C348.612 792.063 340.306 791.779 331.333 787.014C326.197 784.286 325.512 783.711 322.685 779.693C313.592 766.943 309.162 750.39 310.376 733.701L310.777 727.859L309.041 731.489C305.486 739.035 305.301 749.255 308.583 762.708C310.824 771.874 313.785 778.971 317.814 784.705C319.977 787.827 321.499 789.151 325.253 791.471C329.548 794.031 330.705 794.387 336.309 794.895C353.384 796.407 365.192 788.948 366.31 775.868Z" fill="#99C6CE"/>
<path d="M335.516 828.829C335.146 825.86 334.437 826.187 333.453 829.849C332.406 833.474 330.296 834.716 324.425 834.799C319.669 834.88 317.674 833.775 311.878 827.988C307.126 823.322 303.365 817.999 299.699 810.649L297.338 805.992L298.811 810.702C303.315 825.55 310.831 835.778 318.815 838.037C322.16 839.031 328.507 838.148 331.535 836.371C334.164 834.689 335.87 831.539 335.516 828.829Z" fill="#99C6CE"/>
<path d="M408.363 693.961C407.282 694.483 404.64 695.324 402.571 695.924L398.768 696.99L392.578 693.301C387.778 690.44 386.029 689.064 384.873 687.126C380.884 680.749 379.842 669.715 382.562 662.421C383.392 660.167 386.237 654.531 388.949 649.982L393.805 641.546L389.623 646.552C382.968 654.416 378.211 662.828 376.996 668.601C374.965 678.472 376.825 686.411 382.448 692.345C385.704 695.786 390.778 698.476 395.52 699.136C399.511 699.765 405.436 698.298 407.77 696.106C410.486 693.56 410.689 692.931 408.363 693.961Z" fill="#99C6CE"/>
<path d="M397.987 708.355C390.837 711.591 388.03 711.417 381.371 707.366C376.697 704.58 375.517 703.543 372.906 699.738C369.334 694.527 367.776 689.099 367.709 681.311C367.648 673.944 369.789 668.055 377.54 654.763L383.522 644.582L377.622 651.896C363.548 669.334 359.677 680.856 363.264 694.658C365.058 701.559 368.48 706.014 374.733 709.741C384.84 715.765 395.224 715.289 400.821 708.627L402.912 706.124L397.987 708.355Z" fill="#99C6CE"/>
<path d="M413.694 679.559C407.352 682.444 401.951 681.308 396.351 676.055C393.29 673.147 392.8 670.523 393.837 662.893C394.952 654.56 396.592 650.372 402.364 640.399L406.818 632.64L402.945 637.413C392.381 650.112 387.411 659.313 386.962 666.96C386.716 671.395 387.309 673.415 389.698 676.589C394.845 683.321 407.445 686.166 413.678 681.883C418.401 678.699 418.419 677.377 413.694 679.559Z" fill="#99C6CE"/>
<path d="M415.606 664.287C411.128 664.617 406.236 660.618 405.172 655.652C404.907 654.661 404.969 652.115 405.2 650.004C405.565 646.806 406.109 645.463 409.036 641.126L412.502 636.028L409.849 638.612C403.295 644.87 400.537 653.806 403.463 659.382C405.485 663.17 410.964 666.186 414.736 665.601C418.472 665.079 419.168 663.91 415.606 664.287Z" fill="#99C6CE"/>
<path d="M324.898 817.919C324.666 817.447 324.047 817.911 323.387 819.018C322.508 820.493 321.699 820.845 319.644 820.703C313.215 820.287 307.56 816.417 304.808 810.694C302.314 805.542 301.909 805.217 303.212 809.493C305.209 815.765 310.636 821.166 316.11 822.179C320.706 823.085 326.25 820.391 324.898 817.919Z" fill="#99C6CE"/>
<path d="M323.532 792.778C322.606 790.31 320.279 788.757 317.435 788.645L314.628 788.471L316.919 790.086C318.109 790.962 320.256 792.242 321.593 792.872C323.498 793.841 323.924 793.845 323.532 792.778Z" fill="#99C6CE"/>
<path d="M357.174 726.852C357.403 723.739 354.999 718.724 350.945 713.892C344.186 705.698 342.922 702.362 342.193 690.514C342.016 687.077 341.736 684.243 341.61 684.168C341.357 684.018 340.512 692.761 339.594 704.211C339.013 711.363 339.169 715.122 340.21 719.408C342.461 728.414 347.083 733.585 352.053 732.714C355.3 732.15 356.962 730.224 357.174 726.852Z" fill="#99C6CE"/>
<path d="M249.4 901.221C257.02 884.269 263.414 859.753 266.47 835.666C268.366 820.133 270.839 781.368 269.878 781.545C269.678 781.593 268.583 787.022 267.48 793.612C263.041 819.875 258.945 833.93 251.122 849.928C240.517 871.6 226.116 886.428 207.326 894.974C204.055 896.44 193.239 900.657 183.214 904.263C162.356 911.827 153.129 916.825 148.97 922.51C146.995 925.249 146.672 926.223 146.836 928.82C147.141 933.334 149.261 936.097 155.199 939.636C157.978 941.292 162.214 943.233 164.555 944.045C166.932 944.796 168.884 945.543 168.937 945.741C168.99 945.939 167.455 947.94 165.537 950.296C155.696 961.926 153.97 973.727 160.66 984.046L162.058 986.296L163.487 983.898C165.576 980.394 172.303 973.99 177.178 970.98C179.534 969.469 184.978 966.798 189.22 964.994C198.514 961.035 203.369 958.347 209.186 953.9C215.277 949.282 224.551 939.897 230.598 932.337C236.152 925.317 245.584 909.777 249.4 901.221ZM214.301 930.955C206.21 940.796 196.326 947.902 187.833 950.088C183.032 951.392 181.16 950.943 178.671 947.793C177.97 946.959 177.456 945.236 177.573 943.89L177.688 941.542L179.969 943.318C183.06 945.743 186.246 946.143 191.057 944.678C196.167 943.141 202.244 939.265 208.568 933.537C212.879 929.608 214.304 927.791 219.622 919.298C224.548 911.32 225.181 910.114 222.964 912.542C210.26 926.964 194.463 936.377 188.778 932.989C186.504 931.634 184.906 929.432 184.648 927.279C184.321 924.668 185.083 924.539 187.879 926.455C193.523 930.485 202.945 927.603 213.413 918.513C223.772 909.607 232.604 895.793 234.738 885.318C235.282 882.393 235.319 882.332 235.933 884.031C236.712 886.745 235.244 892.368 231.673 899.653C229.937 903.284 228.244 907.274 227.973 908.446C227.235 911.838 219.405 924.833 214.301 930.955Z" fill="#99C6CE"/>
<path d="M537.843 415.81C537.867 414.908 536.814 409.781 535.544 404.443C531.752 388.686 531.201 380.276 533.168 366.203C534.904 354.241 537.77 344.119 540.51 340.67C542.475 338.092 542.715 337.402 542.211 335.519C541.415 332.545 542.63 326.772 544.127 326.414C547.121 325.699 547.542 319.535 544.763 317.879C543.247 316.975 543.134 309.41 544.555 308.174C546.532 306.436 547.032 304.735 546.17 302.305C545.762 300.979 544.738 299.536 543.917 299.046C543.033 298.519 542.356 296.783 541.976 293.974C541.139 287.477 536.602 272.109 533.876 266.486C527.198 252.842 516.632 243.712 504.78 241.48C499.821 240.608 494.106 241.867 491.616 244.465C489.126 247.063 489.155 252.329 491.614 258.544C494.465 265.825 496 267.989 499.79 270.248C506.991 274.539 513.286 271.876 514.161 264.233C514.392 262.121 514.302 261.985 513.201 262.828C509.403 265.896 508.484 266.432 506.808 266.516C503.844 266.749 500.716 264.385 498.325 260.21C495.575 255.489 495.391 253.213 497.406 249.832C498.688 247.68 499.58 247.045 501.812 246.46C506.403 245.364 509.854 246.754 516.901 252.453C528.066 261.44 534.62 271.845 539.011 287.458C541.79 297.445 541.78 297.606 540.019 299.555C538.567 301.273 538.39 302 538.821 304.007C539.102 305.258 539.963 306.687 540.721 307.139C542.868 308.418 542.417 315.064 539.996 318.12C538.325 320.207 538.295 320.689 539.294 323.034C540.811 326.52 539.813 330.924 537.408 331.657C534.54 332.447 533.59 335.046 534.901 338.161C535.953 340.704 535.903 341.507 533.85 346.532C523.231 373.11 523.749 397.663 535.436 415.541C537.409 418.55 537.798 418.616 537.843 415.81Z" fill="#99C6CE"/>
<path d="M644.55 217.811C646.686 208.337 645.525 200.231 640.028 187.623C637.681 182.226 635.539 177.201 635.254 176.531C634.968 175.861 636.03 179.825 637.588 185.253C641.406 198.525 642.148 205.466 640.556 212.015C639.058 218.12 635.52 224.343 631.886 227.425C628.461 230.299 620.379 233.231 616.867 232.804C613.708 232.504 608.86 229.865 606.125 226.985C604.371 225.189 604.371 225.189 604.748 226.997C605.795 231.704 613.518 236.556 620.293 236.679C625.528 236.8 632.781 234.541 636.07 231.752C639.285 229.086 643.598 221.993 644.55 217.811Z" fill="#99C6CE"/>
<path d="M474.418 467.651C461.066 448.114 457.234 441.331 454.125 431.897C449.47 417.876 449.33 410.211 453.694 406.48C456.327 404.217 460.451 403.759 464.066 405.164C466.849 406.239 467.012 406.253 465.825 404.796C464.217 402.755 458.761 400.419 454.082 399.796C446.579 398.741 441.275 404.91 440.917 415.278C440.67 421.295 443.497 433.643 446.657 440.692C451.319 450.969 455.605 456.272 469.232 468.31C476.022 474.439 481.742 479.348 481.942 479.3C482.142 479.253 478.77 473.994 474.418 467.651Z" fill="#99C6CE"/>
<path d="M420.526 578.327C416.38 580.688 411.848 582.402 403.891 584.408C397.367 586.018 396.741 586.062 394.903 584.55C392.57 582.576 389.633 582.908 388.167 585.367C386.922 587.458 382.292 587.614 379.958 585.64C378.283 584.142 374.425 584.009 373.582 585.422C373.289 585.914 371.44 586.145 369.295 585.866C366.208 585.443 365.314 585.077 364.038 583.483C363.184 582.474 361.851 581.263 361.156 580.849C359.83 580.059 356.746 580.637 356.05 581.805C355.354 582.973 350.766 580.905 340.849 574.994C332.99 570.227 330.736 568.551 327.2 564.861C319.174 556.495 312.915 544.017 313.276 537.234C313.486 532.86 314.812 531.068 318.242 530.196C321.698 529.424 325.292 531.149 329.077 535.571C333.842 541.077 333.761 546.527 328.863 548.856L326.873 549.753L330.296 550.043C340.273 550.825 343.573 542.128 336.875 532.971C333.859 528.84 325.199 523.262 321.351 522.968C314.995 522.429 309.675 528.34 309.159 536.53C308.567 545.424 313.055 555.847 320.964 563.977C325.986 569.052 337.488 576.324 346.648 580.201C353.867 583.17 354.562 583.584 356.033 585.711C357.352 587.663 358.01 588.139 359.893 588.427C361.16 588.599 362.757 588.218 363.423 587.532C365.273 585.719 371.369 587.269 373.715 590.084C376.124 592.936 378.984 593.307 381.128 591.003C382.643 589.323 385.497 589.274 391.266 590.797C392.46 591.092 394.073 590.97 394.855 590.52C395.637 590.069 399.387 588.805 403.226 587.677C407.065 586.55 412.552 584.238 415.48 582.484C421.038 579.048 425.491 575.454 420.526 578.327Z" fill="#99C6CE"/>
<path d="M635.536 205.358C637.019 197.411 634.772 187.824 627.578 171.456L623.936 163.204L626.903 174.886C628.565 181.291 629.906 188.089 629.921 189.931C630.097 194.951 628.48 206.568 627.381 208.412C624.927 212.531 614.733 215.703 609.898 213.904C608.425 213.36 605.682 211.642 603.818 210.031L600.457 207.195L601.32 209.625C603.872 216.978 617.536 220.622 627.102 216.493C631.244 214.713 634.607 210.219 635.536 205.358Z" fill="#99C6CE"/>
<path d="M469.127 474.662C468.336 473.691 461.484 465.941 453.957 457.457C446.394 449.033 438.087 439.417 435.608 436.107C427.219 425.192 417.756 401.14 418.528 392.52C419.221 383.602 426.666 378.292 435.066 380.715C440.246 382.22 440.509 382.21 438.591 380.4C434.261 376.32 426.581 375.992 420.614 379.684C417.277 381.693 416.538 382.502 414.702 386.157C410.554 394.265 410.396 404.585 414.252 418.797C417.903 432.636 424.519 444.66 432.754 452.817C436.49 456.46 438.817 458.013 453.734 466.737C467.55 474.722 470.34 476.218 469.127 474.662Z" fill="#99C6CE"/>
<path d="M382.284 612.186C376.535 614.508 368.172 616.189 363.998 615.867C361.553 615.66 355.799 615.979 351.338 616.57C341.329 617.852 338.911 617.744 335.373 615.636C330.068 612.474 328.851 607.333 331.677 600.437C332.727 597.813 332.694 597.294 331.739 597.891C329.467 599.119 327.09 605.117 327.31 608.914C327.769 616.186 333.108 624.033 339.432 626.636C347.156 629.906 358.722 628.885 366.552 624.221C372.745 620.58 385.246 610.952 382.284 612.186Z" fill="#99C6CE"/>
<path d="M247.02 834.404C251.773 822.407 258.365 799.427 258.155 795.469C258.113 793.528 255.917 791.469 255.22 792.637C255.037 792.945 254.503 795.709 254.048 798.77C252.78 806.929 250.465 816.129 248.058 822.609C244.084 833.154 228.294 858.068 219.719 867.286C214.975 872.373 212.053 874.547 205.408 878.085C189.818 886.289 173.727 885.28 162.16 875.387C159.827 873.413 158.567 872.079 159.336 872.37C169.042 875.906 172.763 876.124 177.239 873.21C180.141 871.357 180.251 871.173 181.292 867.128C182.25 863.367 182.141 861.969 179.634 853.393C177.11 844.558 177.008 843.58 178.241 840.649C179.327 837.965 179.325 836.963 178.269 835.001C173.596 826.468 163.927 827.036 146.27 836.841L142.16 839.14L142.683 842.285C143.494 847.1 142.315 852.812 139.458 857.607C133.302 867.935 118.868 871.329 108.13 864.929C101.055 860.713 96.3027 851.882 96.6289 843.579C96.7881 840.008 97.2316 838.689 100.089 833.894C102.837 829.284 103.933 828.02 106.698 826.253C117.314 819.5 131.581 822.421 138.507 832.631C140.005 834.857 141.324 836.809 141.44 837.045C141.557 837.281 142.795 836.353 144.189 835.018C145.621 833.621 150.746 829.761 155.515 826.355C169.75 816.261 172.494 812.231 168.932 806.859C167.587 804.808 165.323 803.292 151.832 795.335C134.173 784.893 133.342 784.565 128.892 787.578C124.815 790.397 122.2 795.503 120.137 804.854C119.653 806.814 119.026 808.44 118.627 808.536C118.228 808.631 117.242 805.545 116.334 801.754C113.66 789.58 108.468 785.652 101.226 790.334C99.3794 791.566 96.9929 793.559 95.9342 794.761C93.1043 798.073 91.8965 798.52 87.8691 797.952C83.4525 797.32 81.7824 797.824 80.207 800.467C77.3125 805.324 78.3547 808.028 86.9008 818.536C89.9478 822.185 92.2634 825.481 92.017 825.751C91.1213 826.967 85.6941 825.731 77.5445 822.457C72.8728 820.673 67.9282 819.059 66.6244 818.948C63.7541 818.737 60.9293 819.886 59.8302 821.73C58.4013 824.128 57.5673 831.129 58.4301 833.559C59.2031 835.853 58.9832 840.387 57.6502 847.507C55.856 857.268 59.9882 859.814 73.0788 856.952C75.5373 856.418 81.7314 855.361 86.9275 854.542L96.3949 853.02L95.4486 855.039C94.309 857.525 92.4152 858.979 83.7866 863.834C71.3843 870.855 68.9485 876.235 73.9232 885.698C77.7255 892.963 79.4007 894.461 89.737 899.955C98.9364 904.771 99.4152 904.973 102.01 904.353C104.342 903.744 104.998 903.218 106.703 900.069C107.912 898.041 109.686 892.766 110.971 887.45C112.236 882.456 114.004 876.761 114.913 874.804L116.676 871.272L117.149 873.637C117.394 874.95 117.313 880.4 116.906 885.822C115.919 900.98 117.303 905.553 123.988 909.704C129.952 913.342 132.095 912.619 141.758 903.3C143.645 901.425 146.537 899.733 149.824 898.526C155.664 896.341 161.184 892.967 162.54 890.692C163.932 888.356 163.517 884.026 161.633 881.154C160.62 879.551 156.406 875.706 150.945 871.368C146.015 867.431 141.339 863.644 140.601 862.871L139.241 861.561L141.393 862.26C142.613 862.654 146.297 864.516 149.681 866.45C154.708 869.362 156.204 870.587 158.071 873.199C160.872 877.118 169.574 883.055 175.44 885.134C186.629 889.054 199.839 887.429 210.218 880.785C224.518 871.729 239.901 852.238 247.02 834.404Z" fill="#99C6CE"/>
<path d="M460.394 473.373C458.472 472.144 443.216 466.717 439.272 465.866C430.117 463.992 421.874 465.328 415.341 469.682C404.831 476.831 404.074 495.625 414.054 501.573C417.023 503.342 417.383 502.307 414.701 499.626C409.959 494.8 409.194 489.762 412.345 484.475C414.47 480.91 418.104 479.41 427.924 478.014C432.022 477.457 436.603 476.522 438.083 475.905C443.633 473.631 448.593 472.921 454.759 473.347C458.182 473.637 460.736 473.66 460.394 473.373Z" fill="#99C6CE"/>
<path d="M361.85 631.249C354.131 634.146 347.364 635.446 342.249 634.98C339.316 634.731 333.761 635.003 329.889 635.611C316.46 637.604 311.817 636.92 308.342 632.266C304.893 627.712 304.59 624.198 307.176 617.992L308.759 614.187L306.902 615.579C302.852 618.497 301.399 625.962 303.565 632.669C305.446 638.705 308.24 642.203 313.799 645.516C317.904 647.963 319.314 648.47 323.877 648.857C336.389 649.982 343.293 647.016 361.869 632.51L364.901 630.151L361.85 631.249Z" fill="#99C6CE"/>
<path d="M623.016 186.149C624.077 181.783 622.593 174.65 619.484 169.381C618.186 167.108 617.083 165.367 617.009 165.49C616.973 165.552 617.889 168.18 619.037 171.281C622.671 180.695 620.915 188.812 614.439 192.784C610.965 194.879 608.4 195.017 605.242 193.134C603.41 192.043 602.858 191.963 603.296 192.808C605.488 197.03 613.331 197.372 618.719 193.502C621.505 191.413 622.018 190.553 623.016 186.149Z" fill="#99C6CE"/>
<path d="M340.966 649.628C340.84 649.552 338.887 650.388 336.461 651.441C330.429 654.094 322.465 655.68 317.323 655.114C314.978 654.883 309.161 655.165 304.437 655.766C293.965 657.106 289.981 656.897 286.444 654.789C280.38 651.175 279.094 645.577 282.586 637.994C284.479 633.957 284.452 633.857 282.595 635.25C274.568 640.963 276.856 656.656 286.878 664.545C294.656 670.597 308.616 670.586 320.295 664.634C322.804 663.297 341.345 649.853 340.966 649.628Z" fill="#99C6CE"/>
<path d="M268.209 767.971C267.6 768.274 263.713 771.206 259.606 774.507C248.915 782.964 244.969 785.278 237.307 787.793C225.459 791.729 219.863 790.059 220.328 782.672L220.487 779.101L219.278 781.13C217.483 784.142 219.052 789.409 222.336 791.367C226.442 793.814 233.743 793.916 241.837 791.825C251.601 789.231 256.596 785.876 261.289 779.009C263.21 776.072 265.808 772.288 267.096 770.556C268.542 768.419 268.955 767.582 268.209 767.971Z" fill="#99C6CE"/>
<path d="M322.289 667.321C316.049 671.184 310.719 673.089 305.427 673.351C303.388 673.469 297.826 674.902 293.105 676.504C282.854 680.059 278.014 680.423 274.035 678.052C268.476 674.739 266.704 670.1 268.453 663.144C269.457 659.161 269.457 659.161 267.889 660.643C263.778 664.524 264.177 672.76 268.805 679.933C271.459 684.097 272.449 685.021 276.428 687.393C282.213 690.757 288.133 691.453 295.755 689.58C304.112 687.479 310.518 683.05 319.707 672.947C323.795 668.385 327.317 664.486 327.427 664.302C327.537 664.117 325.191 665.469 322.289 667.321Z" fill="#99C6CE"/>
<path d="M275.852 732.454C258.412 742.47 250.619 745.491 240.368 746.462C223.526 748.005 210.687 744.269 201.046 735.023C195.635 729.883 194.847 725.747 197.767 718.406L199.213 714.687L196.611 716.468C189.685 721.338 190.119 731.094 197.779 740.074C201.347 744.284 210.054 749.64 215.824 751.162C228.783 754.554 244.43 752.716 257.806 746.358C261.959 744.418 283.591 729.235 284.507 727.698C284.617 727.514 280.717 729.605 275.852 732.454Z" fill="#99C6CE"/>
<path d="M267.261 748.161C258.262 754.211 249.727 758.622 239.31 762.744C230.173 766.296 224.027 769.714 223.344 771.723C223.14 772.351 223.412 773.763 224.093 774.919C225.159 776.72 225.511 776.847 229.07 777.052C233.67 777.377 240.098 775.21 245.775 771.429C249.16 769.197 272.371 746.624 273.837 744.165C274.02 743.858 271.092 745.612 267.261 748.161Z" fill="#99C6CE"/>
<path d="M286.656 708.151C274.337 714.888 268.225 717.244 258.558 718.814C247.73 720.608 246 720.494 240.947 717.482C232.393 712.301 229.946 706.927 232.872 700.007C234.189 696.792 234.262 696.669 232.598 697.594C230.016 699.054 227.971 702.917 227.974 706.501C227.824 715.659 238.629 725.681 249.278 726.197C254.929 726.482 263.549 724.371 270.384 720.947C274.783 718.736 294.621 704.983 295.5 703.508C295.61 703.324 291.647 705.377 286.656 708.151Z" fill="#99C6CE"/>
<path d="M278.952 721.221C260.912 731.381 251.81 733.87 238.015 732.313C228.057 731.211 217.299 725.132 213.772 718.698C212.33 716.089 212.52 712.037 214.242 709.147C215.927 706.32 214.79 705.642 212.321 707.919C204.575 714.883 211.575 729.135 225.433 734.895C228.279 736.008 232.676 736.962 237.465 737.401C243.621 737.987 246.585 737.754 253.172 736.181C257.663 735.109 263.256 733.194 265.628 731.942C269.255 730.021 285.819 718.316 286.479 717.209C286.589 717.025 283.198 718.836 278.952 721.221Z" fill="#99C6CE"/>
<path d="M432.129 457.027C423.427 449.508 416.273 440.829 410.604 430.952C407.8 426.032 404.047 419.546 402.337 416.527C397.876 408.787 395.377 405.798 393.591 406.066C392.829 406.196 391.691 407.1 391.068 408.145C386.708 415.461 393.392 433.69 404.399 444.666C407.729 447.983 408.487 448.435 422.694 454.903L437.47 461.71L432.129 457.027Z" fill="#99C6CE"/>
<path d="M284.526 701.383C274.865 707.538 265.039 708.514 257.522 704.034C253.48 701.624 252.144 699.412 252.54 695.733L252.855 693.337L251.472 695.513C249.934 698.095 250.513 700.856 253.518 704.146C257.961 709.044 266.89 710.866 274.741 708.464C280.786 706.652 282.806 705.273 289.554 698.548C290.147 697.985 287.837 699.274 284.526 701.383Z" fill="#99C6CE"/>
<path d="M138.091 849.128C138.826 844.734 138.038 840.599 135.826 836.698C134.116 833.679 133.189 832.793 128.83 830.196C124.472 827.598 123.251 827.204 119.819 827.075C103.777 826.845 95.3099 845.792 106.24 857.471C109.676 861.185 110.687 861.788 115.588 863.043C120.101 864.233 125.922 863.37 129.942 860.934C133.553 858.754 137.449 853.078 138.091 849.128ZM120.896 847.961C119.731 848.766 117.751 849.503 116.501 849.59C113.747 849.615 109.82 847.442 108.395 845.093L107.293 843.353L110.505 843.851C112.261 844.064 114.6 843.875 115.681 843.353C117.944 842.286 120.724 838.195 120.813 835.748C120.834 833.845 121.666 834.174 123.46 836.909C124.742 838.923 124.795 843.287 123.685 845.291C123.319 845.906 122.097 847.094 120.896 847.961ZM113.954 840.075C112.856 840.337 111.39 840.213 110.695 839.798C109.305 838.97 108.114 835.511 108.847 834.282C109.836 832.622 112.893 831.945 114.725 833.036C115.862 833.714 116.58 834.808 116.698 836.045C116.926 838.68 116.349 839.503 113.954 840.075Z" fill="#99C6CE"/>
</svg>
