<svg width="568" height="1211" viewBox="0 0 568 1211" fill="none" xmlns="http://www.w3.org/2000/svg">
<path d="M-163.842 764.42C-160.976 765.063 -158.876 764.394 -149.178 760.042C-140.897 756.272 -136.435 754.909 -135.542 756.027C-135.364 756.251 -136.635 758.548 -138.443 760.998C-148.288 774.714 -149.331 777.652 -146.161 781.623C-143.527 784.923 -142.634 785.218 -138.281 784.307C-135.829 783.724 -133.978 783.804 -133.136 784.505C-132.428 785.039 -130.374 786.787 -128.499 788.312C-122.752 793.156 -118.98 793.992 -115.359 791.102C-112.486 788.809 -111.418 786.492 -110.374 780.256C-109.54 775.288 -108.401 771.175 -108 771.678C-107.91 771.79 -106.84 774.781 -105.63 778.302C-104.114 782.677 -102.457 785.933 -100.55 788.44C-95.2637 795.3 -90.9939 795.463 -82.7751 788.904C-80.1441 786.896 -75.8274 783.817 -73.2478 782.217C-62.3227 775.512 -58.7276 772.826 -57.5769 770.26C-55.0905 764.888 -58.2727 761.018 -72.3336 752.005C-81.8139 746.02 -88.7799 740.592 -87.9178 739.904C-87.6879 739.72 -83.5531 741.365 -78.7103 743.543C-69.7455 747.467 -61.9665 749.317 -57.8173 748.386C-54.6384 747.772 -51.3367 744.954 -50.2368 741.97C-49.5974 740.178 -49.7112 738.621 -50.6095 736.316C-52.0051 733.035 -51.6708 729.564 -49.0861 720.542C-44.9339 706.058 -55.6636 697.682 -69.1867 704.904C-73.9051 707.479 -71.465 704.524 -64.8047 699.667C-59.6834 695.946 -58.2532 695.263 -53.0315 694.025C-46.201 692.328 -39.8633 692.49 -33.0864 694.498C-27.7007 696.059 -18.5959 700.513 -14.7301 703.471C-10.303 706.896 2.00517 721.612 9.11452 732.053C19.3162 747.076 22.643 754.31 26.4551 770.404C27.5242 775.044 28.6702 779.074 28.9381 779.409C29.8309 780.528 31.6834 778.134 31.4742 776.104C31.2594 772.887 25.2337 755.081 21.1811 745.405C15.4589 731.751 11.6847 725.607 2.76912 715.143C-14.4243 694.895 -29.1626 687.154 -46.2373 689.336C-55.4799 690.486 -65.7661 696.222 -70.6916 702.9C-74.0519 707.413 -80.687 712.891 -86.5354 715.819C-90.2896 717.716 -90.2896 717.716 -88.7629 715.857C-87.907 714.808 -83.564 710.701 -79.0872 706.762C-69.859 698.756 -67.5143 695.329 -68.0728 690.739C-68.6056 685.945 -72.2036 683.323 -82.4389 680.046C-86.51 678.717 -88.4814 677.543 -93.0614 673.69C-96.1359 671.017 -99.3511 668.638 -100.232 668.242C-102.49 667.298 -106.084 668.335 -109.36 670.949C-114.706 675.215 -116.274 681.502 -114.621 692.178C-113.325 699.933 -112.902 707.653 -113.592 708.204C-114.684 709.075 -117.061 703.739 -120.143 693.746C-123.347 683.485 -125.456 679.308 -128.353 677.683C-131.486 675.879 -133.918 676.722 -142.979 682.579C-151.19 687.851 -151.593 688.172 -154.148 692.042C-158.167 698.088 -159.613 702.996 -158.741 707.153C-158.105 710.308 -157.672 710.969 -154.999 713.139C-153.359 714.486 -148.74 717.209 -144.702 719.205C-140.72 721.246 -136.261 724.005 -134.883 725.378C-132.587 727.666 -132.236 727.752 -131.412 726.545C-130.901 725.771 -128.997 723.794 -127.235 722.112C-120.082 715.397 -110.628 713.804 -101.88 717.81C-97.5799 719.78 -96.5465 720.603 -93.6577 724.341C-90.9794 727.697 -90.1636 729.427 -89.3172 732.963C-85.9643 748.599 -99.9522 763.608 -115.779 761.223C-121.97 760.303 -125.779 758.124 -129.751 753.145C-134.719 747.038 -136.163 740.042 -133.988 732.629L-132.888 728.821L-147.962 727.026C-156.322 726.098 -164.677 725.532 -166.579 725.86C-172.011 726.716 -172.574 728.722 -170.507 738.975C-169.521 743.864 -169.077 748.546 -169.449 750.674C-170.564 757.057 -167.875 763.61 -163.842 764.42Z" fill="#99C6CE"/>
<path d="M-56.6983 866.612C-54.6248 867.796 -49.691 867.612 -46.3648 866.24C-41.6212 864.285 -33.8238 857.788 -32.2067 854.392C-30.7302 851.291 -30.8741 847.102 -32.5258 845.033C-33.8649 843.354 -39.831 841.066 -41.8928 841.429C-43.3291 841.751 -43.2398 841.863 -41.3834 843.128C-38.57 845.003 -37.8189 848.066 -39.359 850.852C-42.9375 857.095 -49.0035 860.929 -53.8536 860.039C-57.287 859.391 -58.4732 858.14 -58.8409 854.497C-59.2722 850.538 -57.5458 845.864 -53.2268 839.487C-45.1001 827.508 -32.9675 819.016 -16.9697 814.306C-12.3478 812.907 -11.1542 812.87 -10.3507 813.877C-8.74372 815.89 -5.61615 815.683 -2.93384 813.268C-1.02436 811.653 0.10558 811.3 2.90114 811.267C4.80949 811.3 6.76861 811.751 7.25964 812.366C8.42026 813.821 11.9049 814.061 13.5142 812.777C14.2614 812.181 16.1061 811.899 17.6378 812.05C19.9289 812.327 20.6499 812.759 21.5231 814.443C22.8489 817.047 25.7142 817.69 28.0132 815.856C29.2201 814.893 30.3562 814.902 33.4893 815.88C38.9962 817.712 47.75 822.079 51.7179 825.047L55.1691 827.604L52.1905 824.579C47.5664 819.845 43.0305 816.873 36.2671 813.938C32.8215 812.568 29.9695 810.998 29.9188 810.581C29.7536 809.431 27.0161 808.594 25.3242 809.303C24.3985 809.676 21.9986 809.852 19.9563 809.65C17.0843 809.47 16.057 809.008 15.5281 807.874C14.4383 805.447 9.86219 805.254 7.92035 807.536C5.92103 809.864 -0.557875 810.823 -2.07561 808.921C-2.61128 808.249 -4.07881 807.589 -5.20205 807.479C-7.04009 807.297 -7.76158 807.69 -9.54998 809.575C-11.498 811.496 -12.8706 812.134 -18.3669 813.498C-41.3224 819.274 -56.5524 830.604 -61.6113 845.72C-63.2039 850.562 -63.6224 855.932 -62.5907 859.229C-61.8519 861.569 -58.7272 865.485 -56.6983 866.612Z" fill="#99C6CE"/>
<path d="M60.9363 933.972C62.6398 934.81 64.1777 935.322 64.3501 935.184C64.5225 935.047 63.0494 933.201 61.0339 931.147C55.9635 925.854 54.0139 920.818 54.7326 915.117C55.9904 905.14 60.4483 900.942 74.94 895.877C79.9771 894.055 85.8506 891.748 87.9447 890.718C93.6464 887.724 101.612 887.685 116.979 890.437C122.18 891.414 122.282 891.424 108.008 886.151C90.6712 879.752 79.8662 878.945 68.6939 883.099C61.965 885.631 55.3232 891.572 52.3959 897.571C49.8648 902.887 48.8179 912.421 50.1475 918.684C51.4007 924.734 56.3998 931.824 60.9363 933.972Z" fill="#99C6CE"/>
<path d="M21.0819 871.654C22.7536 872.334 22.6772 872.12 20.2416 868.479C16.5945 862.966 16.3669 859.851 19.3645 853.705C22.4453 847.309 27.4779 842.652 33.5745 840.625C43.0739 837.439 50.4261 838.164 65.0254 843.726C69.6133 845.467 73.2759 846.756 73.142 846.588C71.8921 845.022 55.0926 836.821 50.7469 835.619C41.194 833.08 31.2684 834.317 24.5317 838.961C19.2061 842.661 16.6315 846.272 14.8593 852.539C12.5496 860.609 15.4221 869.395 21.0819 871.654Z" fill="#99C6CE"/>
<path d="M122.447 996.312C125.726 998.182 131.897 998.842 135.811 997.733L138.824 996.793L134.644 995.917C128.843 994.779 124.185 992.361 122.668 989.635C119.812 984.406 120.746 972.49 124.664 964.786C128.115 957.911 131.711 953.576 139.649 946.784C149.753 937.988 158.417 933.638 179.516 926.597C184.904 924.861 189.347 923.237 189.373 923.034C189.418 922.265 159.255 929.856 154.729 931.728C127.149 943.026 109.569 965.204 113.839 983.405C115.137 988.686 118.695 994.087 122.447 996.312Z" fill="#99C6CE"/>
<path d="M34.0859 876.749C34.775 877.023 34.5267 876.123 33.3856 874.104C30.8674 869.887 30.6911 866.365 32.7686 861.778C34.2707 858.473 35.3566 857.24 38.8754 854.341C46.9792 847.873 55.2576 847.401 69.3403 852.552C73.7942 854.125 77.3548 855.404 77.2209 855.236C76.4174 854.229 64.3267 848.038 61.2064 846.957C56.1398 845.324 49.7703 845.005 44.3572 846.12C38.727 847.317 32.7882 851.782 30.6404 856.517C28.4927 861.253 27.8643 865.417 28.7236 868.851C29.5065 872.072 32.2417 876.207 34.0859 876.749Z" fill="#99C6CE"/>
<path d="M88.6831 940.212C89.9844 941.371 92.3703 942.946 94.0293 943.728C97.1429 945.272 106.128 946.983 108.669 946.512C109.99 946.281 109.812 946.058 107.023 944.803C104.426 943.671 103.125 942.512 99.4201 937.87C91.8761 928.416 90.7121 922.478 95.0696 915.796C97.5678 911.971 104.363 906.457 108.416 905.053C115.669 902.47 130.457 902.846 144.987 906.083C153.041 907.805 154.254 908.027 151.337 906.967C150.195 906.596 142.532 903.831 134.326 900.857C117.314 894.748 111.749 893.787 103.074 895.766C89.9306 898.747 80.5422 907.613 79.1371 918.348C78.6042 922.985 79.3864 927.03 81.8979 931.71C84.1544 935.952 85.3151 937.406 88.6831 940.212Z" fill="#99C6CE"/>
<path d="M48.2585 881.187C49.9174 881.969 49.9302 881.868 48.177 878.963C45.5824 874.533 45.227 871.612 46.7804 867.9C49.0884 862.305 50.5637 860.853 54.4066 859.892C60.0497 858.593 72.6157 860.193 79.7876 863.167C89.5246 867.116 89.7099 866.877 80.6693 861.914C68.4961 855.148 61.7767 853.094 55.1382 854.089C48.1231 855.201 44.1434 860.116 43.327 868.642C42.7611 874.77 44.5261 879.222 48.2585 881.187Z" fill="#99C6CE"/>
<path d="M145.62 988.806C148.753 990.609 154.139 991.347 157.018 990.239L159.176 989.524L156.209 988.871C152.526 988.147 147.786 985.979 146.523 984.514C145.139 982.78 144.409 977.504 144.91 972.709C145.828 964.193 149.803 957.267 158.4 948.942C166.568 941.141 174.824 936.75 192.795 930.741C197.066 929.255 200.641 927.958 200.666 927.755C200.635 927.597 195.062 928.748 188.187 930.389C173.537 933.84 166.756 936.779 157.535 943.497C149.464 949.297 144.616 954.54 141.459 960.722C136.007 971.573 137.926 984.234 145.62 988.806Z" fill="#99C6CE"/>
<path d="M0.277607 793.126C13.4759 794.221 15.4925 794.626 24.4639 798.087C27.8649 799.402 30.4557 800.172 30.2325 799.893C28.804 798.103 5.07313 780.509 2.57833 779.387C-1.4861 777.594 -6.96841 777.208 -9.97546 778.51C-14.7893 780.612 -16.4271 786.222 -13.2577 790.193C-11.8292 791.983 -10.5721 792.262 0.277607 793.126Z" fill="#99C6CE"/>
<path d="M62.0588 879.147C60.8876 874.497 64.2993 869.577 69.8212 868.008C72.8919 867.023 79.5672 868.196 82.5401 870.035C83.7331 870.823 84.7158 871.229 84.7543 870.924C84.8374 870.674 83.4341 869.505 81.7115 868.408C74.9682 864.084 66.3706 864.627 62.6972 869.573C60.4039 872.594 59.9541 876.981 61.5159 879.764L62.7909 881.951L62.0588 879.147Z" fill="#99C6CE"/>
<path d="M120.563 941.964C122.393 943.433 124.422 944.561 125.048 944.519C126.631 944.263 126.516 943.53 124.851 943.212C122.732 942.796 121.14 938.207 121.838 934.72C122.734 930.892 125.065 928.391 131.425 924.689C138.129 920.712 142.163 919.873 158.612 918.558C170.988 917.562 171.205 917.48 166.808 916.686C158.685 915.112 138.466 913.943 132.025 914.596C122.923 915.451 117.305 917.37 113.735 920.677C110.567 923.663 109.793 926.112 110.818 929.872C111.582 932.833 116.059 938.325 120.563 941.964Z" fill="#99C6CE"/>
<path d="M167.736 979.031C170.728 981.129 175.112 982.025 178.725 981.248C183.034 980.281 183.117 980.032 179.262 979.446C170.149 977.929 166.693 973.362 167.567 963.966C168.05 958.087 169.245 956.401 178.287 949.46C189.412 940.765 199.046 936.098 218.166 929.996C221.932 928.821 224.914 927.724 224.939 927.52C225.074 926.863 196.622 934.004 190.557 936.189C166.457 944.892 156.581 957.626 162.654 972.191C164.387 976.484 164.744 976.932 167.736 979.031Z" fill="#99C6CE"/>
<path d="M-78.7878 660.926C-71.872 665.112 -67.4884 666.833 -46.539 673.279C-34.7402 676.865 -22.7439 680.933 -19.8217 682.355C-7.27127 688.179 0.893838 694.756 10.1788 706.391C24.6866 724.57 32.557 742.095 39.3916 771.525C43.5089 789.298 43.9927 791.201 44.2801 790.971C44.6249 790.696 41.6884 763.557 39.8655 750.545C36.2259 724.883 29.4649 699.79 21.4673 681.634C14.7759 666.648 9.99449 658.652 0.798799 647.129C-14.1554 628.391 -28.0684 617.794 -45.6033 611.736C-58.9333 607.175 -65.7916 602.943 -71.8179 595.392L-75.0319 591.365L-76.8471 595.102C-79.4167 600.724 -80.1483 606.526 -78.8309 612.067C-77.749 616.606 -77.4175 617.257 -71.6591 624.473L-65.6328 632.024L-71.0147 634.122C-78.133 636.873 -84.7169 641.944 -86.2832 645.757C-88.393 651.012 -85.4675 656.918 -78.7878 660.926ZM-42.0108 659.502C-41.8121 658.336 -40.8406 656.371 -39.7676 655.24C-38.011 653.197 -37.6344 653.08 -33.0521 653.634C-24.7491 654.608 -11.9376 661.231 -4.69819 668.18C0.321507 673.056 0.507328 671.992 -4.34552 665.793C-14.6572 652.872 -27.5758 644.228 -39.1079 642.627C-43.8816 641.951 -47.878 643.309 -49.5777 646.13C-50.8109 648.121 -50.9576 648.055 -51.5491 644.957C-52.0133 642.489 -51.2527 640.966 -48.4237 638.617C-44.8921 635.615 -33.4504 638.753 -22.9813 645.506C-12.9397 651.959 -0.183979 665.585 3.31459 673.505C4.25145 675.504 6.62291 679.655 8.72709 682.645C12.5655 688.28 14.2478 692.156 14.577 696.106C14.8175 699.118 14.1858 698.798 12.9756 695.278C11.517 690.857 6.07884 681.92 5.15313 682.293C4.55942 682.492 4.29158 682.156 4.06895 681.052C3.89095 680.004 2.37322 678.102 -0.662817 675.123C-16.315 659.871 -35.0882 653.794 -40.1426 662.315C-41.1649 663.863 -41.3245 663.899 -41.8088 662.82C-42.0828 662.123 -42.152 660.622 -42.0108 659.502Z" fill="#99C6CE"/>
<path d="M216.373 1022.53C221.578 1026.34 226.255 1028.19 232.663 1029.03C240.136 1030.03 248.977 1028.37 251.621 1025.44C252.394 1024.64 250.92 1024.44 245.348 1024.77C237.184 1025.15 232.979 1024.48 228.028 1021.93C225.208 1020.51 224.098 1019.48 221.171 1015.22C213.456 1004.26 213.352 997.288 220.804 982.46C223.31 977.347 226.307 971.201 227.387 968.782C231.223 960.503 241.084 950.344 264.643 930.353L278.699 918.494L265.488 926.107C258.19 930.283 248.077 935.882 242.937 938.519C234.911 942.727 232.376 944.383 224.202 950.998C216.386 957.236 214.093 959.432 211.103 963.466C203.201 974.076 199.145 986.56 200.332 996.417C201.576 1006.23 207.582 1015.99 216.373 1022.53Z" fill="#99C6CE"/>
<path d="M99.5619 861.304C131.282 891.384 172.073 908.547 223.653 913.53C234.375 914.588 240.158 914.643 248.328 913.799C267.228 911.901 295.98 904.429 324.912 893.883C360.561 880.907 378.653 875.992 400.655 873.266C406.278 872.532 411.13 871.773 411.475 871.498C413.084 870.214 413.207 867.186 411.689 865.284C410.216 863.438 409.706 863.388 402.104 864.236C392.465 865.243 373.519 869.559 361.498 873.476C356.704 875.013 342.474 880.052 329.999 884.696C303.211 894.629 292.869 897.938 275.781 901.87C251.281 907.597 236.217 908.998 218.986 907.092C175.607 902.248 135.658 884.961 102.584 856.603C92.933 848.282 82.0857 834.69 77.1397 824.72C66.9737 804.083 60.2071 777.803 58.1193 750.902C54.7655 708.623 61.8484 683.194 84.7554 654.841C90.134 648.26 110.707 626.531 122.369 615.21C130.148 607.628 134.863 601.394 138.551 593.873C145.965 578.525 143.515 558.598 133.104 550.15C128.276 546.221 123.905 544.399 117.063 543.724C106.035 542.637 95.5524 546.241 86.3114 554.348C81.8345 558.287 80.608 559.816 78.5501 563.838C73.3925 573.997 73.639 586.802 79.263 594.675C81.6668 598.158 82.5088 598.86 85.9098 600.174C95.4426 604.103 103.479 602.267 110.327 594.697C118.688 585.369 118.393 577.456 109.644 575.098C105.637 574.085 103.205 574.103 105.713 575.123C109.643 576.747 110.572 581.683 108.085 587.055C106.877 589.667 103.608 591.819 100.812 591.852C98.0167 591.886 93.1164 589.754 91.4519 587.786C90.0681 586.052 90.9549 577.378 92.8141 574.521C95.1588 571.093 101.397 567.122 106.459 565.921C111.566 564.775 118.733 565.739 121.348 567.956C124.984 571.097 125.286 577.723 122.266 588.557C118.19 603.254 105.442 625.239 92.0731 640.669C77.2476 657.811 71.8428 665.421 65.7454 677.703C55.0591 699.324 51.5452 723.096 54.0046 757.299C55.4647 778.108 61.3452 802.806 68.5081 818.973C73.9568 831.105 88.1192 850.384 99.5619 861.304Z" fill="#99C6CE"/>
<path d="M195.106 967.351C195.865 967.478 197.352 967.573 198.239 967.506C200.001 967.473 199.956 967.417 197.653 966.417C193.531 964.671 192.55 962.616 193.344 957.953C194.267 952.272 196.229 949.425 202.493 944.426C207.308 940.675 208.304 940.155 215.333 938.116C223.491 935.726 222.285 935.04 213.508 937.009C200.045 940.062 189.578 949.697 189.923 958.853C190.048 962.781 192.579 966.896 195.106 967.351Z" fill="#99C6CE"/>
<path d="M107.011 841.167C113.313 846.942 122.857 853.243 130.252 856.497C137.411 859.573 137.252 858.785 128.763 850.269C121.664 843.024 119.478 839.459 120.01 835.646C120.844 829.029 130.719 827.375 131.206 833.761C131.485 837.293 127.711 838.931 125.032 836.399C123.687 835.184 123.731 835.24 124.17 837.912C124.723 841.316 126.758 842.805 129.834 842.181C136.684 840.743 138.578 833.921 134.371 825.467C132.274 821.189 129.014 818.755 124.356 817.986C118.178 816.965 111.5 819.914 109.308 824.593C108.381 826.615 107.738 832.53 108.1 835.812C108.24 837.165 107.991 837.089 106.25 834.908C99.0818 826.162 93.5002 812.213 94.1755 804.807C94.69 799.086 99.736 793.502 104.395 793.446C107.146 793.357 111.165 795.917 112.332 798.558C113.135 800.389 111.97 804.706 110.246 806.082C107.315 808.421 100.366 804.902 101.549 801.669C102.01 800.477 102.444 800.314 103.701 800.593C104.594 800.887 105.449 801.486 105.634 802.071C106.067 803.557 107.255 802.334 106.892 800.701C106.536 798.605 104.233 797.604 101.552 798.371C98.596 799.265 97.6178 801.693 98.4575 805.693C100.424 814.287 111.29 818.708 119.208 814.129C122.841 811.962 124.566 809.762 126.049 805.373C129.068 796.188 124.746 788.65 115.677 787.189C113.501 786.82 113.457 786.764 114.906 786.34C118.659 785.267 121.642 782.521 123.055 779.104C125.203 773.544 125.405 767.432 123.454 764.044C118.801 755.855 109.702 752.588 96.9033 754.469C92.5883 755.074 91.4327 755.63 87.2182 758.719C80.4429 763.668 77.8103 768.15 76.8281 776.35C75.3198 788.724 80.4532 804.587 91.8591 822.77C96.5897 830.348 100.933 835.672 107.011 841.167Z" fill="#99C6CE"/>
<path d="M264.132 1024.61C269.809 1028.78 274.633 1030.7 281.213 1031.4C287.837 1032.15 293.276 1030.83 297.472 1027.49L300.633 1024.96L295.258 1025.77C288.403 1026.85 280.38 1026.11 275.889 1024.02C272.954 1022.7 271.608 1021.48 268.304 1017.34C263.394 1011.19 261.718 1006.85 261.538 999.669C261.37 993.211 263.213 986.796 269.165 972.799C271.728 966.816 274.752 958.817 275.853 955.009C278.277 946.848 279.16 944.771 282.462 940.304C287.458 933.479 291.067 929.866 303.111 919.613L315.488 909.187L295.994 920.715C278.952 930.836 275.74 932.942 270.446 937.625C249.671 956.035 240.309 981.91 246.985 1001.94C249.239 1008.66 257.924 1020.13 264.132 1024.61Z" fill="#99C6CE"/>
<path d="M68.9651 748.107C72.3021 731.069 77.4112 717.195 83.0582 710.124C87.7214 704.297 91.0342 703.851 95.9585 708.253C98.8735 710.962 100.65 717.785 99.173 720.887C97.2044 725.021 95.2949 726.637 92.1037 726.528C89.672 726.546 88.8936 726.16 87.7268 724.344C86.6365 722.742 86.5735 721.602 87.2643 719.403C88.3708 715.956 89.878 714.662 92.399 714.756C94.2945 714.891 94.2499 714.835 91.9275 713.576C87.2381 711 83.451 714.389 82.6608 721.887C81.8455 728.763 84.2426 732.71 90.279 734.851C95.5816 736.663 104.041 732.292 108.527 725.416C111.28 721.204 112.569 713.034 111.232 708.058C108.896 699.119 102.989 693.486 95.197 692.563C83.8306 691.288 72.5077 701.148 68.7768 715.57C67.3946 720.793 67.1406 728.138 67.5774 742.714L68.0042 753.269L68.9651 748.107Z" fill="#99C6CE"/>
<path d="M173.164 881.857C174.861 883.158 183.781 887.027 194.086 890.98C203.995 894.792 212.143 897.811 212.201 897.765C212.316 897.674 208.801 894.802 204.431 891.331C196.681 885.155 196.413 884.82 183.2 868.263C171.045 853.15 169.457 851.396 167.466 850.787C165.68 850.199 164.824 850.424 162.985 851.891C160.054 854.23 159.125 858.725 160.455 864.165C161.703 869.029 168.341 878.29 173.164 881.857Z" fill="#99C6CE"/>
<path d="M-223.204 370.566C-221.486 368.829 -220.757 367.148 -219.886 362.699C-213.872 332.629 -192.253 311.622 -159.653 304.376C-110.659 293.386 -54.0568 317.983 -14.3022 367.562C2.03574 388.035 14.2105 411.189 25.6067 443.388C46.7873 503.761 55.2704 586.537 48.5699 668.795C47.7456 679.432 48.293 681.651 51.0015 678.208C52.439 676.236 57.2029 635.17 58.0579 616.908C62.257 524.56 45.9764 448.282 9.21661 387.248C2.7138 376.507 -17.1568 351.254 -25.7611 342.83C-32.2031 336.526 -50.5438 323.328 -63.1059 315.957C-88.9957 300.727 -115.618 292.124 -139.092 291.355C-165.406 290.564 -188.491 298.182 -209.226 314.638C-219.571 322.894 -226.803 331.87 -235.749 347.891C-238.465 352.622 -238.612 353.38 -237.585 354.667C-236.916 355.506 -235.794 357.266 -235.073 358.522L-233.779 360.968L-227.752 348.009C-218.771 328.848 -217.845 327.651 -205.961 318.259C-197.295 311.434 -195.379 310.18 -189.525 307.614C-183.396 304.92 -169.479 300.315 -169.524 301.083C-169.594 301.231 -171.803 302.353 -174.478 303.481C-202.423 315.618 -220.137 337.629 -224.368 365.452L-225.497 372.762L-223.204 370.566Z" fill="#99C6CE"/>
<path d="M295.319 1011.35C306.559 1019.77 323.663 1021.87 339.725 1016.66C357.032 1010.99 367.922 998.822 369.35 983.399C370.256 974.161 368.722 967.877 363.921 961.271C358.52 953.678 348.568 946.513 342.422 945.649C338.204 945.079 332.548 947.304 326.973 951.753C318.754 958.312 315.597 964.494 317.207 970.991C318.117 974.843 319.756 977.015 323.833 979.529L326.997 981.491L325.512 978.922C323.605 975.59 323.365 972.578 324.772 968.8C328.903 957.354 336.582 955.071 343.144 963.294C346.658 967.814 347.115 971.57 344.8 978.453C342.817 984.339 342.689 984.532 338.436 987.927C334.828 990.714 333.328 991.546 329.989 992.196C324.678 993.321 320.211 992.674 315.145 990.216C309.549 987.449 305.851 982.343 305.854 977.396C305.723 963.675 319.195 938.824 338.319 917.519C344.993 910.087 356.713 898.72 362.288 894.27C364.932 892.161 366.912 890.398 366.707 890.377C366.05 890.261 348.868 900.677 337.559 907.962C324.623 916.272 306.601 931.295 300.826 938.559C290.573 951.41 285.191 963.763 283.419 978.636C281.686 993.204 285.597 1004 295.319 1011.35Z" fill="#99C6CE"/>
<path d="M207.834 881.565C214.819 887.253 224.179 891.32 234.23 893.187C237.108 893.728 245.565 894.304 252.981 894.52C260.442 894.792 267.552 894.978 268.835 895.053C270.073 895.072 267.016 894.307 261.917 893.34C244.853 890.111 236.698 886.731 230.295 880.121C228.324 878.123 222.928 873.365 218.348 869.512C205.66 859.037 202.498 853.778 203.092 844.148C203.569 836.259 208.807 829.973 218.007 826.293C220.452 825.349 222.636 824.431 222.751 824.339C222.923 824.201 221.462 823.903 219.521 823.711C214.677 823.182 209.947 825.035 204.697 829.774C198.988 834.879 195.792 841.367 194.65 850.427C193.039 862.791 197.455 873.276 207.834 881.565Z" fill="#99C6CE"/>
<path d="M38.2112 668.546C38.8434 668.042 41.3624 643.141 41.8998 631.908C42.4177 621.24 42.0903 605.387 41.1904 596.125C40.0304 584.416 37.51 574.067 32.5093 560.02C20.2655 525.934 4.59266 503.466 -10.9129 497.711C-22.8133 493.291 -35.4279 497.406 -43.5987 508.505C-55.1873 524.162 -57.8413 541.113 -50.4133 552.307C-47.7227 556.386 -42.5551 559.678 -36.7352 561.077C-31.4706 562.369 -28.2085 561.505 -24.2233 557.775L-20.9534 554.8L-22.3021 557.707C-25.5748 564.805 -24.8344 574.103 -20.5937 579.417C-16.0405 585.122 -6.08582 588.165 -0.129195 585.609C9.05155 581.67 14.6695 570.32 12.6726 559.919C10.8028 550.149 2.89939 543.547 -1.02281 548.416C-4.29996 552.68 -4.4819 557.403 -1.29128 558.336C0.406136 558.813 0.46361 558.767 -0.294129 556.167C-0.949753 553.577 -0.0480086 550.935 1.68178 550.745C4.47121 550.35 6.2785 558.155 4.29702 562.391C3.49795 564.219 2.79543 564.872 0.89935 565.561C-6.00197 568.23 -10.9698 562.123 -9.38052 552.797C-8.56022 547.931 -6.38178 545.002 -2.28942 543.293C9.15122 538.649 20.7982 549.589 30.3615 574.186C32.0818 578.582 33.7825 583.542 34.1898 585.231L34.9983 588.248L33.4293 586.754C30.8653 584.13 25.3724 580.548 22.6031 579.554C18.7362 578.245 15.5762 579.118 10.8634 582.88C5.79281 587.018 3.5753 591.076 2.47265 598.182C1.36999 605.288 2.59866 609.893 7.25341 616.433C10.1165 620.374 11.392 621.737 13.4912 622.717C17.8809 624.799 23.3203 622.655 26.1064 617.777C27.6465 614.991 26.953 611.882 24.0514 608.246L21.628 605.328L22.2647 607.658C23.3595 612.095 20.9249 616.235 17.4084 615.837C15.264 615.625 12.7519 611.77 12.9389 609.057C13.2481 604.965 18.4084 600.114 22.0845 600.477C24.5799 600.775 27.4491 605.077 29.2893 611.391C31.3588 618.346 32.7632 627.297 34.773 647.027C37.2654 670.308 37.1192 669.418 38.2112 668.546ZM-23.8414 531.376C-25.2213 523.871 -20.3588 516.053 -13.4519 514.57C-9.20054 513.649 -4.38223 514.382 -0.0946065 516.454C6.51539 519.785 15.3344 531.426 21.4204 545.064C24.4603 551.702 24.4145 553.295 21.3791 549.492C17.9418 545.185 9.85987 538.358 5.82111 536.362C1.00395 533.981 -3.25971 534.179 -8.11876 537.049C-12.5883 539.701 -14.3566 540.196 -17.5729 539.467C-20.7446 538.793 -23.1422 535.671 -23.8414 531.376Z" fill="#99C6CE"/>
<path d="M73.3374 691.696C74.3017 691.018 78.913 686.422 83.6521 681.633C88.2891 676.834 95.7166 669.991 100.097 666.403C107.065 660.751 108.52 659.864 111.291 659.21C114.221 658.52 114.661 658.718 116.708 660.929C120.433 665.007 119.536 669.66 114.71 671.039C112.827 671.626 112.08 671.398 111.009 670.056C109.223 667.818 109.646 665.283 112.041 663.922L114.001 662.724L111.831 662.716C104.785 662.846 102.304 668.579 106.858 674.284C108.465 676.298 109.345 676.694 113.079 677.011C117.572 677.454 123.208 675.794 126.829 672.904C133.841 667.308 135.042 656.553 129.596 649.729C127.364 646.932 122.751 645.395 116.911 645.386C111.275 645.397 111.345 645.249 119.914 640.426C140.486 628.952 156.232 628.289 161.229 638.676C163.479 643.382 160.986 649.217 155.897 651.446C152.788 652.737 150.242 652.022 147.876 649.058C145.733 646.373 145.977 644.439 148.992 641.025C150.378 639.462 151.144 639.125 152.721 639.332C154.342 639.595 154.667 639.884 154.672 641.07C154.627 641.839 153.905 643.056 152.986 643.79C151.836 644.707 151.612 645.252 152.289 645.628C154.936 647.177 157.639 643.373 156.844 639.429C156.277 636.951 156.054 636.671 154.108 636.119C149.335 634.617 141.577 638.336 137.827 643.893C136.096 646.556 135.402 652.878 136.427 656.638C139.438 667.603 156.655 672.083 164.218 663.759C165.176 662.72 166.588 660.128 167.426 657.994L168.845 654.114L169.278 656.425C170.302 661.834 176.445 665.995 184.953 666.989C190.307 667.568 194.591 665.981 199.119 661.635C205.167 655.892 208.091 645.41 206.695 634.347C206.06 629.543 205.983 629.33 201.117 623.233C196.386 617.303 196.06 617.014 191.441 615.115C178.271 609.694 157.627 613.533 134.431 625.727C115.175 635.784 104.088 644.998 91.7912 660.946C86.1632 668.276 76.8668 682.562 73.8374 688.55C71.7795 692.573 71.6835 692.924 73.3374 691.696ZM138.726 627.336C143.055 624.98 152.446 621.422 157.393 620.313C170.422 617.423 181.205 621.269 183.753 629.766C185.523 635.403 182.66 640.893 177.183 642.517C172.995 643.753 169.849 642.051 167.217 637.102C162.972 628.954 155.87 626.656 140.684 628.611C138.431 628.853 136.554 628.977 136.465 628.865C136.376 628.753 137.398 628.029 138.726 627.336Z" fill="#99C6CE"/>
<path d="M238.333 876.637C242.281 880.17 248.942 883.918 254.506 885.704C262.546 888.352 269.478 888.314 286.457 885.659C305.6 882.651 310.726 881.765 310.056 881.751C309.75 881.72 305.352 881.751 300.227 881.812C288.636 881.906 272.426 880.101 265.719 877.946C258.164 875.552 254.847 873.163 249.299 866.329C245.058 861.015 244.561 860.038 243.676 855.983C242.531 850.304 243.216 847.744 248.033 841.519C252.664 835.534 258.705 831.079 263.927 829.842C265.842 829.413 267.361 828.841 267.387 828.637C267.457 828.49 263.896 828.035 259.594 827.714C249.504 826.977 244.953 828.229 237.941 833.825C229.045 840.832 225.516 849.142 227.463 858.301C229.079 865.984 232.152 871.131 238.333 876.637Z" fill="#99C6CE"/>
<path d="M161.09 776.31C167.979 782.349 177.422 786.991 187.39 789.107C210.236 794.04 226.807 781.09 230.45 755.476C232.4 741.651 230.04 729.617 223.835 721.842C211.56 706.459 181.801 692.393 154.569 689.038C143.012 687.641 131.395 688.763 125.578 691.848L123.254 693.062L128.513 693.168C150.526 693.638 172.261 699.183 188.862 708.55C196.978 713.061 207.433 720.74 212.249 725.595C218.34 731.813 223.245 745.386 223.046 755.982C222.983 765.098 216.949 777.695 210.966 781.28C198.208 788.989 169.454 781.721 162.072 768.934C158.438 762.495 159.921 749.5 165.225 741.056C168.502 735.968 173.534 732.136 177.3 731.786C181.749 731.348 187.326 733.032 191.862 736.004C200.819 742.041 203.406 748.583 199.699 755.845C195.864 763.3 186.896 765.147 182.343 759.441C180.602 757.26 180.361 755.071 181.01 747.869C181.396 743.991 181.319 743.777 180.323 745.122C178.176 748.208 175.951 753.554 175.541 756.812C175.226 759.719 175.455 760.36 177.203 762.078C180.296 765.011 186.033 766.659 190.17 765.83C198.602 764.137 206.153 753.441 205.688 744.015C205.58 741.995 204.886 740.535 202.654 737.738C193.458 726.216 177.07 722.538 167.76 729.969C155.862 739.463 150.365 760.514 156.932 771.571C157.608 772.772 159.508 774.917 161.09 776.31Z" fill="#99C6CE"/>
<path d="M286.023 914.115C287.134 913.503 287.964 912.657 287.913 912.24C287.907 911.879 286.924 912.297 285.832 913.168C283.303 915.187 283.398 915.66 286.023 914.115Z" fill="#99C6CE"/>
<path d="M281.667 871.994C286.33 875.597 293.394 878.201 299.667 878.871C305.443 879.389 306.764 879.158 319.749 875.388C327.371 873.151 333.819 871.21 334.049 871.027C334.279 870.843 331.419 870.561 327.718 870.402C324.016 870.244 315.413 869.601 308.514 868.973C297.517 868.043 295.354 867.572 290.128 865.15C275.83 858.432 271.813 852.573 275.705 844.248C276.786 841.829 277.916 840.652 281.154 838.343C285.47 835.265 285.618 834.506 281.493 836.058C274.707 838.635 269.678 847.776 270.872 855.521C271.463 859.444 271.992 860.579 275.448 865.145C277.578 867.932 280.34 871.039 281.667 871.994Z" fill="#99C6CE"/>
<path d="M-32.0406 462.749C-32.1483 461.553 -32.006 458.784 -31.8385 456.636L-31.4976 452.702L-25.8651 448.207C-21.4971 444.721 -19.5943 443.569 -17.3729 443.169C-10.0001 441.68 0.694977 444.59 6.56338 449.704C8.38132 451.274 12.6544 455.922 15.9577 460.061L22.1436 467.576L18.9307 461.9C13.9138 452.902 7.71512 445.488 2.73894 442.318C-5.78442 436.943 -13.8703 435.888 -21.4039 439.061C-25.7708 440.898 -30.0752 444.7 -32.363 448.906C-34.3567 452.42 -35.0693 458.482 -33.8395 461.438C-32.4122 464.877 -31.8955 465.288 -32.0406 462.749Z" fill="#99C6CE"/>
<path d="M-41.8595 447.97C-42.3711 440.138 -41.2205 437.571 -35.0836 432.765C-30.8306 429.371 -29.4451 428.632 -24.9638 427.528C-18.8292 426.02 -13.2001 426.472 -5.88757 429.151C1.02934 431.688 5.7879 435.765 15.5003 447.699L22.9232 456.883L18.1547 448.786C6.78788 429.473 -2.63383 421.793 -16.8147 420.292C-23.9052 419.541 -29.2804 421.175 -34.9703 425.716C-44.1661 433.055 -47.3769 442.942 -43.1122 450.526L-41.5058 453.364L-41.8595 447.97Z" fill="#99C6CE"/>
<path d="M-20.4377 472.808C-20.9053 465.857 -17.9406 461.202 -11.0515 457.81C-7.25269 455.968 -4.62342 456.434 2.1523 460.091C9.55967 464.068 12.902 467.077 20.2039 475.991L25.8988 482.892L22.7941 477.587C14.628 463.228 7.76578 455.336 0.7663 452.224C-3.29813 450.432 -5.39787 450.276 -9.20899 451.395C-17.3228 453.842 -24.4212 464.634 -22.6072 471.976C-21.2898 477.517 -20.0583 477.999 -20.4377 472.808Z" fill="#99C6CE"/>
<path d="M-6.81597 479.975C-5.54929 475.668 -0.0836901 472.496 4.93883 473.249C5.95996 473.35 8.32084 474.304 10.2158 475.264C13.0805 476.732 14.1457 477.713 17.1745 481.98L20.7261 487.02L19.2413 483.626C15.692 475.289 8.29855 469.561 2.04955 470.336C-2.20797 470.895 -6.95934 474.962 -7.74056 478.698C-8.56643 482.379 -7.71828 483.442 -6.81597 479.975Z" fill="#99C6CE"/>
<path d="M365.107 944.485C371.729 948.539 378.928 948.837 383.424 945.157L385.276 943.588L382.04 944.248C378.107 945.097 373.895 944.888 371.196 943.745C368.497 942.603 362.439 934.894 361.076 930.946C358.624 923.747 360.559 912.498 365.593 905.367C368.749 900.834 377.027 891.756 381.421 888.066C382.928 886.772 380.693 888.098 376.447 891.029C366.587 897.89 361.267 903.601 357.553 911.325C350.925 924.947 353.834 937.55 365.107 944.485Z" fill="#99C6CE"/>
<path d="M308.3 854.677C314.851 860.528 324.543 864.421 334.474 865.194C337.595 865.45 345.413 865.345 351.815 864.997L363.381 864.282L352.314 863.5C332.804 862.04 325.178 859.794 316.63 852.973C308.452 846.498 304.54 837.351 305.472 827.085C306.077 820.651 308.185 817.046 313.37 813.64C315.458 812.249 317.968 810.795 318.906 810.321C320.553 809.556 320.553 809.556 317.771 809.488C308.593 809.304 300.289 819.41 299.195 832.186C298.423 840.768 301.692 848.872 308.3 854.677Z" fill="#99C6CE"/>
<path d="M-44.8032 403.257C-41.9702 404.567 -36.4299 404.083 -30.4799 401.99C-20.4315 398.548 -16.8637 398.54 -5.51797 402.029C-2.23807 403.074 0.512286 403.809 0.627234 403.717C0.85713 403.534 -7.029 399.664 -17.4228 394.774C-23.9117 391.712 -27.4851 390.535 -31.8631 390C-41.0851 388.936 -47.5523 391.442 -48.4875 396.4C-49.1025 399.638 -47.885 401.871 -44.8032 403.257Z" fill="#99C6CE"/>
<path d="M380.472 931.674C387.381 936.323 394.688 936.992 399.988 933.495L402.926 931.517L398.106 932.433C391.819 933.514 388.513 932.673 384.329 928.962C380.438 925.383 378.494 921.532 378.917 918.173C379.071 916.951 380.561 912.924 382.172 909.166C385.426 901.808 390.211 895.426 397.836 888.242C400.244 885.954 402.058 883.866 401.79 883.53C401.523 883.194 397.468 886.247 390.762 891.873C382.032 899.206 379.784 901.458 377.369 905.034C369.868 916.147 370.928 925.373 380.472 931.674Z" fill="#99C6CE"/>
<path d="M182.715 681.868C183.551 682.208 188.72 683.027 194.164 683.718C210.246 685.716 218.312 688.161 230.792 694.957C241.376 700.793 249.842 707.039 252.105 710.818C253.826 713.564 254.388 714.032 256.328 714.223C259.391 714.525 264.367 717.696 264.175 719.223C263.79 722.277 269.411 724.841 271.94 722.823C273.319 721.722 280.44 724.28 281.097 726.045C282.027 728.507 283.443 729.574 286.021 729.623C287.406 729.708 289.117 729.258 289.864 728.662C290.669 728.02 292.533 727.997 295.296 728.63C301.671 730.135 317.652 731.299 323.875 730.727C338.996 729.281 351.262 722.605 357.524 712.298C360.086 707.964 360.92 702.171 359.365 698.926C357.81 695.68 352.871 693.853 346.188 693.967C338.369 694.073 335.803 694.747 332.355 697.499C325.803 702.728 326.079 709.558 332.925 713.067C334.82 714.027 334.98 713.991 334.578 712.663C333.043 708.028 332.865 706.98 333.377 705.382C334.202 702.525 337.516 700.43 342.265 699.662C347.653 698.75 349.848 699.379 352.303 702.455C353.866 704.413 354.146 705.471 353.908 707.767C353.318 712.45 350.801 715.191 342.986 719.779C330.643 727.066 318.598 729.537 302.438 728.149C292.112 727.234 291.965 727.168 290.76 724.833C289.664 722.87 289.045 722.448 287.016 722.145C285.746 721.968 284.105 722.27 283.416 722.821C281.461 724.38 275.4 721.618 273.392 718.277C272.027 715.978 271.587 715.78 269.041 715.889C265.243 716.082 261.472 713.597 261.634 711.088C261.904 708.125 259.805 706.321 256.429 706.452C253.678 706.541 252.944 706.211 248.964 702.52C227.825 683.224 204.663 675.065 183.814 679.708C180.303 680.496 180.105 680.837 182.715 681.868Z" fill="#99C6CE"/>
<path d="M330.469 851.451C338.584 856.787 346.58 858.554 360.315 857.847C366.194 857.551 371.651 857.316 372.379 857.285C373.106 857.253 369.022 856.851 363.393 856.399C349.626 855.299 342.868 853.55 337.299 849.754C332.113 846.203 327.534 840.701 325.928 836.214C324.444 831.996 324.546 823.4 326.182 820.263C327.575 817.411 331.752 813.804 335.41 812.257C337.708 811.247 337.708 811.247 335.883 810.964C331.11 810.287 323.849 815.807 321.349 822.105C319.393 826.963 318.953 834.547 320.406 838.606C321.769 842.554 326.89 849.089 330.469 851.451Z" fill="#99C6CE"/>
<path d="M156.523 604.251C179.51 598.633 187.208 597.434 197.133 597.846C211.895 598.425 219.119 600.993 221.074 606.391C222.266 609.652 221.242 613.673 218.655 616.562C216.668 618.788 216.598 618.936 218.379 618.338C220.856 617.552 224.963 613.267 227.193 609.107C230.823 602.456 226.916 595.32 217.338 591.335C211.793 588.985 199.24 587.283 191.53 587.759C180.27 588.504 173.797 590.649 157.733 599.166C149.605 603.363 142.997 606.989 142.971 607.192C142.945 607.396 149.054 606.092 156.523 604.251Z" fill="#99C6CE"/>
<path d="M71.9075 514.844C71.1576 510.132 71.1482 505.287 72.0728 497.133C72.8625 490.46 73.0416 489.859 75.1039 488.671C77.7729 487.182 78.496 484.316 76.7105 482.078C75.1927 480.177 76.6765 475.788 79.3454 474.299C81.3374 473.259 82.8206 469.694 81.7939 468.408C81.4368 467.96 81.8721 466.148 82.8882 464.238C84.3708 461.499 85.0287 460.791 86.9694 460.157C88.2143 459.713 89.8169 458.892 90.4491 458.388C91.656 457.424 92.2007 454.335 91.3525 453.272C90.5044 452.209 94.0555 448.643 103.079 441.441C110.308 435.764 112.67 434.245 117.369 432.235C128.025 427.668 141.908 426.203 148.129 428.929C152.149 430.665 153.36 432.537 152.968 436.054C152.474 439.561 149.594 442.318 144.123 444.303C137.292 446.825 132.219 444.83 131.763 439.426L131.624 437.248L130.148 440.349C125.904 449.412 132.882 455.563 143.811 452.518C148.739 451.149 157.009 445.007 158.639 441.509C161.381 435.75 157.722 428.69 150.238 425.323C142.122 421.637 130.786 422.168 120.392 426.709C113.873 429.622 103.018 437.828 96.1642 445.037C90.8436 450.748 90.2114 451.252 87.7027 451.881C85.411 452.428 84.7341 452.877 83.8011 454.537C83.194 455.662 82.9887 457.291 83.3966 458.156C84.4417 460.527 80.8448 465.686 77.3846 466.891C73.867 468.142 72.5122 470.688 73.9144 473.506C74.9534 475.515 73.9942 478.203 70.5379 483.067C69.8415 484.081 69.3873 485.634 69.5335 486.524C69.6797 487.415 69.5429 491.369 69.2466 495.36C68.9503 499.35 69.1824 505.3 69.7928 508.658C71.0521 515.069 72.8483 520.503 71.9075 514.844Z" fill="#99C6CE"/>
<path d="M345.298 847.4C352.214 851.586 361.978 852.858 379.831 851.887L388.837 851.384L376.858 850.048C370.278 849.348 363.443 848.21 361.714 847.576C356.953 845.972 346.65 840.37 345.31 838.692C342.32 834.944 342.94 824.286 346.325 820.394C347.353 819.207 349.927 817.245 352.091 816.067L355.929 813.92L353.35 813.872C345.57 813.672 337.348 825.178 337.845 835.585C338.053 840.089 341.075 844.819 345.298 847.4Z" fill="#99C6CE"/>
<path d="M404.124 915.454C406.459 916.611 410.875 916.841 412.14 915.832C412.6 915.465 411.298 915.13 409.3 914.985C406.064 914.82 405.535 914.511 403.539 911.892C401.007 908.601 400.333 905.752 400.993 901.746C401.756 896.925 403.558 894.114 408.807 889.375C413.195 885.325 413.438 885.039 410.813 886.584C403.515 890.76 398.974 896.033 397.878 901.851C396.796 907.568 399.275 912.914 404.124 915.454Z" fill="#99C6CE"/>
<path d="M151.824 596.831C153.012 596.433 162.677 592.748 173.269 588.69C183.815 584.577 195.741 580.187 199.712 579.032C212.882 575.023 238.725 574.634 246.521 578.392C254.625 582.18 256.974 591.018 251.748 598.026C248.516 602.346 248.432 602.595 250.801 601.437C256.145 598.821 259.156 591.748 257.801 584.863C257.095 581.032 256.598 580.055 253.824 577.05C247.695 570.313 238.092 566.532 223.432 565.138C209.194 563.683 195.61 565.641 185.076 570.478C180.351 572.691 178.078 574.323 164.661 585.213C152.323 595.334 149.941 597.418 151.824 596.831Z" fill="#99C6CE"/>
<path d="M53.6798 467.13C53.5309 460.931 54.9025 452.512 56.6731 448.718C57.7277 446.503 59.4548 441.005 60.4726 436.622C62.7961 426.802 63.7487 424.577 66.9672 422.008C71.795 418.155 77.0346 418.827 82.4946 423.9C84.5803 425.806 85.0781 425.958 84.8554 424.854C84.5061 422.295 79.7286 417.959 76.0977 416.827C69.1295 414.697 59.9052 416.931 55.2426 421.934C49.4623 428.012 46.3463 439.197 47.9549 448.168C49.1819 455.246 53.7925 470.336 53.6798 467.13Z" fill="#99C6CE"/>
<path d="M-106.687 262.29C-97.1321 270.962 -77.9433 285.223 -74.1657 286.42C-72.3344 287.064 -69.6337 285.733 -70.4818 284.67C-70.705 284.39 -73.1038 282.917 -75.809 281.413C-82.9993 277.355 -90.795 271.948 -96.0128 267.414C-104.484 259.982 -122.243 236.432 -127.852 225.16C-130.943 218.929 -131.949 215.428 -132.92 207.963C-135.11 190.483 -128.501 175.778 -115.169 168.435C-112.5 166.946 -110.808 166.236 -111.351 166.853C-118.077 174.693 -119.592 178.099 -118.441 183.315C-117.728 186.683 -117.594 186.851 -114.175 189.249C-110.992 191.47 -109.645 191.86 -100.736 192.533C-91.5773 193.281 -90.6264 193.53 -88.3175 195.716C-86.187 197.678 -85.249 198.028 -83.0405 197.73C-73.4084 196.361 -70.5363 187.111 -73.4968 167.133L-74.2021 162.477L-77.3291 161.859C-82.1217 160.923 -87.0533 157.808 -90.5352 153.445C-98.0346 144.048 -96.1289 129.342 -86.3583 121.545C-79.9212 116.408 -69.9827 115.069 -62.3259 118.298C-59.0399 119.704 -57.9619 120.583 -54.48 124.946C-51.1321 129.141 -50.3353 130.611 -49.6545 133.822C-47.0717 146.136 -54.8285 158.461 -66.8232 161.349C-69.434 161.968 -71.7257 162.515 -71.9874 162.54C-72.2491 162.566 -71.8161 164.052 -71.0578 165.827C-70.2549 167.658 -68.4465 173.815 -66.9377 179.478C-62.5006 196.355 -59.6951 200.342 -53.4137 198.9C-51.0199 198.363 -48.8041 196.778 -36.6068 186.952C-20.6162 174.099 -20.0157 173.437 -21.2695 168.211C-22.4725 163.403 -26.331 159.158 -34.3567 153.934C-36.0217 152.791 -37.3229 151.632 -37.2716 151.225C-37.2203 150.818 -33.9844 150.982 -30.117 151.466C-17.7808 153.25 -12.2767 149.773 -14.1091 141.347C-14.6118 139.184 -15.6374 136.249 -16.3896 134.835C-18.4932 131.02 -18.4859 129.732 -16.5368 126.162C-14.3896 122.251 -14.2735 120.511 -16.193 118.105C-19.7195 113.687 -22.6172 113.71 -35.4618 118.009C-39.9497 119.576 -43.8501 120.583 -44.0159 120.258C-44.8383 118.991 -41.7716 114.346 -35.8378 107.871C-32.5227 104.127 -29.2712 100.067 -28.7087 98.886C-27.5007 96.2738 -27.5815 93.2253 -28.9207 91.5472C-30.6617 89.3657 -36.9207 86.1203 -39.4992 86.0722C-41.9181 85.9882 -46.0846 84.186 -52.2795 80.4316C-60.7839 75.3156 -64.6218 78.2869 -66.552 91.547C-66.9175 94.0361 -68.1089 100.206 -69.1719 105.357L-71.0803 114.755L-72.6366 113.158C-74.5627 111.216 -75.2569 108.932 -76.7628 99.1463C-78.9679 85.0662 -83.1456 80.8923 -93.7542 82.2168C-101.893 83.218 -103.885 84.2583 -112.666 91.9987C-120.413 98.9134 -120.77 99.2904 -121.104 101.937C-121.355 104.335 -121.093 105.133 -118.747 107.838C-117.273 109.684 -112.961 113.202 -108.438 116.276C-104.209 119.218 -99.5008 122.877 -97.9892 124.418L-95.3041 127.311L-97.6846 126.922C-98.9992 126.689 -104.072 124.694 -109.004 122.404C-122.843 116.144 -127.611 115.828 -133.85 120.624C-139.355 124.925 -139.433 127.185 -134.112 139.511C-133.022 141.938 -132.456 145.24 -132.484 148.742C-132.495 154.976 -131.28 161.332 -129.628 163.401C-127.932 165.527 -123.733 166.662 -120.382 165.911C-118.524 165.527 -113.442 162.936 -107.459 159.352C-102.038 156.124 -96.8472 153.08 -95.864 152.662L-94.1593 151.851L-95.5711 153.618C-96.3696 154.622 -99.4096 157.414 -102.411 159.901C-106.907 163.581 -108.58 164.549 -111.682 165.377C-116.336 166.619 -124.956 172.674 -128.968 177.432C-136.576 186.525 -139.706 199.461 -137.142 211.515C-133.7 228.087 -120.873 249.348 -106.687 262.29Z" fill="#99C6CE"/>
<path d="M156.106 589.111C157.932 587.745 168.382 575.376 170.568 571.984C175.545 564.075 177.197 555.89 175.422 548.242C172.43 535.888 155.107 528.563 146.026 535.81C143.325 537.965 144.167 538.667 147.621 537.101C153.807 534.361 158.791 535.419 162.63 540.23C165.219 543.474 165.344 547.403 163.193 557.085C162.271 561.117 161.534 565.734 161.591 567.337C161.765 573.332 160.683 578.225 158.114 583.846C156.637 586.947 155.716 589.33 156.106 589.111Z" fill="#99C6CE"/>
<path d="M43.0324 441.292C43.038 433.048 44.2043 426.257 46.4414 421.633C47.7069 418.975 49.4083 413.68 50.2023 409.842C53.0644 396.571 55.3394 392.466 60.9188 390.852C66.3961 389.228 69.791 390.181 74.6896 394.787L77.6938 397.608L77.0443 395.38C75.7392 390.561 69.2637 386.573 62.224 386.24C55.912 385.875 51.6539 387.259 46.5962 391.295C42.8604 394.276 41.8894 395.417 39.9208 399.552C34.4624 410.867 34.8083 418.373 41.8456 440.866L42.9855 444.534L43.0324 441.292Z" fill="#99C6CE"/>
<path d="M367.685 842.444C371.398 844.975 378.596 846.097 384.622 845.042C387.207 844.627 389.225 844.207 389.135 844.095C389.091 844.039 386.308 843.971 383.002 843.954C372.911 844.042 365.932 839.54 364.494 832.08C363.757 828.091 364.531 825.642 367.404 823.349C369.071 822.019 369.34 821.53 368.395 821.643C363.671 822.208 360.59 829.428 362.315 835.833C363.29 839.176 363.915 839.959 367.685 842.444Z" fill="#99C6CE"/>
<path d="M33.1828 415.276C33.2977 415.184 33.2035 413.062 33.0712 410.42C32.7119 403.84 34.0322 395.828 36.3714 391.214C37.4132 389.101 39.1977 383.557 40.2986 378.924C42.731 368.651 44.3292 364.995 47.5477 362.427C53.0652 358.023 58.7579 358.791 64.6257 364.729C67.7382 367.922 67.8403 367.932 67.1908 365.703C64.6699 356.179 49.1755 352.796 38.2632 359.398C29.8603 364.548 24.956 377.617 26.415 390.645C26.7833 393.464 32.8379 415.551 33.1828 415.276Z" fill="#99C6CE"/>
<path d="M23.1977 391.565C21.7793 384.365 21.8726 378.705 23.4908 373.66C24.0985 371.71 24.7151 365.999 24.8781 361.016C25.1599 350.17 26.5226 345.512 30.1435 342.622C35.2012 338.586 40.1668 338.56 46.0614 342.646C49.4362 344.988 49.4362 344.988 48.6014 342.999C46.4158 337.785 38.567 335.259 30.2239 337.064C25.3916 338.082 24.1785 338.684 20.5577 341.574C15.3722 345.804 12.6368 351.1 11.706 358.893C10.73 367.454 12.6205 375.01 18.8415 387.167C21.6716 392.599 24.081 397.269 24.2149 397.437C24.3488 397.604 23.9102 394.933 23.1977 391.565Z" fill="#99C6CE"/>
<path d="M-21.4153 325.17C-24.6504 305.319 -24.734 296.963 -22.0338 287.025C-17.5485 270.719 -9.53114 260.017 2.51661 254.248C9.23323 250.994 13.3814 251.712 19.2241 257.029L22.1965 259.693L21.4455 256.63C19.3257 248.433 10.0413 245.405 -1.06067 249.412C-6.25731 251.27 -14.3355 257.534 -17.7917 262.398C-25.5284 273.333 -29.3174 288.626 -28.0765 303.384C-27.7222 307.954 -21.1274 333.547 -20.0115 334.945C-19.8775 335.113 -20.4617 330.726 -21.4153 325.17Z" fill="#99C6CE"/>
<path d="M-2.47201 343.838C-4.44108 329.936 -4.49403 323.386 -2.55994 313.785C-0.4272 303.018 0.28872 301.44 4.88664 297.771C12.7477 291.589 18.6391 291.19 24.0862 296.366C26.6312 298.729 26.7205 298.841 26.4409 296.958C25.9834 294.027 23.088 290.753 19.7316 289.494C11.2133 286.129 -1.9711 292.714 -6.20302 302.5C-8.4596 307.689 -9.51874 316.5 -8.71974 324.103C-8.19973 328.998 -2.31194 352.408 -1.24059 353.751C-1.10668 353.919 -1.63339 349.486 -2.47201 343.838Z" fill="#99C6CE"/>
<path d="M-11.993 332.025C-15.1511 311.564 -14.2766 302.168 -7.96224 289.804C-3.42454 280.872 6.05253 272.943 13.3165 271.907C16.2655 271.477 19.9918 273.081 22.0899 275.71C24.1433 278.283 25.1778 277.457 23.9162 274.344C20.1253 264.642 4.32112 266.176 -5.94944 277.119C-7.9934 279.391 -10.4341 283.17 -12.5305 287.499C-15.2469 293.054 -16.0722 295.91 -16.9193 302.629C-17.4969 307.21 -17.6732 313.119 -17.3368 315.781C-16.8162 319.852 -11.6917 339.476 -10.8882 340.483C-10.7543 340.651 -11.2559 336.839 -11.993 332.025Z" fill="#99C6CE"/>
<path d="M181.356 568.41C191.457 562.913 202.099 559.273 213.34 557.444C218.932 556.552 226.324 555.323 229.752 554.785C238.567 553.335 242.244 552.048 242.622 550.282C242.769 549.523 242.323 548.14 241.564 547.189C236.252 540.532 216.837 540.37 202.689 546.808C198.411 548.757 197.722 549.307 186.666 560.328L175.093 571.761L181.356 568.41Z" fill="#99C6CE"/>
<path d="M4.61233 344.227C2.25209 333.018 4.79886 323.477 11.6383 318.019C15.3166 315.084 17.8572 314.613 21.1622 316.279L23.2931 317.416L21.7436 315.357C19.8688 313.008 17.0799 312.578 12.9429 314.231C6.79487 316.666 1.94526 324.381 1.42905 332.576C0.99711 338.872 1.57629 341.248 5.49559 349.932C5.8142 350.684 5.42028 348.069 4.61233 344.227Z" fill="#99C6CE"/>
</svg>
