<svg width="225" height="1170" viewBox="0 0 225 1170" fill="none" xmlns="http://www.w3.org/2000/svg">
<path d="M97.4531 572.612C99.8082 575.973 101.888 572.897 106.723 558.864C110.213 548.916 115.052 540.064 120.295 534.117C122.019 532.14 120.803 532.694 113.277 537.673C104.777 543.3 103.962 543.986 100.937 548.871C95.8061 557.056 94.1898 568.133 97.4531 572.612Z" fill="#99C6CE"/>
<path d="M102.866 525.83C106.561 529.559 111.405 530.705 118.549 529.457C123.058 528.705 124.981 527.998 130.314 524.879C133.884 522.869 136.776 521.151 136.761 521.081C136.746 521.011 134.378 521.376 131.544 521.986C127.845 522.71 125.559 522.765 123.294 522.231C121.57 521.8 117.559 521.423 114.378 521.452C104.99 521.578 101.69 520.026 100.623 515.074C100.172 512.982 100.483 511.674 102.001 509.084C103.366 506.82 103.626 505.961 102.765 506.438C99.0984 508.688 97.9113 512.812 99.1737 518.671C99.9553 522.298 100.595 523.546 102.866 525.83Z" fill="#99C6CE"/>
<path d="M114.001 580.943C117.531 588.722 125.551 591.883 131.371 587.929C134.851 585.5 134.529 584.694 130.742 586.385C127.887 587.585 126.951 587.713 124.742 587.095C121.193 586.108 119.104 583.638 118.187 579.384C117.286 575.199 117.663 571.104 119.965 561.485C121.98 552.949 124.617 547.637 135.172 530.911C139.481 524.071 142.81 518.537 142.598 518.583C141.819 518.75 126.05 531.928 122.948 535.078C115.254 542.721 110.392 560.409 112.286 574.014C112.614 576.571 113.432 579.679 114.001 580.943Z" fill="#99C6CE"/>
<path d="M133.187 568.488C135.916 572.206 139.714 572.629 145.122 569.858C146.448 569.134 147.857 568.1 148.161 567.451C148.634 566.546 148.249 566.483 145.688 567.327C138.855 569.675 135.671 563.501 137.315 551.177C138.318 543.444 139.086 541.162 145.617 526.398C148.508 519.863 150.552 514.898 150.116 515.284C147.755 517.398 136.216 532.657 134.855 535.286C129.262 546.49 128.537 562.046 133.187 568.488Z" fill="#99C6CE"/>
<path d="M109.945 451.685C113.711 460.216 121.199 464.003 130.566 462.058L135.1 461.081L131.721 466.042C125.231 475.834 125.081 484.77 131.256 492.782C134.862 497.478 140.303 501.05 144.828 501.753C151.174 502.648 158.723 499.489 164.729 493.305L166.737 491.266L165.333 495.072C162.55 502.459 162.521 509.545 165.322 514.634C167.776 519.141 172.444 522.223 179.324 523.878C190.28 526.554 198.858 521.64 202.959 510.392L203.798 508.095L205.739 511.253C208.652 516.172 212.403 519.816 217.293 522.557C222.613 525.571 223.923 525.8 230.561 524.953C246.999 522.797 252.385 510.981 244.727 494.02C243.589 491.492 242.613 489.367 242.598 489.297C242.598 489.297 249.023 493.313 256.924 498.326C264.981 503.377 272.645 507.637 274.283 508.014C284.708 510.292 296.96 504.879 308.538 492.896C313.465 487.893 316.994 483.629 316.859 483.002C316.829 482.862 313.637 483.185 309.766 483.8C291.631 486.686 275.994 480.86 264.965 467.18C261.03 462.335 256.736 454.794 253.015 446.473L252.255 444.666L248.464 448.402C246.386 450.456 242.683 453.225 240.227 454.557C236.444 456.612 235.34 456.996 232.569 456.864C228.816 456.65 222.178 455.089 221.315 454.18C220.926 453.753 220.051 454.16 218.799 455.233C213.473 460.103 210.191 474.458 213.183 480.09C214.635 482.697 214.233 483.586 212.34 482.023C208.709 478.938 210.527 465.7 215.658 457.515C217.206 455.065 218.404 453.055 218.247 453.016C217.262 452.572 213.35 455.75 211.058 458.872C207.801 463.369 206.146 468.761 206.743 473.596C207.189 477.732 205.708 477.395 204.791 473.14C203.619 467.7 208.267 458.305 214.432 453.546L217.036 451.526L209.318 453.554C200.27 455.941 197.859 457.483 193.754 463.549C188.66 471.216 185.884 480.353 185.906 489.398C185.919 495.307 187.175 499.416 189.88 502.336C191.924 504.596 191.868 504.681 189.062 504.045C184.405 503.078 181.058 495.114 181.492 486.116C182.103 474.161 189.778 458.859 197.023 455.327C197.97 454.904 198.745 454.372 198.715 454.233C198.67 454.024 197.296 453.152 195.624 452.272C192.264 450.441 189.428 447.257 187.908 443.643L186.841 441.1L186.199 443.282C185.302 446.687 183.582 449.028 178.904 453.466C168.018 463.84 150.995 471.887 145.665 469.168C143.937 468.373 144.063 468.272 150.424 466.829C155.581 465.644 158.254 464.63 162.614 462.158C174.155 455.511 185.428 444.178 184.541 440.063C184.282 438.513 184.282 438.513 185.544 439.555C186.806 440.596 186.832 440.372 186.081 436.885C185.701 434.777 185.323 431.647 185.245 429.912C185.181 426.861 185.08 426.736 181.948 424.93C180.174 423.925 177.519 421.578 176.005 419.715C173.755 416.842 173.201 415.648 172.658 411.751C172.259 409.21 171.823 407.187 171.681 407.218C171.61 407.233 170.597 408.035 169.457 408.938C166.827 411.183 153.493 413.983 145.709 413.982C135.481 413.996 123.839 410.885 119.901 407.063C117.933 405.152 117.728 401.108 119.624 399.24C120.972 397.928 120.987 397.998 121.619 400.927C122.415 404.624 124.541 406.574 130.393 408.962C141.056 413.379 158.549 412.675 168.686 407.425C172.089 405.67 172.566 405.129 173.143 402.305C173.577 400.532 174.341 397.886 174.991 396.432C175.571 394.994 175.852 393.546 175.579 393.313C175.363 392.995 172.864 393.096 170.111 393.397C157.984 394.915 145.124 393.38 135.972 389.441C128.604 386.212 119.237 376.115 112.504 364.136C106.86 354.113 107.532 354.479 105.083 359.97C102.328 366.11 98.6919 380.542 98.6105 385.668C98.5998 390.78 101.131 399.43 104.352 405.086C109.603 414.318 119.064 420.38 129.573 421.327L134.266 421.776L129.676 422.838C117.237 425.664 108.62 432.119 107.527 439.434C107.178 442.283 108.178 447.614 109.945 451.685ZM125.026 435.663C133.485 442.234 159.337 437.32 170.552 427.094L172.772 425.01L170.904 428.04C167.839 433.079 163.747 435.421 154.116 437.861C145.321 440.048 139.574 440.557 132.757 439.544C128.56 438.989 122.916 436.191 122.555 434.517C122.45 434.029 123.592 434.513 125.026 435.663ZM141.069 480.522C150.802 482.001 164.212 477.141 176.416 467.723C183.848 461.961 189.733 453.833 188.966 450.276C188.395 447.626 189.554 447.157 190.748 449.6C194.123 456.317 177.2 472.736 158.909 480.4C155.983 481.614 152.333 482.912 150.845 483.232C147.799 483.889 141.897 483.336 140.848 482.248C139.626 481.052 139.759 480.293 141.069 480.522ZM136.148 399.548C136.904 398.582 137.091 398.761 137.437 400.365C138.023 403.085 143.429 406.153 149.036 407.061C152.48 407.56 155.034 407.374 160.221 406.33C163.92 405.606 167.827 404.472 168.972 403.933L170.977 402.917L169.476 404.554C167.626 406.632 157.171 409.031 151.471 408.726C146.524 408.478 140.554 406.919 138.064 405.339C135.745 403.868 134.86 401.139 136.148 399.548ZM155.881 442.954C163.047 443.527 176.926 431.559 177.199 424.567C177.325 422.058 179.427 423.211 180.043 426.07C181.08 430.883 176.641 439.868 171.042 444.504C168.468 446.665 163.032 448.274 161.997 447.256C161.624 446.899 162.414 446.437 163.973 446.101C171.057 444.574 178.886 435.151 178.82 428.304C178.779 426.051 178.652 426.151 175.851 430.696C172.227 436.586 165.361 442.225 159.799 443.935C157.365 444.678 155.548 444.851 154.72 444.445C152.633 443.362 153.079 442.682 155.881 442.954ZM147.321 400.133C148.379 401.948 149.48 402.587 153.313 403.512C157.387 404.532 158.793 404.521 163.824 403.437C167.437 402.658 169.253 402.486 168.635 403.057C168.072 403.543 165.182 404.239 162.177 404.741C152.918 406.152 144.334 403.476 145.552 399.492C145.959 397.944 146.045 397.999 147.321 400.133ZM217.561 469.44C217.794 466.397 218.711 463.426 219.894 461.347C222.011 457.752 222.097 457.807 220.755 463.278C217.29 477.818 225.14 502.547 233.991 505.092C235.417 505.515 235.76 505.732 234.925 505.985C231.823 506.727 225.127 499.047 221.447 490.571C218.965 484.902 217.11 474.573 217.561 469.44ZM238.503 458.942C239.112 457.643 239.274 458.046 239.742 461.595C241.023 470.296 248.192 481.888 256.902 489.28C263.517 494.861 270.588 497.06 274.422 494.555C275.861 493.661 276.159 493.67 276.415 494.855C276.791 496.599 274.545 498.907 271.782 499.503C267.602 500.404 258.933 495.265 251.827 487.746C246.245 481.797 240.212 471.346 238.904 465.278C238.258 462.279 238.101 459.832 238.503 458.942ZM241.964 458.488C242.365 457.599 242.481 457.793 242.472 459.474C242.567 462.664 245.221 468.442 248.711 472.945C253.978 479.838 259.929 483.373 263.806 482.1C266.423 481.171 267.22 482.459 265.208 484.133C261.438 487.281 252.089 481.048 246.023 471.481C242.868 466.468 241.023 460.662 241.964 458.488ZM244.649 460.975C247.324 468.573 255.352 475.893 259.083 474.286C260.991 473.51 261.47 474.356 259.909 475.714C256.225 478.916 245.523 468.815 243.977 460.609L243.297 457.106L244.649 460.975Z" fill="#99C6CE"/>
<path d="M111.929 344.263C120.115 362.642 128.263 375.338 134.995 380.09C139.808 383.505 149.452 386.974 155.622 387.396C159.931 387.781 162.031 387.548 167.921 385.986C179.42 382.925 186.442 377.324 194.911 364.333L199.711 357.022L202.322 361.568C205.875 367.736 210.122 371.273 215.592 372.576C219.51 373.556 220.532 373.482 225.218 372.18C231.788 370.326 232.432 369.531 229.347 366.911C225.817 363.95 221.802 358.392 221.201 355.602C219.773 348.976 222.695 337.764 227.708 330.407C232.512 323.46 242.19 317.798 254.584 314.763L260.915 313.18L258.152 311.367C253.57 308.34 243.433 303.956 236.75 302.184C222.671 298.431 211.262 299.502 201.275 305.45C194.717 309.417 190.537 312.727 178.536 323.779C167.027 334.36 159.863 339.991 154.299 342.723C140.501 349.564 122.835 346.365 110.709 334.819C107.332 331.532 107.003 331.384 107.465 333.182C107.706 334.298 109.739 339.261 111.929 344.263ZM171.916 342.941C172.772 339.691 174.687 335.848 177.575 331.357C182.613 323.776 184.584 322.257 181.08 328.704C175.825 338.376 174.129 346.332 176.298 351.922C177.837 355.97 179.741 357.238 184.501 357.307L188.593 357.374L185.383 358.65C183.531 359.341 180.98 359.89 179.589 359.971C172.957 360.16 169.413 352.311 171.916 342.941ZM180.999 336.239C182.147 331.248 184.945 326.339 189.629 321.242C193.01 317.667 201.153 310.731 201.273 311.289C201.303 311.428 199.438 313.436 197.192 315.744C191.17 321.859 186.214 329.131 185.031 333.619C183.766 338.416 183.642 344.72 184.791 346.954C185.969 349.327 189.29 350.29 193.258 349.435C195.171 349.023 196.759 348.827 196.804 349.036C196.834 349.176 195.836 350.048 194.61 350.896C190.087 353.987 184.589 353.931 182.249 350.64C180.66 348.428 179.958 340.697 180.999 336.239ZM192.186 327.26C194.343 321.102 196.911 317.192 200.756 314.393C204.672 311.578 211.739 308.596 216.136 308.013C219.738 307.529 219.217 307.86 211.668 311.019C201.716 315.062 197.645 319.223 195.454 327.286C193.904 333.167 194.391 337.149 196.83 339.178C197.906 340.041 199.947 340.914 201.383 341.043C204.898 341.526 205.052 342.588 201.517 342.693C192.543 343.021 188.777 336.899 192.186 327.26ZM204.764 325.425C206.559 321.024 212.48 314.786 217.503 311.952C222.4 309.218 226.196 308.254 231.892 308.194C236.039 308.176 244.352 309.596 243.976 310.261C243.794 310.446 241.563 310.416 238.933 310.253C233.117 309.755 224.657 311.432 219.801 314.011C215.355 316.429 209.054 322.968 207.914 326.279C207.216 328.546 207.266 329.12 208.391 330.556L209.717 332.24L209.691 330.056C209.642 327.075 212.527 326.015 215.138 328.153C218.451 330.796 216.57 335.143 211.682 336.196C205.872 337.448 202.182 331.675 204.764 325.425Z" fill="#99C6CE"/>
<path d="M185.899 653.469C188.151 655.319 190.3 655.659 200.774 656.102C209.741 656.433 214.282 657.206 214.583 658.601C214.643 658.88 212.515 660.36 209.847 661.738C195.152 669.575 192.947 671.729 194.014 676.681C194.901 680.796 195.562 681.456 199.809 682.585C202.23 683.158 203.832 684.053 204.27 685.054C204.663 685.845 205.715 688.319 206.707 690.513C209.672 697.392 212.641 699.818 217.104 698.856C220.646 698.092 222.602 696.503 226.249 691.411C229.156 687.354 231.96 684.196 232.095 684.824C232.125 684.963 231.765 688.106 231.297 691.783C230.726 696.358 230.769 699.998 231.359 703.082C233.036 711.552 236.739 713.6 246.87 711.417C250.073 710.8 255.234 709.98 258.214 709.703C270.801 708.596 275.153 707.804 277.291 706.03C281.836 702.35 280.713 697.483 272.22 683.184C266.453 673.625 262.666 665.683 263.728 665.454C264.012 665.393 266.949 668.701 270.279 672.8C276.49 680.293 282.559 685.408 286.634 686.427C289.712 687.297 293.862 686.256 296.138 684.087C297.486 682.775 298.066 681.336 298.278 678.882C298.478 675.336 300.289 672.391 306.515 665.503C316.513 654.444 310.686 642.198 295.576 642.607C290.28 642.8 293.728 641.254 301.738 639.893C307.891 638.859 309.454 638.887 314.61 640.111C321.39 641.643 326.923 644.61 332.037 649.42C336.116 653.212 342.219 661.239 344.345 665.598C346.762 670.624 351.215 689.224 352.939 701.698C355.396 719.634 355.177 727.563 351.517 743.606C350.435 748.218 349.688 752.32 349.778 752.738C350.079 754.133 352.762 752.825 353.464 750.922C354.679 747.96 357.131 729.405 357.774 718.975C358.68 704.256 358.027 697.098 354.717 683.799C348.361 658.091 338.713 644.624 322.665 638.959C313.992 635.865 302.393 636.394 295.121 640.151C290.179 642.675 281.92 644.601 275.471 644.604C271.324 644.622 271.324 644.622 273.485 643.645C274.701 643.091 280.334 641.367 286.012 639.851C297.667 636.829 301.238 634.819 302.749 630.479C304.372 625.969 302.336 622.028 294.719 614.547C291.701 611.548 290.471 609.624 288.105 604.149C286.554 600.396 284.751 596.843 284.146 596.098C282.561 594.25 278.931 593.572 274.893 594.442C268.304 595.862 264.171 600.767 260.969 611.018C258.727 618.507 255.728 625.576 254.878 625.76C253.532 626.05 253.762 620.234 255.402 609.955C257.052 599.381 257.012 594.719 255.161 591.98C253.179 588.976 250.661 588.643 240.092 589.826C230.53 590.865 230.034 590.972 226.084 593.283C219.89 596.88 216.469 600.609 215.423 604.703C214.607 607.798 214.702 608.581 216.117 611.706C216.978 613.637 219.872 618.122 222.57 621.701C225.198 625.295 227.935 629.741 228.554 631.578C229.584 634.64 229.857 634.874 231.113 634.165C231.903 633.703 234.449 632.789 236.742 632.076C245.999 629.279 255.052 632.072 261.036 639.54C263.977 643.213 264.531 644.407 265.452 649.026C266.354 653.21 266.319 655.115 265.523 658.644C261.657 674.074 242.735 681.217 229.785 672.038C224.714 668.46 222.299 664.82 220.961 658.613C219.237 650.956 221.016 644.077 226.177 638.44L228.814 635.536L216.272 627.218C209.286 622.666 202.147 618.438 200.322 617.883C195.146 616.225 193.772 617.762 191.121 627.821C189.857 632.618 188.204 636.989 186.946 638.72C183.172 643.912 182.687 650.95 185.899 653.469Z" fill="#99C6CE"/>
<path d="M116.218 329.763C118.498 332.775 124.095 336.386 129.573 338.417C132.869 339.604 134.518 339.687 138.388 339.072C144.627 338.092 147.839 335.795 156.6 325.878C167.409 313.769 177.956 305.95 194.326 297.97C202.306 294.061 203.622 293.631 211.206 292.362C217.217 291.359 221.376 291.046 226.281 291.449C238.778 292.332 255.47 297.202 269.472 304.037C272.287 305.401 275.273 306.874 276.016 307.225C277.244 307.763 277.989 307.092 281.733 301.76C289.571 290.656 293.84 280.54 295.122 269.973C296.083 262.394 294.173 252.15 290.81 246.525C281.435 230.883 264.007 222.596 252.937 228.339C249.281 230.295 244.78 235.206 242.925 239.328L241.471 242.56L239.715 235.786C238.27 230.113 237.54 228.446 235.189 225.449C229.811 218.725 222.173 216.649 211.389 218.9C203.723 220.479 199.348 222.882 195.919 227.27C191.4 233.133 190.514 243.469 193.734 253.942L195.433 259.415L190.821 253.84C181.134 241.914 171.409 238.755 163.455 244.848C159.767 247.686 155.211 254.069 153.715 258.478C152.687 261.619 152.659 262.866 153.726 267.818C154.943 273.467 154.958 273.537 153.271 272.587C146.077 268.445 137.927 271.222 132.953 279.447C130.71 283.142 129.742 288.97 130.614 293.015C131.11 295.317 134.276 302.444 135.547 304.214C136.254 305.083 135.859 305.314 132.029 305.775C125.957 306.499 121.784 309.15 117.716 314.698C112.978 321.265 112.596 324.997 116.218 329.763ZM124 316.336C125.76 313.84 126.606 313.293 129.581 312.652C132.557 312.01 133.396 312.121 134.931 313.396C138.633 316.467 137.531 320.645 132.922 321.274C130.61 321.553 130.498 321.723 130.797 324.14C131.035 326.278 131.555 326.969 133.369 327.819C137.669 329.885 149.26 326.219 153.706 321.393C154.659 320.312 155.732 319.789 156.359 319.946C157.087 320.227 156.529 321.077 154.659 322.72C145.846 330.677 140.312 333.548 133.878 333.621C127.231 333.74 123.641 330.499 122.549 323.363C121.965 319.621 122.113 318.932 124 316.336ZM149.583 297.102C150.264 293.379 153.718 288.766 157.121 287.011C159.987 285.518 163.235 285.11 168.752 285.6C170.259 285.713 170.27 285.419 169.707 281.088C168.986 275.331 170.422 270.643 174.057 266.867C176.246 264.644 177.376 264.036 180.918 263.272C186.727 262.02 191.515 263.251 198.743 267.897L204.426 271.563L204.881 269.202C205.177 267.825 206.296 265.102 207.509 263.162C214.808 250.933 228.865 250.459 238.421 262.121C239.819 263.79 241.427 266.436 242.041 267.909C243.243 271.08 243.628 271.144 245.686 268.656C250.057 263.481 257.17 260.708 264.153 261.466C268.932 261.968 274.634 266.068 277.462 270.932C280.667 276.518 281.833 285.025 280.212 290.921C278.948 295.719 274.976 301.026 272.355 301.591C271.505 301.774 268.725 300.914 266.224 299.628C260.064 296.503 238.875 289.684 233.156 288.946C226.769 288.206 212.898 288.859 206.238 290.294C202.129 291.18 199.259 292.309 195.831 294.288C189.06 298.302 168.384 312.1 164.71 315.008L161.686 317.484L157.978 315.072C155.973 313.679 153.474 311.371 152.546 309.819C150.288 306.219 148.954 300.376 149.583 297.102Z" fill="#99C6CE"/>
<path d="M156.728 307.896C160.739 313.09 163.62 314.075 160.337 309.162C158.703 306.741 158.628 306.392 159.251 303.777C161.133 296 167.776 293.109 176.211 296.473C178.637 297.41 179.532 297.436 181.269 296.551C182.595 295.827 183.184 295.116 182.907 294.519C181.601 292.246 180.785 285.707 181.468 283.37C183.746 275.362 196.041 275.997 206.498 284.618C207.144 285.209 208.525 285.422 209.587 285.193C211.217 284.842 211.648 284.092 212.679 279.929C214.469 272.756 218.634 269.377 224.611 270.278C229.435 270.991 237.992 278.707 238.999 283.38C239.3 284.775 240.047 285.49 241.771 285.922C243.025 286.235 244.334 286.464 244.688 286.388C245.043 286.311 246.442 284.55 247.909 282.409C253.733 274.002 261.174 273.785 267.561 281.751C270.472 285.284 270.824 286.229 271.634 291.018L272.563 296.364L273.862 294.479C278.753 287.586 276.515 273.763 269.673 268.158C265.285 264.652 256.822 264.943 251.725 268.815C250.276 270.003 247.868 272.93 246.335 275.45C242.823 281.17 241.517 281.305 240.375 276.004C238.436 267.007 230.579 258.41 223.726 257.916C219.958 257.633 215.523 259.756 212.552 263.17C210.534 265.503 208.003 273.711 208.529 276.152C208.935 278.036 208.039 280.418 206.906 280.662C206.41 280.769 204.431 279.152 202.73 277.11C196.897 270.339 187.483 265.872 181.674 267.123C178.557 267.795 175.515 271.224 174.383 275.263C173.359 278.768 173.6 279.884 176.666 289.295C177.003 290.171 176.803 291.309 176.256 291.865C175.455 292.621 174.63 292.58 172.544 291.497C168.699 289.479 162.559 289.197 159.212 290.867C153.211 293.984 152.082 301.818 156.728 307.896Z" fill="#99C6CE"/>
<path d="M117.689 157.349C118.668 158.451 120.855 159.659 122.494 160.036C126.184 160.992 135.327 161.795 137.382 161.352C142.837 160.177 148.799 153.783 147.987 150.017C147.491 147.715 145.458 145.161 142.755 143.627L140.795 142.444L141.759 145.885C143.075 150.273 142.124 152.74 138.509 154.541C134.64 156.542 128.262 156.53 125.085 154.514C121.564 152.281 120.658 147.732 122.912 143.743C125.932 138.494 136.894 133.285 149.356 131.257C159.097 129.669 167.851 130.045 178.109 132.578C184.818 134.125 185.404 134.437 185.81 136.32C186.366 138.9 189.393 140.219 192.349 139.144C195.235 138.084 201.51 141.403 202.126 144.262C202.577 146.355 205.482 148.137 207.678 147.664C208.386 147.511 209.984 148.043 211.13 148.891C212.822 150.205 213.286 150.981 213.427 153.359C213.679 156.589 215.415 158.112 218.552 157.874C219.928 157.723 221.893 159.271 227.011 164.445C244.319 181.807 258.233 189.611 275.386 191.461C279.184 191.884 284.313 191.946 286.853 191.691C291.052 191.224 291.32 191.093 290.159 190.176C289.457 189.67 282.885 187.729 275.534 185.955C256.202 181.217 246.066 175.811 229.248 161.408C224.254 157.156 222.7 155.448 222.728 154.201C222.792 152.435 222.534 152.272 215.259 148.439C212 146.733 211.611 146.306 211.6 144.191C211.506 141 209 139.351 205.458 140.114C201.987 140.862 194.977 137.921 195.093 135.706C195.181 134.738 194.445 133.729 193.141 132.842C191.394 131.613 190.64 131.557 188.433 132.324C186.171 133.177 184.492 132.955 176.924 130.863C154.094 124.689 136.23 126.422 124.354 135.988C115.574 143.062 112.727 152.214 117.689 157.349Z" fill="#99C6CE"/>
<path d="M226.197 660.55C230.287 671.273 244.609 675.121 254.113 667.964C267.913 657.691 260.619 635.543 243.331 635.473C230.205 635.455 221.534 648.199 226.197 660.55ZM230.802 659.558C232.17 656.271 237.87 656.575 238.606 659.993C238.967 661.666 237.084 664.627 235.384 664.993C233.4 665.42 230.995 663.895 230.16 661.74C230.044 661.546 230.345 660.532 230.802 659.558ZM236.474 649.066C242.354 647.799 247.459 651.881 247.013 657.378C246.79 660.127 245.12 663.041 243.018 664.297C242.045 664.944 241.859 664.766 242.069 663.333C242.172 662.435 242.05 660.491 241.678 659.112C240.972 655.834 237.204 653.142 233.597 653.263L231.083 653.293L232.255 651.508C233.093 650.233 234.349 649.524 236.474 649.066Z" fill="#99C6CE"/>
<path d="M183.317 418.212C193.65 428.32 204.606 428.587 216.653 419.13C222.819 414.371 226.336 409.015 227.903 402.182C229.618 394.66 231.064 380.043 230.3 377.872C229.742 376.314 229.366 376.979 226.936 382.903C221.872 395.526 213.229 407.023 204.655 412.301C199.494 415.529 198.856 415.667 195.47 414.061C191.771 412.376 189.91 409.931 188.993 405.677C188.242 402.189 188.907 400.805 190.313 403.202C191.619 405.476 196.9 407.622 199.734 407.011C205.897 405.683 208.476 396.661 204.197 391.599C199.817 386.412 192.99 385.693 187.655 389.835C180.856 395.096 177.827 402.025 179.015 409.943C179.607 414.414 179.839 414.802 183.317 418.212Z" fill="#99C6CE"/>
<path d="M194.475 442.812C196.796 445.67 201.115 448.169 204.003 448.496C207.785 448.848 211.128 446.814 213.58 442.71C216.351 438.025 215.615 434.608 211.325 432.248C208.809 430.892 207.97 430.781 206.147 431.612C203.504 432.765 200.971 434.771 200.138 436.41C198.498 439.464 197.476 437.13 197.873 431.059C197.931 429.952 197.457 429.471 195.904 429.148C193.028 428.527 192.633 428.758 191.924 431.32C191.149 434.26 192.487 440.467 194.475 442.812Z" fill="#99C6CE"/>
<path d="M219.692 441.83C222.281 446.965 226.671 449.449 232.994 449.547C237.966 449.57 241.287 448.125 243.833 444.803C246.77 440.885 247.633 436.977 246.581 432.095C244.988 424.702 238.925 421.337 233.096 424.564C226.392 428.198 228.492 437.599 236.323 439.195L239.499 439.825L237.341 441.166C236.227 441.844 234.46 442.589 233.468 442.803C231.272 443.276 226.637 441.721 225.153 439.997C223.958 438.576 221.115 426.416 221.353 423.737C221.478 422.251 221.321 422.211 219.655 423.081C218.242 423.751 217.714 424.74 217.442 426.916C217.029 430.508 218.296 439.139 219.692 441.83Z" fill="#99C6CE"/>
</svg>
