<svg width="543" height="965" viewBox="0 0 543 965" fill="none" xmlns="http://www.w3.org/2000/svg">
<path d="M-178.906 755.809C-176.089 756.555 -173.993 755.969 -164.284 752.014C-155.993 748.583 -151.542 747.397 -150.688 748.54C-150.517 748.769 -151.836 751 -153.689 753.363C-163.791 766.605 -164.899 769.481 -161.868 773.54C-159.35 776.912 -158.474 777.238 -154.143 776.497C-151.702 776.01 -149.873 776.158 -149.059 776.886C-148.372 777.442 -146.386 779.253 -144.571 780.836C-139.013 785.857 -135.304 786.827 -131.645 784.096C-128.742 781.928 -127.625 779.669 -126.427 773.521C-125.472 768.623 -124.237 764.584 -123.852 765.098C-123.767 765.213 -122.787 768.221 -121.683 771.759C-120.298 776.157 -118.744 779.449 -116.924 782.007C-111.875 789.011 -107.655 789.333 -99.3515 783.133C-96.6957 781.238 -92.344 778.345 -89.7497 776.853C-78.7646 770.609 -75.137 768.079 -73.9311 765.575C-71.3296 760.338 -74.3758 756.38 -88.0488 746.911C-97.2701 740.618 -104.019 734.972 -103.147 734.322C-102.915 734.149 -98.868 735.935 -94.1343 738.277C-85.3688 742.506 -77.7217 744.631 -73.5922 743.863C-70.4311 743.372 -67.0904 740.7 -65.9237 737.781C-65.2438 736.026 -65.3153 734.477 -66.1433 732.157C-67.4375 728.849 -67.0153 725.417 -64.2204 716.563C-59.7307 702.347 -70.125 693.636 -83.6939 700.295C-88.4298 702.674 -85.9379 699.834 -79.2207 695.263C-74.056 691.763 -72.6231 691.138 -67.4246 690.106C-60.6224 688.677 -54.3566 689.074 -47.7051 691.32C-42.4181 693.071 -33.528 697.83 -29.7815 700.909C-25.492 704.473 -13.7032 719.534 -6.94506 730.159C2.75163 745.446 5.85212 752.748 9.19925 768.858C10.1346 773.503 11.1622 777.544 11.4183 777.887C12.2721 779.03 14.168 776.724 14.0145 774.701C13.8868 771.502 8.39489 753.609 4.6406 743.858C-0.660475 730.097 -4.23242 723.859 -12.7769 713.143C-29.2528 692.411 -43.6296 684.18 -60.5794 685.707C-69.7536 686.502 -80.081 691.81 -85.1299 698.251C-88.5733 702.603 -95.282 707.791 -101.145 710.477C-104.909 712.219 -104.909 712.219 -103.35 710.431C-102.475 709.422 -98.0705 705.51 -93.5376 701.769C-84.197 694.171 -81.787 690.858 -82.2185 686.282C-82.6193 681.506 -86.1097 678.77 -96.1493 675.136C-100.142 673.665 -102.061 672.427 -106.491 668.433C-109.462 665.666 -112.58 663.186 -113.441 662.76C-115.65 661.739 -119.233 662.633 -122.543 665.105C-127.944 669.137 -129.661 675.317 -128.308 685.971C-127.229 693.714 -127.015 701.39 -127.712 701.91C-128.815 702.734 -131.026 697.35 -133.812 687.321C-136.711 677.019 -138.688 672.797 -141.511 671.076C-144.562 669.169 -146.991 669.914 -156.109 675.388C-164.372 680.311 -164.778 680.614 -167.409 684.359C-171.544 690.207 -173.103 695.023 -172.351 699.18C-171.805 702.334 -171.393 703.006 -168.806 705.26C-167.22 706.657 -162.722 709.532 -158.779 711.663C-154.894 713.837 -150.555 716.741 -149.228 718.155C-147.017 720.51 -146.672 720.609 -145.825 719.442C-145.299 718.693 -143.363 716.803 -141.575 715.2C-134.322 708.805 -124.927 707.577 -116.378 711.879C-112.176 713.995 -111.175 714.85 -108.416 718.667C-105.855 722.097 -105.093 723.843 -104.349 727.383C-101.444 743.023 -115.678 757.392 -131.273 754.434C-137.373 753.29 -141.084 750.985 -144.883 745.897C-149.637 739.652 -150.881 732.656 -148.534 725.383L-147.345 721.646L-162.211 719.301C-170.457 718.068 -178.707 717.194 -180.598 717.448C-185.995 718.094 -186.604 720.064 -184.83 730.314C-183.983 735.202 -183.668 739.864 -184.091 741.961C-185.363 748.253 -182.875 754.855 -178.906 755.809Z" fill="#99C6CE"/>
<path d="M-75.6018 861.209C-73.5816 862.461 -68.6957 862.463 -65.3688 861.225C-60.6244 859.463 -52.739 853.308 -51.0496 849.999C-49.5072 846.977 -49.5392 842.816 -51.1186 840.701C-52.3993 838.986 -58.2412 836.492 -60.2906 836.775C-61.72 837.041 -61.6346 837.156 -59.8314 838.48C-57.0975 840.446 -56.4352 843.513 -58.0323 846.219C-61.7371 852.28 -67.8394 855.858 -72.6142 854.793C-75.9937 854.022 -77.1344 852.736 -77.4021 849.107C-77.7244 845.163 -75.8932 840.59 -71.4523 834.425C-63.0966 822.843 -50.8698 814.87 -34.9188 810.795C-30.3094 809.58 -29.1276 809.588 -28.3592 810.617C-26.8225 812.675 -23.7229 812.586 -21.0056 810.29C-19.0739 808.759 -17.9467 808.451 -15.1802 808.522C-13.2931 808.627 -11.3668 809.148 -10.8972 809.776C-9.78735 811.263 -6.34624 811.632 -4.72031 810.418C-3.96541 809.854 -2.13295 809.643 -0.621604 809.85C1.63773 810.211 2.33957 810.666 3.15911 812.37C4.40207 815.003 7.2198 815.749 9.54256 814.014C10.762 813.104 11.8857 813.155 14.9596 814.243C20.3593 816.266 28.9045 820.927 32.7517 824.02L36.0986 826.685L33.2316 823.572C28.7817 818.703 24.3726 815.584 17.7588 812.42C14.3861 810.932 11.6061 809.268 11.5668 808.852C11.4338 807.705 8.74755 806.772 7.05508 807.412C6.12944 807.747 3.75051 807.832 1.73537 807.556C-1.1012 807.27 -2.10531 806.773 -2.59873 805.628C-3.61287 803.179 -8.13499 802.816 -10.1162 805.008C-12.1556 807.243 -18.5905 807.952 -20.0419 806.009C-20.5542 805.323 -21.9886 804.613 -23.0969 804.461C-24.9105 804.213 -25.6347 804.575 -27.4537 806.379C-29.4315 808.212 -30.8063 808.793 -36.2798 809.942C-59.1422 814.815 -74.5082 825.487 -79.9115 840.296C-81.6147 845.041 -82.1703 850.353 -81.2365 853.663C-80.5674 856.012 -77.5792 860.014 -75.6018 861.209Z" fill="#99C6CE"/>
<path d="M39.0003 932.439C40.6635 933.334 42.1714 933.9 42.3456 933.769C42.5198 933.639 41.1111 931.753 39.1714 929.64C34.2946 924.199 32.4986 919.129 33.3599 913.499C34.8673 903.647 39.3882 899.648 53.8586 895.165C58.8899 893.545 64.7614 891.476 66.8604 890.532C72.58 887.775 80.4613 888.034 95.5917 891.339C100.711 892.502 100.812 892.516 86.8297 886.751C69.8467 879.754 59.1785 878.548 48.0161 882.253C41.2923 884.514 34.5648 890.161 31.5107 896.003C28.8665 901.183 27.5795 910.603 28.7298 916.867C29.8101 922.917 34.5689 930.138 39.0003 932.439Z" fill="#99C6CE"/>
<path d="M1.21446 869.118C2.85042 869.855 2.78042 869.64 0.466812 865.936C-2.99591 860.33 -3.13902 857.231 -0.0114259 851.245C3.205 845.014 8.3066 840.581 14.3916 838.798C23.8734 835.992 31.1279 836.986 45.4246 843.051C49.9176 844.949 53.5071 846.365 53.3791 846.193C52.1838 844.593 35.78 835.827 31.5124 834.473C22.1286 831.596 12.2764 832.453 5.4892 836.808C0.123009 840.281 -2.5193 843.768 -4.43781 849.92C-6.93545 857.84 -4.32526 866.665 1.21446 869.118Z" fill="#99C6CE"/>
<path d="M98.2099 996.591C101.405 998.569 107.493 999.454 111.394 998.501L114.399 997.681L110.287 996.656C104.578 995.309 100.034 992.736 98.6052 989.974C95.9177 984.679 97.1555 972.892 101.234 965.394C104.83 958.702 108.502 954.535 116.535 948.092C126.762 939.743 135.448 935.75 156.507 929.553C161.883 928.032 166.322 926.587 166.353 926.386C166.418 925.625 136.377 932.029 131.85 933.718C104.266 943.897 86.2898 965.245 90.0346 983.463C91.1799 988.751 94.5573 994.243 98.2099 996.591Z" fill="#99C6CE"/>
<path d="M13.9452 874.659C14.6197 874.957 14.3978 874.054 13.3222 872.008C10.942 867.731 10.8604 864.23 13.0366 859.755C14.6098 856.533 15.7166 855.35 19.2742 852.604C27.4619 846.491 35.6643 846.332 49.4608 851.968C53.8256 853.695 57.3144 855.097 57.1864 854.926C56.418 853.897 44.6198 847.302 41.5613 846.113C36.5919 844.303 30.2988 843.749 24.9141 844.653C19.3125 845.63 13.3195 849.838 11.0699 854.457C8.82022 859.075 8.08884 863.183 8.84841 866.623C9.53798 869.847 12.135 874.052 13.9452 874.659Z" fill="#99C6CE"/>
<path d="M66.2861 939.667C67.5429 940.866 69.8619 942.518 71.4824 943.356C74.5221 945.004 83.3664 947.037 85.8922 946.664C87.2055 946.485 87.0348 946.257 84.3093 944.908C81.77 943.688 80.5132 942.489 76.9701 937.744C69.7559 928.083 68.7609 922.148 73.248 915.681C75.8203 911.979 82.6878 906.762 86.7353 905.52C93.9782 903.228 108.598 904.154 122.889 907.908C130.811 909.918 132.004 910.184 129.147 909.023C128.027 908.613 120.518 905.582 112.479 902.325C95.8098 895.628 90.3297 894.466 81.6951 896.106C68.6133 898.572 59.0915 907.018 57.4184 917.617C56.769 922.198 57.4363 926.241 59.7976 930.978C61.9181 935.271 63.028 936.757 66.2861 939.667Z" fill="#99C6CE"/>
<path d="M27.8493 879.593C29.4699 880.43 29.4853 880.33 27.8274 877.383C25.3772 872.89 25.1026 869.979 26.7374 866.354C29.1681 860.888 30.666 859.503 34.4932 858.693C40.1102 857.615 52.4998 859.672 59.5166 862.891C69.0455 867.174 69.2351 866.943 60.4219 861.681C48.5571 854.513 41.9637 852.224 35.3699 852.963C28.4004 853.804 24.3337 858.532 23.3013 866.961C22.5799 873.02 24.2086 877.503 27.8493 879.593Z" fill="#99C6CE"/>
<path d="M121.334 990.01C124.385 991.916 129.695 992.849 132.572 991.858L134.726 991.229L131.807 990.47C128.184 989.614 123.551 987.286 122.34 985.786C121.017 984.013 120.433 978.75 121.056 974.012C122.189 965.597 126.303 958.873 135.028 950.934C143.315 943.5 151.598 939.452 169.535 934.161C173.799 932.846 177.37 931.693 177.401 931.492C177.374 931.335 171.83 932.268 164.986 933.64C150.401 936.517 143.616 939.179 134.316 945.5C126.178 950.953 121.244 955.973 117.957 961.989C112.278 972.552 113.842 985.186 121.334 990.01Z" fill="#99C6CE"/>
<path d="M-17.2975 790.425C-4.26908 792.005 -2.28471 792.482 6.49963 796.252C9.82961 797.683 12.3724 798.545 12.1589 798.259C10.7929 796.429 -12.2206 778.086 -14.6592 776.879C-18.6329 774.949 -24.0465 774.361 -27.0557 775.54C-31.8735 777.446 -33.6417 782.951 -30.6108 787.01C-29.2448 788.839 -28.0084 789.162 -17.2975 790.425Z" fill="#99C6CE"/>
<path d="M41.556 878.084C40.52 873.426 44.0248 868.672 49.5291 867.322C52.5929 866.459 59.166 867.873 62.0587 869.809C63.2182 870.635 64.1796 871.074 64.2258 870.773C64.3146 870.528 62.9571 869.316 61.2819 868.163C54.7246 863.621 46.2045 863.839 42.44 868.609C40.0915 871.52 39.5309 875.856 41.0027 878.675L42.2064 880.893L41.556 878.084Z" fill="#99C6CE"/>
<path d="M97.7788 942.597C99.5513 944.123 101.529 945.317 102.149 945.3C103.722 945.105 103.628 944.373 101.988 943.995C99.9032 943.504 98.4487 938.891 99.2312 935.458C100.219 931.693 102.591 929.298 108.98 925.863C115.718 922.167 119.731 921.486 136.039 920.795C148.309 920.27 148.526 920.197 144.197 919.244C136.201 917.379 116.229 915.463 109.84 915.871C100.813 916.379 95.2045 918.073 91.5854 921.221C88.3728 924.065 87.5425 926.466 88.4575 930.235C89.1351 933.202 93.4193 938.818 97.7788 942.597Z" fill="#99C6CE"/>
<path d="M143.471 981.137C146.376 983.331 150.689 984.384 154.284 983.748C158.572 982.95 158.661 982.706 154.863 981.98C145.887 980.134 142.589 975.474 143.701 966.184C144.334 960.369 145.56 958.741 154.689 952.192C165.924 943.981 175.578 939.71 194.654 934.37C198.412 933.345 201.39 932.367 201.421 932.166C201.571 931.52 173.235 937.541 167.178 939.482C143.106 947.217 133 959.483 138.623 974.161C140.225 978.486 140.566 978.943 143.471 981.137Z" fill="#99C6CE"/>
<path d="M-92.0331 656.302C-85.3016 660.714 -81.0102 662.585 -60.4546 669.764C-48.8764 673.762 -37.1155 678.248 -34.262 679.768C-21.9992 686.016 -14.0947 692.846 -5.21567 704.737C8.65786 723.317 15.9822 740.999 21.968 770.454C25.5729 788.242 26.0013 790.149 26.2916 789.932C26.6401 789.672 24.4503 762.635 22.9899 749.657C20.0657 724.059 14.0384 698.908 6.60479 680.595C0.379966 665.476 -4.13959 657.364 -12.9333 645.588C-27.2337 626.436 -40.7187 615.403 -57.9066 608.737C-70.9739 603.713 -77.6473 599.258 -83.4102 591.54L-86.4837 587.424L-88.378 591.065C-91.0684 596.546 -91.9451 602.276 -90.7879 607.823C-89.8371 612.367 -89.5264 613.025 -84.0197 620.4L-78.2568 628.118L-83.6365 629.998C-90.7513 632.461 -97.3985 637.246 -99.0486 640.972C-101.274 646.106 -98.5358 652.075 -92.0331 656.302ZM-55.6116 656.264C-55.3843 655.115 -54.3714 653.201 -53.28 652.119C-51.4883 650.157 -51.1126 650.055 -46.5939 650.777C-38.4053 652.053 -25.9053 659.103 -18.9264 666.269C-14.0889 671.294 -13.877 670.245 -18.5146 663.913C-28.3755 650.707 -40.9283 641.649 -52.2949 639.629C-56.9997 638.779 -60.9892 639.978 -62.7451 642.713C-64.0176 644.643 -64.1611 644.572 -64.6645 641.475C-65.0587 639.009 -64.2662 637.527 -61.4054 635.302C-57.8324 632.456 -46.5957 635.997 -36.4165 643.088C-26.6522 649.866 -14.392 663.862 -11.1396 671.852C-10.2655 673.87 -8.02879 678.077 -6.02591 681.122C-2.37706 686.857 -0.814889 690.766 -0.593321 694.696C-0.434834 697.695 -1.0513 697.353 -2.15583 693.815C-3.48227 689.374 -8.62675 680.304 -9.5524 680.639C-10.145 680.815 -10.4011 680.472 -10.5923 679.368C-10.7407 678.321 -12.1921 676.377 -15.1172 673.308C-30.2001 657.591 -48.6125 650.859 -53.8375 659.124C-54.8897 660.622 -55.0485 660.652 -55.4992 659.564C-55.7519 658.862 -55.7808 657.37 -55.6116 656.264Z" fill="#99C6CE"/>
<path d="M190.441 1026.11C195.491 1030.09 200.069 1032.1 206.386 1033.17C213.753 1034.44 222.543 1033.13 225.237 1030.32C226.022 1029.55 224.569 1029.3 219.048 1029.42C210.962 1029.49 206.819 1028.67 201.988 1025.95C199.235 1024.44 198.164 1023.37 195.381 1019.04C188.037 1007.87 188.118 1000.96 195.882 986.523C198.495 981.544 201.623 975.558 202.755 973.198C206.768 965.127 216.792 955.416 240.626 936.461L254.844 925.22L241.574 932.28C234.244 936.151 224.091 941.328 218.936 943.752C210.885 947.627 208.334 949.176 200.073 955.434C192.175 961.331 189.849 963.424 186.785 967.315C178.687 977.547 174.346 989.781 175.261 999.606C176.233 1009.39 181.917 1019.3 190.441 1026.11Z" fill="#99C6CE"/>
<path d="M79.1288 861.781C109.717 892.812 149.62 911.366 200.517 918.238C211.097 919.688 216.816 919.958 224.921 919.427C243.669 918.249 272.311 911.911 301.213 902.528C336.822 890.986 354.85 886.785 376.689 884.902C382.272 884.384 387.091 883.813 387.44 883.553C389.066 882.339 389.268 879.339 387.816 877.395C386.408 875.509 385.904 875.44 378.36 875.997C368.799 876.637 349.941 880.211 337.945 883.647C333.162 884.993 318.951 889.461 306.487 893.603C279.724 902.457 269.405 905.354 252.395 908.617C228.006 913.383 213.067 914.21 196.069 911.676C153.282 905.248 114.215 886.603 82.2425 857.23C72.914 848.613 62.5408 834.722 57.9105 824.645C48.3972 803.789 42.3956 777.461 41.0392 750.693C38.8358 708.618 46.5133 683.652 69.923 656.377C75.4176 650.048 96.3435 629.258 108.18 618.461C116.075 611.229 120.904 605.219 124.751 597.895C132.49 582.944 130.592 563.08 120.515 554.31C115.841 550.231 111.565 548.26 104.815 547.335C93.9329 545.843 83.4674 549.028 74.1114 556.727C69.5785 560.467 68.3249 561.938 66.1829 565.852C60.8126 575.739 60.7189 588.453 66.0753 596.475C68.3616 600.021 69.1761 600.748 72.5061 602.18C81.8334 606.434 89.8328 604.913 96.8064 597.658C105.324 588.715 105.241 580.852 96.6481 578.187C92.7101 577.031 90.3039 576.958 92.7578 578.064C96.6035 579.823 97.3919 584.755 94.7904 589.992C93.5264 592.538 90.2353 594.551 87.4687 594.48C84.7021 594.408 79.9104 592.11 78.3156 590.095C76.9922 588.323 78.0981 579.75 80.0129 576.985C82.4229 573.671 88.6993 569.964 93.7391 568.961C98.8215 568.016 105.886 569.24 108.415 571.537C111.93 574.79 112.053 581.375 108.78 592.011C104.361 606.442 91.1691 627.779 77.5361 642.589C62.4171 659.043 56.8694 666.391 50.5135 678.35C39.3713 699.403 35.2684 722.858 36.7998 756.886C37.6958 777.587 42.8625 802.312 49.5226 818.62C54.5933 830.862 68.0961 850.519 79.1288 861.781Z" fill="#99C6CE"/>
<path d="M170.856 970.572C171.604 970.726 173.073 970.876 173.952 970.842C175.696 970.876 175.653 970.819 173.401 969.74C169.369 967.854 168.452 965.778 169.361 961.181C170.424 955.579 172.44 952.828 178.769 948.101C183.631 944.56 184.631 944.081 191.638 942.321C199.772 940.254 198.597 939.528 189.862 941.154C176.462 943.68 165.853 952.849 165.952 961.946C165.972 965.849 168.368 970.026 170.856 970.572Z" fill="#99C6CE"/>
<path d="M87.0294 842.08C93.1118 848.046 102.388 854.654 109.618 858.159C116.619 861.479 116.483 860.691 108.309 851.924C101.477 844.471 99.4074 840.851 100.035 837.088C101.034 830.554 110.847 829.281 111.161 835.637C111.343 839.151 107.567 840.635 104.984 838.023C103.684 836.767 103.727 836.825 104.09 839.492C104.548 842.89 106.522 844.443 109.582 843.939C116.396 842.769 118.45 836.071 114.511 827.525C112.549 823.203 109.388 820.665 104.8 819.729C98.7149 818.484 92.0304 821.161 89.738 825.722C88.7678 827.693 87.9764 833.537 88.2476 836.807C88.3499 838.156 88.1057 838.071 86.4409 835.841C79.5801 826.896 74.4259 812.847 75.2892 805.524C75.949 799.867 81.0883 794.515 85.6992 794.634C88.4231 794.648 92.3319 797.339 93.416 800.002C94.1621 801.849 92.8962 806.089 91.1541 807.39C88.1926 809.601 81.4115 805.85 82.667 802.686C83.1539 801.521 83.5877 801.375 84.8241 801.699C85.7001 802.024 86.53 802.651 86.6973 803.238C87.0865 804.729 88.294 803.56 87.9783 801.926C87.6814 799.832 85.4289 798.754 82.7562 799.414C79.8085 800.19 78.7768 802.563 79.5021 806.563C81.2209 815.163 91.8546 819.956 99.8081 815.709C103.46 813.695 105.224 811.576 106.808 807.277C110.036 798.277 105.959 790.636 97.0258 788.848C94.8826 788.4 94.8399 788.343 96.2847 787.976C100.027 787.052 103.05 784.439 104.537 781.102C106.809 775.665 107.17 769.608 105.33 766.174C100.942 757.875 92.0259 754.293 79.3148 755.681C75.03 756.12 73.8721 756.629 69.6211 759.536C62.7878 764.193 60.0651 768.541 58.8773 776.641C57.0589 788.862 61.7193 804.793 72.524 823.26C77.0043 830.956 81.1604 836.401 87.0294 842.08Z" fill="#99C6CE"/>
<path d="M237.635 1029.96C243.142 1034.31 247.864 1036.39 254.355 1037.33C260.889 1038.33 266.304 1037.23 270.543 1034.06L273.737 1031.68L268.399 1032.28C261.588 1033.09 253.671 1032.06 249.282 1029.81C246.413 1028.39 245.114 1027.14 241.955 1022.91C237.259 1016.62 235.716 1012.25 235.727 1005.12C235.731 998.706 237.723 992.41 243.98 978.745C246.674 972.904 249.877 965.081 251.066 961.344C253.68 953.337 254.607 951.309 257.992 947C263.115 940.415 266.78 936.966 278.966 927.243L291.485 917.36L271.896 928.07C254.769 937.475 251.536 939.444 246.175 943.893C225.137 961.383 215.193 986.706 221.269 1006.83C223.322 1013.58 231.612 1025.29 237.635 1029.96Z" fill="#99C6CE"/>
<path d="M51.8429 748.324C55.5933 731.544 61.0135 717.969 66.7866 711.165C71.5536 705.558 74.8428 705.238 79.5984 709.79C82.4108 712.588 83.988 719.424 82.4455 722.445C80.3889 726.474 78.4573 728.006 75.303 727.779C72.8968 727.706 72.1369 727.294 71.0305 725.449C69.994 723.818 69.9617 722.685 70.7031 720.529C71.8887 717.15 73.4139 715.922 75.9055 716.11C77.7772 716.315 77.7345 716.258 75.4701 714.921C70.8987 712.19 67.0627 715.411 66.0834 722.821C65.0955 729.613 67.363 733.619 73.2784 735.969C78.4766 737.964 86.9613 733.944 91.5798 727.289C94.4152 723.213 95.9053 715.155 94.7138 710.168C92.6381 701.211 86.9434 695.401 79.2586 694.194C68.0473 692.504 56.5854 701.864 52.5142 716.035C51.0091 721.166 50.5642 728.443 50.6122 742.921L50.7561 753.41L51.8429 748.324Z" fill="#99C6CE"/>
<path d="M151.402 884.925C153.047 886.279 161.77 890.451 171.86 894.759C181.563 898.911 189.545 902.211 189.603 902.168C189.719 902.081 186.318 899.101 182.086 895.493C174.581 889.076 174.325 888.733 161.69 871.812C150.063 856.363 148.538 854.563 146.585 853.885C144.833 853.234 143.98 853.425 142.122 854.813C139.161 857.024 138.124 861.449 139.296 866.896C140.402 871.768 146.725 881.205 151.402 884.925Z" fill="#99C6CE"/>
<path d="M-227.252 362.811C-225.506 361.152 -224.741 359.512 -223.762 355.13C-217.02 325.519 -195.078 305.484 -162.635 299.512C-113.875 290.439 -58.5263 316.96 -20.5034 367.638C-4.87964 388.561 6.55465 411.99 16.9804 444.363C36.3431 505.057 42.5535 587.504 33.7562 668.869C32.6604 679.393 33.1434 681.615 35.9138 678.299C37.3878 676.397 43.1834 635.829 44.5107 617.742C51.0992 526.272 37.0033 449.981 2.24521 388.05C-3.90494 377.148 -22.8976 351.35 -31.1878 342.67C-37.3948 336.175 -55.1916 322.395 -67.4252 314.612C-92.6369 298.533 -118.748 289.002 -141.951 287.362C-167.963 285.594 -191.002 292.29 -211.949 307.842C-222.402 315.647 -229.792 324.282 -239.065 339.844C-241.877 344.437 -242.043 345.184 -241.061 346.499C-240.421 347.356 -239.357 349.144 -238.677 350.418L-237.462 352.893L-231.157 340.261C-221.767 321.585 -220.819 320.432 -208.814 311.556C-200.061 305.109 -198.133 303.937 -192.273 301.609C-186.139 299.166 -172.249 295.116 -172.314 295.877C-172.388 296.021 -174.603 297.051 -177.279 298.07C-205.245 309.069 -223.35 330.246 -228.269 357.694L-229.578 364.904L-227.252 362.811Z" fill="#99C6CE"/>
<path d="M268.839 1017.97C279.737 1026.75 296.603 1029.47 312.631 1024.9C329.902 1019.92 340.997 1008.26 342.816 993.007C343.956 983.874 342.604 977.582 338.028 970.848C332.885 963.113 323.228 955.632 317.171 954.545C313.013 953.821 307.358 955.818 301.725 960.024C293.421 966.224 290.135 972.24 291.557 978.747C292.356 982.603 293.92 984.818 297.887 987.466L300.965 989.53L299.564 986.926C297.766 983.549 297.607 980.551 299.099 976.855C303.487 965.653 311.145 963.675 317.42 972.079C320.777 976.695 321.13 980.439 318.658 987.182C316.542 992.947 316.41 993.135 312.113 996.343C308.47 998.974 306.964 999.743 303.644 1000.26C298.36 1001.18 293.957 1000.37 289.01 997.745C283.547 994.79 280.023 989.585 280.157 984.677C280.389 971.058 294.371 946.905 313.852 926.481C320.652 919.356 332.546 908.515 338.179 904.309C340.85 902.315 342.855 900.64 342.653 900.612C342.006 900.472 324.733 910.165 313.353 916.97C300.336 924.732 282.11 938.964 276.206 945.955C265.724 958.323 260.073 970.379 257.928 985.069C255.83 999.459 259.415 1010.32 268.839 1017.97Z" fill="#99C6CE"/>
<path d="M185.71 885.931C192.47 891.836 201.623 896.22 211.518 898.448C214.351 899.093 222.702 899.981 230.033 900.472C237.407 901.021 244.436 901.471 245.703 901.593C246.928 901.658 243.924 900.785 238.905 899.635C222.108 895.794 214.13 892.135 207.969 885.338C206.072 883.282 200.858 878.359 196.429 874.365C184.153 863.497 181.163 858.161 182.004 848.629C182.685 840.819 188.033 834.778 197.231 831.471C199.675 830.625 201.859 829.796 201.975 829.709C202.15 829.579 200.712 829.228 198.797 828.966C194.019 828.259 189.29 829.921 183.972 834.426C178.189 839.279 174.856 845.596 173.487 854.543C171.568 866.751 175.66 877.318 185.71 885.931Z" fill="#99C6CE"/>
<path d="M23.5148 668.236C24.1536 667.759 27.302 643.147 28.1298 632.022C28.9234 621.456 29.0174 605.714 28.3712 596.491C27.5323 584.83 25.3116 574.467 20.7347 560.343C9.5202 526.066 -5.39289 503.187 -20.5811 496.898C-32.2378 492.067 -44.8261 495.679 -53.2022 506.386C-65.0797 521.488 -68.1521 538.207 -61.0986 549.592C-58.5443 553.739 -53.5187 557.199 -47.7979 558.804C-42.6235 560.283 -39.3735 559.548 -35.3325 555.996L-32.0192 553.166L-33.4301 556C-36.8549 562.921 -36.3676 572.173 -32.3122 577.604C-27.9581 583.435 -18.19 586.827 -12.2296 584.513C-3.04316 580.948 2.81401 569.896 1.11253 559.502C-0.479727 549.739 -8.12464 542.892 -12.1333 547.577C-15.4878 551.685 -15.7923 556.364 -12.6604 557.409C-10.9937 557.946 -10.9356 557.902 -11.6167 555.294C-12.1971 552.7 -11.2353 550.112 -9.51897 549.988C-6.74894 549.701 -5.16671 557.512 -7.2387 561.642C-8.07741 563.426 -8.78962 564.047 -10.6836 564.659C-17.5815 567.05 -22.3353 560.805 -20.5172 551.611C-19.5774 546.814 -17.345 543.989 -13.2513 542.446C-1.8105 538.266 9.42364 549.556 18.2364 574.319C19.8224 578.744 21.3742 583.729 21.7326 585.421L22.453 588.444L20.9401 586.903C18.4726 584.204 13.1329 580.445 10.4193 579.354C6.62826 577.911 3.47906 578.66 -1.28259 582.216C-6.40805 586.132 -8.70885 590.076 -9.98705 597.085C-11.2652 604.095 -10.1711 608.709 -5.73846 615.372C-3.0099 619.39 -1.78388 620.789 0.267035 621.84C4.55499 624.07 9.99274 622.146 12.8777 617.41C14.4748 614.704 13.8706 611.593 11.0958 607.877L8.77532 604.891L9.34375 607.227C10.3098 611.67 7.79215 615.687 4.32373 615.16C2.20784 614.87 -0.175766 610.951 0.0807012 608.267C0.494433 604.218 5.72755 599.598 9.35479 600.095C11.8156 600.483 14.5407 604.86 16.1949 611.193C18.059 618.171 19.2124 627.105 20.6806 646.755C22.5326 669.948 22.4115 669.059 23.5148 668.236ZM-34.2588 529.817C-35.4261 522.319 -30.4096 514.744 -23.5374 513.53C-19.3071 512.776 -14.5596 513.683 -10.3725 515.899C-3.9209 519.451 4.49707 531.33 10.1585 545.089C12.9909 551.79 12.9036 553.369 10.0009 549.481C6.71391 545.079 -1.10174 538.004 -5.04474 535.873C-9.74765 533.33 -13.971 533.367 -18.8538 536.033C-23.3455 538.497 -25.1079 538.923 -28.2706 538.079C-31.3906 537.292 -33.6804 534.104 -34.2588 529.817Z" fill="#99C6CE"/>
<path d="M57.6555 692.517C58.6273 691.88 63.3105 687.493 68.1252 682.918C72.8391 678.33 80.3677 671.818 84.7963 668.422C91.838 663.075 93.3017 662.249 96.0598 661.703C98.9767 661.128 99.407 661.341 101.374 663.612C104.951 667.797 103.942 672.38 99.1307 673.568C97.2521 674.08 96.5195 673.826 95.495 672.454C93.7875 670.167 94.2728 667.668 96.6775 666.406L98.6484 665.291L96.5017 665.202C89.5272 665.067 86.9222 670.663 91.2764 676.494C92.8131 678.552 93.6738 678.978 97.3591 679.432C101.792 680.039 107.413 678.603 111.071 675.871C118.156 670.581 119.627 659.955 114.419 652.98C112.285 650.122 107.761 648.424 101.984 648.197C96.408 647.997 96.4814 647.854 105.086 643.388C125.741 632.773 141.336 632.703 146.006 643.196C148.107 647.949 145.487 653.645 140.394 655.667C137.284 656.832 134.784 656.027 132.522 652.997C130.473 650.253 130.765 648.343 133.837 645.069C135.25 643.57 136.017 643.264 137.571 643.528C139.168 643.85 139.482 644.149 139.456 645.326C139.391 646.087 138.645 647.268 137.715 647.962C136.554 648.829 136.318 649.361 136.978 649.759C139.556 651.395 142.33 647.721 141.647 643.779C141.152 641.299 140.939 641.013 139.028 640.392C134.345 638.724 126.573 642.124 122.716 647.497C120.933 650.075 120.08 656.322 120.995 660.091C123.685 671.082 140.6 676.171 148.301 668.195C149.277 667.199 150.742 664.68 151.627 662.595L153.134 658.798L153.501 661.107C154.371 666.512 160.339 670.87 168.729 672.174C174.011 672.949 178.291 671.534 182.885 667.391C189.02 661.92 192.189 651.629 191.099 640.6C190.598 635.81 190.528 635.595 185.875 629.364C181.35 623.304 181.036 623.004 176.516 620.948C163.629 615.077 143.105 618.115 119.836 629.346C100.52 638.605 89.3089 647.333 76.7226 662.697C70.9615 669.759 61.3879 683.586 58.2331 689.415C56.0911 693.329 55.9869 693.674 57.6555 692.517ZM124.042 631.103C128.386 628.927 137.771 625.748 142.694 624.832C155.66 622.452 166.227 626.671 168.523 635.197C170.126 640.856 167.149 646.196 161.687 647.603C157.512 648.673 154.445 646.867 151.971 641.858C147.986 633.614 141.02 631.069 125.946 632.442C123.71 632.597 121.85 632.65 121.765 632.536C121.68 632.421 122.709 631.741 124.042 631.103Z" fill="#99C6CE"/>
<path d="M216.013 882.181C219.826 885.834 226.316 889.802 231.774 891.782C239.659 894.71 246.517 894.931 263.385 892.932C282.403 890.662 287.497 889.975 286.835 889.935C286.532 889.894 282.181 889.76 277.109 889.629C265.64 889.289 249.65 886.893 243.072 884.503C235.66 881.845 232.442 879.352 227.133 872.363C223.078 866.932 222.612 865.945 221.843 861.888C220.86 856.211 221.605 853.696 226.535 847.7C231.274 841.935 237.368 837.741 242.567 836.708C244.473 836.353 245.991 835.843 246.022 835.642C246.095 835.498 242.584 834.914 238.337 834.435C228.374 833.326 223.838 834.398 216.753 839.688C207.768 846.309 204.058 854.422 205.742 863.582C207.139 871.266 210.043 876.488 216.013 882.181Z" fill="#99C6CE"/>
<path d="M142.24 779.75C148.896 786 158.116 790.958 167.922 793.431C190.393 799.178 207.129 786.949 211.408 761.671C213.702 748.026 211.684 735.998 205.751 728.052C194.012 712.331 164.942 697.263 138.09 692.916C126.692 691.098 115.17 691.777 109.334 694.621L107.003 695.738L112.203 696.04C133.968 697.329 155.325 703.643 171.501 713.557C179.411 718.336 189.553 726.346 194.189 731.343C200.051 737.74 204.546 751.39 204.07 761.897C203.767 770.939 197.465 783.212 191.452 786.545C178.627 793.717 150.372 785.432 143.405 772.469C139.98 765.944 141.79 753.106 147.26 744.926C150.636 740 155.716 736.386 159.451 736.179C163.863 735.911 169.337 737.79 173.746 740.909C182.448 747.233 184.835 753.821 180.976 760.888C176.986 768.141 168.064 769.638 163.71 763.807C162.045 761.578 161.864 759.398 162.697 752.276C163.181 748.442 163.111 748.227 162.089 749.524C159.884 752.506 157.542 757.728 157.05 760.945C156.662 763.817 156.872 764.461 158.556 766.232C161.539 769.258 167.171 771.107 171.285 770.439C179.672 769.074 187.425 758.743 187.212 749.374C187.16 747.366 186.511 745.891 184.376 743.033C175.583 731.256 159.467 726.995 150.06 734.02C138.04 742.996 132.046 763.677 138.251 774.893C138.888 776.109 140.712 778.309 142.24 779.75Z" fill="#99C6CE"/>
<path d="M262.205 921.149C263.32 920.583 264.164 919.775 264.125 919.359C264.128 919 263.145 919.379 262.041 920.202C259.486 922.11 259.568 922.583 262.205 921.149Z" fill="#99C6CE"/>
<path d="M259.006 879.194C263.524 882.944 270.444 885.79 276.633 886.69C282.333 887.42 283.646 887.24 296.592 883.985C304.191 882.05 310.621 880.365 310.854 880.192C311.086 880.018 308.265 879.632 304.607 879.336C300.949 879.04 292.454 878.081 285.646 877.199C274.791 875.866 272.663 875.318 267.557 872.719C253.589 865.52 249.769 859.556 253.84 851.441C254.972 849.082 256.122 847.957 259.385 845.787C263.737 842.893 263.903 842.146 259.782 843.532C253 845.835 247.784 854.717 248.761 862.446C249.242 866.361 249.736 867.506 253.035 872.166C255.068 875.011 257.718 878.196 259.006 879.194Z" fill="#99C6CE"/>
<path d="M-40.5614 461.419C-40.6364 460.228 -40.4226 457.486 -40.2003 455.361L-39.7593 451.47L-34.0685 447.221C-29.6553 443.925 -27.7425 442.853 -25.5343 442.54C-18.201 441.338 -7.69691 444.625 -2.02601 449.918C-0.2689 451.545 3.83604 456.315 6.99493 460.545L12.9166 468.234L9.88768 462.481C5.1616 453.366 -0.775463 445.779 -5.6149 442.447C-13.9055 436.795 -21.8772 435.446 -29.4139 438.314C-33.7825 439.973 -38.1412 443.584 -40.5154 447.672C-42.5805 451.084 -43.4453 457.072 -42.3065 460.051C-40.9851 463.516 -40.4848 463.944 -40.5614 461.419Z" fill="#99C6CE"/>
<path d="M-49.8858 446.388C-50.1855 438.598 -48.9795 436.095 -42.7815 431.556C-38.4844 428.347 -37.0942 427.665 -32.6317 426.737C-26.5229 425.47 -20.9659 426.129 -13.8021 429.06C-7.02603 431.836 -2.42577 436.059 6.86824 448.263L13.9698 457.653L9.46562 449.44C-1.27063 429.854 -10.3892 421.882 -24.379 419.862C-31.3739 418.852 -36.7348 420.273 -42.4836 424.566C-51.7746 431.504 -55.2117 441.193 -51.1925 448.877L-49.678 451.754L-49.8858 446.388Z" fill="#99C6CE"/>
<path d="M-29.3477 471.833C-29.627 464.919 -26.5713 460.411 -19.6664 457.303C-15.8596 455.618 -13.2707 456.178 -6.6638 460.06C0.559586 464.282 3.78692 467.393 10.7758 476.51L16.2279 483.57L13.2963 478.19C5.59586 463.638 -0.984965 455.552 -7.82761 452.202C-11.8014 450.272 -13.8746 450.04 -17.6745 451.007C-25.7661 453.131 -33.0731 463.574 -31.472 470.927C-30.3148 476.474 -29.1092 476.998 -29.3477 471.833Z" fill="#99C6CE"/>
<path d="M-16.0604 479.453C-14.6937 475.227 -9.2029 472.284 -4.2539 473.219C-3.24633 473.357 -0.935839 474.392 0.913558 475.416C3.709 476.979 4.73696 477.992 7.62089 482.339L11.0017 487.472L9.62221 484.05C6.33057 475.645 -0.832846 469.685 -7.03552 470.221C-11.2623 470.617 -16.0701 474.474 -16.9415 478.152C-17.8555 481.773 -17.0444 482.859 -16.0604 479.453Z" fill="#99C6CE"/>
<path d="M339.643 954.237C346.088 958.507 353.203 959.072 357.747 955.589L359.621 954.101L356.402 954.635C352.489 955.33 348.327 954.965 345.687 953.731C343.047 952.497 337.257 944.622 336.013 940.654C333.776 933.419 335.987 922.33 341.156 915.443C344.398 911.063 352.826 902.365 357.27 898.869C358.796 897.641 356.55 898.872 352.271 901.622C342.337 908.061 336.922 913.528 333.045 921.054C326.129 934.321 328.674 946.935 339.643 954.237Z" fill="#99C6CE"/>
<path d="M285.811 863.007C292.138 869.057 301.624 873.282 311.428 874.42C314.509 874.791 322.247 874.979 328.589 874.873L340.05 874.596L329.122 873.407C309.859 871.229 302.374 868.715 294.097 861.628C286.178 854.898 282.548 845.676 283.741 835.525C284.509 829.164 286.69 825.665 291.909 822.48C294.011 821.177 296.532 819.829 297.473 819.394C299.123 818.696 299.123 818.696 296.372 818.524C287.297 817.999 278.815 827.717 277.396 840.352C276.406 848.837 279.427 857 285.811 863.007Z" fill="#99C6CE"/>
<path d="M355.182 942.1C361.895 946.971 369.107 947.908 374.442 944.637L377.4 942.784L372.608 943.513C366.359 944.35 363.111 943.392 359.069 939.554C355.314 935.857 353.493 931.964 354 928.647C354.185 927.44 355.765 923.5 357.458 919.832C360.871 912.653 365.773 906.5 373.506 899.656C375.948 897.477 377.798 895.472 377.542 895.129C377.286 894.786 373.194 897.664 366.412 902.995C357.582 909.945 355.298 912.095 352.815 915.552C345.101 926.298 345.906 935.492 355.182 942.1Z" fill="#99C6CE"/>
<path d="M166.123 686.853C166.941 687.222 172.034 688.228 177.401 689.117C193.259 691.701 201.174 694.427 213.341 701.637C223.659 707.823 231.869 714.337 234.009 718.171C235.639 720.96 236.182 721.445 238.097 721.708C241.119 722.122 245.959 725.453 245.728 726.961C245.267 729.977 250.76 732.731 253.315 730.823C254.709 729.783 261.686 732.586 262.289 734.362C263.144 736.84 264.517 737.952 267.067 738.096C268.435 738.232 270.139 737.85 270.894 737.286C271.707 736.679 273.552 736.727 276.269 737.458C282.536 739.19 298.315 740.941 304.487 740.607C319.485 739.737 331.795 733.572 338.262 723.579C340.911 719.374 341.889 713.658 340.436 710.38C338.983 707.102 334.145 705.104 327.531 704.968C319.793 704.78 317.236 705.353 313.752 707.955C307.132 712.898 307.226 719.685 313.906 723.423C315.755 724.446 315.914 724.417 315.552 723.084C314.156 718.428 314.007 717.381 314.556 715.814C315.447 713.011 318.781 711.056 323.5 710.471C328.854 709.768 331.009 710.474 333.357 713.618C334.851 715.619 335.1 716.679 334.804 718.948C334.097 723.572 331.535 726.198 323.682 730.459C311.28 737.227 299.298 739.228 283.347 737.248C273.155 735.954 273.012 735.883 271.882 733.522C270.849 731.533 270.248 731.091 268.248 730.714C266.996 730.492 265.365 730.73 264.668 731.25C262.694 732.724 256.77 729.757 254.871 726.367C253.582 724.035 253.152 723.822 250.63 723.835C246.867 723.884 243.203 721.278 243.429 718.795C243.774 715.865 241.745 713.997 238.401 714C235.678 713.986 234.96 713.631 231.12 709.821C210.716 689.885 188.016 680.924 167.268 684.752C163.774 685.402 163.569 685.733 166.123 686.853Z" fill="#99C6CE"/>
<path d="M307.828 860.636C315.716 866.232 323.58 868.285 337.187 868.097C343.011 868.023 348.416 867.993 349.136 867.99C349.857 867.986 345.827 867.433 340.27 866.775C326.68 865.169 320.04 863.181 314.63 859.207C309.593 855.489 305.208 849.859 303.738 845.347C302.381 841.107 302.708 832.582 304.409 829.53C305.863 826.753 310.09 823.329 313.75 821.932C316.05 821.016 316.05 821.016 314.252 820.667C309.547 819.817 302.219 825.022 299.579 831.178C297.516 835.924 296.881 843.432 298.211 847.515C299.456 851.483 304.35 858.158 307.828 860.636Z" fill="#99C6CE"/>
<path d="M142.257 608.864C165.147 604.149 172.795 603.247 182.602 604.026C197.192 605.153 204.27 607.97 206.062 613.399C207.155 616.679 206.036 620.631 203.401 623.4C201.377 625.535 201.303 625.679 203.081 625.153C205.552 624.465 209.728 620.367 212.044 616.323C215.811 609.86 212.133 602.633 202.763 598.321C197.339 595.782 184.965 593.624 177.325 593.809C166.166 594.127 159.705 596.013 143.588 603.863C135.437 607.724 128.803 611.074 128.773 611.276C128.742 611.477 134.82 610.411 142.257 608.864Z" fill="#99C6CE"/>
<path d="M60.9028 516.992C60.2851 512.289 60.4035 507.482 61.5332 499.425C62.4903 492.834 62.6833 492.245 64.755 491.143C67.4346 489.765 68.2256 486.949 66.5181 484.662C65.0667 482.718 66.6503 478.419 69.33 477.041C71.3282 476.084 72.8894 472.603 71.9076 471.288C71.5661 470.831 72.0445 469.049 73.1001 467.192C74.6391 464.529 75.3086 463.851 77.2453 463.295C78.4886 462.901 80.0957 462.146 80.7344 461.669C81.9539 460.759 82.5741 457.713 81.7631 456.627C80.952 455.541 84.5592 452.135 93.676 445.327C100.977 439.964 103.355 438.545 108.056 436.726C118.718 432.594 132.492 431.659 138.574 434.596C142.506 436.469 143.655 438.371 143.174 441.847C142.593 445.308 139.671 447.935 134.206 449.701C127.381 451.947 122.416 449.779 122.107 444.399L122.027 442.233L120.485 445.255C116.047 454.089 122.788 460.453 133.681 457.84C138.592 456.665 146.936 450.881 148.64 447.471C151.505 441.859 148.071 434.717 140.756 431.098C132.824 427.137 121.595 427.24 111.192 431.357C104.667 434.004 93.7106 441.74 86.7404 448.636C81.3262 454.104 80.6874 454.581 78.1889 455.111C75.9073 455.568 75.2258 455.988 74.259 457.6C73.6288 458.694 73.3827 460.303 73.7634 461.176C74.7348 463.567 71.0404 468.552 67.5854 469.618C64.0725 470.727 62.665 473.203 63.9779 476.052C64.9528 478.084 63.933 480.715 60.3854 485.412C59.6698 486.392 59.1795 487.916 59.3006 488.805C59.4218 489.694 59.1823 493.612 58.7839 497.56C58.3856 501.509 58.4583 507.42 58.9737 510.775C60.0506 517.184 61.6843 522.642 60.9028 516.992Z" fill="#99C6CE"/>
<path d="M322.606 857.169C329.337 861.582 338.964 863.209 356.651 862.912L365.574 862.75L353.758 860.976C347.267 860.036 340.535 858.651 338.841 857.957C334.174 856.189 324.128 850.245 322.847 848.53C319.987 844.7 320.882 834.148 324.334 830.413C325.382 829.274 327.98 827.423 330.152 826.335L334.005 824.348L331.456 824.204C323.764 823.715 315.326 834.824 315.544 845.168C315.63 849.645 318.495 854.451 322.606 857.169Z" fill="#99C6CE"/>
<path d="M379.009 926.89C381.289 928.127 385.652 928.519 386.929 927.565C387.394 927.218 386.115 926.838 384.142 926.619C380.946 926.335 380.43 926.008 378.524 923.334C376.106 919.975 375.514 917.123 376.273 913.173C377.155 908.418 379.011 905.696 384.33 901.191C388.777 897.336 389.025 897.062 386.388 898.496C379.058 902.367 374.426 907.429 373.189 913.161C371.967 918.792 374.279 924.19 379.009 926.89Z" fill="#99C6CE"/>
<path d="M137.804 601.326C138.99 600.975 148.649 597.68 159.234 594.05C169.777 590.363 181.691 586.453 185.649 585.456C198.784 581.97 224.361 582.55 231.976 586.57C239.893 590.631 241.984 599.488 236.629 606.246C233.317 610.411 233.228 610.655 235.602 609.595C240.958 607.199 244.123 600.294 242.964 593.412C242.367 589.584 241.901 588.597 239.236 585.512C233.35 578.598 223.949 574.488 209.483 572.557C195.435 570.58 181.945 572.016 171.396 576.421C166.663 578.441 164.371 579.974 150.81 590.278C138.337 599.859 135.926 601.838 137.804 601.326Z" fill="#99C6CE"/>
<path d="M44.1276 468.97C44.1437 462.814 45.7226 454.511 47.5742 450.813C48.676 448.655 50.5295 443.264 51.652 438.953C54.2096 429.297 55.2106 427.125 58.4625 424.696C63.3403 421.054 68.5062 421.916 73.774 427.154C75.7873 429.123 76.2757 429.293 76.0845 428.189C75.8064 425.636 71.1943 421.155 67.632 419.897C60.7944 417.523 51.6098 419.395 46.8651 424.185C40.9863 429.999 37.6088 440.98 38.9638 449.941C39.991 457.01 44.1546 472.155 44.1276 468.97Z" fill="#99C6CE"/>
<path d="M-109.126 259.735C-99.9018 268.696 -81.2939 283.563 -77.5882 284.892C-75.7934 285.599 -73.0865 284.379 -73.8975 283.293C-74.111 283.007 -76.4453 281.456 -79.0819 279.863C-86.0884 275.567 -93.6583 269.911 -98.7008 265.217C-106.885 257.527 -123.834 233.497 -129.086 222.103C-131.98 215.805 -132.883 212.295 -133.647 204.851C-135.353 187.426 -128.426 173.082 -115.043 166.295C-112.364 164.917 -110.671 164.277 -111.225 164.868C-118.086 172.395 -119.674 175.719 -118.672 180.936C-118.056 184.305 -117.928 184.477 -114.608 186.984C-111.518 189.307 -110.196 189.744 -101.399 190.744C-92.3585 191.829 -91.4244 192.111 -89.1977 194.367C-87.1418 196.393 -86.2231 196.776 -84.0303 196.563C-74.465 195.564 -71.3797 186.493 -73.782 166.56L-74.357 161.914L-77.4343 161.185C-82.1511 160.077 -86.9478 156.802 -90.2775 152.343C-97.449 142.739 -95.1761 128.219 -85.3043 120.848C-78.8006 115.992 -68.933 115.034 -61.4431 118.524C-58.2293 120.042 -57.186 120.955 -53.8563 125.414C-50.6547 129.702 -49.9052 131.19 -49.3164 134.401C-47.0857 146.715 -55.0845 158.654 -67.0272 161.071C-69.6265 161.588 -71.9081 162.045 -72.1677 162.06C-72.4273 162.076 -72.038 163.566 -71.3347 165.356C-70.5886 167.203 -68.9618 173.379 -67.6184 179.054C-63.6736 195.965 -61.0031 200.026 -54.7509 198.83C-52.3685 198.387 -50.1345 196.897 -37.8085 187.604C-21.65 175.449 -21.0386 174.814 -22.1412 169.583C-23.2046 164.767 -26.9099 160.41 -34.7121 154.928C-36.3292 153.731 -37.586 152.533 -37.5245 152.131C-37.463 151.729 -34.2661 152.013 -30.4527 152.638C-18.2954 154.868 -12.7584 151.624 -14.3491 143.195C-14.7895 141.031 -15.7267 138.08 -16.4336 136.649C-18.4141 132.785 -18.373 131.508 -16.3506 128.039C-14.1233 124.239 -13.9625 122.516 -15.7981 120.058C-19.1704 115.541 -22.0378 115.456 -34.8584 119.242C-39.3398 120.629 -43.225 121.482 -43.3804 121.153C-44.1607 119.866 -41.0042 115.372 -34.9632 109.169C-31.5848 105.578 -28.2611 101.671 -27.6735 100.52C-26.4094 97.9736 -26.4091 94.9459 -27.6897 93.2309C-29.3545 91.0014 -35.4611 87.5474 -38.0108 87.4032C-40.4017 87.2296 -44.4762 85.2857 -50.5059 81.329C-58.7845 75.9352 -62.6598 78.7399 -64.9189 91.8243C-65.3461 94.2803 -66.6874 100.357 -67.8748 105.429L-70.0106 114.682L-71.5081 113.039C-73.3625 111.041 -73.989 108.748 -75.2209 98.9827C-77.0313 84.9301 -81.0543 80.6326 -91.5845 81.5503C-99.6623 82.2395 -101.661 83.1974 -110.552 90.5491C-118.398 97.1203 -118.762 97.481 -119.162 100.095C-119.473 102.464 -119.236 103.266 -116.985 106.038C-115.576 107.925 -111.403 111.575 -107.009 114.795C-102.903 117.872 -98.3415 121.679 -96.8867 123.264L-94.3066 126.235L-96.6513 125.759C-97.9457 125.479 -102.912 123.311 -107.731 120.854C-121.257 114.125 -125.965 113.634 -132.264 118.159C-137.823 122.222 -137.96 124.461 -133.021 136.889C-132.007 139.338 -131.534 142.636 -131.654 146.109C-131.829 152.294 -130.795 158.645 -129.216 160.761C-127.593 162.933 -123.469 164.217 -120.134 163.596C-118.286 163.285 -113.19 160.904 -107.176 157.571C-101.728 154.571 -96.5125 151.745 -95.5287 151.367L-93.8209 150.626L-95.2641 152.327C-96.0806 153.293 -99.1617 155.95 -102.197 158.305C-106.741 161.788 -108.422 162.686 -111.513 163.392C-116.15 164.45 -124.838 170.136 -128.932 174.707C-136.698 183.444 -140.136 196.162 -137.917 208.218C-134.949 224.79 -122.819 246.363 -109.126 259.735Z" fill="#99C6CE"/>
<path d="M142.244 593.826C144.086 592.539 154.751 580.657 157.002 577.374C162.135 569.712 163.985 561.652 162.431 553.998C159.797 541.629 142.852 533.713 133.677 540.564C130.947 542.602 131.762 543.329 135.22 541.905C141.413 539.417 146.316 540.654 149.987 545.57C152.463 548.886 152.483 552.789 150.1 562.315C149.081 566.281 148.23 570.835 148.244 572.427C148.258 578.382 147.059 583.196 144.369 588.677C142.826 591.699 141.853 594.029 142.244 593.826Z" fill="#99C6CE"/>
<path d="M34.2751 442.935C34.498 434.755 35.8308 428.061 38.1658 423.557C39.4879 420.967 41.3107 415.777 42.1974 411.998C45.3788 398.938 47.7376 394.95 53.3 393.557C58.7616 392.15 62.095 393.223 66.8199 397.976L69.7176 400.887L69.1338 398.652C67.9697 393.822 61.6685 389.623 54.7128 389.029C48.4778 388.432 44.2288 389.646 39.1187 393.461C35.3442 396.28 34.3536 397.376 32.297 401.405C26.5986 412.427 26.743 419.888 33.1121 442.468L34.1432 446.15L34.2751 442.935Z" fill="#99C6CE"/>
<path d="M344.884 853.089C348.49 855.739 355.583 857.121 361.572 856.3C364.14 855.984 366.147 855.643 366.062 855.529C366.019 855.472 363.268 855.3 359.997 855.16C350.012 854.869 343.226 850.142 342.001 842.687C341.376 838.701 342.206 836.3 345.11 834.132C346.794 832.875 347.072 832.4 346.135 832.477C341.447 832.861 338.208 839.909 339.746 846.329C340.622 849.683 341.219 850.483 344.884 853.089Z" fill="#99C6CE"/>
<path d="M25.2165 416.754C25.3327 416.667 25.2953 414.558 25.2341 411.932C25.0521 405.39 26.5695 397.489 29.0053 392.999C30.0917 390.941 32.0033 385.507 33.2146 380.952C35.8918 370.85 37.5692 367.282 40.8211 364.854C46.3957 360.691 52.0073 361.666 57.6559 367.777C60.651 371.061 60.7517 371.075 60.1679 368.839C57.925 359.295 42.6853 355.359 31.7156 361.502C23.2668 366.297 18.0703 379.082 19.1704 392.062C19.4604 394.873 24.8681 417.014 25.2165 416.754Z" fill="#99C6CE"/>
<path d="M15.9632 392.854C14.7498 385.658 14.9912 380.046 16.7251 375.1C17.3777 373.188 18.1383 367.545 18.4309 362.607C18.9956 351.856 20.4665 347.285 24.1249 344.554C29.2349 340.738 34.1482 340.898 39.8721 345.172C43.1491 347.622 43.1491 347.622 42.3757 345.618C40.3508 340.362 32.6525 337.563 24.3509 339.042C19.5435 339.872 18.3275 340.423 14.6691 343.155C9.42753 347.158 6.58182 352.311 5.45553 360.008C4.26427 368.466 5.93533 376.034 11.7694 388.328C14.4261 393.824 16.6866 398.547 16.8147 398.719C16.9427 398.89 16.5793 396.223 15.9632 392.854Z" fill="#99C6CE"/>
<path d="M-26.4229 325.311C-29.1002 305.494 -28.9627 297.2 -26.0293 287.44C-21.1621 271.429 -12.9483 261.111 -0.877207 255.837C5.85344 252.859 9.93832 253.727 15.5785 259.221L18.4489 261.975L17.7866 258.908C15.9056 250.695 6.80016 247.344 -4.28878 250.905C-9.47886 252.554 -17.6358 258.467 -21.1834 263.164C-29.1257 273.725 -33.2772 288.757 -32.4387 303.446C-32.2086 307.993 -26.359 333.633 -25.2918 335.062C-25.1637 335.234 -25.626 330.86 -26.4229 325.311Z" fill="#99C6CE"/>
<path d="M-8.17417 344.541C-9.75572 330.674 -9.63545 324.173 -7.46894 314.719C-5.07517 304.116 -4.32529 302.577 0.320224 299.108C8.26029 293.268 14.0992 293.093 19.3517 298.432C21.8072 300.872 21.8925 300.986 21.6656 299.108C21.2902 296.183 18.5121 292.826 15.2248 291.451C6.88615 287.794 -6.33094 293.835 -10.7756 303.387C-13.1449 308.45 -14.4249 317.153 -13.8349 324.726C-13.4495 329.603 -8.24172 353.05 -7.21722 354.422C-7.08915 354.594 -7.4934 350.177 -8.17417 344.541Z" fill="#99C6CE"/>
<path d="M-17.282 332.465C-19.867 312.045 -18.7542 302.755 -12.1813 290.724C-7.45669 282.031 2.12815 274.518 9.34184 273.762C12.2707 273.445 15.9149 275.176 17.9212 277.862C19.8848 280.492 20.9301 279.712 19.764 276.575C16.2693 266.808 0.593621 267.739 -9.85567 278.213C-11.9377 280.391 -14.4519 284.049 -16.64 288.265C-19.4738 293.676 -20.3656 296.479 -21.3808 303.114C-22.0729 307.638 -22.4032 313.494 -22.1405 316.147C-21.7328 320.206 -17.1804 339.869 -16.412 340.898C-16.2839 341.069 -16.6797 337.269 -17.282 332.465Z" fill="#99C6CE"/>
<path d="M167.77 574.23C177.908 569.154 188.532 565.939 199.701 564.545C205.257 563.869 212.602 562.926 216.007 562.52C224.767 561.411 228.438 560.272 228.859 558.533C229.025 557.786 228.62 556.396 227.894 555.425C222.814 548.622 203.611 547.735 189.444 553.594C185.161 555.368 184.464 555.888 173.236 566.409L161.485 577.321L167.77 574.23Z" fill="#99C6CE"/>
<path d="M-1.17579 345.192C-3.21532 333.982 -0.444268 324.611 6.46594 319.451C10.1823 316.676 12.7082 316.304 15.934 318.08L18.0122 319.288L16.5335 317.187C14.7406 314.786 11.9929 314.255 7.85647 315.741C1.70998 317.927 -3.2912 325.401 -4.01791 333.512C-4.61121 339.743 -4.10085 342.123 -0.452333 350.885C-0.156974 351.644 -0.477742 349.034 -1.17579 345.192Z" fill="#99C6CE"/>
</svg>
