<svg width="107" height="210" viewBox="0 0 107 210" fill="none" xmlns="http://www.w3.org/2000/svg">
<path d="M76.5077 145.087C86.056 149.527 99.8809 153.346 113.476 155.288C122.243 156.497 144.131 158.247 144.034 157.706C144.008 157.593 140.946 156.927 137.227 156.246C122.408 153.508 114.484 151.076 105.475 146.532C93.271 140.372 84.9471 132.143 80.1869 121.506C79.3703 119.655 77.0269 113.539 75.0257 107.873C70.8279 96.0837 68.038 90.8528 64.8412 88.4632C63.3013 87.3283 62.7525 87.1375 61.2849 87.2056C58.7339 87.3353 57.1656 88.5006 55.1455 91.8037C54.2 93.3498 53.0882 95.7116 52.6212 97.0193C52.1888 98.3481 51.76 99.4378 51.6479 99.4658C51.5357 99.4937 50.4109 98.6127 49.0869 97.5133C42.5529 91.8757 35.8932 90.7962 30.0405 94.4591L28.7647 95.2239L30.1139 96.049C32.0857 97.2549 35.6792 101.094 37.3617 103.861C38.2071 105.199 39.6962 108.283 40.6999 110.683C42.9029 115.941 44.404 118.694 46.8952 122.004C49.4819 125.469 54.75 130.767 58.9987 134.234C62.9445 137.42 71.6882 142.864 76.5077 145.087ZM59.8374 125.091C54.3077 120.454 50.3295 114.834 49.1251 110.042C48.4054 107.332 48.6659 106.285 50.4538 104.916C50.9276 104.529 51.9026 104.257 52.6626 104.335L53.9881 104.422L52.977 105.686C51.5959 107.401 51.359 109.187 52.1693 111.903C53.0189 114.789 55.1867 118.239 58.3997 121.846C60.6037 124.304 61.6248 125.122 66.4034 128.189C70.8921 131.031 71.5709 131.398 70.2076 130.129C62.1065 122.857 56.8457 113.894 58.7798 110.732C59.5535 109.467 60.803 108.589 62.0201 108.465C63.4961 108.305 63.5663 108.734 62.474 110.287C60.1772 113.421 61.7716 118.742 66.8688 124.708C71.8623 130.61 79.6338 135.701 85.543 136.997C87.193 137.331 87.2276 137.352 86.2658 137.681C84.73 138.094 81.559 137.216 77.4565 135.142C75.4118 134.133 73.1643 133.145 72.5033 132.982C70.5897 132.536 63.2774 128.015 59.8374 125.091Z" fill="#99C6CE"/>
<path d="M114.258 144.372C121.018 147.154 133.975 151.071 136.211 150.99C137.307 150.984 138.478 149.769 137.821 149.367C137.648 149.262 136.089 148.936 134.361 148.652C129.757 147.864 124.569 146.477 120.917 145.064C114.975 142.734 100.959 133.631 95.7822 128.727C92.9257 126.014 91.7081 124.352 89.7337 120.586C85.1553 111.75 85.7828 102.719 91.4122 96.3125C92.5354 95.0199 93.2933 94.3247 93.1261 94.7535C91.0945 100.174 90.9577 102.263 92.5877 104.805C93.624 106.453 93.7278 106.516 96.0088 107.139C98.13 107.712 98.9199 107.664 103.773 106.335C108.773 104.999 109.325 104.95 110.976 105.67C112.489 106.306 113.055 106.314 114.167 105.739C119.004 103.193 118.717 97.7545 113.242 87.7431L111.958 85.4127L110.18 85.6773C107.457 86.0881 104.234 85.3727 101.536 83.7224C95.7244 80.1681 93.8591 72.0264 97.5124 66.0528C99.9193 62.1173 104.924 59.5293 109.613 59.7898C111.63 59.9125 112.373 60.1739 115.071 61.8241C117.666 63.4108 118.376 64.038 119.364 65.6082C123.14 71.6355 121.44 79.624 115.648 83.4206C114.385 84.2417 113.277 84.9646 113.144 85.0277C113.01 85.0908 113.53 85.795 114.279 86.5911C115.063 87.4083 117.225 90.3238 119.132 93.035C124.783 101.126 127.049 102.706 130.096 100.755C131.26 100.018 132.124 98.76 136.667 91.2543C142.628 81.4293 142.817 80.9654 141.131 78.4374C139.553 76.1206 136.678 74.6038 131.404 73.3576C130.298 73.0675 129.381 72.7003 129.329 72.4751C129.277 72.2499 131.024 71.725 133.168 71.25C140.054 69.8608 142.291 66.9801 139.673 62.868C138.983 61.8188 137.866 60.4594 137.191 59.8534C135.33 58.2326 135.082 57.5499 135.417 55.2924C135.79 52.8169 135.511 51.8738 134.024 50.9641C131.291 49.2927 129.76 49.8531 123.794 54.5569C121.722 56.235 119.852 57.5053 119.7 57.3644C119.017 56.8498 119.734 53.8121 121.612 49.2637C122.637 46.6555 123.566 43.8924 123.633 43.1609C123.763 41.5503 123.124 39.9525 122.086 39.3178C120.737 38.4926 116.785 37.959 115.41 38.4211C114.111 38.8341 111.551 38.6684 107.534 37.8532C102.027 36.7544 100.574 39.0524 102.143 46.4339C102.436 47.8202 103.011 51.3101 103.455 54.2371L104.281 59.5705L103.144 59.0201C101.744 58.3567 100.929 57.2791 98.218 52.386C94.2964 45.3526 91.2663 43.934 85.9033 46.641C81.7861 48.7098 80.9338 49.637 77.7936 55.3934C75.0402 60.5172 74.9244 60.7844 75.2651 62.248C75.601 63.564 75.8956 63.9373 77.6683 64.9248C78.8098 65.623 81.7828 66.6687 84.7809 67.4401C87.5976 68.1971 90.808 69.2431 91.9103 69.7724L93.8989 70.7955L92.5613 71.0396C91.8191 71.1651 88.7408 71.0689 85.6793 70.7898C77.121 70.0943 74.5328 70.8289 72.1641 74.5464C70.088 77.8635 70.4884 79.074 75.7183 84.59C76.7702 85.6679 77.7158 87.3084 78.3856 89.1665C79.599 92.4675 81.4854 95.6008 82.7653 96.3836C84.0799 97.1875 86.5271 96.9943 88.1562 95.9628C89.0656 95.4085 91.2523 93.0764 93.7221 90.0484C95.9639 87.3155 98.1197 84.7231 98.559 84.3158L99.3038 83.5642L98.9012 84.7665C98.6743 85.4485 97.6092 87.5009 96.5048 89.3844C94.8417 92.1816 94.1446 93.0105 92.6623 94.0353C90.4388 95.5724 87.0544 100.407 85.8588 103.683C83.6049 109.933 84.4755 117.37 88.1911 123.263C93.2553 131.382 104.21 140.206 114.258 144.372Z" fill="#99C6CE"/>
</svg>
