<svg width="365" height="262" viewBox="0 0 365 262" fill="none" xmlns="http://www.w3.org/2000/svg">
<g clip-path="url(#clip0_9_5343)">
<path d="M44.1708 204.931C36.3302 205.951 25.3728 197.411 25.3728 197.411C25.3728 197.411 -1.54128 184.848 -4.70398 168.275C-6.72871 157.664 4.0984 151.01 -0.00448608 141.018C-2.37875 135.235 -9.68475 135.015 -10.3434 128.799C-11.0009 122.594 -4.58201 120.688 -2.82418 114.7C0.181587 104.463 -7.0061 97.8618 -4.70398 87.4433C-2.00088 75.2101 3.56693 69.2517 12.2142 60.1862C19.4601 52.5899 28.7892 37.5474 37.591 43.269C56.3885 55.4882 37.4455 61.7673 44.1708 70.5251C47.3323 74.6422 51.2963 75.2575 53.5697 79.9241C56.6241 86.1937 50.09 91.7383 53.5697 97.7822C55.3828 100.931 60.149 96.8423 60.149 104.361C60.149 111.881 58.2877 119.439 60.149 128.799C61.1227 133.695 67.668 135.378 65.7878 143.837C63.9075 152.297 56.5956 153.105 56.3894 161.695C56.1971 169.71 62.7984 173.454 62.0288 181.433C60.9224 192.906 55.6002 203.444 44.1708 204.931Z" fill="#E7BF7F"/>
<path d="M40.7476 165.203C35.4215 172.722 24.7693 188.136 24.7693 189.64C24.7693 191.144 19.4229 193.693 15.3704 194.339C6.22204 195.799 1.31721 188.496 -4.36751 181.181C-11.3607 172.182 -13.6756 164.239 -11.8867 152.984C-10.7518 145.843 -1.77205 142.814 -4.36751 136.066C-5.85825 132.19 -13.1399 132.933 -11.8867 128.547C-10.6335 124.16 -7.80873 120.756 -6.24731 115.388C-2.65937 103.052 -5.62071 93.457 -6.24731 82.4915C-6.87391 71.526 3.34693 73.9171 5.97137 66.5132C7.46326 62.3044 15.3698 54.2186 17.2502 55.1585C19.1305 56.0984 17.0307 64.536 20.0702 69.257C23.221 74.1509 27.5894 73.0166 32.2885 77.792C36.9877 82.5674 38.5545 104.422 41.6875 117.268C44.8205 130.113 54.7499 129.627 54.8461 139.825C54.9738 153.361 18.8081 164.914 32.2885 166.142C35.5986 166.444 46.0737 157.683 40.7476 165.203Z" fill="#D28E43"/>
<path d="M25.7096 175.466C23.9686 177.207 21.0101 178.286 21.0101 178.286V176.406C21.0101 176.406 23.3168 175.647 24.7697 174.526C26.6305 173.09 29.4692 167.947 29.4692 167.947C29.4692 167.947 27.4507 173.725 25.7096 175.466Z" fill="#5C3B34"/>
<path d="M21.0101 123.771L16.3106 253.477H21.95L21.3983 177.346L21.3847 175.466L21.0101 123.771Z" fill="#5C3B34"/>
<path d="M210.034 193.065C216.988 193.969 226.707 186.395 226.707 186.395C226.707 186.395 250.579 175.252 253.384 160.552C255.18 151.141 245.577 145.238 249.216 136.375C251.322 131.247 257.802 131.051 258.386 125.538C258.97 120.034 253.276 118.343 251.717 113.033C249.051 103.952 255.426 98.0972 253.384 88.8562C250.987 78.0057 246.048 72.7207 238.378 64.6799C231.951 57.9421 223.677 44.5997 215.87 49.6746C199.197 60.5128 215.999 66.0822 210.034 73.8502C207.229 77.5019 203.714 78.0477 201.697 82.1869C198.988 87.7479 204.783 92.6659 201.697 98.0266C200.089 100.82 195.861 97.1929 195.861 103.862C195.861 110.532 197.512 117.235 195.861 125.538C194.998 129.881 189.192 131.373 190.86 138.877C192.528 146.38 199.013 147.097 199.196 154.716C199.367 161.825 193.511 165.145 194.194 172.223C195.175 182.399 199.896 191.746 210.034 193.065Z" fill="#E7BF7F"/>
<path d="M213.07 157.827C217.794 164.496 227.242 178.168 227.242 179.502C227.242 180.836 231.985 183.097 235.579 183.671C243.693 184.965 248.044 178.487 253.086 171.999C259.289 164.018 261.342 156.972 259.755 146.989C258.749 140.656 250.784 137.969 253.086 131.983C254.408 128.545 260.867 129.204 259.755 125.314C258.644 121.423 256.138 118.404 254.753 113.642C251.571 102.701 254.198 94.1902 254.753 84.4641C255.309 74.7379 246.244 76.8588 243.916 70.2917C242.592 66.5586 235.58 59.3867 233.912 60.2203C232.244 61.054 234.106 68.5379 231.41 72.7254C228.616 77.0661 224.741 76.06 220.573 80.2957C216.405 84.5314 215.015 103.916 212.236 115.31C209.457 126.703 200.65 126.272 200.565 135.318C200.452 147.324 232.53 157.571 220.573 158.661C217.637 158.928 208.346 151.158 213.07 157.827Z" fill="#D28E43"/>
<path d="M226.408 166.93C227.953 168.474 230.577 169.431 230.577 169.431V167.764C230.577 167.764 228.531 167.091 227.242 166.096C225.592 164.823 223.074 160.261 223.074 160.261C223.074 160.261 224.864 165.386 226.408 166.93Z" fill="#5C3B34"/>
<path d="M230.577 121.078L234.745 236.125H229.743L230.233 168.597L230.245 166.93L230.577 121.078Z" fill="#5C3B34"/>
<path d="M292.655 200.622C299.609 201.527 309.328 193.953 309.328 193.953C309.328 193.953 333.2 182.809 336.006 168.109C337.801 158.698 328.198 152.795 331.837 143.932C333.943 138.804 340.423 138.608 341.008 133.095C341.591 127.591 335.897 125.9 334.338 120.59C331.672 111.509 338.047 105.654 336.006 96.4134C333.608 85.5628 328.669 80.2779 321 72.237C314.573 65.4992 306.298 52.1568 298.491 57.2317C281.818 68.0699 298.62 73.6394 292.655 81.4073C289.851 85.0591 286.335 85.6049 284.318 89.744C281.609 95.305 287.405 100.223 284.318 105.584C282.71 108.377 278.482 104.75 278.482 111.419C278.482 118.089 280.133 124.793 278.482 133.095C277.619 137.438 271.813 138.93 273.481 146.434C275.149 153.937 281.634 154.654 281.817 162.273C281.988 169.382 276.132 172.703 276.815 179.78C277.796 189.956 282.517 199.303 292.655 200.622Z" fill="#E7BF7F"/>
<path d="M295.691 165.384C300.415 172.053 309.863 185.726 309.863 187.059C309.863 188.393 314.606 190.654 318.2 191.228C326.315 192.522 330.665 186.044 335.707 179.556C341.91 171.575 343.963 164.529 342.377 154.546C341.37 148.213 333.405 145.526 335.707 139.54C337.029 136.102 343.488 136.761 342.377 132.871C341.265 128.981 338.76 125.961 337.375 121.2C334.192 110.258 336.819 101.747 337.375 92.0212C337.93 82.2951 328.865 84.4159 326.537 77.8488C325.214 74.1157 318.201 66.9438 316.533 67.7775C314.865 68.6111 316.727 76.095 314.032 80.2825C311.237 84.6233 307.362 83.6172 303.194 87.8529C299.026 92.0885 297.636 111.473 294.857 122.867C292.079 134.26 283.271 133.83 283.186 142.875C283.073 154.881 315.151 165.128 303.194 166.218C300.258 166.485 290.967 158.715 295.691 165.384Z" fill="#D28E43"/>
<path d="M309.029 174.487C310.574 176.032 313.198 176.988 313.198 176.988V175.321C313.198 175.321 311.152 174.648 309.863 173.654C308.213 172.38 305.695 167.818 305.695 167.818C305.695 167.818 307.485 172.943 309.029 174.487Z" fill="#5C3B34"/>
<path d="M313.198 128.635L317.366 243.682H312.364L312.854 176.155L312.866 174.487L313.198 128.635Z" fill="#5C3B34"/>
<path d="M362.527 218.614C355.573 219.519 345.853 211.945 345.853 211.945C345.853 211.945 321.981 200.801 319.176 186.101C317.38 176.69 326.984 170.787 323.344 161.924C321.239 156.796 314.758 156.6 314.174 151.087C313.591 145.583 319.284 143.892 320.843 138.582C323.509 129.501 317.134 123.646 319.176 114.405C321.574 103.555 326.512 98.2698 334.182 90.2289C340.609 83.4911 348.884 70.1488 356.691 75.2237C373.364 86.0618 356.562 91.6313 362.527 99.3993C365.331 103.051 368.847 103.597 370.864 107.736C373.573 113.297 367.777 118.215 370.864 123.576C372.472 126.369 376.699 122.742 376.699 129.411C376.699 136.081 375.048 142.785 376.699 151.087C377.563 155.43 383.368 156.922 381.701 164.426C380.033 171.929 373.547 172.646 373.365 180.265C373.194 187.374 379.049 190.694 378.367 197.772C377.385 207.948 372.664 217.295 362.527 218.614Z" fill="#E7BF7F"/>
<path d="M359.491 183.376C354.766 190.045 345.318 203.717 345.318 205.051C345.318 206.385 340.576 208.646 336.981 209.22C328.867 210.514 324.517 204.036 319.474 197.548C313.272 189.567 311.218 182.521 312.805 172.538C313.812 166.205 321.777 163.518 319.474 157.532C318.152 154.094 311.694 154.753 312.805 150.863C313.917 146.972 316.422 143.953 317.807 139.192C320.99 128.25 318.363 119.739 317.807 110.013C317.251 100.287 326.317 102.408 328.645 95.8408C329.968 92.1077 336.981 84.9357 338.649 85.7694C340.317 86.6031 338.454 94.087 341.15 98.2744C343.945 102.615 347.819 101.609 351.987 105.845C356.156 110.08 357.545 129.465 360.324 140.859C363.103 152.252 371.91 151.821 371.996 160.867C372.109 172.873 340.031 183.12 351.987 184.21C354.923 184.477 364.215 176.707 359.491 183.376Z" fill="#D28E43"/>
<path d="M346.152 192.479C344.608 194.023 341.984 194.98 341.984 194.98V193.313C341.984 193.313 344.03 192.64 345.318 191.645C346.969 190.372 349.487 185.81 349.487 185.81C349.487 185.81 347.696 190.935 346.152 192.479Z" fill="#5C3B34"/>
<path d="M341.984 146.627L337.815 261.674H342.817L342.328 194.147L342.316 192.479L341.984 146.627Z" fill="#5C3B34"/>
<path d="M252.726 125.46L259.382 102.762L263.376 113.138L264.707 117.678C265.151 118.975 266.171 121.698 266.704 122.217C267.236 122.736 267.369 125.892 267.369 127.405C267.591 129.351 268.035 133.501 268.035 134.539C268.035 135.836 268.7 137.782 269.366 138.43C269.899 138.949 270.475 140.808 270.697 141.673L269.366 145.564C270.032 147.509 271.363 151.53 271.363 152.049C271.363 152.568 270.919 154.859 270.697 155.94L273.36 158.534L274.025 162.425L270.032 163.074L273.36 165.668L278.685 170.207L276.022 168.91H272.028C272.472 169.559 273.493 170.856 274.025 170.856C274.691 170.856 275.357 174.098 276.688 175.395C277.753 176.433 276.244 176.692 275.357 176.692L272.694 175.395V177.989L274.691 181.232C275.135 182.097 276.155 183.956 276.688 184.475C277.22 184.993 279.572 186.42 280.681 187.069L281.347 188.366H278.019C277.487 188.366 275.578 187.069 274.691 186.42L275.357 190.96L278.019 194.202L282.678 198.742H280.681L275.357 196.796L276.022 201.336L280.016 204.579L283.344 209.118L276.688 207.821L290 217.549H286.672L278.685 216.252L272.694 233.762L243.407 231.168L244.073 223.385C241.632 223.818 236.618 224.683 236.085 224.683C235.553 224.683 237.639 222.088 238.748 220.791C240.301 218.846 243.54 214.825 244.073 214.306C244.605 213.787 245.182 208.47 245.404 205.876H236.085L243.407 201.336L247.401 194.851H244.073L236.751 193.554L247.401 181.881L242.076 182.529L249.398 174.098L245.404 172.801L248.066 168.91H246.07L248.066 163.722H242.076L246.735 159.831H242.076L246.735 151.4H243.407L245.404 148.806L248.066 146.861H242.076C242.742 145.78 244.872 142.84 248.066 139.727C250.196 138.689 248.954 137.133 248.066 136.484H245.404L252.726 131.296H249.398L252.726 128.054H249.398L252.726 125.46Z" fill="#63714C"/>
<path d="M291.558 161.475L297.351 142.762L300.827 151.316L301.986 155.059C302.372 156.128 303.26 158.374 303.724 158.801C304.187 159.229 304.303 161.831 304.303 163.079C304.496 164.683 304.882 168.104 304.882 168.96C304.882 170.029 305.461 171.633 306.041 172.168C306.504 172.595 307.006 174.128 307.199 174.841L306.041 178.049C306.62 179.653 307.779 182.968 307.779 183.395C307.779 183.823 307.393 185.712 307.199 186.603L309.517 188.742L310.096 191.95L306.62 192.484L309.517 194.623L314.151 198.366L311.834 197.296H308.358C308.744 197.831 309.633 198.9 310.096 198.9C310.675 198.9 311.255 201.574 312.413 202.643C313.34 203.498 312.027 203.712 311.255 203.712L308.937 202.643V204.782L310.675 207.455C311.062 208.168 311.95 209.7 312.413 210.128C312.877 210.556 314.924 211.732 315.889 212.267L316.469 213.336H313.572C313.109 213.336 311.448 212.267 310.675 211.732L311.255 215.475L313.572 218.148L317.627 221.89H315.889L311.255 220.286L311.834 224.029L315.31 226.702L318.207 230.445L312.413 229.376L324 237.395H321.103L314.151 236.326L308.937 250.762L283.447 248.623L284.026 242.207C281.902 242.564 277.538 243.277 277.074 243.277C276.611 243.277 278.426 241.138 279.392 240.069C280.743 238.465 283.563 235.15 284.026 234.722C284.49 234.294 284.992 229.91 285.185 227.772H277.074L283.447 224.029L286.923 218.683H284.026L277.654 217.613L286.923 207.989L282.288 208.524L288.661 201.574L285.185 200.504L287.502 197.296H285.764L287.502 193.019H282.288L286.344 189.811H282.288L286.344 182.861H283.447L285.185 180.722L287.502 179.118H282.288C282.868 178.227 284.722 175.803 287.502 173.237C289.356 172.382 288.275 171.098 287.502 170.564H285.185L291.558 166.286H288.661L291.558 163.613H288.661L291.558 161.475Z" fill="#7A8B5E"/>
<path d="M131.682 112.697L140.31 83.7617L145.487 96.9894L147.212 102.777C147.788 104.43 149.111 107.902 149.801 108.564C150.491 109.225 150.664 113.249 150.664 115.178C150.951 117.658 151.527 122.949 151.527 124.272C151.527 125.925 152.389 128.405 153.252 129.232C153.943 129.893 154.69 132.263 154.978 133.366L153.252 138.326C154.115 140.806 155.841 145.932 155.841 146.593C155.841 147.255 155.266 150.176 154.978 151.554L158.429 154.861L159.292 159.821L154.115 160.648L158.429 163.955L165.332 169.742L161.881 168.088H156.704C157.279 168.915 158.602 170.569 159.292 170.569C160.155 170.569 161.018 174.702 162.743 176.356C164.124 177.679 162.168 178.009 161.018 178.009L157.566 176.356V179.663L160.155 183.796C160.73 184.899 162.053 187.269 162.743 187.93C163.434 188.591 166.482 190.41 167.92 191.237L168.783 192.89H164.469C163.779 192.89 161.305 191.237 160.155 190.41L161.018 196.197L164.469 200.331L170.509 206.118H167.92L161.018 203.638L161.881 209.425L167.058 213.559L171.372 219.346L162.743 217.692L180 230.093H175.686L165.332 228.44L157.566 250.762L119.602 247.455L120.465 237.534C117.301 238.085 110.801 239.187 110.111 239.187C109.421 239.187 112.124 235.881 113.562 234.227C115.575 231.747 119.774 226.621 120.465 225.96C121.155 225.298 121.903 218.519 122.19 215.212H110.111L119.602 209.425L124.779 201.158H120.465L110.974 199.504L124.779 184.623L117.876 185.45L127.367 174.702L122.19 173.049L125.642 168.088H123.053L125.642 161.475H117.876L123.916 156.514H117.876L123.916 145.767H119.602L122.19 142.46L125.642 139.98H117.876C118.739 138.602 121.5 134.854 125.642 130.885C128.403 129.563 126.792 127.579 125.642 126.752H122.19L131.682 120.138H127.367L131.682 116.004H127.367L131.682 112.697Z" fill="#7A8B5E"/>
<path d="M69.8231 110.484L77.7118 82.7617L82.4451 95.435L84.0228 100.98C84.5488 102.564 85.7584 105.89 86.3895 106.524C87.0205 107.158 87.1783 111.013 87.1783 112.861C87.4413 115.237 87.9672 120.306 87.9672 121.574C87.9672 123.158 88.7561 125.534 89.5449 126.326C90.176 126.96 90.8597 129.23 91.1227 130.286L89.5449 135.039C90.3338 137.415 91.9116 142.326 91.9116 142.96C91.9116 143.593 91.3856 146.392 91.1227 147.712L94.2782 150.881L95.0671 155.633L90.3338 156.425L94.2782 159.593L100.589 165.138L97.4337 163.554H92.7004C93.2263 164.346 94.436 165.93 95.0671 165.93C95.8559 165.93 96.6448 169.89 98.2225 171.475C99.4847 172.742 97.6966 173.059 96.6448 173.059L93.4893 171.475V174.643L95.8559 178.603C96.3818 179.659 97.5914 181.93 98.2225 182.564C98.8536 183.197 101.641 184.94 102.956 185.732L103.745 187.316H99.8003C99.1692 187.316 96.9078 185.732 95.8559 184.94L96.6448 190.484L99.8003 194.445L105.322 199.989H102.956L96.6448 197.613L97.4337 203.158L102.167 207.118L106.111 212.663L98.2225 211.079L114 222.96H110.056L100.589 221.376L93.4893 242.762L58.7789 239.593L59.5678 230.088C56.6752 230.617 50.7324 231.673 50.1013 231.673C49.4702 231.673 51.942 228.504 53.2568 226.92C55.0975 224.544 58.9367 219.633 59.5678 218.999C60.1989 218.366 60.8826 211.871 61.1455 208.702H50.1013L58.7789 203.158L63.5121 195.237H59.5678L50.8902 193.653L63.5121 179.395L57.2012 180.187L65.8788 169.89L61.1455 168.306L64.301 163.554H61.9344L64.301 157.217H57.2012L62.7233 152.465H57.2012L62.7233 142.168H58.7789L61.1455 138.999L64.301 136.623H57.2012C57.99 135.303 60.5144 131.712 64.301 127.91C66.8254 126.643 65.3528 124.742 64.301 123.95H61.1455L69.8231 117.613H65.8788L69.8231 113.653H65.8788L69.8231 110.484Z" fill="#63714C"/>
<path d="M96.0355 133.633L102.815 110.762L106.882 121.217L108.238 125.791C108.69 127.098 109.73 129.843 110.272 130.366C110.815 130.888 110.95 134.069 110.95 135.593C111.176 137.554 111.628 141.736 111.628 142.782C111.628 144.088 112.306 146.049 112.984 146.702C113.526 147.225 114.114 149.098 114.34 149.97L112.984 153.89C113.662 155.851 115.018 159.902 115.018 160.425C115.018 160.948 114.566 163.257 114.34 164.346L117.052 166.96L117.729 170.881L113.662 171.534L117.052 174.148L122.475 178.722L119.763 177.415H115.696C116.148 178.069 117.187 179.376 117.729 179.376C118.407 179.376 119.085 182.643 120.441 183.95C121.526 184.995 119.989 185.257 119.085 185.257L116.374 183.95V186.564L118.407 189.831C118.859 190.702 119.899 192.576 120.441 193.098C120.984 193.621 123.379 195.059 124.509 195.712L125.187 197.019H121.797C121.255 197.019 119.311 195.712 118.407 195.059L119.085 199.633L121.797 202.9L126.543 207.475H124.509L119.085 205.514L119.763 210.088L123.831 213.356L127.221 217.93L120.441 216.623L134 226.425H130.61L122.475 225.118L116.374 242.762L86.5444 240.148L87.2223 232.306C84.7365 232.742 79.6294 233.613 79.0871 233.613C78.5447 233.613 80.6689 230.999 81.7988 229.692C83.3807 227.732 86.68 223.681 87.2223 223.158C87.7647 222.635 88.3522 217.277 88.5782 214.663H79.0871L86.5444 210.088L90.612 203.554H87.2223L79.765 202.247L90.612 190.484L85.1885 191.138L92.6458 182.643L88.5782 181.336L91.2899 177.415H89.2561L91.2899 172.187H85.1885L89.9341 168.267H85.1885L89.9341 159.772H86.5444L88.5782 157.158L91.2899 155.197H85.1885C85.8664 154.108 88.0358 151.146 91.2899 148.009C93.4593 146.964 92.1938 145.395 91.2899 144.742H88.5782L96.0355 139.514H92.6458L96.0355 136.247H92.6458L96.0355 133.633Z" fill="#7A8B5E"/>
<path d="M115.814 216.347C125.637 222.535 133.982 233.259 147.761 236.598C157.363 238.925 163.854 231.798 172.823 236.598C183.198 242.151 191 264.275 191 264.275H129.86C114.437 264.275 58.5302 269 52.1959 269H3.99998V236.598C3.99998 236.598 41.7463 250.163 65.1399 243.686C75.0979 240.929 80.2809 237.515 89.651 232.548C100.158 226.979 105.992 210.159 115.814 216.347Z" fill="#7A8F6A"/>
<path d="M229.66 212.522C217.946 219.512 207.995 231.626 191.563 235.398C180.113 238.026 172.372 229.975 161.676 235.398C149.304 241.671 140 266.662 140 266.662H212.91C231.302 266.662 297.972 272 305.526 272H363L369 230.823C369 230.823 317.987 250.721 290.09 243.405C278.215 240.29 272.034 236.434 260.86 230.823C248.33 224.531 241.374 205.532 229.66 212.522Z" fill="#7A8F6A"/>
</g>
<defs>
<clipPath id="clip0_9_5343">
<rect width="365" height="262" rx="29" fill="white"/>
</clipPath>
</defs>
</svg>
