<?xml version="1.0" encoding="UTF-8"?>
<svg id="_Слой_2" data-name="Слой 2" xmlns="http://www.w3.org/2000/svg" viewBox="0 0 433.85 346.98">
  <defs>
    <style>
      .cls-1 {
        fill: #E7BF7F;
      }
    </style>
  </defs>
  <g id="_Слой_1-2" data-name="Слой 1">
    <g>
      <path class="cls-1" d="m15.94,280.86c7.09-1.71,14.39-1.83,21.44-1.93,2-.03,4-.06,5.99-.13,8.07-.27,17.35-1.19,24.99-5.97.66-.41,1.1-.87,1.31-1.17-.25-.08-.7-.17-1.52-.19l-46.14-.95c-6.95-.14-14.65-.3-22.01-2.23.05,5.37.26,11.13.75,16.22,3.22-.21,6.52-1.18,9.96-2.2,1.7-.51,3.46-1.03,5.22-1.46Z"/>
      <path class="cls-1" d="m22.11,265.4l46.14.95c1.16.02,4.71.1,5.99,3.25,1.08,2.65-.27,5.66-3.45,7.65-8.58,5.37-18.6,6.39-27.27,6.68-2.02.07-4.04.1-6.07.13-6.81.1-13.84.21-20.45,1.81-1.64.4-3.35.9-4.99,1.39-3.46,1.03-7,2.07-10.62,2.36.78,5.43,1.8,10.43,3.31,15.32,9.95-3.46,20.23-6.76,30.97-7.4,1.61-.1,3.23-.13,4.8-.16,2.41-.05,4.69-.1,6.97-.35,4.36-.48,8.56-1.68,13.01-2.95,3.24-.92,6.59-1.88,9.99-2.52,2.96-.56,5.97-.89,8.89-1.22,6.01-.66,11.68-1.29,16.83-3.74,4.36-2.08,8.25-5.54,10.94-9.75,1.71-2.68,2.42-5.03,2.11-6.99-.34-2.14-2.03-4.19-4.5-5.48-2.21-1.15-4.74-1.66-7.41-2.19l-.99-.2c-11.51-2.34-22.63-6.39-33.1-11.99l-58.18-.52c-2.63-.02-4.79,2.19-4.87,5-.07,2.3-.13,5.24-.15,8.51,7.1,2.09,14.71,2.26,22.11,2.41Z"/>
      <path class="cls-1" d="m39.87,331.41c.86-.52,1.92-1.24,2.56-2.17.23-.33.39-.7.47-1.05l-5.31.26c-.7.03-1.35.07-1.91.2-.64.15-1.32.47-2.05.81l-.53.25c-4.29,1.95-8.86,2.9-13.03,3.41,1.57,2.15,2.94,3.99,4.13,5.55,2.49-1.43,5.15-2.52,7.77-3.57,2.82-1.14,5.48-2.21,7.9-3.68Z"/>
      <path class="cls-1" d="m395.63,327.9c.47.29,2.77.78,4.83-.86,5.77-4.59,6.61-6.18,8.29-9.36l.62-1.16c4.14-7.66,5.87-16.89,7.7-26.67.8-4.29,1.64-8.72,2.71-13.3,2.32-9.9,3.53-17.55,3.72-23.36l-4.75-.04c.46,6.67.16,11.64-2,20-.54,2.09-1.13,4.2-1.72,6.3-.53,1.88-1.05,3.75-1.54,5.6-.46,1.77-.77,4.29-1.09,6.95-.28,2.35-.57,4.78-1.02,7.15-.92,4.91-2.7,11.57-7.54,12.64-.54.12-1.03.17-1.49.17-1.66,0-2.8-.69-3.51-1.35-1.66-1.53-2.43-4.22-2.22-7.78.04-.74.08-1.49.11-2.25.12-2.61.25-5.31.7-7.93,1.95-11.42,1.63-17.52,1.34-22.9-.25-4.87-.48-9.5.95-16.78l-4.47-.04c-2.3,17.81-3.05,35.77-2.35,56.38.06,1.86-.03,3.82-.11,5.72-.3,6.54-.26,10.96,2.84,12.86Z"/>
      <path class="cls-1" d="m404.55,253.39c-1.45,7-1.23,11.21-.97,16.07.3,5.67.63,12.09-1.41,24.11-.39,2.3-.51,4.82-.62,7.27-.04.78-.07,1.55-.12,2.31-.13,2.3.32,3.36.57,3.59.19.17.72.07.88.03.54-.12,2.4-1.09,3.81-8.63.41-2.2.69-4.54.97-6.8.34-2.86.67-5.55,1.23-7.68.49-1.88,1.03-3.78,1.56-5.69.58-2.07,1.16-4.15,1.69-6.2,2.03-7.86,2.27-12.28,1.81-18.68l-9.34-.08c0,.12-.02.25-.04.37Z"/>
      <path class="cls-1" d="m177.31,280.16c12.12-.46,24.65-.94,37,.85,4.06.59,8.11,1.42,12.03,2.23,4.54.94,9.24,1.91,13.86,2.46,6.33.77,12.87.81,19.2.85,5.25.03,10.67.07,16.03.51.95.08,1.91.17,2.87.26,3.43.33,6.67.64,9.9.37,3.03-.25,6.13-1.04,9.13-1.8l61.52-15.62c1.83-.47,3.91-.99,5.25-2.19,2.22-1.99,2.49-5.47,2.79-9.5.15-1.95.3-3.94.69-5.89l-25.71-.23c-5.22,7.9-13.5,13.53-22.43,15.17-2.35.43-4.71.6-6.99.75-2.25.16-4.37.3-6.46.68-3.28.6-6.43,1.75-9.76,2.98-2.51.92-5.11,1.88-7.78,2.58-11.13,2.91-22.57,1.21-33.63-.43-3.06-.46-6.22-.93-9.3-1.28-8.38-.97-16.99-1.18-24.41-1.29-8.98-.14-19.42-.21-29.66.82-7.13.71-14.37,1.98-21.36,3.19l-42.73,7.45c-2.08.36-4.18.82-5.1,2.13-.97,1.38-.42,3.68.63,5.02,1.17,1.48,3.07,2.6,5.98,3.51,7.68,2.4,16.2,2.15,24.44,1.91,10.89-.32,22.16-.65,32.08,4.96,4.63,2.62,8.52,6.31,12.28,9.89,3.75,3.56,7.29,6.92,11.45,9.25,9.47,5.29,21,4.51,32.15,3.75l2.46-.16c20.46-1.33,41.14-.6,61.47,2.17,3.49.47,6.88,1.03,10.01,2.63,4.38,2.23,7.56,8.68,10.14,12.57.76.06,1.32.13,1.64.21,1.89.42,7.05-.02,12.68.79-.15-.78-.52-1.63-.93-2.58-.29-.67-.57-2.61-.81-3.29-1.46-4.18-1.05-8.96,1.09-12.79.34-.6.9-1.03,1.54-1.19,3.89-.92,7.59.95,10.37,2.69,7.38,4.61,13.8,10.93,18.76,18.36,1.74.07,3.54.15,5.29.23-1.15-2.44-2.07-5.37-2.75-8.81l-.2-1.02c-1.11-5.74-2.25-11.67-6.19-14.52-2.32-1.68-5.32-2.1-8.99-2.46-39.85-3.99-80.34-6.02-120.36-6.04-6.95,0-14.83,0-21.38-4.31-2.16-1.42-3.99-3.2-5.76-4.92-1.59-1.55-3.09-3-4.76-4.15-3.92-2.7-8.65-3.63-13.66-4.61-2.63-.52-5.36-1.05-8-1.87-5.64-1.75-7.41-4.86-7.89-7.17-.16-.74,0-1.52.44-2.12.44-.6,1.1-.97,1.81-.99Z"/>
      <path class="cls-1" d="m108.85,331.68c-4.48,4.85-9.59,9.07-15.11,12.54,4.67-.1,9.74-.2,15.06-.31,1.15-3.28,4.23-5.74,7.39-6.91,1.17-.43,2.35-.75,3.49-1.06,2.08-.56,4.05-1.1,5.58-2.22.74-.54,1.45-1.27,2.2-2.05,1.19-1.23,2.54-2.63,4.34-3.51,2.34-1.14,4.86-1.12,6.88-1.1,9.21.09,18.56.3,27.78.6,1.61.05,3.62.12,5.5,1.03,1.5.72,2.65,1.83,3.65,2.81l11.29,10.96c2.44-.04,4.78-.07,7.02-.1-3.18-3.44-5.87-7.63-7.78-12.36l-.34-.86c-.58-1.46-1.12-2.85-1.94-3.82-1.15-1.36-3.06-2.12-4.77-2.69-8.84-2.91-18.05-2.89-27.81-2.87-6.08.01-12.35.03-18.51-.74-1.74-.22-3.74-.56-5.4-1.98-.99-.84-1.62-1.86-2.18-2.76-.17-.27-.33-.54-.51-.79-2.95-4.33-8.86-5.45-14.65-6.22l-14.14-1.89c-4.31-.57-8.75-.93-11.49,1.59-.27.25-.41.44-.47.55.11.16.42.46.94.72,1.94.98,4.29,1.11,6.77,1.24l.84.05c5.11.31,12.44,1.34,17.14,6.72,2.43,2.78,3.47,6.12,2.87,9.18-.5,2.54-2.05,4.49-3.65,6.22Z"/>
      <path class="cls-1" d="m40.47,346.97c11.45-2.49,22.44-6.76,32.74-12.77,4.82-2.81,7.61-5.65,8.46-8.61-5.61-1.74-11.43-2.59-17.28-2.6-.73,0-1.47.02-2.22.03-4.59.09-9.78.19-14.17-2.61-.38-.24-.74-.5-1.11-.76-.68-.48-1.31-.94-1.89-1.12-.78-.25-1.86-.12-2.81,0-9.64,1.16-19.32,2.82-28.85,4.9,1,1.59,2.07,3.2,3.25,4.85,0,.01.02.02.03.04,4.67-.37,9.83-1.16,14.58-3.33l.5-.23c.87-.4,1.85-.86,2.94-1.12.96-.23,1.89-.27,2.72-.31l6.41-.32c.45-.02,1.5-.07,2.46.67.58.45.99,1.08,1.25,1.92.66,2.13.22,4.62-1.16,6.65-1.17,1.71-2.78,2.83-4.06,3.6-2.75,1.68-5.72,2.87-8.59,4.03-2.21.89-4.35,1.76-6.32,2.8,2.03,2.48,4.91,3.96,8,4.14,1.63.1,3.46.17,5.13.15Z"/>
      <path class="cls-1" d="m428.3,253.25c-.19,6.2-1.45,14.24-3.87,24.55-1.04,4.46-1.86,8.83-2.66,13.06-1.91,10.2-3.72,19.83-8.25,28.22l-.6,1.12c-1.98,3.76-3.31,5.95-9.6,10.95-1.94,1.54-4.18,2.18-6.18,2.18-1.51,0-2.89-.37-3.91-.99-5.88-3.6-5.54-11.02-5.24-17.55.09-1.88.17-3.65.11-5.29-.7-20.66.04-38.71,2.31-56.61l-17.89-.16c-.51,1.88-.69,4.01-.86,6.25-.34,4.52-.72,9.65-4.49,13.02-2.21,1.98-4.99,2.68-7.23,3.25l-61.52,15.62c-3.18.81-6.46,1.64-9.87,1.92-3.63.3-7.23-.04-10.7-.38-.94-.09-1.87-.18-2.81-.26-5.19-.43-10.52-.46-15.69-.49-6.46-.04-13.13-.08-19.71-.88-4.81-.58-9.6-1.57-14.23-2.53-3.86-.8-7.84-1.62-11.77-2.19-10.1-1.46-20.47-1.35-30.65-1.01.45.19.89.34,1.26.45,2.41.75,4.9,1.23,7.53,1.75,5.25,1.03,10.67,2.1,15.39,5.34,2,1.38,3.72,3.05,5.39,4.67,1.68,1.63,3.27,3.18,5.05,4.35,5.4,3.54,12.55,3.55,18.86,3.55,40.16.02,80.81,2.06,120.8,6.06,3.44.34,7.71.77,11.24,3.33,5.55,4.02,6.96,11.3,8.2,17.72l.2,1.01c.67,3.45,1.86,7.43,3.9,10.15,2.23.13,4.13.25,5.39.36,5.58.5,7.24.41,11.07-.64,3.73-1.02,20.15-17.04,24.01-27.12,1.14-2.98,1.58-5.48,3.03-10.66,1.65-5.86,4.63-16.61,5.33-22.8.49-4.34,2.34-16.28,3.25-23.54.38-3.03-1.78-5.71-4.63-5.81Zm-97.4,42.58l33.28.81c3.13.08,7.03.17,10.41,2.1,3.56,2.03,6.53,6.75,5.03,11.5-.34,1.07-1.27,1.74-2.27,1.74-.25,0-.51-.04-.77-.14-1.26-.45-1.93-1.91-1.51-3.25.61-1.91-.93-4.31-2.75-5.34-2.37-1.35-5.5-1.43-8.25-1.49l-33.28-.81c-4.19-.1-9.28-.8-11.45-5.37-.3-.63-.34-1.35-.12-2.02.22-.66.68-1.2,1.28-1.48,8.43-4.01,17.64-4.68,26.54-5.33,4.94-.36,10.05-.73,14.89-1.68,3.15-.62,7.73-1.78,11.06-4.69,2.51-2.19,4.67-6.1,3.85-9.9-.3-1.38.51-2.75,1.8-3.07,1.29-.32,2.58.54,2.88,1.92,1.13,5.22-1.02,11.11-5.48,15.01-4.19,3.67-9.56,5.05-13.23,5.77-5.11,1-10.35,1.38-15.43,1.75-7.45.54-14.55,1.06-21.15,3.36,1.17.37,2.71.57,4.69.61Z"/>
      <path class="cls-1" d="m348.51,328.98c-1.72-1.08-3.82-2.26-5.87-2.23-.92,2.28-1.01,4.99-.21,7.31.19.56.43,1.1.67,1.65.68,1.57,1.43,4.61,1.44,6.69,5.98.81,11.59.18,13.58.18,1.09,0,3.02.05,5.39.12-4.19-5.47-9.29-10.14-15-13.72Z"/>
      <path class="cls-1" d="m201.17,342.29c6.18-.07,11-.09,13.91-.06,10.6-1.08,21.4-.89,31.98-1.44,6.91-.36,10.18.47,17.11.36s14-.06,19.83-.25c10.66-.16,23.05-.21,36.18,0-1.75-2.17-4.77-6.98-7.03-8.13-2.5-1.27-5.35-1.74-8.55-2.17-20.04-2.73-40.42-3.44-60.57-2.14l-2.44.16c-11.81.8-24.02,1.63-34.68-4.33-4.69-2.62-8.62-6.35-12.42-9.96-3.71-3.53-7.22-6.86-11.34-9.19-8.81-4.98-18.96-4.68-29.7-4.37-8.61.25-17.52.51-25.93-2.12-2.43-.76-5.94-2.12-8.31-5.13-2.31-2.93-3.32-7.78-.8-11.38,2.15-3.07,5.92-3.73,8.17-4.12l42.73-7.45c7.08-1.23,14.39-2.51,21.69-3.24,10.48-1.05,21.07-.98,30.17-.84,7.53.12,16.28.33,24.86,1.32,3.15.37,6.35.84,9.44,1.3,10.61,1.58,21.59,3.21,31.82.53,2.46-.64,4.84-1.52,7.36-2.45,3.37-1.24,6.85-2.52,10.52-3.19,2.34-.43,4.69-.59,6.95-.75,2.26-.16,4.39-.3,6.49-.69,6.55-1.2,12.7-4.9,17.16-10.17l-260.64-2.31c7.13,3.01,14.51,5.32,22.06,6.86l.97.2c2.87.57,5.84,1.16,8.64,2.62,3.86,2.01,6.52,5.46,7.13,9.22.53,3.31-.43,6.92-2.87,10.74-3.23,5.06-7.71,9.05-12.95,11.54-5.85,2.78-12.17,3.48-18.29,4.16-2.83.31-5.76.64-8.54,1.16-3.2.61-6.45,1.53-9.59,2.43-4.44,1.26-9.03,2.57-13.76,3.09-2.48.27-4.96.33-7.36.38-1.52.03-3.1.07-4.63.16-10.08.6-19.96,3.75-29.56,7.09,1.16,3,2.56,6,4.25,9.07,10.25-2.29,20.67-4.11,31.04-5.36,1.27-.15,3-.36,4.71.18,1.27.4,2.29,1.13,3.19,1.77.3.21.6.43.9.62,3.21,2.05,7.29,1.97,11.61,1.88.77-.02,1.53-.03,2.29-.03,7.04-.03,14.02,1.15,20.72,3.49,1,.35,1.67,1.36,1.65,2.48-.1,5.64-3.78,10.49-11.24,14.85-3.97,2.32-8.04,4.36-12.2,6.18.63-.04,1.14-.06,1.49-.06.58,0,7.36-.14,17.75-.36,8.53-3.75,16.41-9.36,22.88-16.36,1.01-1.09,2.11-2.37,2.37-3.68.32-1.63-.66-3.46-1.68-4.63-3.52-4.03-9.62-4.84-13.9-5.1l-.82-.05c-2.71-.15-5.78-.32-8.57-1.73-2.41-1.21-3.8-3.27-3.72-5.52.04-1.07.44-2.68,2.17-4.27,4.23-3.88,10.07-3.47,15.22-2.78l14.14,1.89c6.54.87,13.86,2.3,17.94,8.29.22.32.42.65.63.98.4.64.77,1.25,1.17,1.58.67.57,1.83.75,2.96.89,5.88.73,12.02.72,17.94.7,9.69-.02,19.7-.05,29.23,3.09,2.34.77,4.98,1.86,6.92,4.15,1.37,1.62,2.13,3.55,2.8,5.26l.32.81c2.41,5.96,6.17,10.91,10.62,14.3Z"/>
      <path class="cls-1" d="m169.99,333.38c-1.02-.49-2.37-.53-3.68-.58-9.19-.31-18.5-.51-27.68-.6-1.63-.02-3.47-.03-4.84.63-1.04.51-1.99,1.49-2.99,2.53-.86.89-1.75,1.81-2.82,2.59-2.24,1.63-4.71,2.31-7.11,2.95-1.09.3-2.12.58-3.1.94-1.16.43-2.3,1.12-3.17,1.96,21.2-.43,45.52-.89,65.28-1.21l-7.5-7.28c-.78-.76-1.58-1.54-2.4-1.93Z"/>
    </g>
    <g>
      <path class="cls-1" d="m243.25,169.86v46.99l-12.51,25.94h-31.13l-12.53-25.94v-46.99c0-2.42,1.84-4.39,4.11-4.39h47.95c2.27,0,4.11,1.96,4.11,4.39Z"/>
      <g>
        <path class="cls-1" d="m180.19,219.5H18.21c-9.62,0-17.42,8.32-17.42,18.59v4.71h190.66l-11.25-23.3Z"/>
        <path class="cls-1" d="m416.42,219.5h-166.28l-11.24,23.3h194.94v-4.71c0-10.27-7.8-18.59-17.42-18.59Z"/>
      </g>
      <path class="cls-1" d="m196.41,61.27l-4.91,15.31c-.6,1.86-2.5,2.85-4.24,2.22l-8.26-3.01-12.23,38.15c2.26,1.63,3.78,3.1,4.05,4.03.75,2.58-6.33,17.22-12.75,23.09l-3.61,11.27c-.44,1.37-1.84,2.09-3.11,1.63l-8.35-3.05c-1.27-.46-1.95-1.94-1.51-3.31l1.31-4.09c-2.73-.14-5.05-.42-5.98-.85,0,0-.91-.52-1.96-1.28.96-2.14,1.08-4.33,1.06-6.31-.06-11.7,1.39-22.16,4.33-31.12,1.42.15,2.8.28,4.09.38,2.96.24,6.55,1.33,10.12,2.83l11.58-36.12-12.37-4.51c-2.49-.91-3.06-4.39-1.01-6.13l14.09-11.98c.89-.76,2.07-.98,3.15-.58l24.43,8.91c1.75.64,2.68,2.65,2.08,4.52Z"/>
      <ellipse class="cls-1" cx="79.25" cy="35.19" rx="3.25" ry="3.47"/>
      <path class="cls-1" d="m34.68,32.88c1.1.25,2.78.36,3.43.4l42.89-20.74c.14-.88,1.24-7.57,1.46-9.73.23-2.3-1.94-2.8-3.41-2.8S31.73,21.23,30.41,23.38c-1.31,2.14-1.24,4.87-.85,5.77.4.91,3.72,3.39,5.11,3.73Z"/>
      <path class="cls-1" d="m395.73,135.32c-4.98-3.58-5.99-10.02-6.88-15.71-.79-5-1.53-9.72-4.57-12.27-1.51-1.27-3.54-1.9-5.69-2.58-1.07-.33-2.17-.68-3.26-1.12-3.85-1.55-8.18-5.23-7.76-10.5.23-2.75,1.75-4.91,3.04-6.49,3.95-4.78,8.93-8.22,13.75-11.54,1.81-1.24,3.68-2.53,5.44-3.86,9.39-7.07,17.21-16.41,24.7-25.65-.27-.82-.51-1.49-.72-1.98-2.56-6.07-11.97-18.01-11.97-18.01,1.75-2.11,3.26-10.37,1.52-13.71-.79-1.51-5.7-5.58-8.83-7.32-3.14-1.73-10.11-1.36-14.18,1.24-4.06,2.61-4.06,7.69-7.55,7.93-3.48.25-19.05,1.49-22.18,2.48-3.14.99-10.57,11.77-11.5,12.89-.93,1.11-2.44,2.97-9.41,3.1-6.97.12-20.56-1.12-21.96,0-1.39,1.11-1.16,2.6-1.74,11.4s6.74,18.71,9.76,20.57,11.79,3.53,13.24,5.14,2.9,5.45,3.89,7,1.92,1.49-.64,4.46c-2.55,2.98-7.2,6.45-9.99,10.66-2.79,4.21-5.57,6.44-9.06,8.18-3.48,1.73-17.66,3.96-27.18,4.71-2.96.23-6.55,1.32-10.12,2.82l-11.58-36.12,12.37-4.51c2.49-.91,3.06-4.39,1-6.13l-14.08-11.98c-.89-.76-2.07-.98-3.15-.58l-24.43,8.91c-1.75.64-2.68,2.65-2.08,4.52l4.91,15.31c.6,1.86,2.5,2.85,4.24,2.22l8.26-3.01,12.23,38.14c-2.27,1.63-3.79,3.1-4.06,4.04-.75,2.59,6.33,17.21,12.76,23.09l3.61,11.27c.44,1.37,1.84,2.09,3.11,1.63l8.35-3.05c1.27-.46,1.95-1.94,1.51-3.31l-1.4-4.37c5.07-.4,9.47-.98,9.47-.98v.05c9.28-2.24,16.79-2.87,24.69-3.52,5.88-.48,11.96-.97,19.07-2.19,6.26-1.08,13.45-5.79,21.37-14.02.95-.98,2.47-.96,3.39.05.93,1.02.91,2.64-.04,3.62-8.64,8.97-16.7,14.16-23.96,15.4-7.3,1.26-13.48,1.76-19.46,2.25-8.06.66-15.7,1.3-25.21,3.7-1.67,25.36-16.38,65.71-16.38,65.71h29.66c5.02-11.41,5.61-20.4,6.08-27.66.15-2.32.29-4.52.58-6.47.34-2.41,2.02-10.42,8.86-12.31,6.9-1.91,13.62,5.52,16.21,9.72,1.01,1.65,1.99,3.34,2.93,4.98,1.25,2.2,2.56,4.47,3.94,6.58.58.88,1.42,2.03,2.4,3.37,3.87,5.28,9.61,13.12,12.21,21.83,1.83-.2,7.55-2.38,21.17-18.38,13.63-16.01,23.89-35.58,29.85-54.29l-11.23-2.54c-2.35-.53-5-1.13-7.32-2.81Zm-45.26-96.66c-1.8,0-3.25-1.55-3.25-3.47s1.45-3.47,3.25-3.47,3.25,1.56,3.25,3.47-1.45,3.47-3.25,3.47Z"/>
      <g>
        <path class="cls-1" d="m125.72,183.54c-.35.07-.65.41-.73.84-.14.71,0,1.37.4,1.93.33.46,1.18,1.1,1.79,1.57l.32.25c.66.51,1.5.89,2.39,1.3l1.51.69c.77.35,1.53.7,5.37,2.48,1.19.55,2.22,1.11,3.17,1.71-1.1-3.08-2.26-6.37-3.43-9.72l-6.68-.91c-1.23-.18-2.77-.41-4.13-.15Z"/>
        <path class="cls-1" d="m134.86,197.3c-3.83-1.78-4.58-2.12-5.34-2.47l-1.53-.7c-1.03-.48-2.2-1.02-3.29-1.85l-.3-.23c-.91-.69-2.05-1.55-2.82-2.62-1.26-1.75-1.72-3.92-1.29-6.1.49-2.47,2.33-4.41,4.6-4.83,2.09-.39,4.21-.09,5.61.12l4.17.57c-.68-2.01-1.36-4.02-2.01-6-7.09-.77-14.36,1.2-20.21,5.56-3.59,2.67-7.43,7.52-6.46,12.37.75,3.75,4.08,6.54,7.72,9.31l16.91,12.88h16.28s-1.4-3.7-3.46-9.35c-3.28-3.44-5.11-5.04-8.57-6.65Z"/>
        <path class="cls-1" d="m110.91,204.59c-4.26-3.24-8.51-6.87-9.62-12.41-1.47-7.3,3.38-13.9,8.41-17.64,6.19-4.61,13.75-6.92,21.26-6.62-2.39-7.53-4.27-14.17-4.9-18.11-3.37,2.52-6.19,4.58-8.82,6.44-7.2,5.09-13.36,8.97-19.39,12.21-16.43,8.82-34.36,14.02-50.04,18.17l21.02,26.66h53.52l-11.44-8.71Z"/>
      </g>
      <g>
        <path class="cls-1" d="m128.95,102.42s-10.1-3.55-11.96-6.02c-1.07-1.43-2.52-6.12-3.56-9.86-2.18.27-4.36.42-6.51.42-9.7,0-18.9-2.51-26.14-5.29-.02.02-.04.04-.06.05-5.22,3.8-6.92,11.22-5.18,15.5,1.36,3.34,4.68,5.32,8.19,7.41,2.74,1.63,5.58,3.32,7.85,5.83,2.17,2.39,3.16,5.11,2.8,7.65-.51,3.53-3.33,5.67-5.8,6.51-1.83.62-3.63.71-5.36.79-.45.02-.9.04-1.35.08-2.88.21-5.86.89-8.86,2.03-1.29.49-2.56,1.05-3.89,1.65-1.93.86-3.94,1.75-6.04,2.41-3.71,1.17-7.54,1.56-11.31,1.56-4.13,0-8.19-.47-12-.91-7.33-.84-14.81-2.02-20.96-5.46,1.08,7.83,2.43,14.41,3.39,17.95,2.33,8.59,13.64,37.84,16.11,38.99.07.03.15.06.22.09,1.46-.35,2.93-.73,4.37-1.13.87-.24,1.74-.48,2.61-.71,15.69-4.13,33.79-9.27,50.17-18.07,5.85-3.14,11.86-6.93,18.89-11.91,2.7-1.91,5.6-4.03,9.13-6.68.51-.38,1.02-.75,1.54-1.12,1.64-1.17,3.18-2.28,4.4-3.67,1.26-1.42,1.48-2.94,1.46-5.42-.07-11.82,1.38-22.47,4.26-31.73-2.17-.29-4.35-.6-6.43-.95Z"/>
        <path class="cls-1" d="m30.72,61.31c2.26,2.97,4.14,6.25,5.98,9.49,2.38,4.2,4.63,8.16,7.62,11.39.67.73,1.39,1.42,2.14,2.16,1.38,1.34,2.8,2.73,4.04,4.4,3.59,4.87,4.83,11.5,3.22,17.31-1.66,6-6.34,10.86-11.91,12.36-1.69.46-3.4.61-5.07.61-1.79,0-3.53-.17-5.16-.34-4.3-.43-9.24-.93-13.95-2.51.12,1.35.25,2.69.39,4.02,5.7,4.65,13.79,5.97,22.28,6.95,7.17.83,14.58,1.68,21.43-.47,1.86-.58,3.65-1.38,5.55-2.23,1.33-.59,2.71-1.21,4.13-1.74,3.41-1.3,6.82-2.08,10.14-2.32.48-.04.97-.06,1.46-.08,1.49-.07,2.91-.14,4.13-.56,1.34-.45,2.37-1.44,2.51-2.41.13-.91-.42-2.12-1.5-3.31-1.78-1.96-4.19-3.4-6.74-4.92-4.06-2.42-8.25-4.92-10.25-9.85-2.24-5.51-.98-14.05,4.54-19.72-1.54-.7-2.95-1.38-4.17-2-1.2-.61-1.7-2.14-1.12-3.42.57-1.28,2.01-1.81,3.2-1.2,7.81,4,23,10.29,38.52,8.62,0,0,0,0,0,0,0,0,5.11-1.24,7.2-6.45,2.09-5.2,2.09-15.85,0-20.56-2.09-4.71-12.09-15.37-12.09-15.37l2.64-9.09s-8.37,1.82-14.25-1.15c-5.89-2.97-6.66-3.14-8.68-5.45l12.04-6.11s-1.62-2.18-3.31-2.05c-1.68.13-11.09,4.78-11.09,4.78l-1.43-2.96-43.37,20.97c-.13.63-.37,1.97-.31,2.72.08.99.94,1.55.94,1.55,0,0-3.27.92-5.2,3.16-2.56,2.97-2.94,9.08-1.7,12.64,0,0-1.13,1.11-2.79,3.15Zm49.81-34.88s3.87,4.54,11.15,7.02c7.28,2.48,13.71,0,13.71,0,0,0-.62,5.2-2.01,5.7-1.39.5-4.03.91-8.44,3.63-4.41,2.73-6.04,6.03-6.97,6.77-.93.74-11.38,3.88-16.73,1.16-5.34-2.73-10.38-15.61-10.38-15.61l19.67-8.67Zm-41.08,19.95c3.24-2.17,5.97-2.96,5.97-2.96l5.33,11.67s-2.08,2.77-5.76,3.7c-3.55.9-7.01.55-8.09-2.87-1-3.17-.66-7.39,2.56-9.54Z"/>
        <path class="cls-1" d="m17.91,93.68c1.6,1.11,3.25,2.27,4.95,2.77,1.38.41,2.91.45,4.54.49,1.73.04,2.76-.16,3.05-.59.06-.09.26-.48.14-1.53-.22-1.92-1.13-3.85-2.03-5.65-.84-1.68-1.73-3.35-2.62-5.02-1.41-2.64-2.83-5.33-4.11-8.13-1.85,4.29-3.39,9.22-4.1,14.69-.11.86-.21,1.75-.29,2.64l.48.33Z"/>
        <path class="cls-1" d="m27.97,102.07c-.26,0-.49,0-.69-.01-1.76-.04-3.76-.09-5.72-.67-1.66-.49-3.14-1.33-4.49-2.21-.12,3.73-.04,7.59.16,11.42,4.74,1.98,10.17,2.53,14.79,3,2.91.29,5.91.59,8.61-.14,3.96-1.07,7.29-4.55,8.48-8.85,1.17-4.24.26-9.11-2.39-12.69-.99-1.34-2.21-2.52-3.5-3.78-.77-.75-1.56-1.52-2.33-2.35-3.38-3.66-5.88-8.07-8.3-12.33-1.61-2.83-3.17-5.58-4.92-8.03-.98,1.43-2,3.05-3.01,4.85,1.46,3.85,3.4,7.51,5.44,11.34.91,1.7,1.82,3.41,2.68,5.13,1.07,2.13,2.24,4.64,2.56,7.44.24,2.05-.09,3.77-.98,5.11-1.66,2.52-4.63,2.77-6.39,2.77Z"/>
      </g>
      <g>
        <path class="cls-1" d="m419.63,71.34c-5.92,6.71-13.1,12.05-21.13,15.64-1.72.77-3.68,1.64-4.06,2.93-.39,1.31,1.02,3.02,2.53,3.74,1.21.57,2.6.85,4.08,1.15,1.18.24,2.39.49,3.62.9,3.15,1.06,6.87,3.86,6.99,8.3.04,1.59-.4,2.96-.8,4.16-.14.43-.28.86-.39,1.3-1.08,4.35,1.86,8.97,5.32,11.28.94.63,1.95,1.14,2.99,1.58.2-1.22.4-2.43.56-3.62,2.39-17.81,1.81-34.31.28-47.36Z"/>
        <path class="cls-1" d="m405.83,108.15c.14-.56.32-1.12.5-1.68.29-.9.55-1.68.53-2.33-.04-1.62-1.92-2.98-3.64-3.56-.96-.32-1.98-.53-3.07-.75-1.68-.34-3.41-.69-5.12-1.5-3.46-1.63-6.44-5.68-5.17-9.97,1.06-3.55,4.37-5.03,6.79-6.11,8.62-3.85,16.19-9.9,22.08-17.58-.81-5.26-1.74-9.74-2.61-13.28-7.08,8.66-14.56,17.25-23.56,24.03-1.84,1.39-3.75,2.71-5.61,3.98-4.75,3.27-9.24,6.37-12.74,10.62-.81.99-1.76,2.28-1.86,3.55-.18,2.25,2.29,4.31,4.67,5.26.92.37,1.89.68,2.92,1,2.49.78,5.06,1.59,7.3,3.46,4.5,3.77,5.48,9.98,6.34,15.46.8,5.12,1.56,9.96,4.83,12.31,1.55,1.11,3.62,1.58,5.63,2.04l11.71,2.65c.79-2.82,1.49-5.61,2.07-8.35-1.57-.61-3.12-1.35-4.58-2.33-4.8-3.21-9.17-9.87-7.42-16.93Z"/>
        <path class="cls-1" d="m347.26,194.66c-1.02-1.39-1.9-2.59-2.55-3.58-1.47-2.24-2.81-4.58-4.11-6.84-.92-1.6-1.87-3.26-2.85-4.85-2.32-3.76-7.26-8.6-10.99-7.57-4,1.11-5.09,6.51-5.32,8.14-.25,1.74-.38,3.73-.53,6.03-.44,6.85-1.04,16.02-5.6,27.31h10.15c.52-1.63.68-3.98.83-6.28.34-5.26.73-11.23,5.62-13.26,1.74-.72,3.55-.68,5.23.14,2.74,1.33,4.61,4.5,5.39,6.81,1.2,3.59,1.71,6.04,2.2,8.41.28,1.35.55,2.67.95,4.17h12.48c-2.55-7.24-7.5-13.99-10.9-18.64Z"/>
        <path class="cls-1" d="m335.15,198.56c-.5-.24-.96-.25-1.5-.03-1.9.79-2.27,4.16-2.57,8.84-.13,2.01-.27,4.05-.65,5.92h10.28c-.26-1.08-.47-2.08-.67-3.07-.48-2.32-.93-4.5-2.03-7.79-.48-1.44-1.65-3.29-2.86-3.88Z"/>
      </g>
    </g>
  </g>
</svg>