<svg width="344" height="290" viewBox="0 0 344 290" fill="none" xmlns="http://www.w3.org/2000/svg">
<g clip-path="url(#clip0_9_5216)">
<path d="M146.385 178.11C108.663 175.894 93.7552 207.676 29.6121 218.763C-34.5309 229.851 -20.7566 314.647 -20.7566 314.647L341.693 336L353 243.607C313.253 247.85 302.837 228.208 256.169 231.082C222.247 233.172 187.186 180.508 146.385 178.11Z" fill="#F0D36A"/>
<path d="M215.897 252.447C209.035 253.775 194.912 256.431 193.319 256.431V208.619L222.205 185.709L229.842 194.01L215.897 207.623V252.447Z" fill="#976C34"/>
<path d="M140.858 71.8238C141.522 72.1558 142.85 73.1519 143.514 73.4839L152.147 73.1519C152.147 73.1519 154.085 71.9413 154.139 71.4918C154.23 70.7412 152.609 70.3663 153.143 69.8316C154.139 68.8356 156.346 66.4201 156.463 63.5231C156.654 58.8285 148.827 54.2263 148.827 54.2263H146.171C146.171 54.2263 138.138 59.0721 138.534 63.8551C138.749 66.4557 140.194 68.5035 141.522 69.8316C142.102 70.4115 140.194 71.4918 140.858 71.8238Z" fill="#2F3546"/>
<path d="M59.5113 132.585L44.9021 165.456L51.5427 164.128L61.1715 132.585H59.5113Z" fill="#646B61"/>
<path d="M63.4957 132.585V164.46L51.2107 164.792L61.1715 132.585H63.4957Z" fill="#252822"/>
<path d="M65.4878 132.585H63.4956V164.46L76.4447 165.788L65.4878 132.585Z" fill="#151A1A"/>
<path d="M44.238 169.108V182.389" stroke="#160D0B" stroke-width="2"/>
<path d="M50.8787 167.116L50.8787 182.389" stroke="#160D0B" stroke-width="2"/>
<path d="M48.2224 167.116L48.2224 182.389" stroke="#160D0B" stroke-width="2"/>
<path d="M58.1831 167.116L58.1831 182.389" stroke="#160D0B" stroke-width="2"/>
<path d="M62.8315 167.116L62.8315 182.389" stroke="#160D0B" stroke-width="2"/>
<path d="M70.1362 167.116L70.1362 182.389" stroke="#160D0B" stroke-width="2"/>
<path d="M73.4565 167.116L73.4565 182.389" stroke="#160D0B" stroke-width="2"/>
<path d="M76.1128 167.116L76.1128 182.389" stroke="#160D0B" stroke-width="2"/>
<path d="M123.925 193.678L31.2972 208.022L28.9648 255.392L123.925 264.732V193.678Z" fill="#A1763E"/>
<path d="M151.815 179.401L123.925 193.678V264.732L147.167 257.095V206.627H142.518L170.741 189.694L181.034 187.369L194.315 184.381L193.651 178.073L181.034 173.424V148.19L162.772 143.21L163.436 171.432L147.167 167.116V176.745H151.815V179.401Z" fill="#392601"/>
<path d="M147.167 176.745L102.011 185.045V178.073L113.632 175.084V149.85L131.561 143.874L163.104 143.21L163.768 169.108L146.503 159.479L130.233 172.096L147.167 167.116V176.745Z" fill="#A1763E"/>
<path d="M193.651 203.639L146.171 205.631L146.503 257.427L193.651 255.767V203.639Z" fill="#392601"/>
<path d="M175.057 256.431V204.967L192.323 204.303L192.987 208.951V256.431H175.057Z" fill="#644406"/>
<path d="M239.803 248.795L192.987 256.431L193.651 208.619L221.873 185.045L244.783 209.283L239.803 211.276V220.572V248.795Z" fill="#392601"/>
<path d="M193.319 248.463L239.47 241.158M193.319 237.506L239.803 232.525M192.987 227.545L239.803 222.897M192.987 219.244L239.803 215.26M202.283 209.947L236.15 206.959M211.912 202.643C213.506 202.643 224.308 201.536 229.51 200.983" stroke="#2B1D02" stroke-width="1.5"/>
<path d="M48.2223 180.729C46.2302 181.282 41.8474 182.389 40.2537 182.389L41.9138 185.377L41.2497 200.983L62.8316 192.018L62.4995 180.729H48.2223Z" fill="#A1763E"/>
<path d="M73.7885 180.729H62.4995V191.354L73.1244 187.038L79.4329 184.381L73.7885 180.729Z" fill="#392601"/>
<path d="M78.4369 170.612C78.4369 172.122 71.7724 172.956 61.5035 172.956C51.2345 172.956 41.2498 170.95 41.2498 169.44C41.2498 167.93 50.2384 166.315 60.5074 166.315C70.7763 166.315 78.4369 169.102 78.4369 170.612Z" fill="#120F09"/>
<path d="M40.9177 168.776L38.5935 167.448C38.5935 167.448 44.4548 165.117 47.5583 164.535C52.8707 163.539 55.2415 163.82 60.1753 163.871C62.8316 163.898 72.4604 164.053 75.4486 165.199C78.2121 166.258 83.0853 170.104 83.0853 170.104H79.4329C79.4329 170.104 76.7912 165.863 61.5034 165.863C50.8785 165.863 40.9177 168.776 40.9177 168.776Z" fill="#2D2D2D"/>
<path d="M41.2497 169.44L39.5896 168.112C39.5896 168.112 44.4548 166.37 47.5583 165.788C52.8707 164.792 55.2415 165.072 60.1753 165.124C62.8316 165.151 72.4604 165.306 75.4486 166.452C78.2122 167.511 82.0892 170.104 82.0892 170.104L78.7689 171.1C78.7689 171.1 76.7912 167.116 61.5034 167.116C50.8786 167.116 41.2497 169.44 41.2497 169.44Z" fill="#747070"/>
<path d="M145.174 76.4722L142.186 77.1362L116.288 141.55L108.983 147.858L129.569 141.55L145.174 76.4722Z" fill="#646B61"/>
<path d="M149.823 76.4722L150.487 142.587L125.917 143.21L145.175 76.4722H149.823Z" fill="#252822"/>
<path d="M152.479 76.8042L149.823 76.4722V140.886L185.682 148.19L177.713 141.55L152.479 76.8042Z" fill="#151A1A"/>
<path d="M110.312 149.518L107.987 147.858C107.987 147.858 121.03 143.255 126.913 142.214C136.946 140.438 139.387 140.462 148.655 140.552L148.757 140.553C153.792 140.603 166.526 140.881 172.401 142.214C178.045 143.494 186.678 148.854 186.678 148.854L182.03 149.85C182.03 149.85 177.736 142.925 148.757 142.925C128.618 142.925 110.312 149.518 110.312 149.518Z" fill="#2D2D2D"/>
<path d="M111.816 151.22L109.316 149.186C109.316 149.186 120.665 145.687 126.581 144.538C136.708 142.57 140.086 142.445 149.491 142.546C154.554 142.6 168.363 143.441 174.393 144.538C178.045 145.202 185.682 149.186 185.682 149.186L181.698 150.182C181.698 150.182 179.567 146.629 150.425 146.629C130.171 146.629 111.816 151.22 111.816 151.22Z" fill="#747070"/>
<path d="M60.8393 130.593H64.1596L65.4877 132.585H59.5112L60.8393 130.593Z" fill="#D9D9D9"/>
<path d="M143.514 72.4879C143.514 72.4879 146.025 70.7791 147.831 70.8275C149.687 70.8772 151.815 72.4878 151.815 72.4878L152.147 77.1362H143.182L143.514 72.4879Z" fill="#D9D9D9"/>
<path d="M62.8315 132.585V130.593H64.1597L65.4878 132.585H62.8315Z" fill="#A5A5A5"/>
<path d="M147.831 77.1362V70.8276C147.831 70.8276 151.151 71.4917 151.815 72.4878C152.479 73.4839 152.147 77.1362 152.147 77.1362H147.831Z" fill="#A5A5A5"/>
<path d="M66.8158 126.94C66.8158 130.261 65.1557 130.925 62.8315 130.925C60.5073 130.925 58.8472 130.261 58.8472 126.94C58.8472 123.62 61.1714 122.624 62.8315 121.296C64.8237 122.624 66.8158 123.805 66.8158 126.94Z" fill="#171415"/>
<path d="M64.1597 121.296L64.8237 99.3821" stroke="#D3C398" stroke-width="2.5"/>
<path d="M147.167 54.2263L148.495 27" stroke="#D3C398" stroke-width="2.5"/>
<path d="M62.8315 101.042L66.8159 102.37" stroke="#C4B48A" stroke-width="2.5"/>
<path d="M145.839 28.9922L150.487 30.3203" stroke="#C4B48A" stroke-width="2.5"/>
<path d="M62.1675 115.984C62.8315 116.316 65.045 117.201 66.1518 117.644M60.8394 104.695L68.808 108.347" stroke="#C4B48A" stroke-width="2.5"/>
<path d="M144.843 47.5347C145.673 47.9434 148.439 49.0331 149.823 49.578M143.182 33.6406L153.143 38.1358" stroke="#C4B48A" stroke-width="2.5"/>
<path d="M80.4291 206.959C67.4421 204.76 57.8891 209.79 44.9021 207.592V203.286L123.925 195.006L126.913 203.639C126.913 203.639 121.025 201.633 114.96 203.639C103.356 207.477 80.4291 206.959 80.4291 206.959Z" fill="#976C34"/>
<path d="M221.873 195.338L192.987 216.92V208.619L221.873 185.045V195.338Z" fill="#332202"/>
<path d="M221.873 195.338L239.803 211.608L245.115 209.615L221.873 184.381V195.338Z" fill="#3F2E0E"/>
<path d="M140.858 206.959L172.733 187.37L222.537 179.401L193.651 204.303L140.858 206.959Z" fill="#324E47"/>
<path d="M146.835 257.095C146.945 241.269 147.1 207.955 146.835 206.627L153.475 197.994V178.405L124.589 196.998V264.4L146.835 257.095Z" fill="#2E1E01"/>
<path d="M192.987 209.283L190.662 207.291L222.205 181.725L245.447 205.963L244.783 209.283L221.873 185.377L192.987 209.283Z" fill="#9B9283"/>
<path d="M189.666 207.291L222.205 180.397L246.111 205.631" stroke="#060000" stroke-width="3"/>
<path d="M141.19 206.959L172.733 187.37L191.326 184.381L165.428 205.963L141.19 206.959Z" fill="#1F3832"/>
<path d="M99.3685 178.734C99.3626 178.736 99.3579 178.737 99.3547 178.737L99.3685 178.734C99.8567 178.563 109.481 171.505 113.964 168.444V175.416L99.3685 178.734Z" fill="#324E47"/>
<path d="M152.811 183.385L123.925 205.631V197.33L152.811 179.069V183.385Z" fill="#251A03"/>
<path d="M152.811 181.061L123.925 198.991V192.35L152.811 177.741V181.061Z" fill="#171001"/>
<path d="M41.9138 187.038C42.2458 187.038 48.2224 185.709 48.5544 185.709C48.82 185.709 57.9618 185.488 62.4996 185.377" stroke="#7A592F"/>
<path d="M41.9138 184.049C42.2458 184.049 48.2224 182.721 48.5544 182.721C48.82 182.721 57.9618 182.5 62.4996 182.389" stroke="#7A592F"/>
<path d="M41.9138 190.69C42.2458 190.69 48.2224 189.362 48.5544 189.362C48.82 189.362 57.9618 189.14 62.4996 189.03" stroke="#7A592F"/>
<path d="M41.5818 194.674C41.9138 194.674 47.8903 193.346 48.2223 193.346C48.488 193.346 53.6455 193.125 58.1832 193.014" stroke="#7A592F"/>
<path d="M41.5818 198.658C41.9138 198.658 47.8903 197.33 48.2223 197.33" stroke="#7A592F"/>
<path d="M62.4995 185.377H73.1244L75.1166 185.709M62.4995 189.03H67.812M62.4995 182.389C63.0308 182.389 70.2468 182.389 73.7885 182.389L77.7728 184.713" stroke="#291C03"/>
<path d="M124.257 197.33L20 209.615L77.7729 184.713L102.343 180.065V184.713L152.811 175.749V179.069L124.257 197.33Z" fill="#324E47"/>
<path d="M123.925 204.967C124.456 204.967 143.846 193.125 153.143 187.37M123.925 213.6L153.143 196.334M123.593 222.565L146.835 210.28M123.925 230.533L146.835 219.244M123.593 239.166L146.835 227.545M123.925 249.791L146.835 237.838M123.925 259.088L146.835 248.131" stroke="#271B03" stroke-width="1.5"/>
<path d="M30.293 231.529L123.925 230.533M29.9609 238.17L123.925 239.166M29.6289 245.806L123.925 249.459M28.9648 252.447L123.925 259.088" stroke="#7A592F" stroke-width="1.5"/>
<path d="M31.2888 212.604C32.3513 212.604 93.5994 207.291 123.925 204.635M31.2888 218.912C32.6169 218.912 93.7101 215.371 123.925 213.6M30.6248 225.553L123.925 222.565" stroke="#7A592F" stroke-width="1.5"/>
<path d="M113.964 155.495L124.921 152.839L146.835 151.178H163.104M113.964 162.135L124.921 159.147L146.835 157.487L163.436 158.483M113.964 170.768L125.253 167.116L138.866 166.452M102.343 181.393L124.921 175.749L146.835 173.424" stroke="#7A592F" stroke-width="1.5"/>
<path d="M146.835 159.147L128.573 171.764L130.897 172.428L147.167 167.448L164.1 171.764L165.428 170.104L146.835 159.147Z" fill="#324E47"/>
<path d="M147.167 167.448C146.835 167.448 146.835 159.479 146.835 159.147L165.428 170.104L164.1 171.764C158.566 170.325 147.432 167.448 147.167 167.448Z" fill="#213933"/>
<path d="M147.499 210.28H174.725M147.499 219.576L174.725 219.244M147.499 227.877L174.725 227.545M146.835 237.838L175.057 237.506M146.835 248.463L175.057 248.131" stroke="#302104" stroke-width="1.5"/>
<path d="M147.499 210.28H174.725M147.499 219.576L174.725 219.244M147.499 227.877L174.725 227.545M146.835 237.838L175.057 237.506M146.835 248.463L175.057 248.131" stroke="#281C03" stroke-width="1.5"/>
<path d="M175.057 210.28H192.987M175.057 219.244H192.987M175.057 227.545H192.987M175.057 237.506H192.987M175.057 248.131H192.987" stroke="#4F3503" stroke-width="1.5"/>
<path d="M209.212 219.204C209.141 214.821 212.472 211.13 216.839 210.753V210.753C221.659 210.336 225.823 214.092 225.904 218.93L226.23 238.562L209.556 240.415L209.212 219.204Z" fill="#564A33"/>
<path d="M45.7238 225.161C45.8362 221.871 48.5946 219.295 51.8849 219.407V219.407C55.1752 219.52 57.7514 222.278 57.6391 225.568L56.9727 245.085L45.0574 244.678L45.7238 225.161Z" fill="#A6875F"/>
<path d="M69.4645 225.265C69.518 221.973 72.2298 219.348 75.5216 219.401V219.401C78.8134 219.455 81.4386 222.167 81.3852 225.459L81.0682 244.984L69.1475 244.79L69.4645 225.265Z" fill="#A6875F"/>
<path d="M93.1795 225.421C93.2265 222.129 95.9333 219.499 99.2252 219.546V219.546C102.517 219.593 105.148 222.3 105.101 225.591L104.822 245.117L92.9006 244.947L93.1795 225.421Z" fill="#A6875F"/>
<path d="M242.243 220.232C246.734 220.816 253.011 215.924 253.011 215.924C253.011 215.924 268.428 208.728 270.24 199.234C271.4 193.156 265.197 189.344 267.548 183.62C268.908 180.308 273.093 180.182 273.47 176.621C273.847 173.066 270.17 171.975 269.163 168.545C267.441 162.68 271.558 158.899 270.24 152.931C268.691 145.924 265.502 142.511 260.548 137.318C256.398 132.966 251.054 124.349 246.012 127.627C235.244 134.626 246.095 138.223 242.243 143.24C240.432 145.598 238.161 145.951 236.859 148.624C235.109 152.215 238.852 155.392 236.859 158.854C235.82 160.657 233.09 158.315 233.09 162.622C233.09 166.93 234.156 171.259 233.09 176.621C232.532 179.426 228.783 180.39 229.86 185.236C230.937 190.081 235.125 190.544 235.243 195.465C235.354 200.056 231.572 202.201 232.013 206.771C232.647 213.343 235.696 219.38 242.243 220.232Z" fill="#E7BF7F"/>
<path d="M244.204 197.474C247.255 201.782 253.357 210.611 253.357 211.473C253.357 212.334 256.419 213.794 258.741 214.165C263.981 215.001 266.791 210.817 270.047 206.627C274.053 201.473 275.379 196.922 274.354 190.475C273.704 186.385 268.56 184.649 270.047 180.784C270.901 178.564 275.072 178.989 274.354 176.477C273.636 173.964 272.018 172.014 271.124 168.939C269.069 161.873 270.765 156.376 271.124 150.095C271.483 143.813 265.628 145.183 264.125 140.942C263.27 138.531 258.741 133.899 257.664 134.438C256.587 134.976 257.789 139.809 256.048 142.514C254.243 145.317 251.741 144.667 249.049 147.403C246.357 150.138 245.46 162.658 243.665 170.016C241.871 177.374 236.183 177.096 236.128 182.937C236.054 190.691 256.771 197.309 249.049 198.013C247.153 198.185 241.153 193.167 244.204 197.474Z" fill="#D28E43"/>
<path d="M252.818 203.353C253.815 204.35 255.51 204.968 255.51 204.968V203.892C255.51 203.892 254.188 203.457 253.356 202.815C252.29 201.992 250.664 199.046 250.664 199.046C250.664 199.046 251.82 202.356 252.818 203.353Z" fill="#5C3B34"/>
<path d="M255.51 173.741L258.202 248.041H254.971L255.287 204.43L255.295 203.353L255.51 173.741Z" fill="#5C3B34"/>
<path d="M296.51 226.398C301.001 226.983 307.278 222.091 307.278 222.091C307.278 222.091 322.695 214.894 324.507 205.401C325.666 199.323 319.464 195.511 321.815 189.787C323.175 186.475 327.36 186.348 327.737 182.788C328.114 179.233 324.437 178.141 323.43 174.712C321.708 168.847 325.825 165.066 324.507 159.098C322.958 152.09 319.769 148.677 314.815 143.484C310.665 139.133 305.321 130.516 300.279 133.794C289.511 140.793 300.362 144.39 296.51 149.407C294.699 151.765 292.428 152.118 291.126 154.791C289.376 158.382 293.119 161.558 291.126 165.02C290.087 166.824 287.357 164.482 287.357 168.789C287.357 173.096 288.423 177.426 287.357 182.788C286.799 185.593 283.05 186.557 284.127 191.402C285.204 196.248 289.392 196.711 289.51 201.632C289.62 206.223 285.839 208.367 286.28 212.938C286.914 219.51 289.962 225.547 296.51 226.398Z" fill="#E7BF7F"/>
<path d="M298.471 203.641C301.521 207.948 307.623 216.778 307.623 217.64C307.623 218.501 310.686 219.961 313.007 220.332C318.248 221.168 321.057 216.984 324.314 212.794C328.32 207.639 329.646 203.089 328.621 196.642C327.971 192.552 322.827 190.816 324.314 186.951C325.168 184.73 329.339 185.156 328.621 182.643C327.903 180.131 326.285 178.181 325.391 175.106C323.335 168.039 325.032 162.543 325.391 156.262C325.75 149.98 319.895 151.35 318.391 147.109C317.537 144.698 313.008 140.066 311.931 140.604C310.853 141.143 312.056 145.976 310.315 148.68C308.51 151.484 306.008 150.834 303.316 153.57C300.624 156.305 299.727 168.824 297.932 176.182C296.137 183.541 290.45 183.262 290.394 189.104C290.321 196.858 311.038 203.476 303.316 204.179C301.42 204.352 295.42 199.334 298.471 203.641Z" fill="#D28E43"/>
<path d="M307.085 209.52C308.082 210.517 309.777 211.135 309.777 211.135V210.058C309.777 210.058 308.455 209.624 307.623 208.981C306.557 208.159 304.931 205.213 304.931 205.213C304.931 205.213 306.087 208.523 307.085 209.52Z" fill="#5C3B34"/>
<path d="M309.777 179.908L312.469 254.207H309.238L309.554 210.597L309.562 209.52L309.777 179.908Z" fill="#5C3B34"/>
<path d="M337.754 249.421C333.263 250.005 326.986 245.113 326.986 245.113C326.986 245.113 311.569 237.917 309.757 228.423C308.597 222.345 314.799 218.533 312.449 212.809C311.089 209.497 306.904 209.371 306.527 205.81C306.15 202.255 309.827 201.164 310.834 197.734C312.556 191.869 308.438 188.088 309.757 182.12C311.306 175.113 314.495 171.699 319.448 166.507C323.599 162.155 328.943 153.538 333.985 156.816C344.753 163.815 333.902 167.412 337.754 172.429C339.565 174.787 341.836 175.14 343.138 177.813C344.888 181.404 341.145 184.581 343.138 188.043C344.177 189.846 346.907 187.504 346.907 191.811C346.907 196.119 345.841 200.448 346.907 205.81C347.465 208.615 351.214 209.579 350.137 214.424C349.06 219.27 344.871 219.733 344.753 224.654C344.643 229.245 348.425 231.39 347.984 235.96C347.35 242.532 344.301 248.569 337.754 249.421Z" fill="#E7BF7F"/>
<path d="M335.793 226.663C332.742 230.97 326.64 239.8 326.64 240.662C326.64 241.523 323.578 242.983 321.256 243.354C316.016 244.19 313.206 240.006 309.95 235.816C305.944 230.661 304.618 226.111 305.643 219.664C306.293 215.574 311.437 213.838 309.95 209.973C309.096 207.753 304.925 208.178 305.643 205.666C306.36 203.153 307.979 201.203 308.873 198.128C310.928 191.062 309.232 185.565 308.873 179.284C308.514 173.002 314.369 174.372 315.872 170.131C316.727 167.72 321.256 163.088 322.333 163.627C323.41 164.165 322.207 168.998 323.948 171.703C325.753 174.506 328.256 173.856 330.948 176.592C333.639 179.327 334.537 191.847 336.332 199.205C338.126 206.563 343.814 206.285 343.869 212.126C343.942 219.88 323.226 226.498 330.948 227.202C332.844 227.374 338.844 222.356 335.793 226.663Z" fill="#D28E43"/>
<path d="M327.179 232.542C326.182 233.539 324.487 234.157 324.487 234.157V233.08C324.487 233.08 325.808 232.646 326.641 232.004C327.707 231.181 329.333 228.235 329.333 228.235C329.333 228.235 328.176 231.545 327.179 232.542Z" fill="#5C3B34"/>
<path d="M324.487 202.93L321.795 277.23H325.025L324.709 233.619L324.702 232.542L324.487 202.93Z" fill="#5C3B34"/>
<path d="M35.5876 225.165C31.0963 225.749 24.8195 220.858 24.8195 220.858C24.8195 220.858 9.40234 213.661 7.59065 204.167C6.43082 198.089 12.6329 194.277 10.2827 188.554C8.92261 185.241 4.73751 185.115 4.36023 181.554C3.9836 178 7.66052 176.908 8.66745 173.478C10.3893 167.614 6.27192 163.833 7.59065 157.865C9.13907 150.857 12.3285 147.444 17.2819 142.251C21.4326 137.899 26.7766 129.283 31.8185 132.56C42.5863 139.56 31.7352 143.157 35.5876 148.173C37.3986 150.532 39.6693 150.884 40.9716 153.557C42.7213 157.149 38.9783 160.325 40.9716 163.787C42.0102 165.591 44.7405 163.249 44.7405 167.556C44.7405 171.863 43.6743 176.193 44.7405 181.554C45.2982 184.359 49.0476 185.323 47.9705 190.169C46.8934 195.015 42.7049 195.478 42.5868 200.398C42.4767 204.989 46.2581 207.134 45.8173 211.705C45.1835 218.277 42.1347 224.313 35.5876 225.165Z" fill="#E7BF7F"/>
<path d="M33.6266 202.408C30.5757 206.715 24.4738 215.545 24.4738 216.406C24.4738 217.268 21.4112 218.728 19.0898 219.098C13.8493 219.934 11.0397 215.751 7.7833 211.56C3.77737 206.406 2.45135 201.856 3.47608 195.408C4.12619 191.318 9.27006 189.583 7.7833 185.717C6.92936 183.497 2.75821 183.922 3.47608 181.41C4.19395 178.897 5.81207 176.947 6.7065 173.872C8.76178 166.806 7.06543 161.31 6.7065 155.028C6.34756 148.747 12.2024 150.117 13.7057 145.875C14.5603 143.464 19.0895 138.833 20.1666 139.371C21.2437 139.909 20.0409 144.743 21.782 147.447C23.5868 150.25 26.0892 149.601 28.781 152.336C31.4728 155.072 32.3704 167.591 34.165 174.949C35.9597 182.307 41.6476 182.029 41.7027 187.871C41.7759 195.624 21.059 202.242 28.781 202.946C30.6771 203.119 36.6776 198.1 33.6266 202.408Z" fill="#D28E43"/>
<path d="M25.0126 208.286C24.0153 209.284 22.3206 209.902 22.3206 209.902V208.825C22.3206 208.825 23.6419 208.39 24.4742 207.748C25.5401 206.926 27.1663 203.979 27.1663 203.979C27.1663 203.979 26.01 207.289 25.0126 208.286Z" fill="#5C3B34"/>
<path d="M22.3205 178.674L19.6285 252.974H22.8589L22.5429 209.363L22.5351 208.286L22.3205 178.674Z" fill="#5C3B34"/>
<path d="M255.289 244.823C247.935 248.605 241.687 255.158 231.371 257.199C224.183 258.621 219.323 254.265 212.608 257.199C204.841 260.592 199 274.112 199 274.112H244.773C256.32 274.112 298.175 277 302.918 277H339V257.199C339 257.199 310.741 265.489 293.227 261.53C285.772 259.846 281.891 257.759 274.876 254.724C267.01 251.32 262.643 241.042 255.289 244.823Z" fill="#7A8F6A"/>
<path d="M35.531 189.554L39.7219 175L42.2365 181.653L43.0746 184.564C43.354 185.396 43.9966 187.143 44.3319 187.475C44.6672 187.808 44.751 189.832 44.751 190.802C44.8907 192.05 45.1701 194.711 45.1701 195.376C45.1701 196.208 45.5892 197.455 46.0083 197.871C46.3435 198.204 46.7067 199.396 46.8464 199.95L46.0083 202.446C46.4273 203.693 47.2655 206.271 47.2655 206.604C47.2655 206.937 46.9861 208.406 46.8464 209.099L48.5228 210.762L48.9419 213.257L46.4273 213.673L48.5228 215.337L51.8755 218.248L50.1991 217.416H47.6846C47.964 217.832 48.6066 218.663 48.9419 218.663C49.361 218.663 49.7801 220.743 50.6182 221.574C51.2888 222.24 50.3388 222.406 49.7801 222.406L48.1037 221.574V223.238L49.361 225.317C49.6404 225.871 50.283 227.063 50.6182 227.396C50.9535 227.729 52.4343 228.644 53.1328 229.059L53.5518 229.891H51.4564C51.1211 229.891 49.9197 229.059 49.361 228.644L49.7801 231.554L51.4564 233.634L54.39 236.545H53.1328L49.7801 235.297L50.1991 238.208L52.7137 240.287L54.8091 243.198L50.6182 242.366L59 248.604H56.9046L51.8755 247.772L48.1037 259L29.6638 257.337L30.0829 252.347C28.5462 252.624 25.3891 253.178 25.0538 253.178C24.7185 253.178 26.0317 251.515 26.7302 250.683C27.708 249.436 29.7476 246.857 30.0829 246.525C30.4181 246.192 30.7814 242.782 30.9211 241.119H25.0538L29.6638 238.208L32.1783 234.05H30.0829L25.4729 233.218L32.1783 225.733L28.8256 226.149L33.4356 220.743L30.9211 219.911L32.5974 217.416H31.3401L32.5974 214.089H28.8256L31.7592 211.594H28.8256L31.7592 206.188H29.6638L30.9211 204.525L32.5974 203.277H28.8256C29.2447 202.584 30.5858 200.699 32.5974 198.703C33.9385 198.038 33.1562 197.04 32.5974 196.624H30.9211L35.531 193.297H33.4356L35.531 191.218H33.4356L35.531 189.554Z" fill="#63714C"/>
<path d="M267.531 189.554L271.722 175L274.236 181.653L275.075 184.564C275.354 185.396 275.997 187.143 276.332 187.475C276.667 187.808 276.751 189.832 276.751 190.802C276.891 192.05 277.17 194.711 277.17 195.376C277.17 196.208 277.589 197.455 278.008 197.871C278.344 198.204 278.707 199.396 278.846 199.95L278.008 202.446C278.427 203.693 279.266 206.271 279.266 206.604C279.266 206.937 278.986 208.406 278.846 209.099L280.523 210.762L280.942 213.257L278.427 213.673L280.523 215.337L283.875 218.248L282.199 217.416H279.685C279.964 217.832 280.607 218.663 280.942 218.663C281.361 218.663 281.78 220.743 282.618 221.574C283.289 222.24 282.339 222.406 281.78 222.406L280.104 221.574V223.238L281.361 225.317C281.64 225.871 282.283 227.063 282.618 227.396C282.953 227.729 284.434 228.644 285.133 229.059L285.552 229.891H283.456C283.121 229.891 281.92 229.059 281.361 228.644L281.78 231.554L283.456 233.634L286.39 236.545H285.133L281.78 235.297L282.199 238.208L284.714 240.287L286.809 243.198L282.618 242.366L291 248.604H288.905L283.875 247.772L280.104 259L261.664 257.337L262.083 252.347C260.546 252.624 257.389 253.178 257.054 253.178C256.719 253.178 258.032 251.515 258.73 250.683C259.708 249.436 261.748 246.857 262.083 246.525C262.418 246.192 262.781 242.782 262.921 241.119H257.054L261.664 238.208L264.178 234.05H262.083L257.473 233.218L264.178 225.733L260.826 226.149L265.436 220.743L262.921 219.911L264.597 217.416H263.34L264.597 214.089H260.826L263.759 211.594H260.826L263.759 206.188H261.664L262.921 204.525L264.597 203.277H260.826C261.245 202.584 262.586 200.699 264.597 198.703C265.938 198.038 265.156 197.04 264.597 196.624H262.921L267.531 193.297H265.436L267.531 191.218H265.436L267.531 189.554Z" fill="#63714C"/>
<path d="M48.9823 201.129L52.5569 189L54.7017 194.545L55.4166 196.97C55.6549 197.663 56.203 199.119 56.489 199.396C56.7749 199.673 56.8464 201.36 56.8464 202.168C56.9656 203.208 57.2039 205.426 57.2039 205.98C57.2039 206.673 57.5613 207.713 57.9188 208.059C58.2048 208.337 58.5146 209.33 58.6337 209.792L57.9188 211.871C58.2763 212.911 58.9912 215.059 58.9912 215.337C58.9912 215.614 58.7529 216.838 58.6337 217.416L60.0636 218.802L60.421 220.881L58.2763 221.228L60.0636 222.614L62.9232 225.04L61.4934 224.347H59.3486C59.5869 224.693 60.135 225.386 60.421 225.386C60.7785 225.386 61.1359 227.119 61.8508 227.812C62.4228 228.366 61.6125 228.505 61.1359 228.505L59.7061 227.812V229.198L60.7785 230.931C61.0168 231.393 61.5649 232.386 61.8508 232.663C62.1368 232.941 63.3998 233.703 63.9956 234.05L64.353 234.743H62.5658C62.2798 234.743 61.2551 234.05 60.7785 233.703L61.1359 236.129L62.5658 237.861L65.068 240.287H63.9956L61.1359 239.248L61.4934 241.673L63.6381 243.406L65.4254 245.832L61.8508 245.139L69 250.337H67.2127L62.9232 249.644L59.7061 259L43.9779 257.614L44.3354 253.455C43.0247 253.686 40.3319 254.149 40.0459 254.149C39.7599 254.149 40.88 252.762 41.4757 252.069C42.3098 251.03 44.0494 248.881 44.3354 248.604C44.6214 248.327 44.9312 245.485 45.0503 244.099H40.0459L43.9779 241.673L46.1227 238.208H44.3354L40.4034 237.515L46.1227 231.277L43.263 231.624L47.1951 227.119L45.0503 226.426L46.4801 224.347H45.4078L46.4801 221.574H43.263L45.7652 219.495H43.263L45.7652 214.99H43.9779L45.0503 213.604L46.4801 212.564H43.263C43.6205 211.987 44.7643 210.416 46.4801 208.752C47.624 208.198 46.9568 207.366 46.4801 207.02H45.0503L48.9823 204.248H47.1951L48.9823 202.515H47.1951L48.9823 201.129Z" fill="#7A8B5E"/>
<path d="M280.982 201.129L284.557 189L286.702 194.545L287.417 196.97C287.655 197.663 288.203 199.119 288.489 199.396C288.775 199.673 288.846 201.36 288.846 202.168C288.966 203.208 289.204 205.426 289.204 205.98C289.204 206.673 289.561 207.713 289.919 208.059C290.205 208.337 290.515 209.33 290.634 209.792L289.919 211.871C290.276 212.911 290.991 215.059 290.991 215.337C290.991 215.614 290.753 216.838 290.634 217.416L292.064 218.802L292.421 220.881L290.276 221.228L292.064 222.614L294.923 225.04L293.493 224.347H291.349C291.587 224.693 292.135 225.386 292.421 225.386C292.778 225.386 293.136 227.119 293.851 227.812C294.423 228.366 293.613 228.505 293.136 228.505L291.706 227.812V229.198L292.778 230.931C293.017 231.393 293.565 232.386 293.851 232.663C294.137 232.941 295.4 233.703 295.996 234.05L296.353 234.743H294.566C294.28 234.743 293.255 234.05 292.778 233.703L293.136 236.129L294.566 237.861L297.068 240.287H295.996L293.136 239.248L293.493 241.673L295.638 243.406L297.425 245.832L293.851 245.139L301 250.337H299.213L294.923 249.644L291.706 259L275.978 257.614L276.335 253.455C275.025 253.686 272.332 254.149 272.046 254.149C271.76 254.149 272.88 252.762 273.476 252.069C274.31 251.03 276.049 248.881 276.335 248.604C276.621 248.327 276.931 245.485 277.05 244.099H272.046L275.978 241.673L278.123 238.208H276.335L272.403 237.515L278.123 231.277L275.263 231.624L279.195 227.119L277.05 226.426L278.48 224.347H277.408L278.48 221.574H275.263L277.765 219.495H275.263L277.765 214.99H275.978L277.05 213.604L278.48 212.564H275.263C275.62 211.987 276.764 210.416 278.48 208.752C279.624 208.198 278.957 207.366 278.48 207.02H277.05L280.982 204.248H279.195L280.982 202.515H279.195L280.982 201.129Z" fill="#7A8B5E"/>
<path d="M304.681 179.673L299.381 162L296.201 170.079L295.141 173.614C294.788 174.624 293.975 176.745 293.551 177.149C293.127 177.552 293.021 180.01 293.021 181.188C292.844 182.703 292.491 185.935 292.491 186.743C292.491 187.752 291.961 189.267 291.431 189.772C291.007 190.176 290.547 191.624 290.371 192.297L291.431 195.327C290.901 196.842 289.841 199.972 289.841 200.376C289.841 200.78 290.194 202.564 290.371 203.406L288.251 205.426L287.721 208.455L290.901 208.96L288.251 210.98L284.01 214.515L286.131 213.505H289.311C288.957 214.01 288.145 215.02 287.721 215.02C287.191 215.02 286.661 217.545 285.6 218.554C284.752 219.362 285.954 219.564 286.661 219.564L288.781 218.554V220.574L287.191 223.099C286.837 223.772 286.024 225.22 285.6 225.624C285.176 226.028 283.304 227.139 282.42 227.644L281.89 228.653H284.54C284.964 228.653 286.484 227.644 287.191 227.139L286.661 230.673L284.54 233.198L280.83 236.733H282.42L286.661 235.218L286.131 238.752L282.95 241.277L280.3 244.812L285.6 243.802L275 251.376H277.65L284.01 250.366L288.781 264L312.102 261.98L311.572 255.921C313.515 256.257 317.508 256.931 317.932 256.931C318.356 256.931 316.695 254.911 315.812 253.901C314.575 252.386 311.996 249.255 311.572 248.851C311.148 248.448 310.688 244.307 310.512 242.287H317.932L312.102 238.752L308.922 233.703H311.572L317.402 232.693L308.922 223.604L313.162 224.109L307.331 217.545L310.512 216.535L308.392 213.505H309.982L308.392 209.465H313.162L309.452 206.436H313.162L309.452 199.871H312.102L310.512 197.851L308.392 196.337H313.162C312.632 195.495 310.936 193.206 308.392 190.782C306.695 189.974 307.685 188.762 308.392 188.257H310.512L304.681 184.218H307.331L304.681 181.693H307.331L304.681 179.673Z" fill="#9AAA80"/>
<path d="M29.7113 241.823C37.0653 245.605 43.3128 252.158 53.6289 254.199C60.817 255.621 65.6768 251.265 72.3918 254.199C80.159 257.592 86 271.112 86 271.112H40.2268C28.6804 271.112 -13.1753 274 -17.9175 274H-54V254.199C-54 254.199 -25.7407 262.489 -8.22681 258.53C-0.771606 256.846 3.1087 254.759 10.1237 251.724C17.9899 248.32 22.3574 238.042 29.7113 241.823Z" fill="#7A8F6A"/>
</g>
<defs>
<clipPath id="clip0_9_5216">
<rect width="344" height="290" rx="29" fill="white"/>
</clipPath>
</defs>
</svg>
