<svg width="815" height="370" viewBox="0 0 815 370" fill="none" xmlns="http://www.w3.org/2000/svg">
<g clip-path="url(#clip0_69_20)">
<path d="M15.94 293.85C23.03 292.14 30.33 292.02 37.38 291.92C39.38 291.89 41.38 291.86 43.37 291.79C51.44 291.52 60.72 290.6 68.36 285.82C69.02 285.41 69.46 284.95 69.67 284.65C69.42 284.57 68.97 284.48 68.15 284.46L22.01 283.51C15.06 283.37 7.36 283.21 0 281.28C0.05 286.65 0.26 292.41 0.75 297.5C3.97 297.29 7.27 296.32 10.71 295.3C12.41 294.79 14.17 294.27 15.93 293.84L15.94 293.85Z" fill="white"/>
<path d="M22.11 278.39L68.25 279.34C69.41 279.36 72.96 279.44 74.24 282.59C75.32 285.24 73.97 288.25 70.79 290.24C62.21 295.61 52.19 296.63 43.52 296.92C41.5 296.99 39.48 297.02 37.45 297.05C30.64 297.15 23.61 297.26 17 298.86C15.36 299.26 13.65 299.76 12.01 300.25C8.55001 301.28 5.01001 302.32 1.39001 302.61C2.17001 308.04 3.19001 313.04 4.70001 317.93C14.65 314.47 24.93 311.17 35.67 310.53C37.28 310.43 38.9 310.4 40.47 310.37C42.88 310.32 45.16 310.27 47.44 310.02C51.8 309.54 56 308.34 60.45 307.07C63.69 306.15 67.04 305.19 70.44 304.55C73.4 303.99 76.41 303.66 79.33 303.33C85.34 302.67 91.01 302.04 96.16 299.59C100.52 297.51 104.41 294.05 107.1 289.84C108.81 287.16 109.52 284.81 109.21 282.85C108.87 280.71 107.18 278.66 104.71 277.37C102.5 276.22 99.97 275.71 97.3 275.18L96.31 274.98C84.8 272.64 73.68 268.59 63.21 262.99L5.03001 262.47C2.40001 262.45 0.24001 264.66 0.16001 267.47C0.0900098 269.77 0.0300098 272.71 0.0100098 275.98C7.11001 278.07 14.72 278.24 22.12 278.39H22.11Z" fill="white"/>
<path d="M39.8699 344.4C40.7299 343.88 41.7899 343.16 42.4299 342.23C42.6599 341.9 42.8199 341.53 42.8999 341.18L37.5899 341.44C36.8899 341.47 36.2399 341.51 35.6799 341.64C35.0399 341.79 34.3599 342.11 33.6299 342.45L33.0999 342.7C28.8099 344.65 24.2399 345.6 20.0699 346.11C21.6399 348.26 23.0099 350.1 24.1999 351.66C26.6899 350.23 29.3499 349.14 31.9699 348.09C34.7899 346.95 37.4499 345.88 39.8699 344.41V344.4Z" fill="white"/>
<path d="M395.63 340.89C396.1 341.18 398.4 341.67 400.46 340.03C406.23 335.44 407.07 333.85 408.75 330.67L409.37 329.51C413.51 321.85 415.24 312.62 417.07 302.84C417.87 298.55 418.71 294.12 419.78 289.54C422.1 279.64 423.31 271.99 423.5 266.18L418.75 266.14C419.21 272.81 418.91 277.78 416.75 286.14C416.21 288.23 415.62 290.34 415.03 292.44C414.5 294.32 413.98 296.19 413.49 298.04C413.03 299.81 412.72 302.33 412.4 304.99C412.12 307.34 411.83 309.77 411.38 312.14C410.46 317.05 408.68 323.71 403.84 324.78C403.3 324.9 402.81 324.95 402.35 324.95C400.69 324.95 399.55 324.26 398.84 323.6C397.18 322.07 396.41 319.38 396.62 315.82C396.66 315.08 396.7 314.33 396.73 313.57C396.85 310.96 396.98 308.26 397.43 305.64C399.38 294.22 399.06 288.12 398.77 282.74C398.52 277.87 398.29 273.24 399.72 265.96L395.25 265.92C392.95 283.73 392.2 301.69 392.9 322.3C392.96 324.16 392.87 326.12 392.79 328.02C392.49 334.56 392.53 338.98 395.63 340.88V340.89Z" fill="white"/>
<path d="M404.55 266.38C403.1 273.38 403.32 277.59 403.58 282.45C403.88 288.12 404.21 294.54 402.17 306.56C401.78 308.86 401.66 311.38 401.55 313.83C401.51 314.61 401.48 315.38 401.43 316.14C401.3 318.44 401.75 319.5 402 319.73C402.19 319.9 402.72 319.8 402.88 319.76C403.42 319.64 405.28 318.67 406.69 311.13C407.1 308.93 407.38 306.59 407.66 304.33C408 301.47 408.33 298.78 408.89 296.65C409.38 294.77 409.92 292.87 410.45 290.96C411.03 288.89 411.61 286.81 412.14 284.76C414.17 276.9 414.41 272.48 413.95 266.08L404.61 266C404.61 266.12 404.59 266.25 404.57 266.37L404.55 266.38Z" fill="white"/>
<path d="M177.31 293.15C189.43 292.69 201.96 292.21 214.31 294C218.37 294.59 222.42 295.42 226.34 296.23C230.88 297.17 235.58 298.14 240.2 298.69C246.53 299.46 253.07 299.5 259.4 299.54C264.65 299.57 270.07 299.61 275.43 300.05C276.38 300.13 277.34 300.22 278.3 300.31C281.73 300.64 284.97 300.95 288.2 300.68C291.23 300.43 294.33 299.64 297.33 298.88L358.85 283.26C360.68 282.79 362.76 282.27 364.1 281.07C366.32 279.08 366.59 275.6 366.89 271.57C367.04 269.62 367.19 267.63 367.58 265.68L341.87 265.45C336.65 273.35 328.37 278.98 319.44 280.62C317.09 281.05 314.73 281.22 312.45 281.37C310.2 281.53 308.08 281.67 305.99 282.05C302.71 282.65 299.56 283.8 296.23 285.03C293.72 285.95 291.12 286.91 288.45 287.61C277.32 290.52 265.88 288.82 254.82 287.18C251.76 286.72 248.6 286.25 245.52 285.9C237.14 284.93 228.53 284.72 221.11 284.61C212.13 284.47 201.69 284.4 191.45 285.43C184.32 286.14 177.08 287.41 170.09 288.62L127.36 296.07C125.28 296.43 123.18 296.89 122.26 298.2C121.29 299.58 121.84 301.88 122.89 303.22C124.06 304.7 125.96 305.82 128.87 306.73C136.55 309.13 145.07 308.88 153.31 308.64C164.2 308.32 175.47 307.99 185.39 313.6C190.02 316.22 193.91 319.91 197.67 323.49C201.42 327.05 204.96 330.41 209.12 332.74C218.59 338.03 230.12 337.25 241.27 336.49L243.73 336.33C264.19 335 284.87 335.73 305.2 338.5C308.69 338.97 312.08 339.53 315.21 341.13C319.59 343.36 322.77 349.81 325.35 353.7C326.11 353.76 326.67 353.83 326.99 353.91C328.88 354.33 334.04 353.89 339.67 354.7C339.52 353.92 339.15 353.07 338.74 352.12C338.45 351.45 338.17 349.51 337.93 348.83C336.47 344.65 336.88 339.87 339.02 336.04C339.36 335.44 339.92 335.01 340.56 334.85C344.45 333.93 348.15 335.8 350.93 337.54C358.31 342.15 364.73 348.47 369.69 355.9C371.43 355.97 373.23 356.05 374.98 356.13C373.83 353.69 372.91 350.76 372.23 347.32L372.03 346.3C370.92 340.56 369.78 334.63 365.84 331.78C363.52 330.1 360.52 329.68 356.85 329.32C317 325.33 276.51 323.3 236.49 323.28C229.54 323.28 221.66 323.28 215.11 318.97C212.95 317.55 211.12 315.77 209.35 314.05C207.76 312.5 206.26 311.05 204.59 309.9C200.67 307.2 195.94 306.27 190.93 305.29C188.3 304.77 185.57 304.24 182.93 303.42C177.29 301.67 175.52 298.56 175.04 296.25C174.88 295.51 175.04 294.73 175.48 294.13C175.92 293.53 176.58 293.16 177.29 293.14L177.31 293.15Z" fill="white"/>
<path d="M108.85 344.67C104.37 349.52 99.2601 353.74 93.7401 357.21C98.4101 357.11 103.48 357.01 108.8 356.9C109.95 353.62 113.03 351.16 116.19 349.99C117.36 349.56 118.54 349.24 119.68 348.93C121.76 348.37 123.73 347.83 125.26 346.71C126 346.17 126.71 345.44 127.46 344.66C128.65 343.43 130 342.03 131.8 341.15C134.14 340.01 136.66 340.03 138.68 340.05C147.89 340.14 157.24 340.35 166.46 340.65C168.07 340.7 170.08 340.77 171.96 341.68C173.46 342.4 174.61 343.51 175.61 344.49L186.9 355.45C189.34 355.41 191.68 355.38 193.92 355.35C190.74 351.91 188.05 347.72 186.14 342.99L185.8 342.13C185.22 340.67 184.68 339.28 183.86 338.31C182.71 336.95 180.8 336.19 179.09 335.62C170.25 332.71 161.04 332.73 151.28 332.75C145.2 332.76 138.93 332.78 132.77 332.01C131.03 331.79 129.03 331.45 127.37 330.03C126.38 329.19 125.75 328.17 125.19 327.27C125.02 327 124.86 326.73 124.68 326.48C121.73 322.15 115.82 321.03 110.03 320.26L95.8901 318.37C91.5801 317.8 87.1401 317.44 84.4001 319.96C84.1301 320.21 83.9901 320.4 83.9301 320.51C84.0401 320.67 84.3501 320.97 84.8701 321.23C86.8101 322.21 89.1601 322.34 91.6401 322.47L92.4801 322.52C97.5901 322.83 104.92 323.86 109.62 329.24C112.05 332.02 113.09 335.36 112.49 338.42C111.99 340.96 110.44 342.91 108.84 344.64L108.85 344.67Z" fill="white"/>
<path d="M40.47 359.96C51.92 357.47 62.91 353.2 73.21 347.19C78.03 344.38 80.82 341.54 81.67 338.58C76.06 336.84 70.24 335.99 64.39 335.98C63.66 335.98 62.92 336 62.17 336.01C57.58 336.1 52.39 336.2 48 333.4C47.62 333.16 47.26 332.9 46.89 332.64C46.21 332.16 45.58 331.7 45 331.52C44.22 331.27 43.14 331.4 42.19 331.52C32.55 332.68 22.87 334.34 13.34 336.42C14.34 338.01 15.41 339.62 16.59 341.27C16.59 341.28 16.61 341.29 16.62 341.31C21.29 340.94 26.45 340.15 31.2 337.98L31.7 337.75C32.57 337.35 33.55 336.89 34.64 336.63C35.6 336.4 36.53 336.36 37.36 336.32L43.77 336C44.22 335.98 45.27 335.93 46.23 336.67C46.81 337.12 47.22 337.75 47.48 338.59C48.14 340.72 47.7 343.21 46.32 345.24C45.15 346.95 43.54 348.07 42.26 348.84C39.51 350.52 36.54 351.71 33.67 352.87C31.46 353.76 29.32 354.63 27.35 355.67C29.38 358.15 32.26 359.63 35.35 359.81C36.98 359.91 38.81 359.98 40.48 359.96H40.47Z" fill="white"/>
<path d="M428.3 266.24C428.11 272.44 426.85 280.48 424.43 290.79C423.39 295.25 422.57 299.62 421.77 303.85C419.86 314.05 418.05 323.68 413.52 332.07L412.92 333.19C410.94 336.95 409.61 339.14 403.32 344.14C401.38 345.68 399.14 346.32 397.14 346.32C395.63 346.32 394.25 345.95 393.23 345.33C387.35 341.73 387.69 334.31 387.99 327.78C388.08 325.9 388.16 324.13 388.1 322.49C387.4 301.83 388.14 283.78 390.41 265.88L372.52 265.72C372.01 267.6 371.83 269.73 371.66 271.97C371.32 276.49 370.94 281.62 367.17 284.99C364.96 286.97 362.18 287.67 359.94 288.24L298.42 303.86C295.24 304.67 291.96 305.5 288.55 305.78C284.92 306.08 281.32 305.74 277.85 305.4C276.91 305.31 275.98 305.22 275.04 305.14C269.85 304.71 264.52 304.68 259.35 304.65C252.89 304.61 246.22 304.57 239.64 303.77C234.83 303.19 230.04 302.2 225.41 301.24C221.55 300.44 217.57 299.62 213.64 299.05C203.54 297.59 193.17 297.7 182.99 298.04C183.44 298.23 183.88 298.38 184.25 298.49C186.66 299.24 189.15 299.72 191.78 300.24C197.03 301.27 202.45 302.34 207.17 305.58C209.17 306.96 210.89 308.63 212.56 310.25C214.24 311.88 215.83 313.43 217.61 314.6C223.01 318.14 230.16 318.15 236.47 318.15C276.63 318.17 317.28 320.21 357.27 324.21C360.71 324.55 364.98 324.98 368.51 327.54C374.06 331.56 375.47 338.84 376.71 345.26L376.91 346.27C377.58 349.72 378.77 353.7 380.81 356.42C383.04 356.55 384.94 356.67 386.2 356.78C391.78 357.28 393.44 357.19 397.27 356.14C401 355.12 417.42 339.1 421.28 329.02C422.42 326.04 422.86 323.54 424.31 318.36C425.96 312.5 428.94 301.75 429.64 295.56C430.13 291.22 431.98 279.28 432.89 272.02C433.27 268.99 431.11 266.31 428.26 266.21L428.3 266.24ZM330.9 308.82L364.18 309.63C367.31 309.71 371.21 309.8 374.59 311.73C378.15 313.76 381.12 318.48 379.62 323.23C379.28 324.3 378.35 324.97 377.35 324.97C377.1 324.97 376.84 324.93 376.58 324.83C375.32 324.38 374.65 322.92 375.07 321.58C375.68 319.67 374.14 317.27 372.32 316.24C369.95 314.89 366.82 314.81 364.07 314.75L330.79 313.94C326.6 313.84 321.51 313.14 319.34 308.57C319.04 307.94 319 307.22 319.22 306.55C319.44 305.89 319.9 305.35 320.5 305.07C328.93 301.06 338.14 300.39 347.04 299.74C351.98 299.38 357.09 299.01 361.93 298.06C365.08 297.44 369.66 296.28 372.99 293.37C375.5 291.18 377.66 287.27 376.84 283.47C376.54 282.09 377.35 280.72 378.64 280.4C379.93 280.08 381.22 280.94 381.52 282.32C382.65 287.54 380.5 293.43 376.04 297.33C371.85 301 366.48 302.38 362.81 303.1C357.7 304.1 352.46 304.48 347.38 304.85C339.93 305.39 332.83 305.91 326.23 308.21C327.4 308.58 328.94 308.78 330.92 308.82H330.9Z" fill="white"/>
<path d="M348.51 341.97C346.79 340.89 344.69 339.71 342.64 339.74C341.72 342.02 341.63 344.73 342.43 347.05C342.62 347.61 342.86 348.15 343.1 348.7C343.78 350.27 344.53 353.31 344.54 355.39C350.52 356.2 356.13 355.57 358.12 355.57C359.21 355.57 361.14 355.62 363.51 355.69C359.32 350.22 354.22 345.55 348.51 341.97Z" fill="white"/>
<path d="M201.17 355.28C207.35 355.21 212.17 355.19 215.08 355.22C225.68 354.14 236.48 354.33 247.06 353.78C253.97 353.42 257.24 354.25 264.17 354.14C270.9 354.04 278.17 354.08 284 353.89C294.66 353.73 307.05 353.68 320.18 353.89C318.43 351.72 315.41 346.91 313.15 345.76C310.65 344.49 307.8 344.02 304.6 343.59C284.56 340.86 264.18 340.15 244.03 341.45L241.59 341.61C229.78 342.41 217.57 343.24 206.91 337.28C202.22 334.66 198.29 330.93 194.49 327.32C190.78 323.79 187.27 320.46 183.15 318.13C174.34 313.15 164.19 313.45 153.45 313.76C144.84 314.01 135.93 314.27 127.52 311.64C125.09 310.88 121.58 309.52 119.21 306.51C116.9 303.58 115.89 298.73 118.41 295.13C120.56 292.06 124.33 291.4 126.58 291.01L169.31 283.56C176.39 282.33 183.7 281.05 191 280.32C201.48 279.27 212.07 279.34 221.17 279.48C228.7 279.6 237.45 279.81 246.03 280.8C249.18 281.17 252.38 281.64 255.47 282.1C266.08 283.68 277.06 285.31 287.29 282.63C289.75 281.99 292.13 281.11 294.65 280.18C298.02 278.94 301.5 277.66 305.17 276.99C307.51 276.56 309.86 276.4 312.12 276.24C314.38 276.08 316.51 275.94 318.61 275.55C325.16 274.35 331.31 270.65 335.77 265.38L75.13 263.07C82.26 266.08 89.64 268.39 97.19 269.93L98.16 270.13C101.03 270.7 104 271.29 106.8 272.75C110.66 274.76 113.32 278.21 113.93 281.97C114.46 285.28 113.5 288.89 111.06 292.71C107.83 297.77 103.35 301.76 98.11 304.25C92.26 307.03 85.94 307.73 79.82 308.41C76.99 308.72 74.06 309.05 71.28 309.57C68.08 310.18 64.83 311.1 61.69 312C57.25 313.26 52.66 314.57 47.93 315.09C45.45 315.36 42.97 315.42 40.57 315.47C39.05 315.5 37.47 315.54 35.94 315.63C25.86 316.23 15.98 319.38 6.38 322.72C7.54 325.72 8.94 328.72 10.63 331.79C20.88 329.5 31.3 327.68 41.67 326.43C42.94 326.28 44.67 326.07 46.38 326.61C47.65 327.01 48.67 327.74 49.57 328.38C49.87 328.59 50.17 328.81 50.47 329C53.68 331.05 57.76 330.97 62.08 330.88C62.85 330.86 63.61 330.85 64.37 330.85C71.41 330.82 78.39 332 85.09 334.34C86.09 334.69 86.76 335.7 86.74 336.82C86.64 342.46 82.96 347.31 75.5 351.67C71.53 353.99 67.46 356.03 63.3 357.85C63.93 357.81 64.44 357.79 64.79 357.79C65.37 357.79 72.15 357.65 82.54 357.43C91.07 353.68 98.95 348.07 105.42 341.07C106.43 339.98 107.53 338.7 107.79 337.39C108.11 335.76 107.13 333.93 106.11 332.76C102.59 328.73 96.49 327.92 92.21 327.66L91.39 327.61C88.68 327.46 85.61 327.29 82.82 325.88C80.41 324.67 79.02 322.61 79.1 320.36C79.14 319.29 79.54 317.68 81.27 316.09C85.5 312.21 91.34 312.62 96.49 313.31L110.63 315.2C117.17 316.07 124.49 317.5 128.57 323.49C128.79 323.81 128.99 324.14 129.2 324.47C129.6 325.11 129.97 325.72 130.37 326.05C131.04 326.62 132.2 326.8 133.33 326.94C139.21 327.67 145.35 327.66 151.27 327.64C160.96 327.62 170.97 327.59 180.5 330.73C182.84 331.5 185.48 332.59 187.42 334.88C188.79 336.5 189.55 338.43 190.22 340.14L190.54 340.95C192.95 346.91 196.71 351.86 201.16 355.25L201.17 355.28Z" fill="white"/>
<path d="M169.99 346.37C168.97 345.88 167.62 345.84 166.31 345.79C157.12 345.48 147.81 345.28 138.63 345.19C137 345.17 135.16 345.16 133.79 345.82C132.75 346.33 131.8 347.31 130.8 348.35C129.94 349.24 129.05 350.16 127.98 350.94C125.74 352.57 123.27 353.25 120.87 353.89C119.78 354.19 118.75 354.47 117.77 354.83C116.61 355.26 115.47 355.95 114.6 356.79C135.8 356.36 160.12 355.9 179.88 355.58L172.38 348.3C171.6 347.54 170.8 346.76 169.98 346.37H169.99Z" fill="white"/>
<path d="M243.25 182.85V229.84L230.74 255.78H199.61L187.08 229.84V182.85C187.08 180.43 188.92 178.46 191.19 178.46H239.14C241.41 178.46 243.25 180.42 243.25 182.85Z" fill="white"/>
<path d="M180.19 232.49H18.21C8.59004 232.49 0.790039 240.81 0.790039 251.08V255.79H191.45L180.2 232.49H180.19Z" fill="white"/>
<path d="M416.42 232.49H250.14L238.9 255.79H433.84V251.08C433.84 240.81 426.04 232.49 416.42 232.49Z" fill="white"/>
<path d="M79.25 51.65C81.0449 51.65 82.5 50.0964 82.5 48.18C82.5 46.2635 81.0449 44.71 79.25 44.71C77.4551 44.71 76 46.2635 76 48.18C76 50.0964 77.4551 51.65 79.25 51.65Z" fill="white"/>
<path d="M196.41 74.26L191.5 89.5701C190.9 91.4201 189 92.4201 187.26 91.7801L179 88.77L166.77 126.92C169.03 128.56 170.55 130.02 170.82 130.95C171.57 133.54 164.49 148.18 158.07 154.05L154.46 165.32C154.02 166.68 152.62 167.41 151.35 166.94L143 163.9C141.73 163.43 141.05 161.95 141.49 160.58L142.8 156.51C140.07 156.36 137.75 156.08 136.82 155.64C136.82 155.64 135.91 155.13 134.86 154.37C135.82 152.22 135.94 150.03 135.92 148.06C135.86 136.36 137.31 125.89 140.25 116.94C141.67 117.09 143.05 117.22 144.34 117.32C147.3 117.55 150.89 118.64 154.46 120.14L166.04 84.0301L153.67 79.51C151.18 78.61 150.61 75.12 152.66 73.38L166.75 61.4C167.64 60.64 168.82 60.4301 169.9 60.8201L194.33 69.7301C196.08 70.3701 197.01 72.39 196.41 74.26Z" fill="white"/>
<path d="M34.68 45.87C35.78 46.12 37.46 46.23 38.11 46.27L81 25.53C81.14 24.65 82.24 17.96 82.46 15.8C82.69 13.5 80.52 13 79.05 13C77.58 13 31.73 34.22 30.41 36.37C29.1 38.51 29.17 41.24 29.56 42.14C29.96 43.05 33.28 45.53 34.67 45.87H34.68Z" fill="white"/>
<path d="M125.72 196.53C125.37 196.6 125.07 196.94 124.99 197.37C124.85 198.08 124.99 198.74 125.39 199.3C125.72 199.76 126.57 200.4 127.18 200.87L127.5 201.12C128.16 201.63 129 202.01 129.89 202.42L131.4 203.11C132.17 203.46 132.93 203.81 136.77 205.59C137.96 206.14 138.99 206.7 139.94 207.3C138.84 204.22 137.68 200.93 136.51 197.58L129.83 196.67C128.6 196.49 127.06 196.26 125.7 196.52L125.72 196.53Z" fill="white"/>
<path d="M134.86 210.29C131.03 208.51 130.28 208.17 129.52 207.82L127.99 207.12C126.96 206.64 125.79 206.1 124.7 205.27L124.4 205.04C123.49 204.35 122.35 203.49 121.58 202.42C120.32 200.67 119.86 198.5 120.29 196.32C120.78 193.85 122.62 191.91 124.89 191.49C126.98 191.1 129.1 191.4 130.5 191.61L134.67 192.18C133.99 190.17 133.31 188.16 132.66 186.18C125.57 185.41 118.3 187.38 112.45 191.74C108.86 194.41 105.02 199.26 105.99 204.11C106.74 207.86 110.07 210.65 113.71 213.42L130.62 226.3H146.9C146.9 226.3 145.5 222.6 143.44 216.95C140.16 213.51 138.33 211.91 134.87 210.3L134.86 210.29Z" fill="white"/>
<path d="M110.91 217.58C106.65 214.34 102.4 210.71 101.29 205.17C99.8201 197.87 104.67 191.27 109.7 187.53C115.89 182.92 123.45 180.61 130.96 180.91C128.57 173.38 126.69 166.74 126.06 162.8C122.69 165.32 119.87 167.38 117.24 169.24C110.04 174.33 103.88 178.21 97.8501 181.45C81.4201 190.27 63.4901 195.47 47.8101 199.62L68.8301 226.28H122.35L110.91 217.57V217.58Z" fill="white"/>
<path d="M135.38 116.36C132.5 125.62 131.05 136.27 131.12 148.09C131.14 150.57 130.91 152.09 129.66 153.51C128.44 154.89 126.89 156 125.26 157.18C124.74 157.55 124.23 157.92 123.72 158.3C120.19 160.94 117.29 163.06 114.59 164.97C107.55 169.95 101.55 173.74 95.6901 176.88C79.3101 185.68 61.2101 190.82 45.5201 194.95C44.6501 195.18 43.7801 195.42 42.9101 195.66C41.4701 196.06 40.0001 196.45 38.5301 196.8C38.4601 196.77 38.3801 196.74 38.3201 196.71C35.8401 195.55 24.5401 166.31 22.2101 157.72C21.2501 154.17 19.9001 147.6 18.8201 139.77C24.9701 143.21 32.4501 144.38 39.7801 145.23C43.5801 145.67 47.6501 146.13 51.7801 146.13C55.5501 146.13 59.3801 145.74 63.0901 144.58C65.1901 143.91 67.1901 143.02 69.1301 142.16C70.4601 141.57 71.7301 141.01 73.0201 140.52C76.0101 139.38 78.9901 138.69 81.8701 138.48C82.3201 138.45 82.7701 138.43 83.2301 138.41C84.9601 138.32 86.7601 138.23 88.5901 137.61C91.0601 136.78 93.8801 134.63 94.3901 131.1C94.7601 128.56 93.7601 125.84 91.5901 123.45C89.3201 120.95 86.4901 119.26 83.7501 117.63C80.2301 115.53 76.9101 113.55 75.5501 110.21C73.8201 105.94 75.5201 98.52 80.7401 94.72L80.8001 94.66C88.0401 97.44 97.2401 99.95 106.94 99.95C109.09 99.95 111.26 99.81 113.44 99.53C114.48 103.27 115.93 107.96 117 109.39C118.86 111.86 128.96 115.41 128.96 115.41C131.03 115.75 133.21 116.07 135.38 116.36Z" fill="white"/>
<path d="M30.72 74.3C32.98 77.27 34.86 80.55 36.7 83.79C39.08 87.99 41.33 91.95 44.32 95.18C44.99 95.91 45.71 96.6 46.46 97.34C47.84 98.68 49.26 100.07 50.5 101.74C54.09 106.61 55.33 113.24 53.72 119.05C52.06 125.05 47.38 129.91 41.81 131.41C40.12 131.87 38.41 132.02 36.74 132.02C34.95 132.02 33.21 131.85 31.58 131.68C27.28 131.25 22.34 130.75 17.63 129.17C17.75 130.52 17.88 131.86 18.02 133.19C23.72 137.84 31.81 139.16 40.3 140.14C47.47 140.97 54.88 141.82 61.73 139.67C63.59 139.09 65.38 138.29 67.28 137.44C68.61 136.85 69.99 136.23 71.41 135.7C74.82 134.4 78.23 133.62 81.55 133.38C82.03 133.34 82.52 133.32 83.01 133.3C84.5 133.23 85.92 133.16 87.14 132.74C88.48 132.29 89.51 131.3 89.65 130.33C89.78 129.42 89.23 128.21 88.15 127.02C86.37 125.06 83.96 123.62 81.41 122.1C77.35 119.68 73.16 117.18 71.16 112.25C68.92 106.74 70.18 98.2 75.7 92.53C74.16 91.83 72.75 91.15 71.53 90.53C70.33 89.92 69.83 88.39 70.41 87.11C70.98 85.83 72.42 85.3 73.61 85.91C81.42 89.91 96.61 96.2 112.13 94.53C112.13 94.53 117.24 93.29 119.33 88.08C121.42 82.88 121.42 72.23 119.33 67.52C117.24 62.81 107.24 52.15 107.24 52.15L109.88 43.06C109.88 43.06 101.51 44.88 95.63 41.91C89.74 38.94 88.97 38.77 86.95 36.46L98.99 30.35C98.99 30.35 97.37 28.17 95.68 28.3C94 28.43 84.59 33.08 84.59 33.08L83.16 30.12L39.79 51.09C39.66 51.72 39.42 53.06 39.48 53.81C39.56 54.8 40.42 55.36 40.42 55.36C40.42 55.36 37.15 56.28 35.22 58.52C32.66 61.49 32.28 67.6 33.52 71.16C33.52 71.16 32.39 72.27 30.73 74.31L30.72 74.3ZM80.53 39.42C80.53 39.42 84.4 43.96 91.68 46.44C98.96 48.92 105.39 46.44 105.39 46.44C105.39 46.44 104.77 51.64 103.38 52.14C101.99 52.64 99.35 53.05 94.94 55.77C90.53 58.5 88.9 61.8 87.97 62.54C87.04 63.28 76.59 66.42 71.24 63.7C65.9 60.97 60.86 48.09 60.86 48.09L80.53 39.42ZM39.45 59.37C42.69 57.2 45.42 56.41 45.42 56.41L50.75 68.08C50.75 68.08 48.67 70.85 44.99 71.78C41.44 72.68 37.98 72.33 36.9 68.91C35.9 65.74 36.24 61.52 39.46 59.37H39.45Z" fill="white"/>
<path d="M17.9101 106.67C19.5101 107.78 21.1601 108.94 22.8601 109.44C24.2401 109.85 25.7701 109.89 27.4001 109.93C29.1301 109.97 30.1601 109.77 30.4501 109.34C30.5101 109.25 30.7101 108.86 30.5901 107.81C30.3701 105.89 29.4601 103.96 28.5601 102.16C27.7201 100.48 26.8301 98.81 25.9401 97.14C24.5301 94.5 23.1101 91.81 21.8301 89.01C19.9801 93.3 18.4401 98.23 17.7301 103.7C17.6201 104.56 17.5201 105.45 17.4401 106.34L17.9201 106.67H17.9101Z" fill="white"/>
<path d="M27.9701 115.06C27.7101 115.06 27.4801 115.06 27.2801 115.05C25.5201 115.01 23.5201 114.96 21.5601 114.38C19.9001 113.89 18.4201 113.05 17.0701 112.17C16.9501 115.9 17.0301 119.76 17.2301 123.59C21.9701 125.57 27.4001 126.12 32.0201 126.59C34.9301 126.88 37.9301 127.18 40.6301 126.45C44.5901 125.38 47.9201 121.9 49.1101 117.6C50.2801 113.36 49.3701 108.49 46.7201 104.91C45.7301 103.57 44.5101 102.39 43.2201 101.13C42.4501 100.38 41.6601 99.61 40.8901 98.78C37.5101 95.12 35.0101 90.71 32.5901 86.45C30.9801 83.62 29.4201 80.87 27.6701 78.42C26.6901 79.85 25.6701 81.47 24.6601 83.27C26.1201 87.12 28.0601 90.78 30.1001 94.61C31.0101 96.31 31.9201 98.02 32.7801 99.74C33.8501 101.87 35.0201 104.38 35.3401 107.18C35.5801 109.23 35.2501 110.95 34.3601 112.29C32.7001 114.81 29.7301 115.06 27.9701 115.06Z" fill="white"/>
<path d="M419.63 84.33C413.71 91.04 406.53 96.38 398.5 99.97C396.78 100.74 394.82 101.61 394.44 102.9C394.05 104.21 395.46 105.92 396.97 106.64C398.18 107.21 399.57 107.49 401.05 107.79C402.23 108.03 403.44 108.28 404.67 108.69C407.82 109.75 411.54 112.55 411.66 116.99C411.7 118.58 411.26 119.95 410.86 121.15C410.72 121.58 410.58 122.01 410.47 122.45C409.39 126.8 412.33 131.42 415.79 133.73C416.73 134.36 417.74 134.87 418.78 135.31C418.98 134.09 419.18 132.88 419.34 131.69C421.73 113.88 421.15 97.38 419.62 84.33H419.63Z" fill="white"/>
<path d="M395.73 148.31C390.75 144.73 389.74 138.28 388.85 132.6C388.06 127.6 387.32 122.87 384.28 120.33C382.77 119.06 380.74 118.42 378.59 117.75C377.52 117.41 376.42 117.07 375.33 116.63C371.48 115.08 367.15 111.4 367.57 106.13C367.8 103.38 369.32 101.22 370.61 99.64C374.56 94.85 379.54 91.42 384.36 88.1C386.17 86.85 388.04 85.56 389.8 84.24C399.19 77.16 407.01 67.83 414.5 58.58C414.23 57.77 413.99 57.09 413.78 56.6C411.22 50.53 401.81 38.59 401.81 38.59C403.56 36.49 405.07 28.23 403.33 24.88C402.54 23.38 397.63 19.3 394.5 17.57C391.36 15.84 384.39 16.21 380.32 18.81C376.26 21.41 376.26 26.49 372.77 26.74C369.29 26.99 353.72 28.23 350.59 29.22C347.45 30.21 340.02 40.99 339.09 42.1C338.16 43.22 336.65 45.08 329.68 45.2C322.71 45.33 309.12 44.09 307.72 45.2C306.33 46.32 306.56 47.8 305.98 56.6C305.4 65.4 312.72 75.31 315.74 77.17C318.76 79.03 327.53 80.7 328.98 82.31C330.43 83.93 331.88 87.77 332.87 89.32C333.86 90.86 334.79 90.8 332.23 93.78C329.68 96.75 325.03 100.22 322.24 104.43C319.45 108.65 316.67 110.88 313.18 112.61C309.7 114.35 295.52 116.58 286 117.32C283.04 117.55 279.45 118.64 275.88 120.14L264.3 84.03L276.67 79.51C279.16 78.61 279.73 75.12 277.67 73.38L263.59 61.4C262.7 60.64 261.52 60.43 260.44 60.82L236.01 69.73C234.26 70.37 233.33 72.39 233.93 74.26L238.84 89.57C239.44 91.42 241.34 92.42 243.08 91.78L251.34 88.77L263.57 126.92C261.3 128.55 259.78 130.02 259.51 130.95C258.76 133.54 265.83 148.15 272.26 154.03L275.88 165.32C276.32 166.68 277.72 167.41 278.99 166.94L287.34 163.9C288.61 163.43 289.29 161.95 288.85 160.58L287.45 156.21C292.52 155.82 296.92 155.24 296.92 155.24V155.28C306.2 153.05 313.71 152.41 321.61 151.77C327.49 151.29 333.57 150.79 340.68 149.57C346.94 148.49 354.13 143.78 362.05 135.56C363 134.57 364.52 134.59 365.44 135.61C366.37 136.62 366.35 138.24 365.4 139.23C356.76 148.2 348.7 153.38 341.44 154.63C334.14 155.88 327.96 156.39 321.98 156.88C313.92 157.53 306.28 158.18 296.77 160.58C295.1 185.94 280.39 226.28 280.39 226.28H310.05C315.07 214.87 315.66 205.88 316.13 198.62C316.28 196.3 316.42 194.11 316.71 192.16C317.05 189.75 318.73 181.73 325.57 179.84C332.47 177.93 339.19 185.37 341.78 189.56C342.79 191.21 343.77 192.91 344.71 194.55C345.96 196.74 347.27 199.01 348.65 201.13C349.23 202 350.07 203.16 351.05 204.49C354.92 209.77 360.66 217.61 363.26 226.32C365.09 226.12 370.81 223.95 384.43 207.94C398.06 191.94 408.32 172.37 414.28 153.65L403.05 151.11C400.7 150.58 398.05 149.98 395.73 148.31ZM350.47 51.65C348.67 51.65 347.22 50.09 347.22 48.18C347.22 46.27 348.67 44.71 350.47 44.71C352.27 44.71 353.72 46.26 353.72 48.18C353.72 50.1 352.27 51.65 350.47 51.65Z" fill="white"/>
<path d="M405.83 121.14C405.97 120.58 406.15 120.02 406.33 119.46C406.62 118.56 406.88 117.78 406.86 117.13C406.82 115.51 404.94 114.15 403.22 113.57C402.26 113.25 401.24 113.04 400.15 112.82C398.47 112.48 396.74 112.13 395.03 111.32C391.57 109.69 388.59 105.64 389.86 101.35C390.92 97.8 394.23 96.32 396.65 95.24C405.27 91.39 412.84 85.34 418.73 77.66C417.92 72.4 416.99 67.92 416.12 64.38C409.04 73.04 401.56 81.63 392.56 88.41C390.72 89.8 388.81 91.12 386.95 92.39C382.2 95.66 377.71 98.76 374.21 103.01C373.4 104 372.45 105.29 372.35 106.56C372.17 108.81 374.64 110.87 377.02 111.82C377.94 112.19 378.91 112.5 379.94 112.82C382.43 113.6 385 114.41 387.24 116.28C391.74 120.05 392.72 126.26 393.58 131.74C394.38 136.86 395.14 141.7 398.41 144.05C399.96 145.16 402.03 145.63 404.04 146.09L415.75 148.74C416.54 145.92 417.24 143.13 417.82 140.39C416.25 139.78 414.7 139.04 413.24 138.06C408.44 134.85 404.07 128.19 405.82 121.13L405.83 121.14Z" fill="white"/>
<path d="M347.26 207.65C346.24 206.26 345.36 205.06 344.71 204.07C343.24 201.83 341.9 199.49 340.6 197.23C339.68 195.63 338.73 193.97 337.75 192.38C335.43 188.62 330.49 183.78 326.76 184.81C322.76 185.92 321.67 191.32 321.44 192.95C321.19 194.69 321.06 196.68 320.91 198.98C320.47 205.83 319.87 215 315.31 226.29H325.46C325.98 224.66 326.14 222.31 326.29 220.01C326.63 214.75 327.02 208.78 331.91 206.75C333.65 206.03 335.46 206.07 337.14 206.89C339.88 208.22 341.75 211.39 342.53 213.7C343.73 217.29 344.24 219.74 344.73 222.11C345.01 223.46 345.28 224.78 345.68 226.28H358.16C355.61 219.04 350.66 212.29 347.26 207.64V207.65Z" fill="white"/>
<path d="M335.15 211.55C334.65 211.31 334.19 211.3 333.65 211.52C331.75 212.31 331.38 215.68 331.08 220.36C330.95 222.37 330.81 224.41 330.43 226.28H340.71C340.45 225.2 340.24 224.2 340.04 223.21C339.56 220.89 339.11 218.71 338.01 215.42C337.53 213.98 336.36 212.13 335.15 211.54V211.55Z" fill="white"/>
<path d="M520.81 69.78H522.49V76.4H503.06C502.88 72.69 502.44 68.54 501.91 64.03H498.47L495.2 76.4H474.09C473.65 75.25 473.21 73.75 473.03 71.37C472.32 63.69 480.54 40.81 482.92 33.48C486.45 22.88 486.63 17.58 485.92 15.19C483.98 10.69 483.01 7.76998 476.03 8.03998V1.32996H493.52C497.32 1.32996 509.86 26.06 516.22 63.69C516.75 66.34 516.93 69.61 520.81 69.78ZM487.86 69.78H491.66L494.4 59.45H501.2C498.9 44.61 494.75 28.53 489.98 22.35C487.51 31.36 482.3 51.23 487.86 69.78Z" fill="white"/>
<path d="M548.41 46.2001V66.07C548.41 68.37 549.29 70.22 553 70.22H554.32V76.4H529.23V70.22H530.56C534.27 70.22 535.15 68.37 535.15 66.07V28.79C535.15 12.71 543.89 1.14005 558.47 0.170054C569.6 -0.449946 580.64 9.09003 575.69 21.9C570.57 35.15 557.49 37.36 550.87 41.69C549.37 42.75 548.48 44.4301 548.4 46.2001H548.41ZM548.41 39.13C550.88 34.45 558.66 29.5901 561.48 23.1401C565.19 14.6601 563.6 4.24003 558.48 4.15003C551.59 3.97003 548.41 11.0401 548.41 20.1401V39.13Z" fill="white"/>
<path d="M605.08 6.63C603.67 6.81 602.17 7.07 600.75 7.25H600.84C600.22 7.34 596.51 8.21999 596.78 14.4C597.31 23.23 598.37 38.07 598.37 38.07H592.89C592.27 29.15 588.47 13.07 582.82 8.39001V2.20999H589.53C596.68 2.20999 604.28 0 611.7 0C619.12 0 626.72 2.20999 633.87 2.20999H640.58V8.39001C634.93 13.07 631.13 29.15 630.51 38.07H625.03C625.03 38.07 626.09 23.23 626.62 14.4C626.88 8.38999 623.26 7.42 622.47 7.25H622.56C621.15 7.07 619.73 6.81 618.32 6.63V66.61C618.32 68.82 619.38 70.23 622.91 70.23H624.23V76.41H599.14V70.23H600.47C604.36 70.23 605.06 68.82 605.06 66.79V6.64001L605.08 6.63Z" fill="white"/>
<path d="M653.27 12.02C653.09 9.89996 651.95 8.39996 648.06 8.39996H647.35V2.21997H694.17V8.39996C688.96 12.99 686.66 19.26 685.6 27.75H680.04L681.01 12.56C681.27 10.18 680.04 8.40997 677.04 8.40997H671.74C667.76 8.40997 666.62 9.90997 666.53 12.03V33.05C668.56 36.05 672.18 31.64 675.36 31.46C678.01 31.28 682.69 31.64 685.52 40.91C684.99 41.26 682.69 42.76 682.07 43.12C678.8 39.15 675.89 43.92 672.53 44.18C669.53 44.44 666.79 41.26 666.52 36.58V65.99C666.52 68.46 667.67 70.05 670.49 70.23H677.2C679.85 70.05 680.91 68.46 681 66.08L680.03 49.92H685.59C686.65 58.4 688.95 65.64 694.16 70.24V76.42H647.34V70.24H648.05C652.29 70.24 653.26 68.47 653.26 66.09V12.03L653.27 12.02Z" fill="white"/>
<path d="M754.36 70.23H756.04V76.41H730.6V70.23H732.1C735.28 70.23 735.72 67.67 735.54 65.2C733.51 49.04 728.92 29.87 723.53 22.8C721.06 31.81 715.85 51.68 721.41 70.23H726.18V76.41H700.92V70.23H702.78C706.75 70.23 706.75 67.23 707.28 64.67C709.22 54.6 714.61 39.67 716.47 33.93C720 23.33 720 18.12 719.3 15.73C717.36 11.22 716.56 8.12996 709.58 8.39996V2.21997H727.07C730.87 2.21997 743.41 26.51 749.77 64.14C750.3 66.79 750.65 70.23 754.36 70.23Z" fill="white"/>
<path d="M811.56 70.23H812.71V76.41H762.8V70.23H763.51C767.75 70.23 768.72 68.46 768.72 66.08V12.02C768.72 9.98996 767.4 8.39996 763.51 8.39996H762.8V2.21997H787.89V8.39996H786.57C782.86 8.39996 781.98 9.80996 781.98 12.02V16.7C782.16 23.41 787.37 30.66 791.34 34.63C795.4 38.69 807.5 48.5 810.33 57.07C811.48 60.6 811.12 63.43 809.89 65.73C808.83 67.59 808.83 70.24 811.57 70.24L811.56 70.23ZM781.97 27.74V70.23H789.3C792.74 68.2 797.6 64.75 796.37 56.72C794.51 45.5 784.89 40.91 781.97 27.75V27.74Z" fill="white"/>
<path d="M471.38 124.12C473.49 124.12 474.11 123.31 474.2 122.16V92.58C474.1 91.43 473.48 90.62 471.38 90.62H471V87.27H497.08V90.62H496.98C493.92 93.16 492.48 98.47 492.15 103.3H489.18L489.28 92.91C489.14 91.71 488.37 90.61 486.89 90.61H483.54C482.1 90.71 481.48 91.47 481.39 92.62V96.45C482.01 99.66 484.41 102.96 486.32 104.83C488.52 107.03 495.08 112.34 496.61 116.99C497.23 118.9 497.04 120.44 496.32 121.73C495.79 122.69 495.79 124.12 497.28 124.12H497.9V127.47H471V124.12H471.38ZM481.38 101.72V124.12H485.21C487.08 123.02 489.71 121.15 489.04 116.8C488.08 110.87 483.11 108.38 481.38 101.72Z" fill="white"/>
<path d="M513.8 87.5599C515.04 85.5999 518.01 85.7899 519.54 87.5599C523.51 91.7699 525.76 95.4999 527.34 99.2899C530.26 106.18 528.82 109.44 525.43 116.81C522.46 123.37 521.07 125.42 519.64 127.58C518.4 129.54 515.52 129.49 513.9 127.58C509.93 123.37 507.68 119.64 506.1 115.85C503.18 108.96 504.09 106.23 507.44 98.86C510.46 92.3 512.37 89.7199 513.81 87.5699L513.8 87.5599ZM519.3 122.11C520.35 120.53 522.89 115.03 523.56 113.11C524.76 109.86 519.59 98.0299 513.94 92.7699C512.89 94.2999 510.35 99.7599 509.82 101.43C508.86 104.73 513.65 116.79 519.3 122.11Z" fill="white"/>
<path d="M536.22 124.12C538.33 124.12 538.95 123.31 539.04 122.16V92.58C538.94 91.43 538.32 90.62 536.22 90.62H535.84V87.27H561.64V90.62C558.67 92.2 554.84 101.87 554.51 106.7H551.54C551.54 106.7 552.83 97.32 553.26 92.92C553.4 91.48 552.59 90.62 550.87 90.62H548.38C546.75 90.62 546.23 91.63 546.23 92.92V122.16C546.28 123.26 546.76 124.12 548.72 124.12H549.44V127.47H535.85V124.12H536.23H536.22Z" fill="white"/>
<path d="M574.86 87.5599C576.1 85.5999 579.07 85.7899 580.6 87.5599C584.57 91.7699 586.82 95.4999 588.4 99.2899C591.32 106.18 589.88 109.44 586.49 116.81C583.52 123.37 582.13 125.42 580.7 127.58C579.46 129.54 576.58 129.49 574.96 127.58C570.99 123.37 568.74 119.64 567.16 115.85C564.24 108.96 565.15 106.23 568.5 98.86C571.52 92.3 573.43 89.7199 574.87 87.5699L574.86 87.5599ZM580.36 122.11C581.41 120.53 583.95 115.03 584.62 113.11C585.82 109.86 580.65 98.0299 575 92.7699C573.95 94.2999 571.41 99.7599 570.88 101.43C569.92 104.73 574.71 116.79 580.36 122.11Z" fill="white"/>
<path d="M607.27 111.11V121.88C607.27 123.12 607.75 124.13 609.76 124.13H610.48V127.48H596.89V124.13H597.61C599.62 124.13 600.1 123.12 600.1 121.88V101.68C600.1 92.97 604.84 86.7 612.73 86.17C618.76 85.83 624.74 91 622.06 97.94C619.28 105.12 612.2 106.32 608.61 108.66C607.8 109.23 607.32 110.14 607.27 111.1V111.11ZM607.27 107.28C608.61 104.74 612.82 102.11 614.35 98.62C616.36 94.03 615.5 88.38 612.72 88.33C608.99 88.23 607.26 92.06 607.26 96.99V107.28H607.27Z" fill="white"/>
<path d="M636.97 87.5599C638.21 85.5999 641.18 85.7899 642.71 87.5599C646.68 91.7699 648.93 95.4999 650.51 99.2899C653.43 106.18 651.99 109.44 648.6 116.81C645.63 123.37 644.24 125.42 642.81 127.58C641.57 129.54 638.69 129.49 637.07 127.58C633.1 123.37 630.85 119.64 629.27 115.85C626.35 108.96 627.26 106.23 630.61 98.86C633.63 92.3 635.54 89.7199 636.98 87.5699L636.97 87.5599ZM642.47 122.11C643.52 120.53 646.06 115.03 646.73 113.11C647.93 109.86 642.76 98.0299 637.11 92.7699C636.06 94.2999 633.52 99.7599 632.99 101.43C632.03 104.73 636.82 116.79 642.47 122.11Z" fill="white"/>
<path d="M654.74 124.12H655.75C657.86 124.12 657.9 122.49 658.19 121.1C659.24 115.64 662.16 107.56 663.17 104.44C665.08 98.7 665.08 95.87 664.7 94.58C663.65 92.14 663.22 90.46 659.44 90.61V87.26H668.92C670.98 87.26 677.77 100.42 681.22 120.81C681.51 122.25 681.6 124.02 683.71 124.11H684.62V127.46C681.56 130 680.03 138.71 679.69 143.54H676.72C676.72 143.54 677.39 134.16 677.63 129.76C677.73 128.42 676.96 127.46 675.24 127.46H663.9C662.42 127.46 661.7 128.42 661.75 129.71C661.99 134.3 662.66 143.54 662.66 143.54H659.69C659.35 138.71 657.82 130 654.76 127.46V124.11L654.74 124.12ZM665.84 124.12H671.87C673.45 124.12 673.64 122.49 673.5 121.44C672.4 112.68 669.96 102.25 666.99 98.42C665.65 103.3 662.83 114.07 665.84 124.12Z" fill="white"/>
<path d="M707.21 87.27C706.4 92.77 706.11 99.09 706.11 104.55H703.14C703.14 103.5 702.85 101.2 702.42 99.33C701.03 93.06 698.88 88.08 695.15 88.23C693.47 88.28 691.75 89.38 691.42 92.35C690.99 96.18 694.48 103.02 697.98 109.2C701.9 116.09 703.05 119.54 702.81 123.46C702.67 126.24 700.9 129.06 699.51 130.59C699.03 130.25 698.41 129.73 697.79 129.25C699.85 126.28 695.68 120.54 691.95 114.41C687.79 107.66 684.77 101.3 685.92 95.65C687.55 87.85 691.33 86.22 695.73 86.08C698.51 85.98 699.89 87.61 700.8 87.95C702.09 88.52 702.67 87.28 702.67 87.28H707.22L707.21 87.27Z" fill="white"/>
<path d="M714.6 90.62V87.27H727.81V90.62H727.38C725.66 90.62 724.99 91.53 724.99 92.92V100.05C728.1 93.83 732.7 88.13 740.02 85.84V89.48H740.07C738.11 91.49 737.72 100.3 737.53 105.08H734.56C734.56 102.26 734.32 98.62 733.41 95.7C732.74 94.31 732.12 94.12 730.92 95.46C730.2 96.47 729.44 97.52 728.77 98.76C728.43 99.43 727.72 100.63 728.34 101.92C731.4 108.05 737.43 112.31 739.92 121.45C740.35 122.89 740.93 124.13 742.22 124.13H743.03V127.48H730.54V124.13H732.07C734.61 118.72 728.77 109.39 726.61 103.17C726.08 104.32 725.51 105.56 724.98 106.86V121.84C724.98 123.23 725.65 124.14 727.37 124.14H727.8V127.49H714.59V124.14H714.97C717.27 124.14 717.79 123.18 717.79 121.89V92.6C717.79 91.45 717.07 90.64 714.97 90.64H714.59L714.6 90.62Z" fill="white"/>
<path d="M779.85 87.27V90.62H779.13C777.26 90.62 776.69 91.53 776.64 92.58V121.87C776.64 123.11 777.26 124.12 779.13 124.12H779.85V127.47H766.26V124.12H766.98C768.99 124.12 769.47 123.11 769.47 121.87V107.32C769.47 104.88 769.23 104.21 768.13 105.36C765.16 108.95 760.57 115.08 756.6 129.96H753.63V92.58C753.63 91.43 752.91 90.62 750.81 90.62H750.43V87.27H763.59V90.62H762.97C761.44 90.62 760.82 91.63 760.82 92.92V107.9C760.87 110.25 761.2 111.11 761.97 109.96C764.55 105.56 769.63 99.19 769.63 92.68C769.53 91.44 768.86 90.62 767.24 90.62H766.67V87.27H779.88H779.85Z" fill="white"/>
<path d="M802.65 97.13C805.47 105.03 808.63 115.65 811.22 121.11C812.18 122.83 812.75 124.13 814.19 124.13H815.48V127.48H806.63C804.43 125.42 801.65 115.9 798.73 107.24C797.63 110.97 796.91 114.66 796.82 117.58C796.72 121.03 796.87 124.14 798.88 124.14H799.74V127.49H786.77V124.14H787.87C788.83 124.14 789.88 123.33 790.98 120.74C793.47 115.04 795.67 109.73 797.68 104.28C796.05 99.59 794.38 95.47 792.85 93.42C791.22 91.31 790.74 90.64 788.3 90.64V87.29H797.63C798.73 87.63 800.17 90.54 801.7 94.61C804.48 89.54 808.3 85.85 814.67 85.85V89.44C811.61 91.98 810.65 96.57 810.31 101.4H807.34V93.79C807.34 91.35 805.76 92.02 805.04 93.07C804.23 94.27 803.41 95.61 802.65 97.14V97.13Z" fill="white"/>
<path d="M495.52 310.05C495.52 308.26 495.46 306.4 492.65 306.22C491.81 306.16 491.04 306.1 490.26 306.1C489.42 306.1 488.58 306.16 487.81 306.22C485 306.46 484.7 308.25 484.7 309.93V347.02C484.7 348.4 485.6 349.41 487.39 349.47H488.23V353.66H471.72V349.47H472.2C474.83 349.47 475.73 348.39 475.73 347.02V310.05C475.73 308.55 474.83 307.6 472.2 307.6H471.72V303.41H475.73C480.57 303.41 485.24 302.03 490.26 302.03C494.81 302.03 499.95 303.41 504.5 303.41H508.51V307.6H508.03C505.34 307.6 504.5 308.56 504.5 310.05V347.02C504.5 348.4 505.34 349.47 508.03 349.47H508.51V353.66H492V349.47H492.54C494.69 349.47 495.53 348.33 495.53 346.6V310.05H495.52Z" fill="white"/>
<path d="M527.53 303.77C529.09 301.32 532.79 301.56 534.71 303.77C539.67 309.03 542.49 313.7 544.46 318.42C548.11 327.03 546.31 331.1 542.07 340.31C538.36 348.5 536.63 351.08 534.83 353.77C533.27 356.22 529.69 356.16 527.65 353.77C522.69 348.51 519.87 343.84 517.9 339.12C514.25 330.51 515.39 327.1 519.58 317.89C523.35 309.7 525.74 306.47 527.54 303.77H527.53ZM534.41 346.96C535.73 344.99 538.9 338.11 539.73 335.71C541.23 331.64 534.77 316.87 527.71 310.29C526.39 312.2 523.22 319.02 522.57 321.12C521.37 325.25 527.36 340.32 534.41 346.96Z" fill="white"/>
<path d="M575.25 349.47H576.51C579.14 349.47 579.2 347.44 579.56 345.7C580.88 338.88 584.52 328.77 585.78 324.88C588.17 317.7 588.17 314.17 587.69 312.56C586.37 309.51 585.84 307.42 581.11 307.59V303.4H592.95C595.52 303.4 604.02 319.85 608.32 345.33C608.68 347.12 608.8 349.34 611.43 349.46H612.57V353.65C608.74 356.82 606.83 367.71 606.41 373.75H602.7C602.7 373.75 603.54 362.03 603.84 356.52C603.96 354.84 603 353.65 600.85 353.65H586.67C584.82 353.65 583.92 354.85 583.98 356.46C584.28 362.2 585.12 373.75 585.12 373.75H581.41C580.99 367.71 579.08 356.82 575.25 353.65V349.46V349.47ZM589.13 349.47H596.67C598.64 349.47 598.88 347.44 598.7 346.12C597.32 335.17 594.27 322.14 590.57 317.35C588.9 323.45 585.37 336.91 589.13 349.47Z" fill="white"/>
<path d="M621.67 310.05C621.55 308.61 620.77 307.6 618.14 307.6H617.66V303.41H649.36V307.6C645.83 310.71 644.28 314.96 643.56 320.7H639.79L640.45 310.41C640.63 308.79 639.79 307.6 637.76 307.6H634.17C631.48 307.6 630.7 308.62 630.64 310.05V324.29C632.02 326.32 634.47 323.33 636.62 323.21C638.41 323.09 641.58 323.33 643.5 329.61C643.14 329.85 641.59 330.87 641.17 331.11C638.96 328.42 636.98 331.65 634.71 331.83C632.68 332.01 630.82 329.86 630.64 326.69V346.61C630.64 348.29 631.42 349.36 633.33 349.48H637.88C639.67 349.36 640.39 348.28 640.45 346.67L639.79 335.72H643.56C644.28 341.46 645.83 346.37 649.36 349.48V353.67H617.66V349.48H618.14C621.01 349.48 621.67 348.28 621.67 346.67V310.06V310.05Z" fill="white"/>
<path d="M670.12 333.2V346.66C670.12 348.22 670.72 349.47 673.23 349.47H674.13V353.66H657.14V349.47H658.04C660.55 349.47 661.15 348.21 661.15 346.66V321.42C661.15 310.53 667.07 302.7 676.94 302.04C684.48 301.62 691.95 308.08 688.6 316.75C685.13 325.72 676.28 327.22 671.79 330.15C670.77 330.87 670.17 332 670.11 333.2H670.12ZM670.12 328.41C671.8 325.24 677.06 321.95 678.97 317.58C681.48 311.84 680.41 304.78 676.94 304.72C672.27 304.6 670.12 309.39 670.12 315.55V328.41Z" fill="white"/>
<path d="M701.22 310.05C701.1 308.61 700.32 307.6 697.69 307.6H697.21V303.41H728.91V307.6C725.38 310.71 723.83 314.96 723.11 320.7H719.34L720 310.41C720.18 308.79 719.34 307.6 717.31 307.6H713.72C711.03 307.6 710.25 308.62 710.19 310.05V324.29C711.57 326.32 714.02 323.33 716.17 323.21C717.96 323.09 721.13 323.33 723.05 329.61C722.69 329.85 721.14 330.87 720.72 331.11C718.51 328.42 716.53 331.65 714.26 331.83C712.23 332.01 710.37 329.86 710.19 326.69V346.61C710.19 348.29 710.97 349.36 712.88 349.48H717.43C719.22 349.36 719.94 348.28 720 346.67L719.34 335.72H723.11C723.83 341.46 725.38 346.37 728.91 349.48V353.67H697.21V349.48H697.69C700.56 349.48 701.22 348.28 701.22 346.67V310.06V310.05Z" fill="white"/>
<path d="M769.24 349.47H770.32V353.66H736.7V349.47H737.6C740.11 349.47 740.71 348.21 740.71 346.66V321.72C740.71 310.83 746.51 302.82 756.38 302.28C763.98 301.92 769.12 307.07 766.55 314.3C764.64 319.5 759.61 321.06 755.24 322.26C754.1 322.68 753.51 323.88 754.7 325.13C758.41 328.48 766.96 335.36 768.7 340.56C769.48 342.95 769.24 344.87 768.4 346.42C767.68 347.62 767.68 349.47 769.24 349.47ZM749.68 321.3C758.47 318.37 761.1 304.97 756.44 305.03C752.01 305.09 749.68 309.7 749.68 315.86V321.3ZM749.8 324.11C749.74 323.99 749.68 323.87 749.68 323.93V349.47H754.47C756.8 348.09 760.09 345.76 759.26 340.32C758.3 334.22 752.92 330.15 749.81 324.11H749.8Z" fill="white"/>
<path d="M814.76 303.41V307.6H813.62C813.26 307.6 811.53 307.9 811.23 310.17C809.56 321.53 804.41 336.25 800.88 346.84C801.6 347.74 802.38 348.46 803.27 349.11L803.45 351.74C802.91 351.74 801.54 351.2 799.8 350.3C798.07 356.88 799.38 360.47 800.76 357.36L805.01 358.68C804.41 359.4 802.02 367.11 801.54 375.49C800.94 375.43 799.15 375.25 798.31 375.19C796.52 370.4 794.24 363.83 796.22 354.32C796.58 352.41 797 350.67 797.36 349C794.85 347.62 792.04 345.83 789.88 344.16C786.65 324.48 784.98 314.97 780.91 309.35C779.83 308.03 778.52 307.62 777.8 307.62H776.9V303.43H788.8C793.23 307.74 795.44 318.68 796.64 330.88C797.18 336.26 797.84 340.03 798.79 342.72C800.7 334.59 801.96 330.52 802.86 324C803.46 318.98 802.74 313.71 801.48 309.64C800.76 307.96 799.27 307.61 798.49 307.61H797.65V303.42H814.76V303.41Z" fill="white"/>
<path d="M491.25 256.05V274.17C491.25 276.26 492.06 277.96 495.44 277.96H496.65V283.6H473.77V277.96H474.98C478.36 277.96 479.17 276.27 479.17 274.17V240.18C479.17 225.52 487.14 214.97 500.44 214.08C510.59 213.52 520.66 222.22 516.15 233.9C511.48 245.98 499.56 248 493.52 251.94C492.15 252.91 491.35 254.44 491.26 256.05H491.25ZM491.25 249.61C493.51 245.34 500.59 240.91 503.17 235.03C506.55 227.3 505.1 217.79 500.43 217.71C494.15 217.55 491.25 223.99 491.25 232.29V249.61Z" fill="white"/>
<path d="M533.45 224.88C533.29 222.95 532.24 221.58 528.7 221.58H528.06V215.94H570.75V221.58C566 225.77 563.9 231.49 562.94 239.22H557.87L558.76 225.36C559 223.19 557.87 221.57 555.14 221.57H550.31C546.68 221.57 545.64 222.94 545.56 224.87V244.04C547.41 246.78 550.72 242.75 553.62 242.59C556.04 242.43 560.31 242.75 562.88 251.21C562.4 251.53 560.3 252.9 559.74 253.22C556.76 249.59 554.1 253.94 551.04 254.19C548.3 254.43 545.8 251.53 545.56 247.26V274.08C545.56 276.34 546.61 277.79 549.18 277.95H555.3C557.72 277.79 558.68 276.34 558.76 274.16L557.87 259.42H562.94C563.91 267.15 566 273.76 570.75 277.95V283.59H528.06V277.95H528.7C532.57 277.95 533.45 276.34 533.45 274.16V224.86V224.88Z" fill="white"/>
<path d="M589.27 236.88C589.27 238.41 589.03 241.15 589.19 242.44H584.28C584.52 233.66 584.6 223.11 582.67 215.29H591.77C591.77 215.29 590.8 217.46 593.54 216.82C595.23 216.34 596.84 214.32 605.94 214.32C610.69 214.32 620.36 218.43 617.06 228.42C615.21 233.98 611.5 237.68 607.64 240.74C613.6 242.83 620.21 247.99 620.37 256.13C620.53 265.15 614.25 272.32 606.35 278.28C595.48 286.42 585.41 293.5 587.74 297.93L584.03 299.38C581.86 296.56 580.89 291.81 582.18 287.14C583.95 282.79 586.61 278.12 598.13 268.29C606.19 261.44 608.92 258.22 609.81 251.78C610.13 248.64 607.8 244.53 604.33 243.16C597.72 247.75 591.84 251.05 594.18 257.74C593.46 257.98 590.64 259.35 590.07 259.59C587.81 256.29 588.78 251.05 591.52 247.19C594.34 243.16 601.43 238.09 603.92 231.16C604.56 229.39 605.53 226.65 605.53 223.91C605.53 221.01 604.48 218.19 601.58 218.11C595.54 217.95 589.26 229.31 589.26 236.88H589.27Z" fill="white"/>
<path d="M676.5 277.96H677.55V283.6H632.04V277.96H632.68C636.55 277.96 637.43 276.35 637.43 274.17V224.87C637.43 223.02 636.22 221.57 632.68 221.57H632.04V215.93H654.92V221.57H653.71C650.33 221.57 649.52 222.86 649.52 224.87V229.14C649.68 235.26 654.43 241.87 658.06 245.49C661.77 249.2 672.8 258.14 675.38 265.95C676.43 269.17 676.1 271.75 674.98 273.84C674.01 275.53 674.01 277.95 676.51 277.95L676.5 277.96ZM649.52 239.21V277.96H656.21C659.35 276.11 663.78 272.97 662.65 265.64C660.96 255.41 652.18 251.22 649.52 239.22V239.21Z" fill="white"/>
<path d="M688.98 277.96C692.52 277.96 693.57 276.59 693.73 274.66V224.88C693.57 222.95 692.52 221.58 688.98 221.58H688.34V215.94H732.24V221.58H732.08C726.92 225.85 724.51 234.79 723.94 242.93H718.95L719.11 225.45C718.87 223.44 717.58 221.58 715.08 221.58H709.44C707.02 221.74 705.98 223.03 705.82 224.96V231.4C706.87 236.8 710.89 242.35 714.12 245.5C717.83 249.21 728.86 258.15 731.44 265.96C732.49 269.18 732.16 271.76 730.96 273.93C730.07 275.54 730.07 277.96 732.57 277.96H733.62V283.6H688.35V277.96H688.99H688.98ZM705.82 240.26V277.96H712.26C715.4 276.11 719.83 272.97 718.7 265.64C717.09 255.65 708.71 251.46 705.81 240.27L705.82 240.26Z" fill="white"/>
<path d="M745.04 277.96C748.58 277.96 749.79 276.51 749.79 274.66V225.36C749.79 223.19 748.9 221.57 745.04 221.57H744.4V215.93H767.28V221.57H766.64C763.01 221.57 761.89 222.86 761.89 224.87V231.07C762.61 236.63 766 242.35 769.3 245.57C773.01 249.28 784.04 258.22 786.62 266.03C787.67 269.25 787.34 271.83 786.22 273.92C785.25 275.61 785.25 277.95 787.75 277.95H787.83V283.59H744.41V277.95H745.05L745.04 277.96ZM761.88 241.79V277.96H767.6C770.66 276.11 775.01 272.89 773.88 265.72C772.35 256.13 764.37 252.03 761.88 241.8V241.79ZM807.31 274.65C807.39 276.58 808.44 277.95 812.06 277.95H812.7V283.59H791.19V277.95H791.59C794.17 277.95 795.21 276.34 795.21 274.08V224.86C795.21 223.01 794 221.56 790.46 221.56H789.9V215.92H812.7V221.56H812.06C808.19 221.56 807.31 223.17 807.31 225.35V274.65Z" fill="white"/>
<path d="M482.24 170.13C484.63 162.95 484.63 159.42 484.15 157.81C482.83 154.76 482.42 152.85 477.57 152.85V148.66H489.41C492.16 148.66 497.66 162.66 498.14 164.27C498.62 162.42 502.51 156.97 502.51 156.97C502.51 156.97 502.57 154.76 501.73 153.8C501.01 152.78 499.22 152.84 499.22 152.84V148.65H516.15V152.84C513.82 152.84 512.44 152.9 511.84 156.55C510.88 163.43 518.54 188.91 518.78 190.94C519.38 192.91 519.32 194.71 522.07 194.71H523.09V198.9H505.09V194.71H508.14C510.89 190.58 503.65 171.8 503.35 160.68C502.75 161.22 499.64 165.94 499.22 168.87V201.71H495.75C495.75 190.76 492.04 168.99 487.02 162.59C485.34 168.69 481.82 182.15 485.58 194.71H488.81V198.9H471.7V194.71H472.78C475.59 194.71 475.53 192.86 476.01 190.94C477.33 184.12 480.97 174.01 482.23 170.12L482.24 170.13Z" fill="white"/>
<path d="M565.56 194.63H566.7V199.12H553.54C553.42 196.61 553.12 193.8 552.76 190.75H550.43L548.22 199.12H533.92C533.62 198.34 533.32 197.33 533.2 195.71C532.72 190.51 538.28 175.01 539.9 170.05C542.29 162.87 542.41 159.28 541.93 157.67C540.61 154.62 539.96 152.65 535.23 152.82V148.27H547.07C549.64 148.27 558.14 165.02 562.44 190.5C562.8 192.29 562.92 194.51 565.55 194.63H565.56ZM543.25 194.63H545.82L547.67 187.63H552.28C550.72 177.58 547.91 166.7 544.68 162.51C543.01 168.61 539.48 182.07 543.24 194.63H543.25Z" fill="white"/>
<path d="M599.76 148.87C598.74 155.75 598.38 163.64 598.38 170.46H594.67C594.67 169.14 594.31 166.27 593.77 163.94C592.04 156.1 589.34 149.88 584.68 150.06C582.59 150.12 580.43 151.5 580.01 155.2C579.47 159.99 583.84 168.54 588.2 176.25C593.11 184.86 594.54 189.17 594.24 194.07C594.06 197.54 591.85 201.07 590.11 202.98C589.51 202.56 588.73 201.9 587.96 201.3C590.53 197.59 585.33 190.41 580.66 182.76C575.46 174.33 571.69 166.37 573.12 159.31C575.15 149.56 579.88 147.53 585.38 147.35C588.85 147.23 590.58 149.26 591.72 149.68C593.34 150.4 594.05 148.84 594.05 148.84H599.73L599.76 148.87Z" fill="white"/>
<path d="M624.28 151.86C623.32 151.98 622.31 152.16 621.35 152.28H621.41C620.99 152.34 618.48 152.94 618.66 157.13C619.02 163.11 619.74 173.16 619.74 173.16H616.03C615.61 167.12 613.04 156.23 609.21 153.06V148.87H613.76C618.6 148.87 623.75 147.37 628.77 147.37C633.79 147.37 638.94 148.87 643.78 148.87H648.33V153.06C644.5 156.23 641.93 167.12 641.51 173.16H637.8C637.8 173.16 638.52 163.11 638.88 157.13C639.06 153.06 636.61 152.4 636.07 152.28H636.13C635.17 152.16 634.22 151.98 633.26 151.86V192.47C633.26 193.97 633.98 194.92 636.37 194.92H637.27V199.11H620.28V194.92H621.18C623.81 194.92 624.29 193.96 624.29 192.59V151.86H624.28Z" fill="white"/>
<path d="M662.37 155.51C662.25 154.07 661.47 153.06 658.84 153.06H658.36V148.87H690.06V153.06C686.53 156.17 684.98 160.42 684.26 166.16H680.49L681.15 155.87C681.33 154.25 680.49 153.06 678.46 153.06H674.87C672.18 153.06 671.4 154.08 671.34 155.51V169.75C672.72 171.78 675.17 168.79 677.32 168.67C679.11 168.55 682.28 168.79 684.2 175.07C683.84 175.31 682.29 176.33 681.87 176.57C679.66 173.88 677.68 177.11 675.41 177.29C673.38 177.47 671.52 175.32 671.34 172.15V192.07C671.34 193.75 672.12 194.82 674.03 194.94H678.58C680.37 194.82 681.09 193.74 681.15 192.13L680.49 181.18H684.26C684.98 186.92 686.53 191.83 690.06 194.94V199.13H658.36V194.94H658.84C661.71 194.94 662.37 193.74 662.37 192.13V155.52V155.51Z" fill="white"/>
<path d="M713.69 178.66V192.12C713.69 193.68 714.29 194.93 716.8 194.93H717.7V199.12H700.71V194.93H701.61C704.12 194.93 704.72 193.67 704.72 192.12V166.88C704.72 155.99 710.64 148.16 720.51 147.5C728.05 147.08 735.52 153.54 732.17 162.21C728.7 171.18 719.85 172.68 715.36 175.61C714.34 176.33 713.74 177.46 713.68 178.66H713.69ZM713.69 173.87C715.37 170.7 720.63 167.41 722.54 163.04C725.05 157.3 723.98 150.24 720.51 150.18C715.84 150.06 713.69 154.85 713.69 161.01V173.87Z" fill="white"/>
<path d="M752.2 149.23C753.76 146.78 757.46 147.02 759.38 149.23C764.34 154.49 767.16 159.16 769.13 163.88C772.78 172.49 770.98 176.56 766.74 185.77C763.03 193.96 761.3 196.54 759.5 199.23C757.94 201.68 754.36 201.62 752.32 199.23C747.36 193.97 744.54 189.3 742.57 184.58C738.92 175.97 740.06 172.56 744.25 163.35C748.02 155.16 750.41 151.93 752.21 149.23H752.2ZM759.08 192.42C760.4 190.45 763.57 183.57 764.4 181.18C765.9 177.11 759.44 162.34 752.38 155.76C751.06 157.67 747.89 164.49 747.24 166.59C746.04 170.72 752.03 185.79 759.08 192.43V192.42Z" fill="white"/>
<path d="M813.68 194.93H814.76V199.12H781.14V194.93H782.04C784.55 194.93 785.15 193.67 785.15 192.12V167.18C785.15 156.29 790.95 148.28 800.82 147.74C808.42 147.38 813.56 152.53 810.99 159.76C809.08 164.96 804.05 166.52 799.69 167.72C798.55 168.14 797.96 169.34 799.15 170.59C802.86 173.94 811.41 180.82 813.15 186.02C813.93 188.41 813.69 190.33 812.85 191.88C812.13 193.08 812.13 194.93 813.69 194.93H813.68ZM794.12 166.76C802.91 163.83 805.54 150.43 800.88 150.49C796.45 150.55 794.12 155.16 794.12 161.32V166.76ZM794.24 169.57C794.18 169.45 794.12 169.33 794.12 169.39V194.93H798.91C801.24 193.55 804.53 191.22 803.7 185.78C802.74 179.68 797.36 175.61 794.25 169.57H794.24Z" fill="white"/>
</g>
<defs>
<clipPath id="clip0_69_20">
<rect width="815" height="370" fill="white"/>
</clipPath>
</defs>
</svg>
