<svg width="37" height="37" viewBox="0 0 37 37" fill="none" xmlns="http://www.w3.org/2000/svg">
<g clip-path="url(#clip0_9_5710)">
<rect x="3.96739" y="8.79346" width="29.0652" height="19.413" rx="0.75" stroke="white" stroke-width="1.5"/>
<path d="M12.5152 23.1217C12.8466 22.8731 12.9137 22.403 12.6652 22.0717C12.4167 21.7403 11.9466 21.6731 11.6152 21.9217L12.5152 23.1217ZM25.3508 21.8976C25.0062 21.6679 24.5405 21.761 24.3107 22.1056C24.081 22.4503 24.1741 22.9159 24.5187 23.1457L25.3508 21.8976ZM4.82608 9.6521C4.27321 10.1589 4.27332 10.159 4.27345 10.1592C4.27354 10.1592 4.27371 10.1594 4.27389 10.1596C4.27425 10.16 4.27474 10.1606 4.27537 10.1612C4.27663 10.1626 4.27842 10.1646 4.28074 10.1671C4.28538 10.1721 4.29214 10.1794 4.30096 10.189C4.31861 10.2081 4.34453 10.236 4.37833 10.2722C4.44593 10.3447 4.54506 10.4502 4.67258 10.5841C4.92758 10.8518 5.29633 11.2333 5.75363 11.6906C6.6674 12.6044 7.93869 13.8249 9.36516 15.0476C10.7886 16.2677 12.3828 17.504 13.9416 18.4392C15.475 19.3593 17.0804 20.0543 18.5 20.0543V18.5543C17.5065 18.5543 16.1962 18.0427 14.7133 17.153C13.2557 16.2785 11.7331 15.1017 10.3413 13.9087C8.9526 12.7184 7.7103 11.5259 6.81429 10.6299C6.3667 10.1823 6.00651 9.80971 5.75879 9.5496C5.63495 9.41957 5.53928 9.31772 5.47492 9.24876C5.44273 9.21428 5.41838 9.18803 5.40226 9.17059C5.39419 9.16187 5.38819 9.15535 5.38429 9.15111C5.38233 9.14899 5.38091 9.14744 5.38002 9.14647C5.37957 9.14599 5.37926 9.14565 5.37908 9.14545C5.37899 9.14535 5.37896 9.14532 5.37891 9.14527C5.37891 9.14527 5.37895 9.14531 4.82608 9.6521ZM18.5 20.0543C20.0516 20.0543 21.7221 19.3703 23.2967 18.4422C24.8881 17.5042 26.468 16.2643 27.8584 15.0413C29.2515 13.8158 30.4707 12.5926 31.3408 11.6769C31.7763 11.2186 32.1254 10.8362 32.3663 10.5676C32.4867 10.4333 32.5802 10.3274 32.644 10.2546C32.6758 10.2182 32.7003 10.19 32.717 10.1708C32.7253 10.1611 32.7317 10.1537 32.7361 10.1486C32.7384 10.146 32.7401 10.144 32.7413 10.1426C32.7419 10.1419 32.7424 10.1413 32.7427 10.1409C32.7429 10.1407 32.7431 10.1405 32.7432 10.1404C32.7433 10.1402 32.7434 10.1401 32.1739 9.6521C31.6044 9.16408 31.6044 9.16403 31.6045 9.16401C31.6044 9.16405 31.6044 9.16407 31.6043 9.16416C31.6042 9.16433 31.6039 9.16465 31.6035 9.16511C31.6027 9.16604 31.6014 9.16755 31.5996 9.16962C31.5961 9.17377 31.5905 9.18019 31.583 9.18882C31.5681 9.20608 31.5454 9.23215 31.5154 9.26643C31.4554 9.33502 31.3659 9.43646 31.2496 9.56607C31.0171 9.82535 30.6778 10.197 30.2534 10.6436C29.4038 11.5377 28.2176 12.7275 26.8676 13.9151C25.5148 15.1051 24.014 16.2783 22.535 17.15C21.0392 18.0317 19.6498 18.5543 18.5 18.5543V20.0543ZM6.08043 27.9478L12.5152 23.1217L11.6152 21.9217L5.18043 26.7478L6.08043 27.9478ZM24.5187 23.1457L31.7579 27.9718L32.5899 26.7237L25.3508 21.8976L24.5187 23.1457Z" fill="white"/>
</g>
<defs>
<clipPath id="clip0_9_5710">
<rect width="30.5652" height="30.5652" fill="white" transform="translate(3.21739 3.21729)"/>
</clipPath>
</defs>
</svg>
